<svg xmlns="http://www.w3.org/2000/svg" xmlns:xlink="http://www.w3.org/1999/xlink" width="285" height="283.297" viewBox="0 0 285 283.297">
  <defs>
    <clipPath id="clip-path">
      <path id="Trazado_82633" data-name="Trazado 82633" d="M72.392,190.69c-1.042-.291-2.16-.727-3.392-1.153a11.087,11.087,0,0,0-5.981-.441c-2.338.5-4.758,1.739-6.991.885-2.573-.986-3.464-4.211-5.629-5.916-1.015-.8-2.271-1.229-3.338-1.956A7.242,7.242,0,0,1,44,177.146c-.261-1.968.3-3.963.16-5.943-.2-2.809-1.79-5.293-2.936-7.866a26.673,26.673,0,0,1-.461-20.343c1.194-3.042,2.946-5.846,4.074-8.913,1.711-4.648,1.916-9.64,2.465-14.512a41.5,41.5,0,0,1,4.143-14.078c1.356-2.757,4.64-5.481,6.686-7.816a36.466,36.466,0,0,0,6.106-8.7A21,21,0,0,0,60,65.972c-1.616-1.6-3.5-2.931-4.949-4.68s-2.232-3.241-1.809-5.473c.8-4.22,9.217-14.971,12.767-8,1.894,3.717,3.741,7.458,5.642,11.172,1.629,3.179,2.957,6.508,4.7,9.631.759,1.364,2.643,7.433,4.568,4.823,1.045-1.417,1.481-5.05,3.224-10.262,1.308-3.916,4.372-20.314,9.925-20.168A14.249,14.249,0,0,1,104.814,51.3c1.773,4.077-6.721,12.755-8.962,19.035S91.861,83.349,93.07,89.9c1.373,7.458,5.981,13.148,10.054,19.546s8.346,12.754,11.03,19.846,3.663,15.133,1.006,22.237c-.744,1.99-1.759,3.871-2.487,5.865a36.616,36.616,0,0,0-1.808,10.321c-.2,3.171,1.271,7.34-1.6,9.607-2.715,2.142-6.842,1.656-9.031,4.632-1.716,2.334-2.282,4.322-5.5,4.9-3.524.636-5.5-1.119-7.7-3.392a3.662,3.662,0,0,0-5.708.7c-.91,1.281-1.386,2.831-2.309,4.1C76.862,191.236,74.83,191.366,72.392,190.69Z" transform="translate(-38.967 -43.011)" fill="none"/>
    </clipPath>
  </defs>
  <g id="Grupo_36331" data-name="Grupo 36331" transform="translate(-880 -8980)">
    <g id="Grupo_33871" data-name="Grupo 33871" transform="translate(936.033 9064.148)">
      <g id="Grupo_33842" data-name="Grupo 33842" transform="translate(62.302 31.018)">
        <path id="Trazado_82616" data-name="Trazado 82616" d="M90.348,49.858c-3.787-1.873-8.163-4.305-9.678-8.412-2.129-5.762-.243-10.777-1.891-13.588-.81-1.381-3.367,1.792-5.054,2.452-3.8,1.49-1.931,5.977-3.011,8.859-1.363,3.633-5.063,7.069-8.149,9.27-2.423,1.729-6.4,4.407-5.485,7.936,1.037,4,2.367,7.036,3.715,10.943C63.327,74.66,66.286,82.557,72.853,86.7a4.642,4.642,0,0,0,2.46.889c1.757-.019,3-1.674,3.9-3.184C85.284,74.237,89,61.628,90.348,49.858Z" transform="translate(-56.946 -27.514)" fill="#15579f"/>
      </g>
      <g id="Grupo_33843" data-name="Grupo 33843" transform="translate(71.94 15.751)">
        <path id="Trazado_82617" data-name="Trazado 82617" d="M67.071,17.965c-4.679,4.153-2.743,15.893,1.747,19.536a7,7,0,0,0,7.657.931c6.042-3.475,8.155-15.875,2.667-20.593A9.549,9.549,0,0,0,67.071,17.965Z" transform="translate(-64.371 -15.751)" fill="#15579f"/>
      </g>
      <g id="Grupo_33844" data-name="Grupo 33844" transform="translate(92.375 84.9)">
        <path id="Trazado_82618" data-name="Trazado 82618" d="M91.849,86.99a14.7,14.7,0,0,0,12.973-11.282,4.589,4.589,0,0,0-.078-2.752,4.408,4.408,0,0,0-1.319-1.589,9.93,9.93,0,0,0-5.767-2.331,6.961,6.961,0,0,0-7.2,4.682c-.317.828-4.118,7.7-6.186,8.634-1.227.556-4.627-.1-4.1,2.236.213.946,1.281,1.394,2.218,1.641A28.6,28.6,0,0,0,91.849,86.99Z" transform="translate(-80.114 -69.026)" fill="#db900b"/>
      </g>
      <g id="Grupo_33845" data-name="Grupo 33845" transform="translate(88.921 80.251)">
        <path id="Trazado_82619" data-name="Trazado 82619" d="M77.455,83.535c-.045-1.341.633-2.75.633-4.064,0-2.757-.55-5.634.549-8.267,1.208-2.892,3.568-5.7,6.7-5.759,1.8-.031,6.592.762,6.59,6.559a17.675,17.675,0,0,1-1.507,6.2c-2.924,6.026-6.49,7.313-7.956,7.692-1.794.462-3.908.784-4.783-1.285A2.97,2.97,0,0,1,77.455,83.535Z" transform="translate(-77.453 -65.444)" fill="#ea9c1f"/>
      </g>
      <g id="Grupo_33846" data-name="Grupo 33846" transform="translate(89.643 102.139)">
        <path id="Trazado_82620" data-name="Trazado 82620" d="M87.285,82.581c7.184.2,13.263,2.85,14.484,10.673.51,3.262-.783,6.474,1.591,9.352,1.221,1.48,2.709,1.639,4.346,2.309,2.316.949,5.982,2.565,6.644,5.3.568,2.345,1.208,1.6,2.746,2.759.449.339,2.445,4.464,1.263,4.492a1.455,1.455,0,0,1-1.149-.646c-1.634-1.772-3.033-2.256-5.1-3.4-2.295-1.266-4.608-2.752-7.332-2.7-1.386.027-2.769.261-4.155.195-9.087-.44-8.023-11.968-12.558-17.265-2.057-2.4-5.165-3.585-7.749-5.409-1.355-.955-2.7-2.505-2.194-4.085.591-1.839,2.837-1.963,4.444-1.794C84.1,82.524,85.7,82.534,87.285,82.581Z" transform="translate(-78.01 -82.308)" fill="#c67f0c"/>
      </g>
      <g id="Grupo_33847" data-name="Grupo 33847" transform="translate(38.967 51.134)">
        <path id="Trazado_82621" data-name="Trazado 82621" d="M72.392,190.69c-1.042-.291-2.16-.727-3.392-1.153a11.087,11.087,0,0,0-5.981-.441c-2.338.5-4.758,1.739-6.991.885-2.573-.986-3.464-4.211-5.629-5.916-1.015-.8-2.271-1.229-3.338-1.956A7.242,7.242,0,0,1,44,177.146c-.261-1.968.3-3.963.16-5.943-.2-2.809-1.79-5.293-2.936-7.866a26.673,26.673,0,0,1-.461-20.343c1.194-3.042,2.946-5.846,4.074-8.913,1.711-4.648,1.916-9.64,2.465-14.512a41.5,41.5,0,0,1,4.143-14.078c1.356-2.757,4.64-5.481,6.686-7.816a36.466,36.466,0,0,0,6.106-8.7A21,21,0,0,0,60,65.972c-1.616-1.6-3.5-2.931-4.949-4.68s-2.232-3.241-1.809-5.473c.8-4.22,9.217-14.971,12.767-8,1.894,3.717,3.741,7.458,5.642,11.172,1.629,3.179,2.957,6.508,4.7,9.631.759,1.364,2.643,7.433,4.568,4.823,1.045-1.417,1.481-5.05,3.224-10.262,1.308-3.916,4.372-20.314,9.925-20.168A14.249,14.249,0,0,1,104.814,51.3c1.773,4.077-6.721,12.755-8.962,19.035S91.861,83.349,93.07,89.9c1.373,7.458,5.981,13.148,10.054,19.546s8.346,12.754,11.03,19.846,3.663,15.133,1.006,22.237c-.744,1.99-1.759,3.871-2.487,5.865a36.616,36.616,0,0,0-1.808,10.321c-.2,3.171,1.271,7.34-1.6,9.607-2.715,2.142-6.842,1.656-9.031,4.632-1.716,2.334-2.282,4.322-5.5,4.9-3.524.636-5.5-1.119-7.7-3.392a3.662,3.662,0,0,0-5.708.7c-.91,1.281-1.386,2.831-2.309,4.1C76.862,191.236,74.83,191.366,72.392,190.69Z" transform="translate(-38.967 -43.011)" fill="#ffc74a"/>
      </g>
      <g id="Grupo_33848" data-name="Grupo 33848" transform="translate(61.912 94.423)">
        <path id="Trazado_82622" data-name="Trazado 82622" d="M88.527,79.248c.65,2,1.413,3.741,1.363,4.745-.082,1.66-2.053,2.27-3.511,2.8-6.668,2.447-14.307,1.913-21.185.618-2.484-.467-10.367-1.994-8.164-6.614.858-1.8.918-3.346,2.147-4.189,1.4-.964,2.349,1.128,4.478,1.8,8.3,2.609,13.649,4.026,20.682,1.815C85.8,79.766,87.961,77.517,88.527,79.248Z" transform="translate(-56.645 -76.364)" fill="#db900b"/>
      </g>
      <g id="Grupo_33850" data-name="Grupo 33850" transform="translate(104.314 89.5)">
        <g id="Grupo_33849" data-name="Grupo 33849">
          <path id="Trazado_82623" data-name="Trazado 82623" d="M90.6,80.288c2.221-1.337,4.948-2.759,6.072-5.262a1.668,1.668,0,0,0-2.606-2.012c-1.911,1.556-2.8,4.16-4.513,5.916A.868.868,0,0,0,90.6,80.288Z" transform="translate(-89.313 -72.57)" fill="#ea9c1f"/>
        </g>
      </g>
      <g id="Grupo_33852" data-name="Grupo 33852" transform="translate(88.192 58.253)">
        <g id="Grupo_33851" data-name="Grupo 33851">
          <path id="Trazado_82624" data-name="Trazado 82624" d="M78.926,60.406a16.476,16.476,0,0,1,2.3-5.063c.854-1.446,2.4-2.965,2.692-4.634a1.81,1.81,0,0,0-2.626-2.018c-1.756.763-2.554,3.061-3.2,4.731-.8,2.081-.84,4.264-1.19,6.427-.213,1.311,1.765,1.892,2.018.557Z" transform="translate(-76.892 -48.497)" fill="#ea9c1f"/>
        </g>
      </g>
      <g id="Grupo_33854" data-name="Grupo 33854" transform="translate(79.157 18.832)">
        <g id="Grupo_33853" data-name="Grupo 33853">
          <path id="Trazado_82625" data-name="Trazado 82625" d="M76.843,30.134a13.174,13.174,0,0,0,.31-6.443c-.38-2.138-2.049-5.2-4.422-5.534a2.274,2.274,0,0,0-1.744,4.134A7.541,7.541,0,0,1,73.108,25.4a15.4,15.4,0,0,1,1.482,4.433,1.152,1.152,0,0,0,2.252.305Z" transform="translate(-69.931 -18.125)" fill="#444"/>
        </g>
      </g>
      <g id="Grupo_33856" data-name="Grupo 33856" transform="translate(81.911 49.809)">
        <g id="Grupo_33855" data-name="Grupo 33855">
          <path id="Trazado_82626" data-name="Trazado 82626" d="M72.053,43.277a2.575,2.575,0,0,0,.478,1.542A2.662,2.662,0,0,0,74.513,45.9a1.289,1.289,0,0,0,1.138-.652,1.352,1.352,0,0,0-.206-1.6c-.066-.079-.388-.459-.108-.091a2.96,2.96,0,0,0-.457-.558,6.052,6.052,0,0,1-.642-.635,1.29,1.29,0,0,0-2.184.9Z" transform="translate(-72.053 -41.99)" fill="#444"/>
        </g>
      </g>
      <g id="Grupo_33858" data-name="Grupo 33858" transform="translate(78.06 52.359)">
        <g id="Grupo_33857" data-name="Grupo 33857">
          <path id="Trazado_82627" data-name="Trazado 82627" d="M69.129,44.59a1.685,1.685,0,0,0,.025.858.82.82,0,0,0,.77.587.4.4,0,0,0,.056,0l-.339-.092a1.062,1.062,0,0,0,.809.069.5.5,0,0,0,.121-.911c.093.069,0,0-.014-.021.055.077.067.09.036.038.04.108.052.128.036.066q-.088.327-.173.654l-.13.091a.8.8,0,0,0,.395-.723c-.009-.148-.044.217-.01.064.008-.029.017-.056.026-.083-.057.131-.066.154-.027.073a.881.881,0,0,0-.31-1.182.872.872,0,0,0-.666-.087.847.847,0,0,0-.6.6Z" transform="translate(-69.086 -43.955)" fill="#444"/>
        </g>
      </g>
      <g id="Grupo_33870" data-name="Grupo 33870" transform="translate(38.967 51.134)">
        <g id="Grupo_33869" data-name="Grupo 33869" clip-path="url(#clip-path)">
          <g id="Grupo_33860" data-name="Grupo 33860" transform="translate(6.52 65.7)">
            <g id="Grupo_33859" data-name="Grupo 33859">
              <path id="Trazado_82628" data-name="Trazado 82628" d="M61.51,94.576a27.877,27.877,0,0,0-2.535,4.88c-.925,1.877-1.878,3.739-2.889,5.572-2.039,3.7-3.994,7.426-5.725,11.279a72.642,72.642,0,0,0-6.276,25.98,44.65,44.65,0,0,0,.971,13.057c.912,3.7,2.637,7.148,4.1,10.645,1.432,3.425,2.384,6.33,1.467,9.848-.928,3.563-2.683,6.844-3.5,10.449a4.238,4.238,0,0,0,8.172,2.253c.816-3.6,2.489-6.91,3.5-10.45a19.213,19.213,0,0,0-.619-12.185c-1.317-3.585-3.076-6.99-4.323-10.6a32.853,32.853,0,0,1-1.4-11.709,69.025,69.025,0,0,1,5.651-24.7c1.6-3.893,3.453-7.668,4.863-11.643,1.325-3.729,3.033-8.2,2.248-12.188-.38-1.929-2.757-1.721-3.706-.484Z" transform="translate(-43.991 -93.629)" fill="#ea9c1f"/>
            </g>
          </g>
          <g id="Grupo_33862" data-name="Grupo 33862" transform="translate(22.098 82.815)">
            <g id="Grupo_33861" data-name="Grupo 33861">
              <path id="Trazado_82629" data-name="Trazado 82629" d="M61.721,107.178c-3.571,4.108-4.438,9.614-4.944,14.855a139.122,139.122,0,0,0-.711,18.6c.271,7.1,2.344,13.764,3.547,20.708a54.469,54.469,0,0,1,.784,10.4c-.034,1.655-.093,3.3-.261,4.945-.083.811-.222,1.608-.279,2.421a23.543,23.543,0,0,0,.292,2.954,2.746,2.746,0,0,0,5.078,1.376,11.347,11.347,0,0,0,2.087-4.542,39.386,39.386,0,0,0,.411-5.287,52.262,52.262,0,0,0-1.172-10.272c-1.258-6.825-4-13.268-4.873-20.169-.784-6.17-.544-12.412-.544-18.617,0-5.146-.153-11.353,2.358-16.008.589-1.093-.9-2.373-1.774-1.369Z" transform="translate(-55.992 -106.815)" fill="#ea9c1f"/>
            </g>
          </g>
          <g id="Grupo_33864" data-name="Grupo 33864" transform="translate(34.797 65.331)">
            <g id="Grupo_33863" data-name="Grupo 33863">
              <path id="Trazado_82630" data-name="Trazado 82630" d="M65.853,96.307c2.467,9.587,9.328,17.412,10.53,27.465,1.114,9.313-1.136,18.467-2.532,27.611-1.085,7.1-1.733,14.266-.445,21.388a22.637,22.637,0,0,0,3.626,8.984,18.864,18.864,0,0,0,4.028,4.139,9.142,9.142,0,0,0,5.841,1.751c2.811.053,4.562-3.745,2.362-5.7A46.069,46.069,0,0,0,85.63,178.8c.75.543-.182-.2-.27-.279-.269-.245-.517-.511-.764-.777-.087-.093-.822-1.027-.251-.265-.218-.291-.413-.6-.609-.9a16.491,16.491,0,0,1-1.036-1.943c.4.861-.093-.269-.135-.378-.132-.358-.245-.722-.358-1.085-.232-.744-.406-1.5-.567-2.264-.082-.388-.148-.781-.214-1.172-.219-1.3.09.849-.066-.474a51.07,51.07,0,0,1-.031-9.97,81.212,81.212,0,0,1,1.123-8.577c1.707-10.251,3.706-20.425,1.678-30.789-1.856-9.487-7.616-19.067-14.359-25.9a2.359,2.359,0,0,0-3.917,2.279Z" transform="translate(-65.776 -93.345)" fill="#ea9c1f"/>
            </g>
          </g>
          <g id="Grupo_33866" data-name="Grupo 33866" transform="translate(55.771 110.213)">
            <g id="Grupo_33865" data-name="Grupo 33865">
              <path id="Trazado_82631" data-name="Trazado 82631" d="M85.8,128.447c-4.705,5.773-3.877,14.694-3.7,21.671A30.047,30.047,0,0,0,85,162.274a20.388,20.388,0,0,0,3.6,5.158c1.325,1.426,3.464,3.4,5.542,3.264a2.063,2.063,0,0,0,2.011-2.011c.132-1.661-1.19-3.512-2.088-4.828-1.021-1.5-1.964-3.067-2.867-4.641a24.9,24.9,0,0,1-2.841-9.483c-.741-6.241-2.134-13.578.4-19.573.68-1.612-1.864-3.04-2.944-1.713Z" transform="translate(-81.935 -127.924)" fill="#ea9c1f"/>
            </g>
          </g>
          <g id="Grupo_33868" data-name="Grupo 33868" transform="translate(60.386 80.314)">
            <g id="Grupo_33867" data-name="Grupo 33867">
              <path id="Trazado_82632" data-name="Trazado 82632" d="M85.732,107.2a42.309,42.309,0,0,1,6.315,15.158c1.158,5.514.948,11.269.618,16.859-.371,6.261-1,12.59-.371,18.857A34.96,34.96,0,0,0,94.17,167.2a44.186,44.186,0,0,0,2.113,4.641c.848,1.613,2.053,2.349,3.3,3.581a1.339,1.339,0,0,0,2.269-.938c-.108-1.489.247-2.8-.064-4.3s-.537-2.993-.707-4.513c-.347-3.128-.761-6.231-1-9.373-.48-6.268-.079-12.571-.128-18.849a56.094,56.094,0,0,0-2.728-17.079,42.321,42.321,0,0,0-9.09-15.03c-1.159-1.282-3.376.409-2.4,1.852Z" transform="translate(-85.491 -104.889)" fill="#ea9c1f"/>
            </g>
          </g>
        </g>
      </g>
    </g>
    <g id="Grupo_36328" data-name="Grupo 36328">
      <g id="Rectángulo_31608" data-name="Rectángulo 31608" transform="translate(880 8980)" fill="#fff" stroke="#d268cc" stroke-width="3">
        <rect width="285" height="90" rx="15" stroke="none"/>
        <rect x="1.5" y="1.5" width="282" height="87" rx="13.5" fill="none"/>
      </g>
      <path id="Trazado_85181" data-name="Trazado 85181" d="M11.1,10.945,8.49,3.34,5.713,10.945ZM7.271.785H9.908L16.154,18H13.6l-1.746-5.156H5.045L3.182,18H.791ZM17.994,5.449h2V7.23a5.621,5.621,0,0,1,1.887-1.582,5.031,5.031,0,0,1,2.215-.48,3.652,3.652,0,0,1,3.609,1.863,6.616,6.616,0,0,1,.516,2.918V18H26.08V10.09a4.283,4.283,0,0,0-.34-1.852A2.06,2.06,0,0,0,23.7,7.066a4.152,4.152,0,0,0-1.23.152A3.169,3.169,0,0,0,20.947,8.25a3.1,3.1,0,0,0-.686,1.283,8.637,8.637,0,0,0-.158,1.893V18H17.994ZM32.959,14.66a1.737,1.737,0,0,0,.668,1.441,2.477,2.477,0,0,0,1.582.527,4.81,4.81,0,0,0,2.156-.516,2.9,2.9,0,0,0,1.758-2.8v-1.7a3.609,3.609,0,0,1-1,.41,8.488,8.488,0,0,1-1.2.234l-1.277.164a4.885,4.885,0,0,0-1.723.48A1.872,1.872,0,0,0,32.959,14.66Zm5.109-4.266a1.146,1.146,0,0,0,.973-.609,1.854,1.854,0,0,0,.141-.809,1.713,1.713,0,0,0-.768-1.564,4.118,4.118,0,0,0-2.2-.486,2.792,2.792,0,0,0-2.344.891,2.93,2.93,0,0,0-.5,1.465H31.4a3.624,3.624,0,0,1,1.506-3.229,6.183,6.183,0,0,1,3.357-.908,6.831,6.831,0,0,1,3.6.844,2.862,2.862,0,0,1,1.371,2.625v7.23a.926.926,0,0,0,.135.527.65.65,0,0,0,.568.2q.141,0,.316-.018t.375-.053v1.559a5.875,5.875,0,0,1-.75.176,5.481,5.481,0,0,1-.7.035,1.735,1.735,0,0,1-1.582-.773,2.985,2.985,0,0,1-.363-1.16A5.367,5.367,0,0,1,37.377,17.8a5.727,5.727,0,0,1-2.66.621,3.956,3.956,0,0,1-2.854-1.061,3.523,3.523,0,0,1-1.107-2.654A3.419,3.419,0,0,1,31.846,12a5.185,5.185,0,0,1,2.859-1.184ZM44.748.785h2.109V18H44.748Zm5.273,4.723h2.145V18H50.021Zm0-4.723h2.145V3.176H50.021Zm4.395,15.551,7.441-9H54.967V5.449h9.727V7.172L57.3,16.113h7.617V18h-10.5ZM68.971,14.66a1.737,1.737,0,0,0,.668,1.441,2.477,2.477,0,0,0,1.582.527,4.81,4.81,0,0,0,2.156-.516,2.9,2.9,0,0,0,1.758-2.8v-1.7a3.609,3.609,0,0,1-1,.41,8.488,8.488,0,0,1-1.2.234l-1.277.164a4.885,4.885,0,0,0-1.723.48A1.872,1.872,0,0,0,68.971,14.66Zm5.109-4.266a1.146,1.146,0,0,0,.973-.609,1.854,1.854,0,0,0,.141-.809,1.713,1.713,0,0,0-.768-1.564,4.118,4.118,0,0,0-2.2-.486,2.792,2.792,0,0,0-2.344.891,2.93,2.93,0,0,0-.5,1.465H67.412a3.624,3.624,0,0,1,1.506-3.229,6.183,6.183,0,0,1,3.357-.908,6.831,6.831,0,0,1,3.6.844,2.862,2.862,0,0,1,1.371,2.625v7.23a.926.926,0,0,0,.135.527.65.65,0,0,0,.568.2q.141,0,.316-.018t.375-.053v1.559a5.875,5.875,0,0,1-.75.176,5.481,5.481,0,0,1-.7.035A1.735,1.735,0,0,1,75.6,17.5a2.985,2.985,0,0,1-.363-1.16A5.367,5.367,0,0,1,73.389,17.8a5.727,5.727,0,0,1-2.66.621,3.956,3.956,0,0,1-2.854-1.061,3.523,3.523,0,0,1-1.107-2.654A3.419,3.419,0,0,1,67.857,12a5.185,5.185,0,0,1,2.859-1.184Zm6.68-4.945h2V7.617a4.79,4.79,0,0,1,1.207-1.541,3.13,3.13,0,0,1,2.215-.908q.059,0,.2.012t.48.047V7.453a3.151,3.151,0,0,0-.346-.047q-.158-.012-.346-.012A3.01,3.01,0,0,0,83.725,8.42a3.579,3.579,0,0,0-.855,2.361V18H80.76Zm19.828-.281a5.725,5.725,0,0,1,2.59.627,4.776,4.776,0,0,1,1.91,1.623,5.6,5.6,0,0,1,.844,2.215,14.491,14.491,0,0,1,.188,2.766h-9.2a5.368,5.368,0,0,0,.9,3.064,3.021,3.021,0,0,0,2.613,1.154,3.378,3.378,0,0,0,2.637-1.09,3.674,3.674,0,0,0,.8-1.465h2.074A4.369,4.369,0,0,1,105.4,15.6a5.481,5.481,0,0,1-1.037,1.389,4.916,4.916,0,0,1-2.379,1.266,7.227,7.227,0,0,1-1.723.188,5.286,5.286,0,0,1-3.973-1.705,6.634,6.634,0,0,1-1.629-4.775A7.214,7.214,0,0,1,96.3,7.055,5.412,5.412,0,0,1,100.588,5.168Zm3.363,5.555a5.465,5.465,0,0,0-.6-2.191,3.063,3.063,0,0,0-2.895-1.523,3.209,3.209,0,0,0-2.437,1.049,3.962,3.962,0,0,0-1.043,2.666Zm11.426-5.215h2.145V18h-2.145Zm0-4.723h2.145V3.176h-2.145Zm5.332,4.664h2V7.23A5.621,5.621,0,0,1,124.6,5.648a5.031,5.031,0,0,1,2.215-.48,3.652,3.652,0,0,1,3.609,1.863,6.616,6.616,0,0,1,.516,2.918V18h-2.145V10.09a4.283,4.283,0,0,0-.34-1.852,2.06,2.06,0,0,0-2.039-1.172,4.152,4.152,0,0,0-1.23.152,3.169,3.169,0,0,0-1.523,1.031,3.1,3.1,0,0,0-.686,1.283,8.637,8.637,0,0,0-.158,1.893V18h-2.109Zm13.77-3.5h2.133v3.5h2V7.172h-2v8.191a.886.886,0,0,0,.445.879,1.893,1.893,0,0,0,.82.129q.152,0,.328-.006t.41-.029V18a4.709,4.709,0,0,1-.756.152,7.186,7.186,0,0,1-.85.047,2.29,2.29,0,0,1-2-.756,3.359,3.359,0,0,1-.527-1.963V7.172h-1.7V5.449h1.7Zm11.473,3.223a5.725,5.725,0,0,1,2.59.627,4.776,4.776,0,0,1,1.91,1.623,5.6,5.6,0,0,1,.844,2.215,14.491,14.491,0,0,1,.188,2.766h-9.2a5.368,5.368,0,0,0,.9,3.064,3.021,3.021,0,0,0,2.613,1.154,3.378,3.378,0,0,0,2.637-1.09,3.674,3.674,0,0,0,.8-1.465h2.074a4.369,4.369,0,0,1-.545,1.541,5.481,5.481,0,0,1-1.037,1.389,4.916,4.916,0,0,1-2.379,1.266,7.227,7.227,0,0,1-1.723.188,5.286,5.286,0,0,1-3.973-1.705,6.634,6.634,0,0,1-1.629-4.775,7.214,7.214,0,0,1,1.641-4.91A5.412,5.412,0,0,1,145.951,5.168Zm3.363,5.555a5.465,5.465,0,0,0-.6-2.191,3.063,3.063,0,0,0-2.895-1.523,3.209,3.209,0,0,0-2.437,1.049,3.962,3.962,0,0,0-1.043,2.666Zm4.816-5.273h2V7.617a4.79,4.79,0,0,1,1.207-1.541,3.13,3.13,0,0,1,2.215-.908q.059,0,.2.012t.48.047V7.453a3.151,3.151,0,0,0-.346-.047q-.158-.012-.346-.012A3.01,3.01,0,0,0,157.1,8.42a3.579,3.579,0,0,0-.855,2.361V18h-2.109Zm13.23,11.133a3.009,3.009,0,0,0,2.455-1.236,5.883,5.883,0,0,0,.979-3.7,6.9,6.9,0,0,0-.434-2.578,3.177,3.177,0,0,0-6,.117,8.685,8.685,0,0,0-.434,2.977,6.31,6.31,0,0,0,.434,2.473A2.991,2.991,0,0,0,167.361,16.582ZM161.9,5.508h2.051V7.172a5.12,5.12,0,0,1,1.383-1.324,4.451,4.451,0,0,1,2.508-.7,4.716,4.716,0,0,1,3.621,1.635,6.7,6.7,0,0,1,1.488,4.67q0,4.1-2.145,5.859a4.845,4.845,0,0,1-3.164,1.113,4.3,4.3,0,0,1-2.379-.621,5.481,5.481,0,0,1-1.254-1.207V23H161.9Zm13.57-.059h2V7.617a4.79,4.79,0,0,1,1.207-1.541,3.13,3.13,0,0,1,2.215-.908q.059,0,.2.012t.48.047V7.453a3.151,3.151,0,0,0-.346-.047q-.158-.012-.346-.012a3.01,3.01,0,0,0-2.449,1.025,3.579,3.579,0,0,0-.855,2.361V18h-2.109Zm13.16-.281a5.725,5.725,0,0,1,2.59.627,4.776,4.776,0,0,1,1.91,1.623,5.6,5.6,0,0,1,.844,2.215,14.491,14.491,0,0,1,.188,2.766h-9.2a5.368,5.368,0,0,0,.9,3.064,3.021,3.021,0,0,0,2.613,1.154,3.378,3.378,0,0,0,2.637-1.09,3.674,3.674,0,0,0,.8-1.465h2.074a4.369,4.369,0,0,1-.545,1.541,5.481,5.481,0,0,1-1.037,1.389,4.916,4.916,0,0,1-2.379,1.266,7.227,7.227,0,0,1-1.723.188,5.286,5.286,0,0,1-3.973-1.705,6.634,6.634,0,0,1-1.629-4.775,7.214,7.214,0,0,1,1.641-4.91A5.412,5.412,0,0,1,188.631,5.168Zm3.363,5.555a5.465,5.465,0,0,0-.6-2.191A3.063,3.063,0,0,0,188.5,7.008a3.209,3.209,0,0,0-2.437,1.049,3.962,3.962,0,0,0-1.043,2.666Zm5.18-8.777h2.133v3.5h2V7.172h-2v8.191a.886.886,0,0,0,.445.879,1.893,1.893,0,0,0,.82.129q.152,0,.328-.006t.41-.029V18a4.709,4.709,0,0,1-.756.152,7.186,7.186,0,0,1-.85.047,2.29,2.29,0,0,1-2-.756,3.359,3.359,0,0,1-.527-1.963V7.172h-1.7V5.449h1.7Zm7.863,12.715a1.737,1.737,0,0,0,.668,1.441,2.477,2.477,0,0,0,1.582.527,4.81,4.81,0,0,0,2.156-.516,2.9,2.9,0,0,0,1.758-2.8v-1.7a3.609,3.609,0,0,1-1,.41,8.488,8.488,0,0,1-1.2.234l-1.277.164a4.885,4.885,0,0,0-1.723.48A1.872,1.872,0,0,0,205.037,14.66Zm5.109-4.266a1.146,1.146,0,0,0,.973-.609,1.854,1.854,0,0,0,.141-.809,1.713,1.713,0,0,0-.768-1.564,4.118,4.118,0,0,0-2.2-.486,2.792,2.792,0,0,0-2.344.891,2.93,2.93,0,0,0-.5,1.465h-1.969a3.624,3.624,0,0,1,1.506-3.229,6.183,6.183,0,0,1,3.357-.908,6.831,6.831,0,0,1,3.6.844,2.862,2.862,0,0,1,1.371,2.625v7.23a.926.926,0,0,0,.135.527.65.65,0,0,0,.568.2q.141,0,.316-.018t.375-.053v1.559a5.875,5.875,0,0,1-.75.176,5.481,5.481,0,0,1-.7.035,1.735,1.735,0,0,1-1.582-.773,2.985,2.985,0,0,1-.363-1.16,5.367,5.367,0,0,1-1.852,1.465,5.727,5.727,0,0,1-2.66.621,3.956,3.956,0,0,1-2.854-1.061,3.523,3.523,0,0,1-1.107-2.654A3.419,3.419,0,0,1,203.924,12a5.185,5.185,0,0,1,2.859-1.184Zm6.68-4.945h2V7.617a4.79,4.79,0,0,1,1.207-1.541,3.13,3.13,0,0,1,2.215-.908q.059,0,.2.012t.48.047V7.453a3.151,3.151,0,0,0-.346-.047q-.158-.012-.346-.012a3.01,3.01,0,0,0-2.449,1.025,3.579,3.579,0,0,0-.855,2.361V18h-2.109Zm19.828-.281a5.725,5.725,0,0,1,2.59.627,4.776,4.776,0,0,1,1.91,1.623A5.6,5.6,0,0,1,242,9.633a14.491,14.491,0,0,1,.188,2.766h-9.2a5.368,5.368,0,0,0,.9,3.064,3.021,3.021,0,0,0,2.613,1.154,3.378,3.378,0,0,0,2.637-1.09,3.674,3.674,0,0,0,.8-1.465h2.074a4.369,4.369,0,0,1-.545,1.541,5.481,5.481,0,0,1-1.037,1.389,4.916,4.916,0,0,1-2.379,1.266,7.227,7.227,0,0,1-1.723.188,5.286,5.286,0,0,1-3.973-1.705,6.634,6.634,0,0,1-1.629-4.775,7.214,7.214,0,0,1,1.641-4.91A5.412,5.412,0,0,1,236.654,5.168Zm3.363,5.555a5.465,5.465,0,0,0-.6-2.191,3.063,3.063,0,0,0-2.895-1.523,3.209,3.209,0,0,0-2.437,1.049,3.962,3.962,0,0,0-1.043,2.666ZM244.834.785h2.109V18h-2.109ZM35.314,35.871a6.221,6.221,0,0,0,.855,3.375,3,3,0,0,0,2.742,1.359,2.888,2.888,0,0,0,2.408-1.26,5.949,5.949,0,0,0,.943-3.615,5.346,5.346,0,0,0-.973-3.521,3.034,3.034,0,0,0-2.4-1.143A3.171,3.171,0,0,0,36.3,32.285,5.582,5.582,0,0,0,35.314,35.871Zm3.176-6.645a4.465,4.465,0,0,1,2.414.609,5.671,5.671,0,0,1,1.277,1.23v-6.34h2.027V42h-1.9V40.254a4.564,4.564,0,0,1-1.746,1.676,5,5,0,0,1-2.309.516,4.675,4.675,0,0,1-3.633-1.764,6.9,6.9,0,0,1-1.535-4.693,8.1,8.1,0,0,1,1.4-4.752A4.585,4.585,0,0,1,38.49,29.227Zm8.836.281h2.145V42H47.326Zm0-4.723h2.145v2.391H47.326Zm6.586,13.277a3.068,3.068,0,0,0,.527,1.617,3.314,3.314,0,0,0,2.766,1.02,4.079,4.079,0,0,0,2.063-.51,1.693,1.693,0,0,0,.891-1.576,1.348,1.348,0,0,0-.715-1.23,8.5,8.5,0,0,0-1.8-.6l-1.676-.422a8.175,8.175,0,0,1-2.367-.891,2.662,2.662,0,0,1-1.359-2.367,3.617,3.617,0,0,1,1.283-2.883,5.119,5.119,0,0,1,3.451-1.1,4.791,4.791,0,0,1,4.09,1.664,3.611,3.611,0,0,1,.762,2.273H59.83a2.44,2.44,0,0,0-.5-1.3,3.214,3.214,0,0,0-2.52-.832A3.012,3.012,0,0,0,55,31.383a1.432,1.432,0,0,0-.615,1.207,1.486,1.486,0,0,0,.809,1.313,4.859,4.859,0,0,0,1.383.516l1.395.34a10.782,10.782,0,0,1,3.047,1.066,2.824,2.824,0,0,1,1.23,2.543,3.875,3.875,0,0,1-1.271,2.895A5.413,5.413,0,0,1,57.1,42.48q-2.8,0-3.967-1.271a4.809,4.809,0,0,1-1.248-3.146Zm15.973-8.895a5.725,5.725,0,0,1,2.59.627,4.776,4.776,0,0,1,1.91,1.623,5.6,5.6,0,0,1,.844,2.215,14.491,14.491,0,0,1,.188,2.766h-9.2a5.368,5.368,0,0,0,.9,3.064,3.021,3.021,0,0,0,2.613,1.154,3.378,3.378,0,0,0,2.637-1.09,3.674,3.674,0,0,0,.8-1.465H75.24A4.369,4.369,0,0,1,74.7,39.6a5.481,5.481,0,0,1-1.037,1.389,4.916,4.916,0,0,1-2.379,1.266,7.227,7.227,0,0,1-1.723.188,5.286,5.286,0,0,1-3.973-1.705,6.634,6.634,0,0,1-1.629-4.775,7.214,7.214,0,0,1,1.641-4.91A5.412,5.412,0,0,1,69.885,29.168Zm3.363,5.555a5.465,5.465,0,0,0-.6-2.191,3.063,3.063,0,0,0-2.895-1.523,3.209,3.209,0,0,0-2.437,1.049,3.962,3.962,0,0,0-1.043,2.666Zm4.758-5.273h2V31.23A5.621,5.621,0,0,1,81.9,29.648a5.031,5.031,0,0,1,2.215-.48,3.652,3.652,0,0,1,3.609,1.863,6.616,6.616,0,0,1,.516,2.918V42H86.092V34.09a4.283,4.283,0,0,0-.34-1.852,2.06,2.06,0,0,0-2.039-1.172,4.152,4.152,0,0,0-1.23.152,3.169,3.169,0,0,0-1.523,1.031,3.1,3.1,0,0,0-.686,1.283,8.637,8.637,0,0,0-.158,1.893V42H78.006Zm6.2-3.891a5.887,5.887,0,0,0,.6.223,1.881,1.881,0,0,0,.551.082,1.054,1.054,0,0,0,.938-.41,1.561,1.561,0,0,0,.211-.668h1.23a3.235,3.235,0,0,1-.943,2.051,2.382,2.382,0,0,1-1.529.563A2.983,2.983,0,0,1,84.6,27.3a5.444,5.444,0,0,1-.7-.211l-.621-.223q-.551-.2-.9-.3a2.428,2.428,0,0,0-.674-.1.9.9,0,0,0-.674.27,1.511,1.511,0,0,0-.357.82H79.529a4.292,4.292,0,0,1,.5-1.512,2.182,2.182,0,0,1,1.98-1.078,3.807,3.807,0,0,1,.885.117A8.77,8.77,0,0,1,84.205,25.559ZM96.334,40.641a2.909,2.909,0,0,0,2.877-1.588,7.911,7.911,0,0,0,.779-3.533,6.291,6.291,0,0,0-.562-2.859,3.164,3.164,0,0,0-3.07-1.734A3.028,3.028,0,0,0,93.545,32.4a6.844,6.844,0,0,0-.879,3.563,5.953,5.953,0,0,0,.879,3.34A3.1,3.1,0,0,0,96.334,40.641Zm.082-11.555a5.683,5.683,0,0,1,4.1,1.617,6.315,6.315,0,0,1,1.676,4.758,8.163,8.163,0,0,1-1.477,5.016,5.341,5.341,0,0,1-4.582,1.98,5.173,5.173,0,0,1-4.113-1.752A6.92,6.92,0,0,1,90.5,36,7.487,7.487,0,0,1,92.1,30.961,5.388,5.388,0,0,1,96.416,29.086Zm20.25,11.5a3.009,3.009,0,0,0,2.455-1.236,5.883,5.883,0,0,0,.979-3.7,6.9,6.9,0,0,0-.434-2.578,3.177,3.177,0,0,0-6,.117,8.685,8.685,0,0,0-.434,2.977,6.31,6.31,0,0,0,.434,2.473A2.991,2.991,0,0,0,116.666,40.582Zm-5.461-11.074h2.051v1.664a5.12,5.12,0,0,1,1.383-1.324,4.451,4.451,0,0,1,2.508-.7,4.716,4.716,0,0,1,3.621,1.635,6.7,6.7,0,0,1,1.488,4.67q0,4.1-2.145,5.859a4.845,4.845,0,0,1-3.164,1.113,4.3,4.3,0,0,1-2.379-.621,5.481,5.481,0,0,1-1.254-1.207V47h-2.109Zm13.57-.059h2v2.168a4.79,4.79,0,0,1,1.207-1.541,3.13,3.13,0,0,1,2.215-.908q.059,0,.2.012t.48.047v2.227a3.151,3.151,0,0,0-.346-.047q-.158-.012-.346-.012a3.01,3.01,0,0,0-2.449,1.025,3.579,3.579,0,0,0-.855,2.361V42h-2.109Zm12.914,11.191a2.909,2.909,0,0,0,2.877-1.588,7.911,7.911,0,0,0,.779-3.533,6.291,6.291,0,0,0-.562-2.859,3.164,3.164,0,0,0-3.07-1.734A3.028,3.028,0,0,0,134.9,32.4a6.844,6.844,0,0,0-.879,3.563,5.953,5.953,0,0,0,.879,3.34A3.1,3.1,0,0,0,137.689,40.641Zm.082-11.555a5.683,5.683,0,0,1,4.1,1.617,6.315,6.315,0,0,1,1.676,4.758,8.163,8.163,0,0,1-1.477,5.016,5.341,5.341,0,0,1-4.582,1.98,5.173,5.173,0,0,1-4.113-1.752A6.92,6.92,0,0,1,131.854,36a7.487,7.487,0,0,1,1.605-5.039A5.388,5.388,0,0,1,137.771,29.086Zm13.582,11.5a3.009,3.009,0,0,0,2.455-1.236,5.883,5.883,0,0,0,.979-3.7,6.9,6.9,0,0,0-.434-2.578,3.177,3.177,0,0,0-6,.117,8.685,8.685,0,0,0-.434,2.977,6.31,6.31,0,0,0,.434,2.473A2.991,2.991,0,0,0,151.354,40.582Zm-5.461-11.074h2.051v1.664a5.12,5.12,0,0,1,1.383-1.324,4.451,4.451,0,0,1,2.508-.7,4.716,4.716,0,0,1,3.621,1.635,6.7,6.7,0,0,1,1.488,4.67q0,4.1-2.145,5.859a4.845,4.845,0,0,1-3.164,1.113,4.3,4.3,0,0,1-2.379-.621A5.481,5.481,0,0,1,148,40.594V47h-2.109Zm15.621-.059v8.332a3.513,3.513,0,0,0,.3,1.57,2.126,2.126,0,0,0,2.1,1.125,2.965,2.965,0,0,0,3-1.969,7.811,7.811,0,0,0,.434-2.895V29.449h2.109V42h-1.992l.023-1.852a4.255,4.255,0,0,1-1.02,1.207,4.486,4.486,0,0,1-2.93.984q-2.684,0-3.656-1.793a5.34,5.34,0,0,1-.527-2.566V29.449Zm16.465-.281a5.725,5.725,0,0,1,2.59.627,4.776,4.776,0,0,1,1.91,1.623,5.6,5.6,0,0,1,.844,2.215,14.491,14.491,0,0,1,.188,2.766h-9.2a5.368,5.368,0,0,0,.9,3.064,3.021,3.021,0,0,0,2.613,1.154,3.378,3.378,0,0,0,2.637-1.09,3.674,3.674,0,0,0,.8-1.465h2.074a4.369,4.369,0,0,1-.545,1.541,5.481,5.481,0,0,1-1.037,1.389,4.916,4.916,0,0,1-2.379,1.266,7.227,7.227,0,0,1-1.723.188,5.286,5.286,0,0,1-3.973-1.705,6.634,6.634,0,0,1-1.629-4.775,7.214,7.214,0,0,1,1.641-4.91A5.412,5.412,0,0,1,177.979,29.168Zm3.363,5.555a5.465,5.465,0,0,0-.6-2.191,3.063,3.063,0,0,0-2.895-1.523,3.209,3.209,0,0,0-2.437,1.049,3.962,3.962,0,0,0-1.043,2.666Zm6.012,3.34a3.068,3.068,0,0,0,.527,1.617,3.314,3.314,0,0,0,2.766,1.02,4.079,4.079,0,0,0,2.063-.51,1.693,1.693,0,0,0,.891-1.576,1.348,1.348,0,0,0-.715-1.23,8.5,8.5,0,0,0-1.8-.6l-1.676-.422a8.175,8.175,0,0,1-2.367-.891,2.662,2.662,0,0,1-1.359-2.367,3.617,3.617,0,0,1,1.283-2.883,5.119,5.119,0,0,1,3.451-1.1,4.791,4.791,0,0,1,4.09,1.664,3.611,3.611,0,0,1,.762,2.273h-1.992a2.44,2.44,0,0,0-.5-1.3,3.214,3.214,0,0,0-2.52-.832,3.012,3.012,0,0,0-1.811.457,1.432,1.432,0,0,0-.615,1.207,1.486,1.486,0,0,0,.809,1.313,4.859,4.859,0,0,0,1.383.516l1.395.34a10.782,10.782,0,0,1,3.047,1.066,2.824,2.824,0,0,1,1.23,2.543,3.875,3.875,0,0,1-1.271,2.895,5.413,5.413,0,0,1-3.873,1.219q-2.8,0-3.967-1.271a4.809,4.809,0,0,1-1.248-3.146Zm11.168-12.117h2.133v3.5h2v1.723h-2v8.191a.886.886,0,0,0,.445.879,1.893,1.893,0,0,0,.82.129q.152,0,.328-.006t.41-.029V42a4.709,4.709,0,0,1-.756.152,7.186,7.186,0,0,1-.85.047,2.29,2.29,0,0,1-2-.756,3.359,3.359,0,0,1-.527-1.963V31.172h-1.7V29.449h1.7Zm11.227,14.7a2.909,2.909,0,0,0,2.877-1.588,7.911,7.911,0,0,0,.779-3.533,6.291,6.291,0,0,0-.562-2.859,3.164,3.164,0,0,0-3.07-1.734,3.028,3.028,0,0,0-2.812,1.477,6.844,6.844,0,0,0-.879,3.563,5.953,5.953,0,0,0,.879,3.34A3.1,3.1,0,0,0,209.748,40.641Zm.082-11.555a5.683,5.683,0,0,1,4.1,1.617,6.315,6.315,0,0,1,1.676,4.758,8.163,8.163,0,0,1-1.477,5.016,5.341,5.341,0,0,1-4.582,1.98,5.173,5.173,0,0,1-4.113-1.752A6.92,6.92,0,0,1,203.912,36a7.487,7.487,0,0,1,1.605-5.039A5.388,5.388,0,0,1,209.83,29.086Z" transform="translate(900 8999.5)" fill="#00223d"/>
    </g>
  </g>
</svg>
