<svg xmlns="http://www.w3.org/2000/svg" width="178" height="356.283" viewBox="0 0 178 356.283">
  <g id="Grupo_36330" data-name="Grupo 36330" transform="translate(-627 -8980)">
    <g id="Grupo_33841" data-name="Grupo 33841" transform="translate(326.541 9085.709)">
      <g id="Grupo_33797" data-name="Grupo 33797" transform="translate(306.459 98.571)">
        <path id="Trazado_82585" data-name="Trazado 82585" d="M475,207.107c-.146-2.812-1.405-7.851-2.723-14.055-3.008-14.163-5.074-23.027-7.943-36.973q-3.214-15.624-6.3-31.271c-3.033-15.371-7.393-30.747-9.562-46.22-.6-4.24-.991-9.279-5-11.929-3.9-2.579-10.381-1.148-14.854-1.283q-9.067-.274-18.139-.354-17.688-.156-35.376.427c-9.66.318-39.6-.369-44.89.54-5.579.962-5.159,3.594-5.524,8.554-1.327,17.993-4.909,35.7-7.773,53.486-1.5,9.341-2.374,18.933-3.276,28.314-1.141,11.841-3.395,23.536-4.784,35.346-.6,5.1-1.226,10.171-2.093,15.088-1.455,8.257,2.353,9.6,9.027,9.379,9.352-.308,18.853.447,28.212.591,19.163.3,38.33.356,57.492-.005,14.473-.272,28.946-.779,43.4-1.606,5-.287,24,.2,27.457-2.057C474.567,211.639,475.124,209.473,475,207.107Z" transform="translate(-306.459 -64.99)" fill="#ffc74a"/>
      </g>
      <g id="Grupo_33798" data-name="Grupo 33798" transform="translate(317.334 103.495)">
        <path id="Trazado_82586" data-name="Trazado 82586" d="M451.382,160c.85,5.431,4.017,24.81,4.922,29.059.662,3.09,1.619,7.888.527,10.894-1.232,3.4-6.95,2.842-9.768,3.061-16.362,1.278-32.769,1.082-49.215,1.842q-7.244.334-14.489.46c-7.711.124-15.38-.35-23.084-.531-7.822-.184-15.645.177-23.463-.084-4.218-.142-8.434-.308-12.646-.568-3.459-.212-9.115.745-11.148-2.933-1.435-2.6.077-6.662.653-9.377,1.02-4.826,1.338-9.79,2.055-14.706,1.564-10.726,3.5-21.72,4.231-32.5.719-10.657,3.249-21.1,4.015-31.749.449-6.176.659-12.752,1.557-18.913.94-6.459.918-13.057,2.53-19.413.425-1.681.816-3.417,2.347-4.234a12.4,12.4,0,0,1,5.05-1.071q24.017-1.618,48.107-1.546,12.152.036,24.306.5c5.658.217,11.337-.095,16.981.473,3.052.307,6.6.007,9.37,1.56,2.6,1.458,3.488,5.289,3.882,8,.529,3.663.964,7.189,1.737,10.887,1.862,8.91,3.267,17.908,4.67,26.9Q447.946,138.01,451.382,160Z" transform="translate(-312.418 -67.688)" fill="#58a5f8"/>
      </g>
      <g id="Grupo_33799" data-name="Grupo 33799" transform="translate(406.44 112.399)">
        <path id="Trazado_82587" data-name="Trazado 82587" d="M361.553,75.883c-.606,1.61-.215,3.829.194,6.457.5,3.254.922,6.525,1.223,9.8.155,1.694-.057,3.663.639,5.256,1.073,2.453,4.5,2.447,6.731,2.031,4.63-.869,13.579,1.338,13.639-5.514.026-3.066-1.038-6.052-.978-9.111.062-3.115.135-7.875-2.029-10.4-2.577-3.011-10.332-1.469-14.02-1.274C364.917,73.244,362.36,73.726,361.553,75.883Z" transform="translate(-361.241 -72.567)" fill="#ef8f9f"/>
      </g>
      <g id="Grupo_33800" data-name="Grupo 33800" transform="translate(415.651 62.225)">
        <path id="Trazado_82588" data-name="Trazado 82588" d="M388.64,98.38a27.8,27.8,0,0,1-.894,4.559c-1.035,3.524-1.949,7.587-4.627,10.3-2.98,3.021-8.352,1.59-7.549-3.176.223-1.325.885-3.617.047-4.886-.989-1.493-2.71-.091-4.008-.814-2.509-1.4,1.814-3.234,2.895-3.382a2.335,2.335,0,0,0,1.225-.389c1.369-1.152,1.537-5.3,1.814-6.923a34.3,34.3,0,0,0,.423-8.213,75.363,75.363,0,0,0-3.977-17.718,77.24,77.24,0,0,0-7.684-16.491c-.369-.593,4.648-5.574,5.38-5.942,3.053-1.533,6.543,5.052,7.55,7.085a102.929,102.929,0,0,1,7.875,24.25,71.863,71.863,0,0,1,1.842,12.872A66.2,66.2,0,0,1,388.64,98.38Z" transform="translate(-366.287 -45.075)" fill="#f8c19a"/>
      </g>
      <g id="Grupo_33801" data-name="Grupo 33801" transform="translate(408.918 55.873)">
        <path id="Trazado_82589" data-name="Trazado 82589" d="M369.013,57.081c-1.969-3.263-5.114-6.023-6.216-9.759a4.331,4.331,0,0,1,3.729-5.629,12.171,12.171,0,0,1,7.618,1.619c2.374,1.356,7.9,5.419,5.751,8.609-1.61,2.389-4.594,4.238-6.766,6.087-.816.694-1.978,1.259-2.977.529a4.4,4.4,0,0,1-1.088-1.371C369.046,57.137,369.028,57.11,369.013,57.081Z" transform="translate(-362.598 -41.595)" fill="#6fd8d8"/>
      </g>
      <g id="Grupo_33802" data-name="Grupo 33802" transform="translate(355.403 48.711)">
        <path id="Trazado_82590" data-name="Trazado 82590" d="M378.456,87.53s-.046-6.955.047-9.206c.117-2.971,1.241-7.83,3.875-9.527.966-.622,2.179-.664,3.152-1.248,3.46-2.082,3.65-5.893,3.718-9.5.106-5.692,1.393-11.193-2.179-15.889-1.6-2.106-6.065-5.886-8.622-3.951-2.885,2.186-5.831,3.015-9.253,4.088-5.052,1.581-9.7,5.612-13.409,9.3-5.306,5.276-9.408,11.858-12.94,18.388-4.023,7.448-6.313,10.354-9.567,18.169C333.018,88.779,373.543,87.53,378.456,87.53Z" transform="translate(-333.276 -37.671)" fill="#6fd8d8"/>
      </g>
      <g id="Grupo_33803" data-name="Grupo 33803" transform="translate(336.864 151.615)">
        <path id="Trazado_82591" data-name="Trazado 82591" d="M354.852,171.974a8.125,8.125,0,0,1-4.074,1c-6.6.1-13.257.3-19.844.263-7.408-.04-6.773-9.149-7.386-14.6a44.951,44.951,0,0,1,.33-14.559,19.434,19.434,0,0,1,3.563-8.266c1.018-1.254,2.276-2.309,3.229-3.614a10.023,10.023,0,0,0,1.909-5.647,21.209,21.209,0,0,0-.683-4.889,107.952,107.952,0,0,1-2.747-17.829c-.141-3.4-.135-8.313,4.189-8.9a97.047,97.047,0,0,1,11.932-.88c1.349-.016,1.221,1.431,1.263,2.776.2,6.643.568,13.358.943,19.954a153.573,153.573,0,0,0,3.585,24.049c.745,3.387.92,6.76,1.626,10.074.825,3.884,1.816,7.846,2.818,11.66C356.161,165.061,357.694,170.187,354.852,171.974Z" transform="translate(-323.118 -94.054)" fill="#ef8f9f"/>
      </g>
      <g id="Grupo_33804" data-name="Grupo 33804" transform="translate(369.498 147.911)">
        <path id="Trazado_82592" data-name="Trazado 82592" d="M385.909,168.33a19.2,19.2,0,0,0,2.44-9.052c-.124-3.2-2.4-5.922-4.442-8.182-3.4-3.751-7.55-6.932-10.014-11.44-2.435-4.457-3.873-9.368-5.453-14.168-2.922-8.864-6.747-19.6-3.632-28.907,2.035-6.07-2.249-4.475-6.5-4.043-5.09.515-10.171,1.132-15.208,2.05-2.285.418-2.2,3.1-2.006,5.074.438,4.515.358,8.671.487,13.206.075,2.6.15,5.191.38,7.777s.613,5.15,1,7.716q1.9,12.724,3.8,25.449c.717,4.795,1.436,9.6,2.624,14.3a6.759,6.759,0,0,0,1.17,2.739c2.458,2.948,6.682,3.384,10.264,3.362,3.982-.026,7.974-.387,11.947-.635,3.3-.208,7.1.484,10-1.486A10.885,10.885,0,0,0,385.909,168.33Z" transform="translate(-340.999 -92.025)" fill="#ef8f9f"/>
      </g>
      <g id="Grupo_33805" data-name="Grupo 33805" transform="translate(401.164 148.114)">
        <path id="Trazado_82593" data-name="Trazado 82593" d="M395.031,109.533c-2.995,2.677-10.341,1.593-13.688,1.435-5.579-.266-11.193-.717-16.758-.018-1.2.151-2.551.319-3.506-.429a4.175,4.175,0,0,1-1.232-2.385,48.148,48.148,0,0,1-1.387-8.227,12.607,12.607,0,0,1,.17-4.411c.584-1.878,1.009-1.654,2.683-1.77,4.986-.345,9.987-.571,14.978-.838,3.491-.186,6.985-.33,10.472-.54,3.776-.228,7.66-1.064,8.288,3.4.507,3.59,2.559,9.111.885,12.6A3.777,3.777,0,0,1,395.031,109.533Z" transform="translate(-358.35 -92.136)" fill="#ef8f9f"/>
      </g>
      <g id="Grupo_33806" data-name="Grupo 33806" transform="translate(408.534 174.511)">
        <path id="Trazado_82594" data-name="Trazado 82594" d="M393.845,117.358a1.8,1.8,0,0,0,.3-1.865c0-3.24-6.169-7.822-8.936-8.58-2.513-.688-5.108-.044-7.629.058-3.064.124-6.183.009-9.259.044-2.789.035-6.3.363-5.9,3.906.308,2.723-.12,7.753,2.4,9.646a4.52,4.52,0,0,0,3.265.548c7.452-.442,14.761-1.672,22.184-2.385A5.822,5.822,0,0,0,393.845,117.358Z" transform="translate(-362.388 -106.599)" fill="#ef8f9f"/>
      </g>
      <g id="Grupo_33807" data-name="Grupo 33807" transform="translate(344.717 118.891)">
        <path id="Trazado_82595" data-name="Trazado 82595" d="M342.556,76.164a4.134,4.134,0,0,0-1.192.005c-2.725.367-5.357,2.418-7.253,4.3-4.128,4.108-5.771,10.244-6.647,15.747-.42,2.614,2.289,3.126,4.313,3.008,3.968-.235,12.911,1.261,12.894-4.734q-.011-5.943-.029-11.887C344.637,80.108,345.168,76.579,342.556,76.164Z" transform="translate(-327.421 -76.124)" fill="#ef8f9f"/>
      </g>
      <g id="Grupo_33808" data-name="Grupo 33808" transform="translate(371.442 114.755)">
        <path id="Trazado_82596" data-name="Trazado 82596" d="M358.146,81.622a12.742,12.742,0,0,0-8.383-7.187c-3.663-1.035-6.91-1.091-7.494,3.4a26.685,26.685,0,0,0-.131,5.316c.17,2.29.577,4.17.544,6.47-.033,2.23.113,4.908,1.175,6.915,1.633,3.094,9.178,1.221,11.989,1.1,2.833-.126,3.685-.511,4.285-3.438C360.957,90.165,359.858,85.3,358.146,81.622Z" transform="translate(-342.064 -73.858)" fill="#ef8f9f"/>
      </g>
      <g id="Grupo_33809" data-name="Grupo 33809" transform="translate(401.059 44.174)">
        <path id="Trazado_82597" data-name="Trazado 82597" d="M361.933,36.568c-1.831,1.183-3.964,3.49-3.6,5.9.318,2.088,3.055,4.059,5.167,3.889,2.071-.166,3.25-2.842,4.442-4.221,1.376-1.6,2.593-4.252.7-5.959a4.239,4.239,0,0,0-3.59-.907A9.008,9.008,0,0,0,361.933,36.568Z" transform="translate(-358.292 -35.185)" fill="#f8c19a"/>
      </g>
      <g id="Grupo_33810" data-name="Grupo 33810" transform="translate(404.729 32.436)">
        <path id="Trazado_82598" data-name="Trazado 82598" d="M372.35,30.12a6.125,6.125,0,0,0-2.458-1.183,7.823,7.823,0,0,0-7.623,2.632c-2.613,3.19-2.4,8.071-.661,11.66,1.907,3.942,7.136,7.769,10.945,3.716a12,12,0,0,0,3.09-7.538,19.573,19.573,0,0,0-.119-2.042C375.278,34.766,374.475,31.821,372.35,30.12Z" transform="translate(-360.303 -28.753)" fill="#f8c19a"/>
      </g>
      <g id="Grupo_33811" data-name="Grupo 33811" transform="translate(400.581 24.291)">
        <path id="Trazado_82599" data-name="Trazado 82599" d="M362.468,32.69a4.257,4.257,0,0,0,1.821-2.259c.739-1.641,1.183-4.139-.394-5.515a3.051,3.051,0,0,0-4.223.564,6.328,6.328,0,0,0-1.59,4.8A3.2,3.2,0,0,0,362.468,32.69Z" transform="translate(-358.03 -24.291)" fill="#2d2d2d"/>
      </g>
      <g id="Grupo_33813" data-name="Grupo 33813" transform="translate(400.742 28.495)">
        <g id="Grupo_33812" data-name="Grupo 33812">
          <path id="Trazado_82600" data-name="Trazado 82600" d="M369.823,28.84c-1.838-2.117-5.364-.734-7.388.31-2.152,1.111-4.229,3-4.315,5.567-.093,2.792,2.787,4.1,5.152,3.99a15.929,15.929,0,0,0,5.678-1.7,10.334,10.334,0,0,0,4.413-3.44,4.58,4.58,0,0,0-1.7-6.39c-3.86-2.124-10.226,1.889-10.487,6.063a2.973,2.973,0,0,0,2.949,2.951,6.113,6.113,0,0,0,3.128-.995,3.443,3.443,0,0,0,1-.706c-.639.5.215-.133.292-.186a14.915,14.915,0,0,1,1.309-.816c-.42.155-.453.17-.095.044.626-.142.3-.164-.964-.068-1.734-.237-2.008-2.6-1.117-3.714a4.079,4.079,0,0,1-.356.356c-.637.606.579-.385-.21.144a13.181,13.181,0,0,1-1.329.754c-.345.179-.7.338-1.057.5.794-.352-.274.1-.458.168a13.929,13.929,0,0,1-1.524.434c-.443.089-.484.1-.128.027h-.276q1.752.044,2.185,2.407-.52,1.536-.1.708-.266.257.188-.23a19.681,19.681,0,0,1,1.643-1.692c1.086-.971,2.612-1.464,3.559-2.57a1.4,1.4,0,0,0,0-1.918Z" transform="translate(-358.119 -26.594)" fill="#2d2d2d"/>
        </g>
      </g>
      <g id="Grupo_33815" data-name="Grupo 33815" transform="translate(416.754 40)">
        <g id="Grupo_33814" data-name="Grupo 33814">
          <path id="Trazado_82601" data-name="Trazado 82601" d="M367.876,33.009l-.033-.026a.619.619,0,0,0-.85.223.7.7,0,0,0,.1.861.569.569,0,0,0,.683.088.761.761,0,0,0,.254-.263c-.091.109-.077.091.042-.057a1.049,1.049,0,0,0,.089-.254l-.456.347.051,0a.475.475,0,0,0,.451-.345.468.468,0,0,0-.327-.573Z" transform="translate(-366.892 -32.898)" fill="#2d2d2d"/>
        </g>
      </g>
      <g id="Grupo_33817" data-name="Grupo 33817" transform="translate(409.709 41.911)">
        <g id="Grupo_33816" data-name="Grupo 33816">
          <path id="Trazado_82602" data-name="Trazado 82602" d="M363.9,35.677a.866.866,0,1,0-.865-.867.873.873,0,0,0,.865.867Z" transform="translate(-363.032 -33.945)" fill="#2d2d2d"/>
        </g>
      </g>
      <g id="Grupo_33819" data-name="Grupo 33819" transform="translate(411.497 47.029)">
        <g id="Grupo_33818" data-name="Grupo 33818">
          <path id="Trazado_82603" data-name="Trazado 82603" d="M364.038,38.231c.544,1.181,2.128,1.2,3.223,1.033.991-.155,3.192-.913,3.035-2.207a.312.312,0,0,0-.3-.3c-.863-.078-1.674.818-2.466,1.106a6.414,6.414,0,0,1-3.267-.022c-.217-.026-.3.237-.224.392Z" transform="translate(-364.012 -36.749)" fill="#2d2d2d"/>
        </g>
      </g>
      <g id="Grupo_33821" data-name="Grupo 33821" transform="translate(413.086 40.229)">
        <g id="Grupo_33820" data-name="Grupo 33820">
          <path id="Trazado_82604" data-name="Trazado 82604" d="M364.9,33.617a8,8,0,0,0,1.046,4.565c.739,1.3,2.794.1,2-1.168a11.679,11.679,0,0,1-1.865-3.557c-.135-.7-1.142-.485-1.179.161Z" transform="translate(-364.882 -33.024)" fill="#f9b180"/>
        </g>
      </g>
      <g id="Grupo_33823" data-name="Grupo 33823" transform="translate(403.145 42.059)">
        <g id="Grupo_33822" data-name="Grupo 33822">
          <path id="Trazado_82605" data-name="Trazado 82605" d="M361.762,34.895c-.151-.137,0,.106-.024.013a.646.646,0,0,0-.155-.261c.17.2-.15-.146-.172-.159a.729.729,0,0,0-.365-.088,1.074,1.074,0,0,0-.832.389,3.009,3.009,0,0,0-.336,2.369c.248,1.493,1.648,4.028,3.4,2.438a3.127,3.127,0,0,0,.642-3.3c-.442-1.135-1.6-2.59-3-2.21-1.55.423-1.754,2.431-1.225,3.694.595,1.427,2.444,2.94,3.78,1.393a.932.932,0,0,0-.653-1.573c-.571,0-.852-.268-1.035-.892a1.048,1.048,0,0,1,.011-.551c-.1.2-.431.208-.611.179.084.013.068.027.044.007a1.607,1.607,0,0,1,.626,1.272c.011-.221-.062.166-.066.179-.024.073-.046.144-.073.215.047-.11.047-.111-.006,0-.133.274.051-.02-.04.073a.583.583,0,0,1,.451-.173c-.13.013.257.069.3.091-.246-.108.111.117-.027-.005a2.058,2.058,0,0,1-.193-.2c.179.212-.036-.071-.066-.119a3.955,3.955,0,0,1-.487-1.1,2.59,2.59,0,0,1-.2-1.029c0-.148-.031.133.015-.078.018-.082-.073.1-.141.148a1.267,1.267,0,0,0,.309-.265c-.015.033-.029.141-.2.117.3.04.608-.31.329-.568Z" transform="translate(-359.435 -34.026)" fill="#f9b180"/>
        </g>
      </g>
      <g id="Grupo_33838" data-name="Grupo 33838" transform="translate(387.848 126.831)">
        <g id="Grupo_33824" data-name="Grupo 33824" transform="translate(17.225 19.136)">
          <path id="Trazado_82606" data-name="Trazado 82606" d="M360.883,93.061c-.387-.462-.741-2.15.261-2.1.537.027,1.506,1.122,1.918,1.466.613.509,1.214,1.035,1.805,1.57,2.363,2.128,9.437,8.665,10.72,9.662,2.181,1.7,4.4,4.094,3.7,4.212-.31.053-8.875-6.494-11.441-8.711C365.513,97.138,362.9,95.445,360.883,93.061Z" transform="translate(-360.492 -90.959)" fill="#424242"/>
        </g>
        <g id="Grupo_33826" data-name="Grupo 33826" transform="translate(0 9.469)">
          <g id="Grupo_33825" data-name="Grupo 33825">
            <path id="Trazado_82607" data-name="Trazado 82607" d="M362.249,96.391c1.062-1.137.517-2.3,1.177-2.342.779-.047,2.362,1.442,2.9,1.883.863.7,2.108,1.936,2.34,1.5.485-.905,1.462-2.035.416-2.84-.8-.613-3.07-2.157-5.619-3.86-.522-.35-1.148.321-1.712.084-.63-.266-1.069-1.413-1.418-1.951a7.042,7.042,0,0,0-3.877-2.946c-1.608-.464-3.557-.411-4.543,1.133a4.459,4.459,0,0,0-.237,4.915,8.6,8.6,0,0,0,4.108,4.49C357.721,97.469,360.245,98.528,362.249,96.391Zm-7.134-4.207c-.785-.889-1.146-1.909-.363-2.823a1.761,1.761,0,0,1,1.887-.391,4.768,4.768,0,0,1,1.674,1.148c.725.675,2.681,3.052,1.737,4.1a1.42,1.42,0,0,1-1.414.224A8.477,8.477,0,0,1,355.115,92.184Z" transform="translate(-351.054 -85.663)" fill="#d14e70"/>
          </g>
        </g>
        <g id="Grupo_33827" data-name="Grupo 33827" transform="translate(17.309 18.328)">
          <path id="Trazado_82608" data-name="Trazado 82608" d="M361.9,90.523c.3.042.537.332.741.834.3.73.715,1.429,1.071,2.132q1.084,2.155,2.172,4.309c1.405,2.787,2.851,5.557,4.22,8.363.679,1.4,1.4,2.772,2.037,4.189q.5,1.09.933,2.2a3.92,3.92,0,0,1,.478,1.442c-.646.12-1.4-1.838-1.685-2.323q-.914-1.593-1.832-3.192-1.8-3.129-3.6-6.26l-.936-1.63q-2.379-4.137-4.756-8.273a.834.834,0,0,1,.175-1.248C361.3,90.654,361.628,90.482,361.9,90.523Z" transform="translate(-360.538 -90.517)" fill="#606060"/>
        </g>
        <g id="Grupo_33829" data-name="Grupo 33829" transform="translate(5.983)">
          <g id="Grupo_33828" data-name="Grupo 33828">
            <path id="Trazado_82609" data-name="Trazado 82609" d="M360.154,86.334a2.283,2.283,0,0,1-.055-.881,1.745,1.745,0,0,1,1.883-1.409,3.2,3.2,0,0,1,1.3.593,3.365,3.365,0,0,1,1.668,3.911,1.606,1.606,0,0,1-.719.942C362.477,90.384,360.488,87.746,360.154,86.334Zm7.286,13.3a.75.75,0,0,0,.372-.476.74.74,0,0,0-.1-.383q-1.018-2.127-1.845-4.336a3.644,3.644,0,0,1-.287-2.495c.277-.756,1-1.243,1.486-1.887a3.761,3.761,0,0,0,.635-3.026,8.178,8.178,0,0,0-4.065-5.422,5.244,5.244,0,0,0-2.843-1.13,2.726,2.726,0,0,0-2.436,1.091,5.335,5.335,0,0,1-.58.741.769.769,0,0,1-.863.162,2.965,2.965,0,0,0-.891-.458c-.25-.029-.482.124-.85.606-.5.663-1.164,1.566-.653,2.413a9.972,9.972,0,0,0,1.829,1.752,26.247,26.247,0,0,1,1.995,2.134,52.369,52.369,0,0,1,6.192,9.363c.263.5.73,2.081,1.237,2.278C366.383,100.792,367.018,99.936,367.44,99.631Z" transform="translate(-354.332 -80.475)" fill="#e26a84"/>
          </g>
        </g>
        <g id="Grupo_33831" data-name="Grupo 33831" transform="translate(11.166 1.698)" opacity="0.36">
          <g id="Grupo_33830" data-name="Grupo 33830">
            <path id="Trazado_82610" data-name="Trazado 82610" d="M363.75,88c1.055-.535.723-2.154.363-3.015a6.365,6.365,0,0,0-2.267-2.657,4.415,4.415,0,0,0-2.993-.9c-.865.113-2.1,1.091-1.539,2.075a.19.19,0,0,0,.252.088,4.916,4.916,0,0,0,.765-.8,1.085,1.085,0,0,1,.783-.347,3.68,3.68,0,0,1,2.208.779,5.442,5.442,0,0,1,1.812,2.073,3.662,3.662,0,0,1,.343,1.257,9.59,9.59,0,0,0,.051,1.334.156.156,0,0,0,.221.109Z" transform="translate(-357.172 -81.405)" fill="#fff"/>
          </g>
        </g>
        <g id="Grupo_33833" data-name="Grupo 33833" transform="translate(3.727 10.583)" opacity="0.36">
          <g id="Grupo_33832" data-name="Grupo 33832">
            <path id="Trazado_82611" data-name="Trazado 82611" d="M357.476,89.014a4.457,4.457,0,0,0-.5-1.13,4.14,4.14,0,0,0-1.155-1.017c-.741-.491-1.98-.964-2.672-.166a.3.3,0,0,0,.146.449,8.185,8.185,0,0,0,1.051.131,3.032,3.032,0,0,1,1.071.391,6.241,6.241,0,0,1,.965.7,7.966,7.966,0,0,1,.925.748c.08.091.2-.007.166-.109Z" transform="translate(-353.096 -86.274)" fill="#fff"/>
          </g>
        </g>
        <g id="Grupo_33835" data-name="Grupo 33835" transform="translate(19.861 22.854)" opacity="0.36">
          <g id="Grupo_33834" data-name="Grupo 33834">
            <path id="Trazado_82612" data-name="Trazado 82612" d="M361.963,93.293a.457.457,0,0,0,.863.3.457.457,0,0,0-.863-.3Z" transform="translate(-361.936 -92.997)" fill="#fff"/>
          </g>
        </g>
        <g id="Grupo_33837" data-name="Grupo 33837" transform="translate(27.327 35.037)" opacity="0.36">
          <g id="Grupo_33836" data-name="Grupo 33836">
            <path id="Trazado_82613" data-name="Trazado 82613" d="M366.027,99.715a6.449,6.449,0,0,0,.7,2.322,7.028,7.028,0,0,0,1.325,2.395.114.114,0,0,0,.2-.093,6.366,6.366,0,0,0-.936-2.245c-.434-.783-.721-1.633-1.192-2.4-.022-.036-.093-.035-.091.018Z" transform="translate(-366.027 -99.672)" fill="#fff"/>
          </g>
        </g>
      </g>
      <g id="Grupo_33839" data-name="Grupo 33839" transform="translate(382.236 71.208)">
        <path id="Trazado_82614" data-name="Trazado 82614" d="M368.349,106.9c.19,1.615.993,3.234.438,4.857-1.051,3.083-5.448,3.747-7.547,1.435-1.688-1.862-2.453-4.254-3.2-6.6a68.826,68.826,0,0,0-3.015-8c-1.778-3.842-3.82-7.561-5.4-11.5a31.363,31.363,0,0,1-1.511-8.019c-.639-5.882,1.19-12.352,1.8-18.2a35.814,35.814,0,0,1,1.971-9.788c-.219-.124-.487.361-.4.126.991-1.2,2.776-1.289,4.329-1.186a39.594,39.594,0,0,1,6.607,1,1.355,1.355,0,0,1,.88.473,1.372,1.372,0,0,1,.115.854c-.345,4.221-.69,8.45-1.411,12.624-.942,5.466-2.175,11-1.75,16.583.443,5.806,3.349,11.071,5.408,16.439.761,1.98,1.774,3.866,4.134,3.313,1.239-.288,1.781.69,1.478,1.7-.427,1.436-1.5.684-2.31,1.531A2.707,2.707,0,0,0,368.349,106.9Z" transform="translate(-347.979 -49.998)" fill="#f8c19a"/>
      </g>
      <g id="Grupo_33840" data-name="Grupo 33840" transform="translate(384.06 58.768)">
        <path id="Trazado_82615" data-name="Trazado 82615" d="M362.243,43.728c3.575,2.2,2.613,10.469,2.071,13.995-.339,2.208-2.608,1.9-4.192,1.748-2.789-.259-5.676.029-8.481-.042-1.65-.042-3.033-.327-2.573-2.36a29.873,29.873,0,0,1,4.61-10.062,9.007,9.007,0,0,1,5.152-3.67A4.473,4.473,0,0,1,362.243,43.728Z" transform="translate(-348.978 -43.181)" fill="#6fd8d8"/>
      </g>
    </g>
    <g id="Grupo_36327" data-name="Grupo 36327">
      <g id="Rectángulo_31607" data-name="Rectángulo 31607" transform="translate(627 8980)" fill="#fff" stroke="#d268cc" stroke-width="3">
        <rect width="178" height="90" rx="15" stroke="none"/>
        <rect x="1.5" y="1.5" width="175" height="87" rx="13.5" fill="none"/>
      </g>
      <path id="Trazado_85180" data-name="Trazado 85180" d="M43.756,16.008a6.445,6.445,0,0,0,1.945-.246A4.279,4.279,0,0,0,47.928,14a7.2,7.2,0,0,0,1-2.672,10.191,10.191,0,0,0,.176-1.8,8.4,8.4,0,0,0-1.271-4.969,4.7,4.7,0,0,0-4.1-1.77H39.6V16.008ZM37.252.785h6.973A6.572,6.572,0,0,1,49.732,3.3a9.289,9.289,0,0,1,1.746,5.824,11.6,11.6,0,0,1-1.031,4.957A6.363,6.363,0,0,1,44.2,18H37.252ZM59.424,5.168a5.725,5.725,0,0,1,2.59.627,4.776,4.776,0,0,1,1.91,1.623,5.6,5.6,0,0,1,.844,2.215,14.491,14.491,0,0,1,.188,2.766h-9.2a5.368,5.368,0,0,0,.9,3.064,3.021,3.021,0,0,0,2.613,1.154,3.378,3.378,0,0,0,2.637-1.09,3.674,3.674,0,0,0,.8-1.465h2.074a4.369,4.369,0,0,1-.545,1.541A5.481,5.481,0,0,1,63.2,16.992a4.916,4.916,0,0,1-2.379,1.266,7.227,7.227,0,0,1-1.723.188,5.286,5.286,0,0,1-3.973-1.705,6.634,6.634,0,0,1-1.629-4.775,7.214,7.214,0,0,1,1.641-4.91A5.412,5.412,0,0,1,59.424,5.168Zm3.363,5.555a5.465,5.465,0,0,0-.6-2.191,3.063,3.063,0,0,0-2.895-1.523,3.209,3.209,0,0,0-2.437,1.049,3.962,3.962,0,0,0-1.043,2.666Zm6.012,3.34a3.068,3.068,0,0,0,.527,1.617,3.314,3.314,0,0,0,2.766,1.02,4.079,4.079,0,0,0,2.063-.51,1.693,1.693,0,0,0,.891-1.576,1.348,1.348,0,0,0-.715-1.23,8.5,8.5,0,0,0-1.8-.6l-1.676-.422a8.175,8.175,0,0,1-2.367-.891,2.662,2.662,0,0,1-1.359-2.367,3.617,3.617,0,0,1,1.283-2.883,5.119,5.119,0,0,1,3.451-1.1,4.791,4.791,0,0,1,4.09,1.664,3.611,3.611,0,0,1,.762,2.273H74.717a2.44,2.44,0,0,0-.5-1.3,3.214,3.214,0,0,0-2.52-.832,3.012,3.012,0,0,0-1.811.457,1.432,1.432,0,0,0-.615,1.207A1.486,1.486,0,0,0,70.076,9.9a4.859,4.859,0,0,0,1.383.516l1.395.34A10.782,10.782,0,0,1,75.9,11.824a2.824,2.824,0,0,1,1.23,2.543,3.875,3.875,0,0,1-1.271,2.895,5.413,5.413,0,0,1-3.873,1.219q-2.8,0-3.967-1.271a4.809,4.809,0,0,1-1.248-3.146Zm12.363.6A1.737,1.737,0,0,0,81.83,16.1a2.477,2.477,0,0,0,1.582.527,4.81,4.81,0,0,0,2.156-.516,2.9,2.9,0,0,0,1.758-2.8v-1.7a3.609,3.609,0,0,1-1,.41,8.488,8.488,0,0,1-1.2.234l-1.277.164a4.885,4.885,0,0,0-1.723.48A1.872,1.872,0,0,0,81.162,14.66Zm5.109-4.266a1.146,1.146,0,0,0,.973-.609,1.854,1.854,0,0,0,.141-.809,1.713,1.713,0,0,0-.768-1.564,4.118,4.118,0,0,0-2.2-.486,2.792,2.792,0,0,0-2.344.891,2.93,2.93,0,0,0-.5,1.465H79.6a3.624,3.624,0,0,1,1.506-3.229,6.183,6.183,0,0,1,3.357-.908,6.831,6.831,0,0,1,3.6.844,2.862,2.862,0,0,1,1.371,2.625v7.23a.926.926,0,0,0,.135.527.65.65,0,0,0,.568.2q.141,0,.316-.018t.375-.053v1.559a5.875,5.875,0,0,1-.75.176,5.481,5.481,0,0,1-.7.035,1.735,1.735,0,0,1-1.582-.773,2.985,2.985,0,0,1-.363-1.16A5.367,5.367,0,0,1,85.58,17.8a5.727,5.727,0,0,1-2.66.621,3.956,3.956,0,0,1-2.854-1.061,3.523,3.523,0,0,1-1.107-2.654A3.419,3.419,0,0,1,80.049,12a5.185,5.185,0,0,1,2.859-1.184Zm6.68-4.945h2V7.617a4.79,4.79,0,0,1,1.207-1.541,3.13,3.13,0,0,1,2.215-.908q.059,0,.2.012t.48.047V7.453a3.151,3.151,0,0,0-.346-.047q-.158-.012-.346-.012A3.01,3.01,0,0,0,95.916,8.42a3.579,3.579,0,0,0-.855,2.361V18H92.951Zm7.992,0h2V7.617a4.79,4.79,0,0,1,1.207-1.541,3.13,3.13,0,0,1,2.215-.908q.059,0,.2.012t.48.047V7.453a3.151,3.151,0,0,0-.346-.047q-.158-.012-.346-.012a3.01,3.01,0,0,0-2.449,1.025,3.579,3.579,0,0,0-.855,2.361V18h-2.109Zm12.914,11.191a2.909,2.909,0,0,0,2.877-1.588,7.911,7.911,0,0,0,.779-3.533,6.291,6.291,0,0,0-.562-2.859,3.164,3.164,0,0,0-3.07-1.734A3.028,3.028,0,0,0,111.068,8.4a6.844,6.844,0,0,0-.879,3.563,5.953,5.953,0,0,0,.879,3.34A3.1,3.1,0,0,0,113.857,16.641Zm.082-11.555a5.683,5.683,0,0,1,4.1,1.617,6.315,6.315,0,0,1,1.676,4.758,8.163,8.163,0,0,1-1.477,5.016,5.341,5.341,0,0,1-4.582,1.98,5.173,5.173,0,0,1-4.113-1.752A6.92,6.92,0,0,1,108.021,12a7.487,7.487,0,0,1,1.605-5.039A5.388,5.388,0,0,1,113.939,5.086Zm8.344-4.3h2.109V18h-2.109Zm5.332,0h2.109V18h-2.109Zm6.891,13.875a1.737,1.737,0,0,0,.668,1.441,2.477,2.477,0,0,0,1.582.527,4.81,4.81,0,0,0,2.156-.516,2.9,2.9,0,0,0,1.758-2.8v-1.7a3.609,3.609,0,0,1-1,.41,8.488,8.488,0,0,1-1.2.234l-1.277.164a4.885,4.885,0,0,0-1.723.48A1.872,1.872,0,0,0,134.506,14.66Zm5.109-4.266a1.146,1.146,0,0,0,.973-.609,1.854,1.854,0,0,0,.141-.809,1.713,1.713,0,0,0-.768-1.564,4.118,4.118,0,0,0-2.2-.486,2.792,2.792,0,0,0-2.344.891,2.93,2.93,0,0,0-.5,1.465h-1.969a3.624,3.624,0,0,1,1.506-3.229,6.183,6.183,0,0,1,3.357-.908,6.831,6.831,0,0,1,3.6.844,2.862,2.862,0,0,1,1.371,2.625v7.23a.926.926,0,0,0,.135.527.65.65,0,0,0,.568.2q.141,0,.316-.018t.375-.053v1.559a5.875,5.875,0,0,1-.75.176,5.481,5.481,0,0,1-.7.035,1.735,1.735,0,0,1-1.582-.773,2.985,2.985,0,0,1-.363-1.16,5.367,5.367,0,0,1-1.852,1.465,5.727,5.727,0,0,1-2.66.621,3.956,3.956,0,0,1-2.854-1.061,3.523,3.523,0,0,1-1.107-2.654A3.419,3.419,0,0,1,133.393,12a5.185,5.185,0,0,1,2.859-1.184Zm6.68-4.945h2V7.617a4.79,4.79,0,0,1,1.207-1.541,3.13,3.13,0,0,1,2.215-.908q.059,0,.2.012t.48.047V7.453a3.151,3.151,0,0,0-.346-.047q-.158-.012-.346-.012A3.01,3.01,0,0,0,149.26,8.42a3.579,3.579,0,0,0-.855,2.361V18h-2.109ZM37.463,40.582a3.009,3.009,0,0,0,2.455-1.236,5.883,5.883,0,0,0,.979-3.7,6.9,6.9,0,0,0-.434-2.578,3.177,3.177,0,0,0-6,.117,8.685,8.685,0,0,0-.434,2.977,6.31,6.31,0,0,0,.434,2.473A2.991,2.991,0,0,0,37.463,40.582ZM32,29.508h2.051v1.664a5.12,5.12,0,0,1,1.383-1.324,4.451,4.451,0,0,1,2.508-.7,4.716,4.716,0,0,1,3.621,1.635,6.7,6.7,0,0,1,1.488,4.67q0,4.1-2.145,5.859a4.845,4.845,0,0,1-3.164,1.113,4.3,4.3,0,0,1-2.379-.621,5.481,5.481,0,0,1-1.254-1.207V47H32ZM47.131,38.66A1.737,1.737,0,0,0,47.8,40.1a2.477,2.477,0,0,0,1.582.527,4.81,4.81,0,0,0,2.156-.516,2.9,2.9,0,0,0,1.758-2.8v-1.7a3.609,3.609,0,0,1-1,.41,8.488,8.488,0,0,1-1.2.234l-1.277.164a4.885,4.885,0,0,0-1.723.48A1.872,1.872,0,0,0,47.131,38.66Zm5.109-4.266a1.146,1.146,0,0,0,.973-.609,1.854,1.854,0,0,0,.141-.809,1.713,1.713,0,0,0-.768-1.564,4.118,4.118,0,0,0-2.2-.486,2.792,2.792,0,0,0-2.344.891,2.93,2.93,0,0,0-.5,1.465H45.572a3.624,3.624,0,0,1,1.506-3.229,6.183,6.183,0,0,1,3.357-.908,6.831,6.831,0,0,1,3.6.844A2.862,2.862,0,0,1,55.4,32.613v7.23a.926.926,0,0,0,.135.527.65.65,0,0,0,.568.2q.141,0,.316-.018T56.8,40.5v1.559a5.875,5.875,0,0,1-.75.176,5.481,5.481,0,0,1-.7.035,1.735,1.735,0,0,1-1.582-.773,2.985,2.985,0,0,1-.363-1.16A5.367,5.367,0,0,1,51.549,41.8a5.727,5.727,0,0,1-2.66.621,3.956,3.956,0,0,1-2.854-1.061,3.523,3.523,0,0,1-1.107-2.654A3.419,3.419,0,0,1,46.018,36a5.185,5.185,0,0,1,2.859-1.184Zm7.043-8.449h2.133v3.5h2v1.723h-2v8.191a.886.886,0,0,0,.445.879,1.893,1.893,0,0,0,.82.129q.152,0,.328-.006t.41-.029V42a4.709,4.709,0,0,1-.756.152,7.186,7.186,0,0,1-.85.047,2.29,2.29,0,0,1-2-.756,3.359,3.359,0,0,1-.527-1.963V31.172h-1.7V29.449h1.7Zm6.3,3.5h2v2.168A4.79,4.79,0,0,1,68.8,30.076a3.13,3.13,0,0,1,2.215-.908q.059,0,.2.012t.48.047v2.227a3.151,3.151,0,0,0-.346-.047q-.158-.012-.346-.012a3.01,3.01,0,0,0-2.449,1.025,3.579,3.579,0,0,0-.855,2.361V42H65.588ZM78.5,40.641a2.909,2.909,0,0,0,2.877-1.588,7.911,7.911,0,0,0,.779-3.533A6.291,6.291,0,0,0,81.6,32.66a3.164,3.164,0,0,0-3.07-1.734A3.028,3.028,0,0,0,75.713,32.4a6.844,6.844,0,0,0-.879,3.563,5.953,5.953,0,0,0,.879,3.34A3.1,3.1,0,0,0,78.5,40.641Zm.082-11.555a5.683,5.683,0,0,1,4.1,1.617,6.315,6.315,0,0,1,1.676,4.758,8.163,8.163,0,0,1-1.477,5.016,5.341,5.341,0,0,1-4.582,1.98,5.173,5.173,0,0,1-4.113-1.752A6.92,6.92,0,0,1,72.666,36a7.487,7.487,0,0,1,1.605-5.039A5.388,5.388,0,0,1,78.584,29.086ZM81.033,24.4,77.9,27.785H76.287L78.432,24.4Zm5.836,5.051h2V31.23a5.621,5.621,0,0,1,1.887-1.582,5.031,5.031,0,0,1,2.215-.48,3.652,3.652,0,0,1,3.609,1.863,6.616,6.616,0,0,1,.516,2.918V42H94.955V34.09a4.283,4.283,0,0,0-.34-1.852,2.06,2.06,0,0,0-2.039-1.172,4.152,4.152,0,0,0-1.23.152,3.169,3.169,0,0,0-1.523,1.031,3.1,3.1,0,0,0-.686,1.283,8.637,8.637,0,0,0-.158,1.893V42H86.869Zm19.852-4.723h2.051v6.246a4.6,4.6,0,0,1,3.738-1.852,4.89,4.89,0,0,1,3.8,1.611,6.864,6.864,0,0,1,1.459,4.752,8.15,8.15,0,0,1-1.441,4.945,4.676,4.676,0,0,1-4,1.969,4.1,4.1,0,0,1-2.414-.691,5.83,5.83,0,0,1-1.254-1.312V42h-1.945Zm5.484,15.809a2.818,2.818,0,0,0,2.561-1.359,6.693,6.693,0,0,0,.85-3.586,5.886,5.886,0,0,0-.85-3.281,2.8,2.8,0,0,0-2.5-1.3,3.49,3.49,0,0,0-2.525,1.066,4.789,4.789,0,0,0-1.084,3.516,7.77,7.77,0,0,0,.445,2.871A3.077,3.077,0,0,0,112.205,40.535Zm9.645-1.875a1.737,1.737,0,0,0,.668,1.441,2.477,2.477,0,0,0,1.582.527,4.81,4.81,0,0,0,2.156-.516,2.9,2.9,0,0,0,1.758-2.8v-1.7a3.609,3.609,0,0,1-1,.41,8.488,8.488,0,0,1-1.2.234l-1.277.164a4.885,4.885,0,0,0-1.723.48A1.872,1.872,0,0,0,121.85,38.66Zm5.109-4.266a1.146,1.146,0,0,0,.973-.609,1.854,1.854,0,0,0,.141-.809,1.713,1.713,0,0,0-.768-1.564,4.118,4.118,0,0,0-2.2-.486,2.792,2.792,0,0,0-2.344.891,2.93,2.93,0,0,0-.5,1.465h-1.969a3.624,3.624,0,0,1,1.506-3.229,6.183,6.183,0,0,1,3.357-.908,6.831,6.831,0,0,1,3.6.844,2.862,2.862,0,0,1,1.371,2.625v7.23a.926.926,0,0,0,.135.527.65.65,0,0,0,.568.2q.141,0,.316-.018t.375-.053v1.559a5.875,5.875,0,0,1-.75.176,5.481,5.481,0,0,1-.7.035,1.735,1.735,0,0,1-1.582-.773,2.985,2.985,0,0,1-.363-1.16,5.367,5.367,0,0,1-1.852,1.465,5.727,5.727,0,0,1-2.66.621,3.956,3.956,0,0,1-2.854-1.061,3.523,3.523,0,0,1-1.107-2.654A3.419,3.419,0,0,1,120.736,36a5.185,5.185,0,0,1,2.859-1.184Zm7.875,3.668a3.068,3.068,0,0,0,.527,1.617,3.314,3.314,0,0,0,2.766,1.02,4.079,4.079,0,0,0,2.063-.51,1.693,1.693,0,0,0,.891-1.576,1.348,1.348,0,0,0-.715-1.23,8.5,8.5,0,0,0-1.8-.6l-1.676-.422a8.175,8.175,0,0,1-2.367-.891,2.662,2.662,0,0,1-1.359-2.367,3.617,3.617,0,0,1,1.283-2.883,5.119,5.119,0,0,1,3.451-1.1,4.791,4.791,0,0,1,4.09,1.664,3.611,3.611,0,0,1,.762,2.273h-1.992a2.44,2.44,0,0,0-.5-1.3,3.214,3.214,0,0,0-2.52-.832,3.012,3.012,0,0,0-1.811.457,1.432,1.432,0,0,0-.615,1.207,1.486,1.486,0,0,0,.809,1.313,4.859,4.859,0,0,0,1.383.516l1.395.34a10.782,10.782,0,0,1,3.047,1.066,2.824,2.824,0,0,1,1.23,2.543,3.875,3.875,0,0,1-1.271,2.895,5.413,5.413,0,0,1-3.873,1.219q-2.8,0-3.967-1.271a4.809,4.809,0,0,1-1.248-3.146Zm15.973-8.895a5.725,5.725,0,0,1,2.59.627,4.776,4.776,0,0,1,1.91,1.623,5.6,5.6,0,0,1,.844,2.215,14.491,14.491,0,0,1,.188,2.766h-9.2a5.368,5.368,0,0,0,.9,3.064,3.021,3.021,0,0,0,2.613,1.154,3.378,3.378,0,0,0,2.637-1.09,3.674,3.674,0,0,0,.8-1.465h2.074a4.369,4.369,0,0,1-.545,1.541,5.481,5.481,0,0,1-1.037,1.389,4.916,4.916,0,0,1-2.379,1.266,7.227,7.227,0,0,1-1.723.188,5.286,5.286,0,0,1-3.973-1.705,6.634,6.634,0,0,1-1.629-4.775,7.214,7.214,0,0,1,1.641-4.91A5.412,5.412,0,0,1,150.807,29.168Zm3.363,5.555a5.465,5.465,0,0,0-.6-2.191,3.063,3.063,0,0,0-2.895-1.523,3.209,3.209,0,0,0-2.437,1.049,3.962,3.962,0,0,0-1.043,2.666Z" transform="translate(617 8999.5)" fill="#00223d"/>
    </g>
  </g>
</svg>
