<?xml version="1.0" encoding="utf-8"?>
<!-- Generator: Adobe Illustrator 25.0.0, SVG Export Plug-In . SVG Version: 6.00 Build 0)  -->
<svg version="1.1" id="Capa_1" xmlns="http://www.w3.org/2000/svg" xmlns:xlink="http://www.w3.org/1999/xlink" x="0px" y="0px"
	 viewBox="0 0 801 121.7" style="enable-background:new 0 0 801 121.7;" xml:space="preserve">
<style type="text/css">
	.st0{opacity:0.225;fill:#D268CC;enable-background:new    ;}
	.st1{fill:#00223D;}
	.st2{fill-rule:evenodd;clip-rule:evenodd;fill:#43433B;}
	.st3{fill:#D268CC;}
	.st4{fill-rule:evenodd;clip-rule:evenodd;fill:#D268CC;}
</style>
<path id="Rectángulo_31595" class="st0" d="M15,0h732c8.3,0,15,6.7,15,15v65c0,8.3-6.7,15-15,15H15C6.7,95,0,88.3,0,80V15
	C0,6.7,6.7,0,15,0z"/>
<path id="Trazado_85184" class="st1" d="M38.4,18.5c0.7,0,1.4-0.1,1.9-0.5c0.5-0.4,0.8-1.1,0.7-1.8c0.1-0.8-0.3-1.5-1-1.9
	c-0.5-0.2-0.9-0.3-1.4-0.3h-4.3v4.4H38.4z M32.6,12.6h6c0.8,0,1.7,0.1,2.4,0.4c1.2,0.5,1.9,1.7,1.8,3c0,0.7-0.1,1.3-0.5,1.9
	c-0.3,0.5-0.8,0.9-1.3,1.2c0.4,0.2,0.8,0.4,1.1,0.8c0.3,0.5,0.4,1.1,0.4,1.6l0.1,1.7c0,0.4,0,0.7,0.1,1.1c0.1,0.3,0.3,0.6,0.6,0.8
	v0.3h-2.1c-0.1-0.1-0.1-0.3-0.1-0.4c-0.1-0.3-0.1-0.7-0.1-1l-0.1-2.1c0-0.7-0.3-1.4-0.9-1.7c-0.5-0.2-1-0.3-1.6-0.2h-4v5.5h-1.7
	V12.6z M49.1,15.9c0.7,0,1.3,0.2,1.9,0.5c0.6,0.3,1.1,0.7,1.4,1.2c0.3,0.5,0.5,1.1,0.6,1.7c0.1,0.7,0.2,1.4,0.1,2.1h-6.9
	c0,0.8,0.2,1.6,0.7,2.3c0.5,0.6,1.2,0.9,2,0.9c0.7,0,1.5-0.3,2-0.8c0.3-0.3,0.5-0.7,0.6-1.1h1.6c-0.1,0.4-0.2,0.8-0.4,1.2
	c-0.2,0.4-0.5,0.7-0.8,1c-0.5,0.5-1.1,0.8-1.8,0.9c-0.4,0.1-0.9,0.1-1.3,0.1c-1.1,0-2.2-0.4-3-1.3c-0.9-1-1.3-2.3-1.2-3.6
	c-0.1-1.3,0.4-2.6,1.2-3.7C46.7,16.4,47.8,15.8,49.1,15.9L49.1,15.9z M51.6,20c0-0.6-0.2-1.1-0.4-1.6c-0.4-0.8-1.3-1.2-2.2-1.1
	c-0.7,0-1.4,0.3-1.8,0.8c-0.5,0.5-0.8,1.3-0.8,2L51.6,20z M56.4,23c0,0.4,0.2,0.8,0.5,1.1c0.3,0.3,0.8,0.4,1.2,0.4
	c0.6,0,1.1-0.1,1.6-0.4c0.8-0.4,1.4-1.2,1.3-2.1v-1.3c-0.2,0.1-0.5,0.2-0.7,0.3c-0.3,0.1-0.6,0.1-0.9,0.2l-1,0.1
	c-0.4,0-0.9,0.2-1.3,0.4C56.6,21.9,56.3,22.5,56.4,23z M60.2,19.8c0.3,0,0.6-0.2,0.7-0.5c0.1-0.2,0.1-0.4,0.1-0.6
	c0-0.5-0.2-0.9-0.6-1.2c-0.5-0.3-1.1-0.4-1.6-0.4c-0.7-0.1-1.3,0.2-1.8,0.7c-0.2,0.3-0.4,0.7-0.4,1.1h-1.5c-0.1-1,0.4-1.9,1.1-2.4
	c0.8-0.5,1.6-0.7,2.5-0.7c0.9,0,1.9,0.2,2.7,0.6c0.7,0.4,1.1,1.2,1,2v5.4c0,0.1,0,0.3,0.1,0.4c0.1,0.1,0.3,0.2,0.4,0.1
	c0.1,0,0.1,0,0.2,0s0.2,0,0.3,0v1.2c-0.2,0.1-0.4,0.1-0.6,0.1c-0.2,0-0.4,0-0.5,0c-0.5,0-0.9-0.2-1.2-0.6c-0.1-0.3-0.2-0.6-0.3-0.9
	c-0.4,0.5-0.9,0.8-1.4,1.1c-0.6,0.3-1.3,0.5-2,0.5c-0.8,0-1.6-0.3-2.1-0.8c-0.5-0.5-0.8-1.2-0.8-2c0-0.8,0.3-1.5,0.8-2
	c0.6-0.5,1.4-0.8,2.1-0.9L60.2,19.8z M65.2,12.6h1.6v12.9h-1.6V12.6z M69.2,16.1h1.6v9.4h-1.6V16.1z M69.2,12.6h1.6v1.8h-1.6V12.6z
	 M72.5,24.3l5.6-6.8h-5.2v-1.4h7.3v1.3l-5.5,6.7h5.7v1.4h-7.9L72.5,24.3z M83.4,23c0,0.4,0.2,0.8,0.5,1.1c0.3,0.3,0.8,0.4,1.2,0.4
	c0.6,0,1.1-0.1,1.6-0.4c0.8-0.4,1.4-1.2,1.3-2.1v-1.3c-0.2,0.1-0.5,0.2-0.7,0.3c-0.3,0.1-0.6,0.1-0.9,0.2l-1,0.1
	c-0.4,0-0.9,0.2-1.3,0.4C83.6,21.9,83.3,22.5,83.4,23z M87.2,19.8c0.3,0,0.6-0.2,0.7-0.5c0.1-0.2,0.1-0.4,0.1-0.6
	c0-0.5-0.2-0.9-0.6-1.2c-0.5-0.3-1.1-0.4-1.6-0.4c-0.7-0.1-1.3,0.2-1.8,0.7c-0.2,0.3-0.4,0.7-0.4,1.1h-1.5c-0.1-1,0.4-1.9,1.1-2.4
	c0.8-0.5,1.6-0.7,2.5-0.7c0.9,0,1.9,0.2,2.7,0.6c0.7,0.4,1.1,1.2,1,2v5.4c0,0.1,0,0.3,0.1,0.4c0.1,0.1,0.3,0.2,0.4,0.1
	c0.1,0,0.1,0,0.2,0s0.2,0,0.3,0v1.2c-0.2,0.1-0.4,0.1-0.6,0.1c-0.2,0-0.4,0-0.5,0c-0.5,0-0.9-0.2-1.2-0.6c-0.1-0.3-0.2-0.6-0.3-0.9
	c-0.4,0.5-0.9,0.8-1.4,1.1c-0.6,0.3-1.3,0.5-2,0.5c-0.8,0-1.6-0.3-2.1-0.8c-0.5-0.5-0.8-1.2-0.8-2c0-0.8,0.3-1.5,0.8-2
	c0.6-0.5,1.4-0.8,2.1-0.9L87.2,19.8z M92.2,16.1h1.5v1.6c0.2-0.4,0.5-0.8,0.9-1.2c0.4-0.4,1-0.7,1.7-0.7c0,0,0.1,0,0.1,0
	c0.1,0,0.2,0,0.4,0v1.7c-0.1,0-0.2,0-0.3,0c-0.1,0-0.2,0-0.3,0c-0.7,0-1.4,0.2-1.8,0.8c-0.4,0.5-0.6,1.1-0.6,1.8v5.4h-1.6L92.2,16.1
	z M103.2,12.6h1.6v12.9h-1.6L103.2,12.6z M108.4,23c0,0.4,0.2,0.8,0.5,1.1c0.3,0.3,0.8,0.4,1.2,0.4c0.6,0,1.1-0.1,1.6-0.4
	c0.8-0.4,1.4-1.2,1.3-2.1v-1.3c-0.2,0.1-0.5,0.2-0.7,0.3c-0.3,0.1-0.6,0.1-0.9,0.2l-1,0.1c-0.4,0-0.9,0.2-1.3,0.4
	C108.6,21.9,108.4,22.5,108.4,23z M112.2,19.8c0.3,0,0.6-0.2,0.7-0.5c0.1-0.2,0.1-0.4,0.1-0.6c0-0.5-0.2-0.9-0.6-1.2
	c-0.5-0.3-1.1-0.4-1.6-0.4c-0.7-0.1-1.3,0.2-1.8,0.7c-0.2,0.3-0.4,0.7-0.4,1.1h-1.5c-0.1-1,0.4-1.9,1.1-2.4c0.8-0.5,1.6-0.7,2.5-0.7
	c0.9,0,1.9,0.2,2.7,0.6c0.7,0.4,1.1,1.2,1,2v5.4c0,0.1,0,0.3,0.1,0.4c0.1,0.1,0.3,0.2,0.4,0.1c0.1,0,0.1,0,0.2,0s0.2,0,0.3,0v1.2
	c-0.2,0.1-0.4,0.1-0.6,0.1c-0.2,0-0.4,0-0.5,0c-0.5,0-0.9-0.2-1.2-0.6c-0.1-0.3-0.2-0.6-0.3-0.9c-0.4,0.5-0.9,0.8-1.4,1.1
	c-0.6,0.3-1.3,0.5-2,0.5c-0.8,0-1.6-0.3-2.1-0.8c-0.5-0.5-0.8-1.2-0.8-2c0-0.8,0.3-1.5,0.8-2c0.6-0.5,1.4-0.8,2.1-0.9L112.2,19.8z
	 M118.1,22.6c0,0.4,0.2,0.9,0.4,1.2c0.5,0.6,1.3,0.8,2.1,0.8c0.5,0,1.1-0.1,1.5-0.4c0.4-0.2,0.7-0.7,0.7-1.2c0-0.4-0.2-0.7-0.5-0.9
	c-0.4-0.2-0.9-0.3-1.4-0.4l-1.3-0.3c-0.6-0.1-1.2-0.4-1.8-0.7c-0.6-0.4-1-1-1-1.8c0-0.8,0.3-1.6,1-2.2c0.7-0.6,1.7-0.9,2.6-0.8
	c1.2-0.1,2.3,0.4,3.1,1.3c0.4,0.5,0.6,1.1,0.6,1.7h-1.5c0-0.4-0.2-0.7-0.4-1c-0.5-0.5-1.2-0.7-1.9-0.6c-0.5,0-1,0.1-1.4,0.3
	c-0.3,0.2-0.5,0.5-0.5,0.9c0,0.4,0.2,0.8,0.6,1c0.3,0.2,0.7,0.3,1,0.4l1,0.3c0.8,0.2,1.6,0.4,2.3,0.8c0.6,0.4,1,1.2,0.9,1.9
	c0,0.8-0.3,1.6-1,2.2c-0.8,0.7-1.9,1-2.9,0.9c-1.1,0.1-2.2-0.2-3-1c-0.6-0.6-0.9-1.5-0.9-2.4L118.1,22.6z M134.9,24.5
	c0.9,0.1,1.8-0.4,2.2-1.2c0.4-0.8,0.6-1.7,0.6-2.6c0-0.7-0.1-1.5-0.4-2.1c-0.4-0.9-1.3-1.4-2.3-1.3c-0.9-0.1-1.7,0.4-2.1,1.1
	c-0.5,0.8-0.7,1.7-0.7,2.7c0,0.9,0.2,1.7,0.7,2.5C133.3,24.2,134.1,24.5,134.9,24.5L134.9,24.5z M135,15.8c1.1,0,2.3,0.4,3.1,1.2
	c0.9,1,1.3,2.3,1.2,3.6c0.1,1.3-0.3,2.7-1.1,3.8c-0.8,1-2.1,1.6-3.4,1.5c-1.2,0.1-2.3-0.4-3.1-1.3c-0.8-1-1.2-2.3-1.1-3.5
	c-0.1-1.4,0.4-2.7,1.2-3.8C132.6,16.3,133.7,15.8,135,15.8L135,15.8z M145.2,24.4c0.7,0,1.4-0.3,1.8-0.9c0.5-0.8,0.8-1.8,0.7-2.8
	c0-0.7-0.1-1.3-0.3-1.9c-0.5-1.2-1.8-1.9-3.1-1.4c-0.7,0.3-1.2,0.8-1.4,1.5c-0.2,0.7-0.3,1.5-0.3,2.2c0,0.6,0.1,1.3,0.3,1.9
	C143.3,23.9,144.2,24.5,145.2,24.4L145.2,24.4z M141.1,16.1h1.5v1.2c0.3-0.4,0.6-0.7,1-1c0.6-0.4,1.2-0.5,1.9-0.5c1,0,2,0.4,2.7,1.2
	c0.8,1,1.2,2.2,1.1,3.5c0,2.1-0.5,3.5-1.6,4.4c-0.7,0.6-1.5,0.8-2.4,0.8c-0.6,0-1.2-0.1-1.8-0.5c-0.4-0.2-0.7-0.6-0.9-0.9v4.8h-1.6
	L141.1,16.1z M155.1,15.9c0.7,0,1.3,0.2,1.9,0.5c0.6,0.3,1.1,0.7,1.4,1.2c0.3,0.5,0.5,1.1,0.6,1.7c0.1,0.7,0.2,1.4,0.1,2.1h-6.9
	c0,0.8,0.2,1.6,0.7,2.3c0.5,0.6,1.2,0.9,2,0.9c0.7,0,1.5-0.3,2-0.8c0.3-0.3,0.5-0.7,0.6-1.1h1.6c-0.1,0.4-0.2,0.8-0.4,1.2
	c-0.2,0.4-0.5,0.7-0.8,1c-0.5,0.5-1.1,0.8-1.8,0.9c-0.4,0.1-0.9,0.1-1.3,0.1c-1.1,0-2.2-0.4-3-1.3c-0.9-1-1.3-2.3-1.2-3.6
	c-0.1-1.3,0.4-2.6,1.2-3.7C152.7,16.4,153.9,15.8,155.1,15.9L155.1,15.9z M157.7,20c0-0.6-0.2-1.1-0.4-1.6c-0.4-0.8-1.3-1.2-2.2-1.1
	c-0.7,0-1.4,0.3-1.8,0.8c-0.5,0.5-0.8,1.3-0.8,2H157.7z M161.3,16.1h1.5v1.6c0.2-0.4,0.5-0.8,0.9-1.2c0.4-0.4,1-0.7,1.7-0.7
	c0,0,0.1,0,0.1,0c0.1,0,0.2,0,0.4,0v1.7c-0.1,0-0.2,0-0.3,0c-0.1,0-0.2,0-0.3,0c-0.7,0-1.4,0.2-1.8,0.8c-0.4,0.5-0.6,1.1-0.6,1.8
	v5.4h-1.6L161.3,16.1z M168.4,23c0,0.4,0.2,0.8,0.5,1.1c0.3,0.3,0.8,0.4,1.2,0.4c0.6,0,1.1-0.1,1.6-0.4c0.8-0.4,1.4-1.2,1.3-2.1
	v-1.3c-0.2,0.1-0.5,0.2-0.7,0.3c-0.3,0.1-0.6,0.1-0.9,0.2l-1,0.1c-0.4,0-0.9,0.2-1.3,0.4C168.7,21.9,168.4,22.5,168.4,23L168.4,23z
	 M172.3,19.8c0.3,0,0.6-0.2,0.7-0.5c0.1-0.2,0.1-0.4,0.1-0.6c0-0.5-0.2-0.9-0.6-1.2c-0.5-0.3-1.1-0.4-1.6-0.4
	c-0.7-0.1-1.3,0.2-1.8,0.7c-0.2,0.3-0.4,0.7-0.4,1.1h-1.5c-0.1-1,0.4-1.9,1.1-2.4c0.8-0.5,1.6-0.7,2.5-0.7c0.9,0,1.9,0.2,2.7,0.6
	c0.7,0.4,1.1,1.2,1,2v5.4c0,0.1,0,0.3,0.1,0.4c0.1,0.1,0.3,0.2,0.4,0.1c0.1,0,0.1,0,0.2,0c0.1,0,0.2,0,0.3,0v1.2
	c-0.2,0.1-0.4,0.1-0.6,0.1c-0.2,0-0.4,0-0.5,0c-0.5,0-0.9-0.2-1.2-0.6c-0.1-0.3-0.2-0.6-0.3-0.9c-0.4,0.5-0.9,0.8-1.4,1.1
	c-0.6,0.3-1.3,0.5-2,0.5c-0.8,0-1.6-0.3-2.1-0.8c-0.5-0.5-0.8-1.2-0.8-2c0-0.8,0.3-1.5,0.8-2c0.6-0.5,1.4-0.8,2.1-0.9L172.3,19.8z
	 M180.9,15.8c0.9,0,1.8,0.2,2.6,0.8c0.7,0.7,1.2,1.6,1.2,2.7h-1.5c-0.1-0.5-0.3-1-0.6-1.4c-0.4-0.4-1-0.6-1.6-0.6
	c-1,0-1.8,0.6-2.2,1.5c-0.3,0.8-0.4,1.6-0.4,2.4c0,0.8,0.2,1.7,0.6,2.4c0.7,1,2.2,1.3,3.2,0.5c0.1-0.1,0.1-0.1,0.2-0.2
	c0.4-0.5,0.7-1,0.8-1.6h1.5c-0.1,1-0.5,2-1.3,2.7c-0.8,0.6-1.7,0.9-2.7,0.9c-1.1,0-2.2-0.5-2.9-1.3c-0.8-1-1.1-2.2-1.1-3.4
	c-0.1-1.4,0.3-2.8,1.2-3.9C178.5,16.3,179.7,15.8,180.9,15.8L180.9,15.8z M186.2,16.1h1.6v9.4h-1.6V16.1z M186.2,12.6h1.6v1.8h-1.6
	V12.6z M194,24.5c0.9,0.1,1.8-0.4,2.2-1.2c0.4-0.8,0.6-1.7,0.6-2.6c0-0.7-0.1-1.5-0.4-2.1c-0.4-0.9-1.3-1.4-2.3-1.3
	c-0.9-0.1-1.7,0.4-2.1,1.1c-0.5,0.8-0.7,1.7-0.7,2.7c0,0.9,0.2,1.7,0.7,2.5C192.3,24.2,193.1,24.5,194,24.5L194,24.5z M194,15.8
	c1.1,0,2.2,0.4,3.1,1.2c0.9,1,1.4,2.3,1.3,3.6c0.1,1.3-0.3,2.7-1.1,3.8c-0.8,1-2.1,1.6-3.4,1.5c-1.2,0.1-2.3-0.4-3.1-1.3
	c-0.8-1-1.2-2.3-1.1-3.5c-0.1-1.4,0.4-2.7,1.2-3.8C191.6,16.3,192.8,15.8,194,15.8L194,15.8z M200.2,16.1h1.5v1.3
	c0.4-0.5,0.9-0.9,1.4-1.2c0.5-0.2,1.1-0.4,1.7-0.4c1.1-0.1,2.2,0.4,2.7,1.4c0.3,0.7,0.4,1.4,0.4,2.2v6h-1.6v-5.9
	c0-0.5-0.1-1-0.3-1.4c-0.3-0.6-0.9-0.9-1.5-0.9c-0.3,0-0.6,0-0.9,0.1c-0.4,0.1-0.8,0.4-1.1,0.8c-0.2,0.3-0.4,0.6-0.5,1
	c-0.1,0.5-0.1,0.9-0.1,1.4v4.9h-1.6L200.2,16.1z M214.2,15.9c0.7,0,1.3,0.2,1.9,0.5c0.6,0.3,1.1,0.7,1.4,1.2
	c0.3,0.5,0.5,1.1,0.6,1.7c0.1,0.7,0.2,1.4,0.1,2.1h-6.9c0,0.8,0.2,1.6,0.7,2.3c0.5,0.6,1.2,0.9,2,0.9c0.7,0,1.5-0.3,2-0.8
	c0.3-0.3,0.5-0.7,0.6-1.1h1.6c-0.1,0.4-0.2,0.8-0.4,1.2c-0.2,0.4-0.5,0.7-0.8,1c-0.5,0.5-1.1,0.8-1.8,0.9c-0.4,0.1-0.9,0.1-1.3,0.1
	c-1.1,0-2.2-0.4-3-1.3c-0.9-1-1.3-2.3-1.2-3.6c-0.1-1.3,0.4-2.6,1.2-3.7C211.7,16.4,212.9,15.8,214.2,15.9L214.2,15.9z M216.7,20
	c0-0.6-0.2-1.1-0.4-1.6c-0.4-0.8-1.3-1.2-2.2-1.1c-0.7,0-1.4,0.3-1.8,0.8c-0.5,0.5-0.8,1.3-0.8,2H216.7z M221.2,22.5
	c0,0.4,0.2,0.9,0.4,1.2c0.5,0.6,1.3,0.8,2.1,0.8c0.5,0,1.1-0.1,1.5-0.4c0.4-0.2,0.7-0.7,0.7-1.2c0-0.4-0.2-0.7-0.5-0.9
	c-0.4-0.2-0.9-0.3-1.4-0.4l-1.3-0.3c-0.6-0.1-1.2-0.4-1.8-0.7c-0.6-0.4-1-1-1-1.8c0-0.8,0.3-1.6,1-2.2c0.7-0.6,1.7-0.9,2.6-0.8
	c1.2-0.1,2.3,0.4,3.1,1.2c0.4,0.5,0.6,1.1,0.6,1.7h-1.5c0-0.4-0.2-0.7-0.4-1c-0.5-0.5-1.2-0.7-1.9-0.6c-0.5,0-1,0.1-1.4,0.3
	c-0.3,0.2-0.5,0.5-0.5,0.9c0,0.4,0.2,0.8,0.6,1c0.3,0.2,0.7,0.3,1,0.4l1,0.3c0.8,0.2,1.6,0.4,2.3,0.8c0.6,0.4,1,1.2,0.9,1.9
	c0,0.8-0.3,1.6-1,2.2c-0.8,0.7-1.9,1-2.9,0.9c-1.1,0.1-2.2-0.2-3-1c-0.6-0.6-0.9-1.5-0.9-2.4L221.2,22.5z M234.3,16.1h1.6v9.4h-1.6
	V16.1z M234.3,12.6h1.6v1.8h-1.6V12.6z M238.3,16.1h1.5v1.3c0.4-0.5,0.9-0.9,1.4-1.2c0.5-0.2,1.1-0.4,1.7-0.4
	c1.1-0.1,2.2,0.4,2.7,1.4c0.3,0.7,0.4,1.4,0.4,2.2v6h-1.6v-5.9c0-0.5-0.1-1-0.3-1.4c-0.3-0.6-0.9-0.9-1.5-0.9c-0.3,0-0.6,0-0.9,0.1
	c-0.4,0.1-0.8,0.4-1.1,0.8c-0.2,0.3-0.4,0.6-0.5,1c-0.1,0.5-0.1,0.9-0.1,1.4v4.9h-1.6L238.3,16.1z M249.3,20.9
	c0,0.9,0.2,1.8,0.6,2.5c0.4,0.7,1.2,1.1,2.1,1c0.7,0,1.4-0.3,1.8-0.9c0.5-0.8,0.8-1.8,0.7-2.7c0.1-0.9-0.2-1.9-0.7-2.6
	c-0.4-0.5-1.1-0.9-1.8-0.9c-0.8,0-1.5,0.3-1.9,0.9C249.5,19,249.2,19.9,249.3,20.9z M251.7,15.9c0.6,0,1.3,0.1,1.8,0.5
	c0.4,0.3,0.7,0.6,1,0.9v-4.8h1.5v13h-1.4v-1.3c-0.3,0.5-0.8,1-1.3,1.3c-0.5,0.3-1.1,0.4-1.7,0.4c-1.1,0-2.1-0.5-2.7-1.3
	c-0.8-1-1.2-2.2-1.2-3.5c0-1.3,0.3-2.5,1.1-3.6C249.3,16.4,250.5,15.9,251.7,15.9L251.7,15.9z M258.3,16.1h1.6v9.4h-1.6V16.1z
	 M258.3,12.6h1.6v1.8h-1.6V12.6z M265.9,15.8c0.9,0,1.8,0.2,2.6,0.8c0.7,0.7,1.2,1.6,1.2,2.7h-1.5c-0.1-0.5-0.3-1-0.6-1.4
	c-0.4-0.4-1-0.6-1.6-0.6c-1,0-1.8,0.6-2.2,1.5c-0.3,0.8-0.4,1.6-0.4,2.4c0,0.8,0.2,1.7,0.6,2.4c0.7,1,2.2,1.3,3.2,0.5
	c0.1-0.1,0.1-0.1,0.2-0.2c0.4-0.5,0.7-1,0.8-1.6h1.5c-0.1,1-0.5,2-1.3,2.7c-0.8,0.6-1.7,0.9-2.7,0.9c-1.1,0-2.2-0.5-2.9-1.3
	c-0.8-1-1.1-2.2-1.1-3.4c-0.1-1.4,0.3-2.8,1.2-3.9C263.6,16.3,264.7,15.8,265.9,15.8L265.9,15.8z M272.5,23c0,0.4,0.2,0.8,0.5,1.1
	c0.3,0.3,0.8,0.4,1.2,0.4c0.6,0,1.1-0.1,1.6-0.4c0.8-0.4,1.4-1.2,1.3-2.1v-1.3c-0.2,0.1-0.5,0.2-0.7,0.3c-0.3,0.1-0.6,0.1-0.9,0.2
	l-1,0.1c-0.4,0-0.9,0.2-1.3,0.4C272.7,21.9,272.5,22.5,272.5,23z M276.3,19.8c0.3,0,0.6-0.2,0.7-0.5c0.1-0.2,0.1-0.4,0.1-0.6
	c0-0.5-0.2-0.9-0.6-1.2c-0.5-0.3-1.1-0.4-1.6-0.4c-0.7-0.1-1.3,0.2-1.8,0.7c-0.2,0.3-0.4,0.7-0.4,1.1h-1.5c-0.1-0.9,0.4-1.9,1.1-2.4
	c0.8-0.5,1.6-0.7,2.5-0.7c0.9,0,1.9,0.2,2.7,0.6c0.7,0.4,1.1,1.2,1,2v5.4c0,0.1,0,0.3,0.1,0.4c0.1,0.1,0.3,0.2,0.4,0.1
	c0.1,0,0.1,0,0.2,0s0.2,0,0.3,0v1.2c-0.2,0.1-0.4,0.1-0.6,0.1c-0.2,0-0.4,0-0.5,0c-0.5,0-0.9-0.2-1.2-0.6c-0.1-0.3-0.2-0.6-0.3-0.9
	c-0.4,0.5-0.9,0.8-1.4,1.1c-0.6,0.3-1.3,0.5-2,0.5c-0.8,0-1.6-0.3-2.1-0.8c-0.5-0.5-0.8-1.2-0.8-2c0-0.8,0.3-1.5,0.8-2
	c0.6-0.5,1.4-0.8,2.1-0.9L276.3,19.8z M282.3,20.9c0,0.9,0.2,1.8,0.6,2.5c0.4,0.7,1.2,1.1,2.1,1c0.7,0,1.4-0.3,1.8-0.9
	c0.5-0.8,0.8-1.8,0.7-2.7c0.1-0.9-0.2-1.9-0.7-2.6c-0.4-0.5-1.1-0.9-1.8-0.9c-0.8,0-1.5,0.3-1.9,0.9C282.5,19,282.2,19.9,282.3,20.9
	z M284.7,15.9c0.6,0,1.3,0.1,1.8,0.5c0.4,0.3,0.7,0.6,1,0.9v-4.8h1.5v13h-1.4v-1.3c-0.3,0.5-0.8,1-1.3,1.3c-0.5,0.3-1.1,0.4-1.7,0.4
	c-1.1,0-2.1-0.5-2.7-1.3c-0.8-1-1.2-2.2-1.2-3.5c0-1.3,0.3-2.5,1.1-3.6C282.3,16.4,283.5,15.9,284.7,15.9L284.7,15.9z M292.5,23
	c0,0.4,0.2,0.8,0.5,1.1c0.3,0.3,0.8,0.4,1.2,0.4c0.6,0,1.1-0.1,1.6-0.4c0.8-0.4,1.4-1.2,1.3-2.1v-1.3c-0.2,0.1-0.5,0.2-0.7,0.3
	c-0.3,0.1-0.6,0.1-0.9,0.2l-1,0.1c-0.4,0-0.9,0.2-1.3,0.4C292.8,21.9,292.5,22.5,292.5,23L292.5,23z M296.3,19.8
	c0.3,0,0.6-0.2,0.7-0.5c0.1-0.2,0.1-0.4,0.1-0.6c0-0.5-0.2-0.9-0.6-1.2c-0.5-0.3-1.1-0.4-1.6-0.4c-0.7-0.1-1.3,0.2-1.8,0.7
	c-0.2,0.3-0.4,0.7-0.4,1.1h-1.5c-0.1-0.9,0.4-1.9,1.1-2.4c0.8-0.5,1.6-0.7,2.5-0.7c0.9,0,1.9,0.2,2.7,0.6c0.7,0.4,1.1,1.2,1,2v5.4
	c0,0.1,0,0.3,0.1,0.4c0.1,0.1,0.3,0.2,0.4,0.1c0.1,0,0.1,0,0.2,0s0.2,0,0.3,0v1.2c-0.2,0.1-0.4,0.1-0.6,0.1c-0.2,0-0.4,0-0.5,0
	c-0.5,0-0.9-0.2-1.2-0.6c-0.1-0.3-0.2-0.6-0.3-0.9c-0.4,0.5-0.9,0.8-1.4,1.1c-0.6,0.3-1.3,0.5-2,0.5c-0.8,0-1.6-0.3-2.1-0.8
	c-0.5-0.5-0.8-1.2-0.8-2c0-0.8,0.3-1.5,0.8-2c0.6-0.5,1.4-0.8,2.1-0.9L296.3,19.8z M302.3,22.5c0,0.4,0.2,0.9,0.4,1.2
	c0.5,0.6,1.3,0.8,2.1,0.8c0.5,0,1.1-0.1,1.5-0.4c0.4-0.2,0.7-0.7,0.7-1.2c0-0.4-0.2-0.7-0.5-0.9c-0.4-0.2-0.9-0.3-1.4-0.4l-1.3-0.3
	c-0.6-0.1-1.2-0.4-1.8-0.7c-0.6-0.4-1-1-1-1.8c0-0.8,0.3-1.6,1-2.2c0.7-0.6,1.7-0.9,2.6-0.8c1.2-0.1,2.3,0.4,3.1,1.2
	c0.4,0.5,0.6,1.1,0.6,1.7h-1.5c0-0.4-0.2-0.7-0.4-1c-0.5-0.5-1.2-0.7-1.9-0.6c-0.5,0-1,0.1-1.4,0.3c-0.3,0.2-0.5,0.5-0.5,0.9
	c0,0.4,0.2,0.8,0.6,1c0.3,0.2,0.7,0.3,1,0.4l1,0.3c0.8,0.2,1.6,0.4,2.3,0.8c0.6,0.4,1,1.2,0.9,1.9c0,0.8-0.3,1.6-1,2.2
	c-0.8,0.7-1.9,1-2.9,0.9c-1.1,0.1-2.2-0.2-3-1c-0.6-0.6-0.9-1.5-0.9-2.4L302.3,22.5z M319.3,24.4c0.7,0,1.4-0.3,1.8-0.9
	c0.5-0.8,0.8-1.8,0.7-2.8c0-0.7-0.1-1.3-0.3-1.9c-0.5-1.2-1.8-1.9-3.1-1.4c-0.7,0.3-1.2,0.8-1.4,1.5c-0.2,0.7-0.3,1.5-0.3,2.2
	c0,0.6,0.1,1.3,0.3,1.9C317.4,23.9,318.3,24.5,319.3,24.4L319.3,24.4z M315.2,16.1h1.5v1.3c0.3-0.4,0.6-0.7,1-1
	c0.6-0.4,1.2-0.5,1.9-0.5c1,0,2,0.4,2.7,1.2c0.8,1,1.2,2.2,1.1,3.5c0,2.1-0.5,3.5-1.6,4.4c-0.7,0.6-1.5,0.8-2.4,0.8
	c-0.6,0-1.2-0.1-1.8-0.5c-0.4-0.2-0.7-0.6-0.9-0.9v4.8h-1.6L315.2,16.1z M326.5,23c0,0.4,0.2,0.8,0.5,1.1c0.3,0.3,0.8,0.4,1.2,0.4
	c0.6,0,1.1-0.1,1.6-0.4c0.8-0.4,1.4-1.2,1.3-2.1v-1.3c-0.2,0.1-0.5,0.2-0.7,0.3c-0.3,0.1-0.6,0.1-0.9,0.2l-1,0.1
	c-0.4,0-0.9,0.2-1.3,0.4C326.8,21.9,326.5,22.5,326.5,23z M330.4,19.8c0.3,0,0.6-0.2,0.7-0.5c0.1-0.2,0.1-0.4,0.1-0.6
	c0-0.5-0.2-0.9-0.6-1.2c-0.5-0.3-1.1-0.4-1.6-0.4c-0.7-0.1-1.3,0.2-1.8,0.7c-0.2,0.3-0.4,0.7-0.4,1.1h-1.5c-0.1-1,0.4-1.9,1.1-2.4
	c0.8-0.5,1.6-0.7,2.5-0.7c0.9,0,1.9,0.2,2.7,0.6c0.7,0.4,1.1,1.2,1,2v5.4c0,0.1,0,0.3,0.1,0.4c0.1,0.1,0.3,0.2,0.4,0.1
	c0.1,0,0.1,0,0.2,0s0.2,0,0.3,0v1.2c-0.2,0.1-0.4,0.1-0.6,0.1c-0.2,0-0.4,0-0.5,0c-0.5,0-0.9-0.2-1.2-0.6c-0.1-0.3-0.2-0.6-0.3-0.9
	c-0.4,0.5-0.9,0.8-1.4,1.1c-0.6,0.3-1.3,0.5-2,0.5c-0.8,0-1.6-0.3-2.1-0.8c-0.5-0.5-0.8-1.2-0.8-2c0-0.8,0.3-1.5,0.8-2
	c0.6-0.5,1.4-0.8,2.1-0.9L330.4,19.8z M335.4,16.1h1.5v1.6c0.2-0.4,0.5-0.8,0.9-1.2c0.4-0.4,1-0.7,1.7-0.7c0,0,0.1,0,0.1,0
	c0.1,0,0.2,0,0.4,0v1.7c-0.1,0-0.2,0-0.3,0c-0.1,0-0.2,0-0.3,0c-0.7,0-1.4,0.2-1.8,0.8c-0.4,0.5-0.6,1.1-0.6,1.8v5.4h-1.6
	L335.4,16.1z M342.5,23c0,0.4,0.2,0.8,0.5,1.1c0.3,0.3,0.8,0.4,1.2,0.4c0.6,0,1.1-0.1,1.6-0.4c0.8-0.4,1.4-1.2,1.3-2.1v-1.3
	c-0.2,0.1-0.5,0.2-0.7,0.3c-0.3,0.1-0.6,0.1-0.9,0.2l-1,0.1c-0.4,0-0.9,0.2-1.3,0.4C342.8,21.9,342.5,22.5,342.5,23L342.5,23z
	 M346.4,19.8c0.3,0,0.6-0.2,0.7-0.5c0.1-0.2,0.1-0.4,0.1-0.6c0-0.5-0.2-0.9-0.6-1.2c-0.5-0.3-1.1-0.4-1.6-0.4
	c-0.7-0.1-1.3,0.2-1.8,0.7c-0.2,0.3-0.4,0.7-0.4,1.1h-1.5c-0.1-0.9,0.4-1.9,1.1-2.4c0.8-0.5,1.6-0.7,2.5-0.7c0.9,0,1.9,0.2,2.7,0.6
	c0.7,0.4,1.1,1.2,1,2v5.4c0,0.1,0,0.3,0.1,0.4c0.1,0.1,0.3,0.2,0.4,0.1c0.1,0,0.1,0,0.2,0s0.2,0,0.3,0v1.2c-0.2,0.1-0.4,0.1-0.6,0.1
	c-0.2,0-0.4,0-0.5,0c-0.5,0-0.9-0.2-1.2-0.6c-0.1-0.3-0.2-0.6-0.3-0.9c-0.4,0.5-0.9,0.8-1.4,1.1c-0.6,0.3-1.3,0.5-2,0.5
	c-0.8,0-1.6-0.3-2.1-0.8c-0.5-0.5-0.8-1.2-0.8-2c0-0.8,0.3-1.5,0.8-2c0.6-0.5,1.4-0.8,2.1-0.9L346.4,19.8z M357.3,20.9
	c0,0.9,0.2,1.8,0.6,2.5c0.4,0.7,1.2,1.1,2.1,1c0.7,0,1.4-0.3,1.8-0.9c0.5-0.8,0.8-1.8,0.7-2.7c0.1-0.9-0.2-1.9-0.7-2.6
	c-0.4-0.5-1.1-0.9-1.8-0.9c-0.8,0-1.5,0.3-1.9,0.9C357.5,19,357.3,19.9,357.3,20.9z M359.7,15.9c0.6,0,1.3,0.1,1.8,0.5
	c0.4,0.3,0.7,0.6,1,0.9v-4.8h1.5v13h-1.4v-1.3c-0.3,0.5-0.8,1-1.3,1.3c-0.5,0.3-1.1,0.4-1.7,0.4c-1.1,0-2.1-0.5-2.7-1.3
	c-0.8-1-1.2-2.2-1.2-3.5c0-1.3,0.3-2.5,1-3.6C357.4,16.4,358.5,15.9,359.7,15.9L359.7,15.9z M370.3,15.9c0.7,0,1.3,0.2,1.9,0.5
	c0.6,0.3,1.1,0.7,1.4,1.2c0.3,0.5,0.5,1.1,0.6,1.7c0.1,0.7,0.2,1.4,0.1,2.1h-6.9c0,0.8,0.2,1.6,0.7,2.3c0.5,0.6,1.2,0.9,2,0.9
	c0.7,0,1.5-0.3,2-0.8c0.3-0.3,0.5-0.7,0.6-1.1h1.6c-0.1,0.4-0.2,0.8-0.4,1.2c-0.2,0.4-0.5,0.7-0.8,1c-0.5,0.5-1.1,0.8-1.8,0.9
	c-0.4,0.1-0.9,0.1-1.3,0.1c-1.1,0-2.2-0.4-3-1.3c-0.9-1-1.3-2.3-1.2-3.6c-0.1-1.3,0.4-2.6,1.2-3.7C367.9,16.4,369,15.8,370.3,15.9
	L370.3,15.9z M372.8,20c0-0.6-0.2-1.1-0.4-1.6c-0.4-0.8-1.3-1.2-2.2-1.1c-0.7,0-1.4,0.3-1.8,0.8c-0.5,0.5-0.8,1.3-0.8,2L372.8,20z
	 M377.3,22.5c0,0.4,0.2,0.9,0.4,1.2c0.5,0.6,1.3,0.8,2.1,0.8c0.5,0,1.1-0.1,1.5-0.4c0.4-0.2,0.7-0.7,0.7-1.2c0-0.4-0.2-0.7-0.5-0.9
	c-0.4-0.2-0.9-0.3-1.4-0.4l-1.3-0.3c-0.6-0.1-1.2-0.4-1.8-0.7c-0.6-0.4-1-1-1-1.8c0-0.8,0.3-1.6,1-2.2c0.7-0.6,1.7-0.9,2.6-0.8
	c1.2-0.1,2.3,0.4,3.1,1.2c0.4,0.5,0.6,1.1,0.6,1.7h-1.5c0-0.4-0.2-0.7-0.4-1c-0.5-0.5-1.2-0.7-1.9-0.6c-0.5,0-1,0.1-1.4,0.3
	c-0.3,0.2-0.5,0.5-0.5,0.9c0,0.4,0.2,0.8,0.6,1c0.3,0.2,0.7,0.3,1,0.4l1,0.3c0.8,0.2,1.6,0.4,2.3,0.8c0.6,0.4,1,1.2,0.9,1.9
	c0,0.8-0.3,1.6-1,2.2c-0.8,0.7-1.9,1-2.9,0.9c-1.1,0.1-2.2-0.2-3-1c-0.6-0.6-0.9-1.5-0.9-2.4L377.3,22.5z M386.6,23
	c0,0.4,0.2,0.8,0.5,1.1c0.3,0.3,0.8,0.4,1.2,0.4c0.6,0,1.1-0.1,1.6-0.4c0.8-0.4,1.4-1.2,1.3-2.1v-1.3c-0.2,0.1-0.5,0.2-0.7,0.3
	c-0.3,0.1-0.6,0.1-0.9,0.2l-1,0.1c-0.4,0-0.9,0.2-1.3,0.4C386.8,21.9,386.5,22.5,386.6,23L386.6,23z M390.4,19.8
	c0.3,0,0.6-0.2,0.7-0.5c0.1-0.2,0.1-0.4,0.1-0.6c0-0.5-0.2-0.9-0.6-1.2c-0.5-0.3-1.1-0.4-1.6-0.4c-0.7-0.1-1.3,0.2-1.8,0.7
	c-0.2,0.3-0.4,0.7-0.4,1.1h-1.5c-0.1-0.9,0.4-1.9,1.1-2.4c0.8-0.5,1.6-0.7,2.5-0.7c0.9,0,1.9,0.2,2.7,0.6c0.7,0.4,1.1,1.2,1,2v5.4
	c0,0.1,0,0.3,0.1,0.4c0.1,0.1,0.3,0.2,0.4,0.1c0.1,0,0.1,0,0.2,0c0.1,0,0.2,0,0.3,0v1.2c-0.2,0.1-0.4,0.1-0.6,0.1
	c-0.2,0-0.4,0-0.5,0c-0.5,0-0.9-0.2-1.2-0.6c-0.1-0.3-0.2-0.6-0.3-0.9c-0.4,0.5-0.9,0.8-1.4,1.1c-0.6,0.3-1.3,0.5-2,0.5
	c-0.8,0-1.6-0.3-2.1-0.8c-0.5-0.5-0.8-1.2-0.8-2c0-0.8,0.3-1.5,0.8-2c0.6-0.5,1.4-0.8,2.1-0.9L390.4,19.8z M395.4,16.1h1.5v1.6
	c0.2-0.4,0.5-0.8,0.9-1.2c0.4-0.4,1-0.7,1.7-0.7c0,0,0.1,0,0.1,0c0.1,0,0.2,0,0.4,0v1.7c-0.1,0-0.2,0-0.3,0c-0.1,0-0.2,0-0.3,0
	c-0.7,0-1.4,0.2-1.8,0.8c-0.4,0.5-0.6,1.1-0.6,1.8v5.4h-1.6L395.4,16.1z M401.4,16.1h1.5v1.6c0.2-0.4,0.5-0.8,0.9-1.2
	c0.4-0.4,1-0.7,1.7-0.7c0,0,0.1,0,0.1,0c0.1,0,0.2,0,0.4,0v1.7c-0.1,0-0.2,0-0.3,0c-0.1,0-0.2,0-0.3,0c-0.7,0-1.4,0.2-1.8,0.8
	c-0.4,0.5-0.6,1.1-0.6,1.8v5.4h-1.6L401.4,16.1z M411.1,24.5c0.9,0.1,1.8-0.4,2.2-1.2c0.4-0.8,0.6-1.7,0.6-2.6
	c0-0.7-0.1-1.5-0.4-2.1c-0.4-0.9-1.3-1.4-2.3-1.3c-0.9-0.1-1.7,0.4-2.1,1.1c-0.5,0.8-0.7,1.7-0.7,2.7c0,0.9,0.2,1.7,0.7,2.5
	C409.5,24.2,410.3,24.5,411.1,24.5z M411.2,15.8c1.1,0,2.3,0.4,3.1,1.2c0.9,1,1.4,2.3,1.3,3.6c0.1,1.3-0.3,2.7-1.1,3.8
	c-0.8,1-2.1,1.6-3.4,1.5c-1.2,0.1-2.3-0.4-3.1-1.3c-0.8-1-1.2-2.3-1.1-3.5c-0.1-1.4,0.4-2.7,1.2-3.8
	C408.7,16.3,409.9,15.8,411.2,15.8L411.2,15.8z M417.4,12.6h1.6v12.9h-1.6V12.6z M421.4,12.6h1.6v12.9h-1.6L421.4,12.6z M426.6,23
	c0,0.4,0.2,0.8,0.5,1.1c0.3,0.3,0.8,0.4,1.2,0.4c0.6,0,1.1-0.1,1.6-0.4c0.8-0.4,1.4-1.2,1.3-2.1v-1.3c-0.2,0.1-0.5,0.2-0.7,0.3
	c-0.3,0.1-0.6,0.1-0.9,0.2l-1,0.1c-0.4,0-0.9,0.2-1.3,0.4C426.8,21.9,426.5,22.5,426.6,23z M430.4,19.8c0.3,0,0.6-0.2,0.7-0.5
	c0.1-0.2,0.1-0.4,0.1-0.6c0-0.5-0.2-0.9-0.6-1.2c-0.5-0.3-1.1-0.4-1.6-0.4c-0.7-0.1-1.3,0.2-1.8,0.7c-0.2,0.3-0.4,0.7-0.4,1.1h-1.5
	c-0.1-0.9,0.4-1.9,1.1-2.4c0.8-0.5,1.6-0.7,2.5-0.7c0.9,0,1.9,0.2,2.7,0.6c0.7,0.4,1.1,1.2,1,2v5.4c0,0.1,0,0.3,0.1,0.4
	c0.1,0.1,0.3,0.2,0.4,0.1c0.1,0,0.1,0,0.2,0s0.2,0,0.3,0v1.2c-0.2,0.1-0.4,0.1-0.6,0.1c-0.2,0-0.4,0-0.5,0c-0.5,0-0.9-0.2-1.2-0.6
	c-0.1-0.3-0.2-0.6-0.3-0.9c-0.4,0.5-0.9,0.8-1.4,1.1c-0.6,0.3-1.3,0.5-2,0.5c-0.8,0-1.6-0.3-2.1-0.8c-0.5-0.5-0.8-1.2-0.8-2
	c0-0.8,0.3-1.5,0.8-2c0.6-0.5,1.4-0.8,2.1-0.9L430.4,19.8z M435.4,16.1h1.5v1.6c0.2-0.4,0.5-0.8,0.9-1.2c0.4-0.4,1-0.7,1.7-0.7
	c0,0,0.1,0,0.1,0c0.1,0,0.2,0,0.4,0v1.7c-0.1,0-0.2,0-0.3,0c-0.1,0-0.2,0-0.3,0c-0.7,0-1.4,0.2-1.8,0.8c-0.4,0.5-0.6,1.1-0.6,1.8
	v5.4h-1.6L435.4,16.1z M450.3,15.9c0.7,0,1.3,0.2,1.9,0.5c0.6,0.3,1.1,0.7,1.4,1.2c0.3,0.5,0.5,1.1,0.6,1.7c0.1,0.7,0.2,1.4,0.1,2.1
	h-6.9c0,0.8,0.2,1.6,0.7,2.3c0.5,0.6,1.2,0.9,2,0.9c0.7,0,1.5-0.3,2-0.8c0.3-0.3,0.5-0.7,0.6-1.1h1.6c-0.1,0.4-0.2,0.8-0.4,1.2
	c-0.2,0.4-0.5,0.7-0.8,1c-0.5,0.5-1.1,0.8-1.8,0.9c-0.4,0.1-0.9,0.1-1.3,0.1c-1.1,0-2.2-0.4-3-1.3c-0.9-1-1.3-2.3-1.2-3.6
	c-0.1-1.3,0.4-2.6,1.2-3.7C447.9,16.4,449.1,15.8,450.3,15.9z M452.8,20c0-0.6-0.2-1.1-0.4-1.6c-0.4-0.8-1.3-1.2-2.2-1.1
	c-0.7,0-1.4,0.3-1.8,0.8c-0.5,0.5-0.8,1.3-0.8,2L452.8,20z M456.4,12.6h1.6v12.9h-1.6V12.6z M469.4,24.4c0.7,0,1.4-0.3,1.8-0.9
	c0.5-0.8,0.8-1.8,0.7-2.8c0-0.7-0.1-1.3-0.3-1.9c-0.5-1.2-1.8-1.9-3.1-1.4c-0.7,0.3-1.2,0.8-1.4,1.5c-0.2,0.7-0.3,1.5-0.3,2.2
	c0,0.6,0.1,1.3,0.3,1.9C467.4,23.9,468.4,24.5,469.4,24.4L469.4,24.4z M465.3,16.1h1.5v1.2c0.3-0.4,0.6-0.7,1-1
	c0.6-0.4,1.2-0.5,1.9-0.5c1,0,2,0.4,2.7,1.2c0.8,1,1.2,2.2,1.1,3.5c0,2.1-0.5,3.5-1.6,4.4c-0.7,0.6-1.5,0.8-2.4,0.8
	c-0.6,0-1.2-0.1-1.8-0.5c-0.4-0.2-0.7-0.6-0.9-0.9v4.8h-1.6L465.3,16.1z M563.8,48.4c0.7,0,1.4-0.3,1.8-0.9c0.5-0.8,0.8-1.8,0.7-2.8
	c0-0.7-0.1-1.3-0.3-1.9c-0.5-1.2-1.8-1.9-3.1-1.4c-0.7,0.3-1.2,0.8-1.4,1.5c-0.2,0.7-0.3,1.5-0.3,2.2c0,0.6,0.1,1.3,0.3,1.9
	C561.9,47.9,562.8,48.4,563.8,48.4L563.8,48.4z M559.7,40.1h1.5v1.2c0.3-0.4,0.6-0.7,1-1c0.6-0.4,1.2-0.5,1.9-0.5c1,0,2,0.4,2.7,1.2
	c0.8,1,1.2,2.2,1.1,3.5c0,2.1-0.5,3.5-1.6,4.4c-0.7,0.6-1.5,0.8-2.4,0.8c-0.6,0-1.2-0.1-1.8-0.5c-0.4-0.2-0.7-0.6-0.9-0.9v4.8h-1.6
	L559.7,40.1z M476.6,23c0,0.4,0.2,0.8,0.5,1.1c0.3,0.3,0.8,0.4,1.2,0.4c0.6,0,1.1-0.1,1.6-0.4c0.8-0.4,1.4-1.2,1.3-2.1v-1.3
	c-0.2,0.1-0.5,0.2-0.7,0.3c-0.3,0.1-0.6,0.1-0.9,0.2l-1,0.1c-0.4,0-0.9,0.2-1.3,0.4C476.9,21.9,476.6,22.5,476.6,23z M480.4,19.8
	c0.3,0,0.6-0.2,0.7-0.5c0.1-0.2,0.1-0.4,0.1-0.6c0-0.5-0.2-0.9-0.6-1.2c-0.5-0.3-1.1-0.4-1.6-0.4c-0.7-0.1-1.3,0.2-1.8,0.7
	c-0.2,0.3-0.4,0.7-0.4,1.1h-1.5c-0.1-0.9,0.4-1.9,1.1-2.4c0.8-0.5,1.6-0.7,2.5-0.7c0.9,0,1.9,0.2,2.7,0.6c0.7,0.4,1.1,1.2,1,2v5.4
	c0,0.1,0,0.3,0.1,0.4c0.1,0.1,0.3,0.2,0.4,0.1c0.1,0,0.1,0,0.2,0c0.1,0,0.2,0,0.3,0v1.2c-0.2,0.1-0.4,0.1-0.6,0.1
	c-0.2,0-0.4,0-0.5,0c-0.5,0-0.9-0.2-1.2-0.6c-0.1-0.3-0.2-0.6-0.3-0.9c-0.4,0.5-0.9,0.8-1.4,1.1c-0.6,0.3-1.3,0.5-2,0.5
	c-0.8,0-1.6-0.3-2.1-0.8c-0.5-0.5-0.8-1.2-0.8-2c0-0.8,0.3-1.5,0.8-2c0.6-0.5,1.4-0.8,2.1-0.9L480.4,19.8z M485.7,13.5h1.6v2.6h1.5
	v1.3h-1.5v6.1c0,0.3,0.1,0.5,0.3,0.7c0.2,0.1,0.4,0.1,0.6,0.1c0.1,0,0.2,0,0.2,0c0.1,0,0.2,0,0.3,0v1.2c-0.2,0.1-0.4,0.1-0.6,0.1
	c-0.2,0-0.4,0-0.6,0c-0.6,0.1-1.1-0.1-1.5-0.6c-0.3-0.4-0.4-1-0.4-1.5v-6.2h-1.3v-1.3h1.3L485.7,13.5z M490.4,16.1h1.5v1.6
	c0.2-0.4,0.5-0.8,0.9-1.2c0.4-0.4,1-0.7,1.7-0.7c0,0,0.1,0,0.1,0c0.1,0,0.2,0,0.4,0v1.7c-0.1,0-0.2,0-0.3,0c-0.1,0-0.2,0-0.3,0
	c-0.7,0-1.4,0.2-1.8,0.8c-0.4,0.5-0.6,1.1-0.6,1.8v5.4h-1.6L490.4,16.1z M500.1,24.5c0.9,0.1,1.8-0.4,2.2-1.2
	c0.4-0.8,0.6-1.7,0.6-2.7c0-0.7-0.1-1.5-0.4-2.1c-0.4-0.9-1.3-1.4-2.3-1.3c-0.9-0.1-1.7,0.4-2.1,1.1c-0.5,0.8-0.7,1.7-0.7,2.7
	c0,0.9,0.2,1.7,0.7,2.5C498.5,24.2,499.3,24.5,500.1,24.5L500.1,24.5z M500.2,15.8c1.1,0,2.3,0.4,3.1,1.2c0.9,1,1.4,2.3,1.3,3.6
	c0.1,1.3-0.3,2.7-1.1,3.8c-0.8,1-2.1,1.6-3.4,1.5c-1.2,0.1-2.3-0.4-3.1-1.3c-0.8-1-1.2-2.3-1.1-3.5c-0.1-1.4,0.4-2.7,1.2-3.8
	C497.8,16.3,499,15.8,500.2,15.8L500.2,15.8z M502,12.3l-2.3,2.5h-1.2l1.6-2.5H502z M506.4,16.1h1.5v1.3c0.4-0.5,0.9-0.9,1.4-1.2
	c0.5-0.2,1.1-0.4,1.7-0.4c1.1-0.1,2.2,0.4,2.7,1.4c0.3,0.7,0.4,1.4,0.4,2.2v6h-1.6v-5.9c0-0.5-0.1-1-0.3-1.4
	c-0.3-0.6-0.9-0.9-1.5-0.9c-0.3,0-0.6,0-0.9,0.1c-0.4,0.1-0.8,0.4-1.1,0.8c-0.2,0.3-0.4,0.6-0.5,1c-0.1,0.5-0.1,0.9-0.1,1.4v4.9
	h-1.6V16.1z M521.3,12.5h1.5v4.7c0.7-0.9,1.7-1.4,2.8-1.4c1.1,0,2.1,0.4,2.9,1.2c0.8,1,1.2,2.3,1.1,3.6c0.1,1.3-0.3,2.6-1.1,3.7
	c-0.7,1-1.8,1.5-3,1.5c-0.6,0-1.3-0.2-1.8-0.5c-0.4-0.3-0.7-0.6-0.9-1v1.2h-1.5L521.3,12.5z M525.4,24.4c0.8,0,1.5-0.4,1.9-1
	c0.5-0.8,0.7-1.8,0.6-2.7c0-0.9-0.2-1.7-0.6-2.5c-0.4-0.6-1.1-1-1.9-1c-0.7,0-1.4,0.3-1.9,0.8c-0.6,0.7-0.9,1.7-0.8,2.6
	c0,0.7,0.1,1.5,0.3,2.2C523.4,23.8,524.4,24.5,525.4,24.4z M532.6,23c0,0.4,0.2,0.8,0.5,1.1c0.3,0.3,0.8,0.4,1.2,0.4
	c0.6,0,1.1-0.1,1.6-0.4c0.8-0.4,1.4-1.2,1.3-2.1v-1.3c-0.2,0.1-0.5,0.2-0.7,0.3c-0.3,0.1-0.6,0.1-0.9,0.2l-1,0.1
	c-0.4,0-0.9,0.2-1.3,0.4C532.9,21.9,532.6,22.5,532.6,23L532.6,23z M536.5,19.8c0.3,0,0.6-0.2,0.7-0.5c0.1-0.2,0.1-0.4,0.1-0.6
	c0-0.5-0.2-0.9-0.6-1.2c-0.5-0.3-1.1-0.4-1.6-0.4c-0.7-0.1-1.3,0.2-1.8,0.7c-0.2,0.3-0.4,0.7-0.4,1.1h-1.5c-0.1-0.9,0.4-1.9,1.1-2.4
	c0.8-0.5,1.6-0.7,2.5-0.7c0.9,0,1.9,0.2,2.7,0.6c0.7,0.4,1.1,1.2,1,2v5.4c0,0.1,0,0.3,0.1,0.4c0.1,0.1,0.3,0.2,0.4,0.1
	c0.1,0,0.1,0,0.2,0c0.1,0,0.2,0,0.3,0v1.2c-0.2,0.1-0.4,0.1-0.6,0.1c-0.2,0-0.4,0-0.5,0c-0.5,0-0.9-0.2-1.2-0.6
	c-0.1-0.3-0.2-0.6-0.3-0.9c-0.4,0.5-0.9,0.8-1.4,1.1c-0.6,0.3-1.3,0.5-2,0.5c-0.8,0-1.6-0.3-2.1-0.8c-0.5-0.5-0.8-1.2-0.8-2
	c0-0.8,0.3-1.5,0.8-2c0.6-0.5,1.4-0.8,2.1-0.9L536.5,19.8z M537.1,12.3l-2.3,2.5h-1.2l1.6-2.5L537.1,12.3z M542.4,22.5
	c0,0.4,0.2,0.9,0.4,1.2c0.5,0.6,1.3,0.8,2.1,0.8c0.5,0,1.1-0.1,1.5-0.4c0.4-0.2,0.7-0.7,0.7-1.2c0-0.4-0.2-0.7-0.5-0.9
	c-0.4-0.2-0.9-0.3-1.4-0.4l-1.3-0.3c-0.6-0.1-1.2-0.4-1.8-0.7c-0.6-0.4-1-1-1-1.8c0-0.8,0.3-1.6,1-2.2c0.7-0.6,1.7-0.9,2.6-0.8
	c1.2-0.1,2.3,0.4,3.1,1.2c0.4,0.5,0.6,1.1,0.6,1.7h-1.5c0-0.4-0.2-0.7-0.4-1c-0.5-0.5-1.2-0.7-1.9-0.6c-0.5,0-1,0.1-1.4,0.3
	c-0.3,0.2-0.5,0.5-0.5,0.9c0,0.4,0.2,0.8,0.6,1c0.3,0.2,0.7,0.3,1,0.4l1,0.3c0.8,0.2,1.6,0.4,2.3,0.8c0.6,0.4,1,1.2,0.9,1.9
	c0,0.8-0.3,1.6-1,2.2c-0.8,0.7-1.9,1-2.9,0.9c-1.1,0.1-2.2-0.2-3-1c-0.6-0.6-0.9-1.5-0.9-2.4L542.4,22.5z M550.4,16.1h1.6v9.4h-1.6
	V16.1z M550.4,12.6h1.6v1.8h-1.6V12.6z M558.1,15.8c0.9,0,1.8,0.2,2.6,0.8c0.7,0.7,1.2,1.6,1.2,2.7h-1.5c-0.1-0.5-0.3-1-0.6-1.4
	c-0.4-0.4-1-0.6-1.6-0.6c-1,0-1.8,0.6-2.2,1.5c-0.3,0.8-0.4,1.6-0.4,2.4c0,0.8,0.2,1.7,0.6,2.4c0.7,1,2.2,1.3,3.2,0.5
	c0.1-0.1,0.1-0.1,0.2-0.2c0.4-0.5,0.7-1,0.8-1.6h1.5c-0.1,1-0.5,2-1.3,2.7c-0.8,0.6-1.7,0.9-2.7,0.9c-1.1,0-2.2-0.5-2.9-1.3
	c-0.8-1-1.1-2.2-1.1-3.4c-0.1-1.4,0.3-2.8,1.2-3.9C555.8,16.3,556.9,15.8,558.1,15.8L558.1,15.8z M567.2,24.5
	c0.9,0.1,1.8-0.4,2.2-1.2c0.4-0.8,0.6-1.7,0.6-2.6c0-0.7-0.1-1.5-0.4-2.1c-0.4-0.9-1.3-1.4-2.3-1.3c-0.9-0.1-1.7,0.4-2.1,1.1
	c-0.5,0.8-0.7,1.7-0.7,2.7c0,0.9,0.2,1.7,0.7,2.5C565.6,24.2,566.4,24.5,567.2,24.5L567.2,24.5z M567.2,15.8c1.1,0,2.3,0.4,3.1,1.2
	c0.9,1,1.4,2.3,1.3,3.6c0.1,1.3-0.3,2.7-1.1,3.8c-0.8,1-2.1,1.6-3.4,1.5c-1.2,0.1-2.3-0.4-3.1-1.3c-0.8-1-1.2-2.3-1.1-3.5
	c-0.1-1.4,0.4-2.7,1.2-3.8C564.8,16.3,566,15.8,567.2,15.8L567.2,15.8z M578.5,16.1h1.6v9.4h-1.6V16.1z M578.5,12.6h1.6v1.8h-1.6
	V12.6z M582.5,16.1h1.5v1.3c0.4-0.5,0.9-0.9,1.4-1.2c0.5-0.2,1.1-0.4,1.7-0.4c1.1-0.1,2.2,0.4,2.7,1.4c0.3,0.7,0.4,1.4,0.4,2.2v6
	h-1.6v-5.9c0-0.5-0.1-1-0.3-1.4c-0.3-0.6-0.9-0.9-1.5-0.9c-0.3,0-0.6,0-0.9,0.1c-0.4,0.1-0.8,0.4-1.1,0.8c-0.2,0.3-0.4,0.6-0.5,1
	c-0.1,0.5-0.1,0.9-0.1,1.4v4.9h-1.6L582.5,16.1z M592.9,14.7c0-0.5,0.1-1,0.3-1.4c0.5-0.6,1.3-0.9,2.1-0.8c0.1,0,0.2,0,0.3,0
	c0.1,0,0.2,0,0.4,0v1.4c-0.2,0-0.3,0-0.4,0c-0.1,0-0.1,0-0.2,0c-0.5,0-0.8,0.1-0.9,0.4c-0.1,0.6-0.2,1.3-0.1,1.9h1.6v1.2h-1.6v8.1
	h-1.6v-8.1h-1.3v-1.2h1.3L592.9,14.7z M598.7,23c0,0.4,0.2,0.8,0.5,1.1c0.3,0.3,0.8,0.4,1.2,0.4c0.6,0,1.1-0.1,1.6-0.4
	c0.8-0.4,1.4-1.2,1.3-2.1v-1.3c-0.2,0.1-0.5,0.2-0.7,0.3c-0.3,0.1-0.6,0.1-0.9,0.2l-1,0.1c-0.4,0-0.9,0.2-1.3,0.4
	C598.9,21.9,598.6,22.5,598.7,23L598.7,23z M602.5,19.8c0.3,0,0.6-0.2,0.7-0.5c0.1-0.2,0.1-0.4,0.1-0.6c0-0.5-0.2-0.9-0.6-1.2
	c-0.5-0.3-1.1-0.4-1.6-0.4c-0.7-0.1-1.3,0.2-1.8,0.7c-0.2,0.3-0.4,0.7-0.4,1.1h-1.5c-0.1-0.9,0.4-1.9,1.1-2.4
	c0.8-0.5,1.6-0.7,2.5-0.7c0.9,0,1.9,0.2,2.7,0.6c0.7,0.4,1.1,1.2,1,2v5.4c0,0.1,0,0.3,0.1,0.4c0.1,0.1,0.3,0.2,0.4,0.1
	c0.1,0,0.1,0,0.2,0s0.2,0,0.3,0v1.2c-0.2,0.1-0.4,0.1-0.6,0.1c-0.2,0-0.4,0-0.5,0c-0.5,0-0.9-0.2-1.2-0.6c-0.1-0.3-0.2-0.6-0.3-0.9
	c-0.4,0.5-0.9,0.8-1.4,1.1c-0.6,0.3-1.3,0.5-2,0.5c-0.8,0-1.6-0.3-2.1-0.8c-0.5-0.5-0.8-1.2-0.8-2c0-0.8,0.3-1.5,0.8-2
	c0.6-0.5,1.4-0.8,2.2-0.9L602.5,19.8z M607.5,16.1h1.5v1.3c0.4-0.5,0.9-0.9,1.4-1.2c0.5-0.2,1.1-0.4,1.7-0.4
	c1.1-0.1,2.2,0.4,2.7,1.4c0.3,0.7,0.4,1.4,0.4,2.2v6h-1.6v-5.9c0-0.5-0.1-1-0.3-1.4c-0.3-0.6-0.9-0.9-1.5-0.9c-0.3,0-0.6,0-0.9,0.1
	c-0.4,0.1-0.8,0.4-1.1,0.8c-0.2,0.3-0.4,0.6-0.5,1c-0.1,0.5-0.1,0.9-0.1,1.4v4.9h-1.6L607.5,16.1z M617.8,13.5h1.6v2.6h1.5v1.3h-1.5
	v6.1c0,0.3,0.1,0.5,0.3,0.7c0.2,0.1,0.4,0.1,0.6,0.1c0.1,0,0.2,0,0.2,0c0.1,0,0.2,0,0.3,0v1.2c-0.2,0.1-0.4,0.1-0.6,0.1
	c-0.2,0-0.4,0-0.6,0c-0.6,0.1-1.1-0.1-1.5-0.6c-0.3-0.4-0.4-1-0.4-1.5v-6.2h-1.3v-1.3h1.3L617.8,13.5z M622.5,16.1h1.6v9.4h-1.6
	V16.1z M622.5,12.6h1.6v1.8h-1.6V12.6z M626.5,12.6h1.6v12.9h-1.6V12.6z M636.4,22.5c0,0.4,0.2,0.9,0.4,1.2c0.5,0.6,1.3,0.8,2.1,0.8
	c0.5,0,1.1-0.1,1.5-0.4c0.4-0.2,0.7-0.7,0.7-1.2c0-0.4-0.2-0.7-0.5-0.9c-0.4-0.2-0.9-0.3-1.4-0.4l-1.3-0.3c-0.6-0.1-1.2-0.4-1.8-0.7
	c-0.6-0.4-1-1-1-1.8c0-0.8,0.3-1.6,1-2.2c0.7-0.6,1.7-0.9,2.6-0.8c1.2-0.1,2.3,0.4,3.1,1.3c0.4,0.5,0.6,1.1,0.6,1.7h-1.5
	c0-0.4-0.2-0.7-0.4-1c-0.5-0.5-1.2-0.7-1.9-0.6c-0.5,0-1,0.1-1.4,0.3c-0.3,0.2-0.5,0.5-0.5,0.9c0,0.4,0.2,0.8,0.6,1
	c0.3,0.2,0.7,0.3,1,0.4l1,0.3c0.8,0.2,1.6,0.4,2.3,0.8c0.6,0.4,1,1.2,0.9,1.9c0,0.8-0.3,1.6-1,2.2c-0.8,0.7-1.9,1-2.9,0.9
	c-1.1,0.1-2.2-0.2-3-1c-0.6-0.6-0.9-1.5-0.9-2.4L636.4,22.5z M648.4,15.9c0.7,0,1.3,0.2,1.9,0.5c0.6,0.3,1.1,0.7,1.4,1.2
	c0.3,0.5,0.5,1.1,0.6,1.7c0.1,0.7,0.2,1.4,0.1,2.1h-6.9c0,0.8,0.2,1.6,0.7,2.3c0.5,0.6,1.2,0.9,2,0.9c0.7,0,1.5-0.3,2-0.8
	c0.3-0.3,0.5-0.7,0.6-1.1h1.6c-0.1,0.4-0.2,0.8-0.4,1.2c-0.2,0.4-0.5,0.7-0.8,1c-0.5,0.5-1.1,0.8-1.8,0.9c-0.4,0.1-0.9,0.1-1.3,0.1
	c-1.1,0-2.2-0.4-3-1.3c-0.9-1-1.3-2.3-1.2-3.6c-0.1-1.3,0.4-2.6,1.2-3.7C646,16.4,647.2,15.8,648.4,15.9L648.4,15.9z M650.9,20
	c0-0.6-0.2-1.1-0.4-1.6c-0.4-0.8-1.3-1.2-2.2-1.1c-0.7,0-1.4,0.3-1.8,0.8c-0.5,0.5-0.8,1.3-0.8,2H650.9z M657.8,15.9
	c0.7,0,1.4,0.2,1.9,0.5c0.3,0.3,0.7,0.6,0.9,0.9v-1.2h1.5v8.6c0,1-0.1,1.9-0.5,2.8c-0.7,1.3-2.2,2.1-3.7,1.9c-0.9,0-1.8-0.2-2.6-0.7
	c-0.7-0.5-1.1-1.3-1.2-2.1h1.6c0,0.4,0.2,0.7,0.5,1c1.3,0.9,3.1,0.6,4-0.7c0,0,0,0,0-0.1c0.3-0.9,0.4-1.8,0.3-2.7
	c-0.3,0.4-0.7,0.8-1.1,1.1c-1.5,0.7-3.2,0.4-4.4-0.7c-0.9-1-1.3-2.3-1.1-3.6c-0.1-1.3,0.3-2.6,1.2-3.7
	C655.7,16.4,656.7,15.9,657.8,15.9L657.8,15.9z M660.7,20.8c0.1-0.9-0.2-1.8-0.7-2.6c-0.5-0.5-1.1-0.9-1.8-0.8c-1-0.1-2,0.6-2.3,1.6
	c-0.2,0.7-0.4,1.4-0.3,2.2c-0.1,0.9,0.2,1.7,0.6,2.4c0.4,0.5,1.1,0.9,1.7,0.8c1,0.1,2-0.6,2.4-1.5C660.6,22.1,660.7,21.4,660.7,20.8
	L660.7,20.8z M666.1,16.1v6.2c0,0.4,0.1,0.8,0.2,1.2c0.3,0.6,0.9,0.9,1.6,0.8c1,0.1,1.9-0.5,2.2-1.5c0.2-0.7,0.4-1.4,0.3-2.2v-4.6
	h1.6v9.4h-1.5l0-1.4c-0.2,0.3-0.5,0.7-0.8,0.9c-0.6,0.5-1.4,0.8-2.2,0.7c-1.1,0.1-2.2-0.4-2.7-1.3c-0.3-0.6-0.4-1.3-0.4-1.9v-6.4
	L666.1,16.1z M670.2,12.3l-2.3,2.5h-1.2l1.6-2.5H670.2z M674.5,16.1h1.5v1.3c0.4-0.5,0.9-0.9,1.4-1.2c0.5-0.2,1.1-0.4,1.7-0.4
	c1.1-0.1,2.2,0.4,2.7,1.4c0.3,0.7,0.4,1.4,0.4,2.2v6h-1.6v-5.9c0-0.5-0.1-1-0.3-1.4c-0.3-0.6-0.9-0.9-1.5-0.9c-0.3,0-0.6,0-0.9,0.1
	c-0.4,0.1-0.8,0.4-1.1,0.8c-0.2,0.3-0.4,0.6-0.5,1c-0.1,0.5-0.1,0.9-0.1,1.4v4.9h-1.6L674.5,16.1z M693.5,15.9
	c0.7,0,1.3,0.2,1.9,0.5c0.6,0.3,1.1,0.7,1.4,1.2c0.3,0.5,0.5,1.1,0.6,1.7c0.1,0.7,0.2,1.4,0.1,2.1h-6.9c0,0.8,0.2,1.6,0.7,2.3
	c0.5,0.6,1.2,0.9,2,0.9c0.7,0,1.5-0.3,2-0.8c0.3-0.3,0.5-0.7,0.6-1.1h1.6c-0.1,0.4-0.2,0.8-0.4,1.2c-0.2,0.4-0.5,0.7-0.8,1
	c-0.5,0.5-1.1,0.8-1.8,0.9c-0.4,0.1-0.9,0.1-1.3,0.1c-1.1,0-2.2-0.4-3-1.3c-0.9-1-1.3-2.3-1.2-3.6c-0.1-1.3,0.4-2.6,1.2-3.7
	C691,16.4,692.2,15.8,693.5,15.9L693.5,15.9z M696,20c0-0.6-0.2-1.1-0.4-1.6c-0.4-0.8-1.3-1.2-2.2-1.1c-0.7,0-1.4,0.3-1.8,0.8
	c-0.5,0.5-0.8,1.3-0.8,2H696z M699.6,12.6h1.6v12.9h-1.6V12.6z M36.1,48.4c0.7,0,1.4-0.3,1.8-0.9c0.5-0.8,0.8-1.8,0.7-2.8
	c0-0.7-0.1-1.3-0.3-1.9c-0.3-1-1.2-1.6-2.2-1.6c-1,0-2,0.6-2.2,1.6c-0.2,0.7-0.3,1.5-0.3,2.2c0,0.6,0.1,1.3,0.3,1.9
	C34.2,47.9,35.1,48.5,36.1,48.4z M32,40.1h1.5v1.2c0.3-0.4,0.6-0.7,1-1c0.6-0.4,1.2-0.5,1.9-0.5c1,0,2,0.4,2.7,1.2
	c0.8,1,1.2,2.2,1.1,3.5c0,2.1-0.5,3.5-1.6,4.4c-0.7,0.6-1.5,0.8-2.4,0.8c-0.6,0-1.2-0.1-1.8-0.5c-0.4-0.2-0.7-0.6-0.9-0.9v4.8H32
	L32,40.1z M42.2,40.1h1.5v1.6c0.2-0.4,0.5-0.8,0.9-1.2c0.4-0.4,1-0.7,1.7-0.7c0,0,0.1,0,0.1,0c0.1,0,0.2,0,0.4,0v1.7
	c-0.1,0-0.2,0-0.3,0c-0.1,0-0.2,0-0.3,0c-0.7,0-1.4,0.2-1.8,0.8c-0.4,0.5-0.6,1.1-0.6,1.8v5.4h-1.6L42.2,40.1z M51.9,48.5
	c0.9,0.1,1.8-0.4,2.2-1.2c0.4-0.8,0.6-1.7,0.6-2.7c0-0.7-0.1-1.5-0.4-2.1c-0.4-0.9-1.3-1.4-2.3-1.3c-0.9-0.1-1.7,0.4-2.1,1.1
	c-0.5,0.8-0.7,1.7-0.7,2.7c0,0.9,0.2,1.7,0.7,2.5C50.3,48.2,51.1,48.5,51.9,48.5z M52,39.8c1.1,0,2.3,0.4,3.1,1.2
	c0.9,1,1.4,2.3,1.3,3.6c0.1,1.3-0.3,2.7-1.1,3.8c-0.8,1-2.1,1.6-3.4,1.5c-1.2,0.1-2.3-0.4-3.1-1.3c-0.8-1-1.2-2.3-1.1-3.5
	c-0.1-1.4,0.4-2.7,1.2-3.8C49.5,40.3,50.7,39.8,52,39.8z M61.8,39.8c0.9,0,1.8,0.2,2.6,0.8c0.7,0.7,1.2,1.6,1.2,2.7H64
	c-0.1-0.5-0.3-1-0.6-1.4c-0.4-0.4-1-0.6-1.6-0.6c-1,0-1.8,0.6-2.2,1.5c-0.3,0.8-0.4,1.6-0.4,2.4c0,0.8,0.2,1.7,0.6,2.4
	c0.7,1,2.2,1.3,3.2,0.5c0.1-0.1,0.1-0.1,0.2-0.2c0.4-0.5,0.7-1,0.8-1.6h1.5c-0.1,2.1-1.8,3.7-3.8,3.6c-0.1,0-0.1,0-0.2,0
	c-1.1,0-2.2-0.5-2.9-1.3c-0.8-1-1.1-2.2-1.1-3.4c-0.1-1.4,0.3-2.8,1.2-3.9C59.5,40.3,60.6,39.8,61.8,39.8z M71.1,39.9
	c0.7,0,1.3,0.2,1.9,0.5c0.6,0.3,1.1,0.7,1.4,1.2c0.3,0.5,0.5,1.1,0.6,1.7c0.1,0.7,0.2,1.4,0.1,2.1h-6.9c0,0.8,0.2,1.6,0.7,2.3
	c0.5,0.6,1.2,0.9,2,0.9c0.7,0,1.5-0.3,2-0.8c0.3-0.3,0.5-0.7,0.6-1.1h1.6c-0.1,0.4-0.2,0.8-0.4,1.2c-0.2,0.4-0.5,0.7-0.8,1
	c-0.5,0.5-1.1,0.8-1.8,0.9c-0.4,0.1-0.9,0.1-1.3,0.1c-1.1,0-2.2-0.4-3-1.3c-0.9-1-1.3-2.3-1.2-3.6c-0.1-1.3,0.4-2.6,1.2-3.7
	C68.7,40.4,69.9,39.8,71.1,39.9L71.1,39.9z M73.6,44c0-0.6-0.2-1.1-0.4-1.6c-0.4-0.8-1.3-1.2-2.2-1.1c-0.7,0-1.4,0.3-1.8,0.8
	c-0.5,0.5-0.8,1.3-0.8,2L73.6,44z M78.2,44.9c0,0.9,0.2,1.8,0.6,2.5c0.4,0.7,1.2,1.1,2.1,1c0.7,0,1.4-0.3,1.8-0.9
	c0.5-0.8,0.8-1.8,0.7-2.7c0.1-0.9-0.2-1.9-0.7-2.6c-0.4-0.5-1.1-0.9-1.8-0.9c-0.8,0-1.5,0.3-1.9,0.9C78.4,43,78.1,43.9,78.2,44.9
	L78.2,44.9z M80.6,39.9c0.6,0,1.3,0.1,1.8,0.5c0.4,0.3,0.7,0.6,1,0.9v-4.8h1.5v13h-1.4v-1.3c-0.3,0.5-0.8,1-1.3,1.3
	c-0.5,0.3-1.1,0.4-1.7,0.4c-1.1,0-2.1-0.5-2.7-1.3c-0.8-1-1.2-2.2-1.2-3.5c0-1.3,0.3-2.5,1.1-3.6C78.2,40.4,79.4,39.9,80.6,39.9z
	 M87.2,40.1h1.6v9.4h-1.6L87.2,40.1z M87.2,36.6h1.6v1.8h-1.6L87.2,36.6z M91.2,40.1h1.6v1.3c0.3-0.4,0.6-0.7,1-1
	c0.5-0.4,1.1-0.5,1.8-0.5c0.6,0,1.3,0.2,1.8,0.6c0.3,0.3,0.5,0.6,0.7,0.9c0.3-0.5,0.7-0.9,1.2-1.1c0.5-0.2,1-0.4,1.6-0.4
	c1.1-0.1,2.1,0.4,2.6,1.4c0.3,0.6,0.4,1.3,0.4,2v6.3h-1.6V43c0.1-0.5-0.1-1-0.5-1.3c-0.3-0.2-0.7-0.4-1.1-0.4
	c-0.6,0-1.2,0.2-1.6,0.6c-0.5,0.6-0.7,1.3-0.7,2.1v5.5h-1.6v-6.1c0-0.5,0-1-0.2-1.4c-0.3-0.5-0.8-0.7-1.3-0.7
	c-0.6,0-1.2,0.3-1.6,0.7c-0.6,0.7-0.8,1.6-0.7,2.5v5h-1.6L91.2,40.1z M106.2,40.1h1.6v9.4h-1.6L106.2,40.1z M106.2,36.6h1.6v1.8
	h-1.6L106.2,36.6z M114.1,39.9c0.7,0,1.3,0.2,1.9,0.5c0.6,0.3,1.1,0.7,1.4,1.2c0.3,0.5,0.5,1.1,0.6,1.7c0.1,0.7,0.2,1.4,0.1,2.1
	h-6.9c0,0.8,0.2,1.6,0.7,2.3c0.5,0.6,1.2,0.9,2,0.9c0.7,0,1.5-0.3,2-0.8c0.3-0.3,0.5-0.7,0.6-1.1h1.6c-0.1,0.4-0.2,0.8-0.4,1.2
	c-0.2,0.4-0.5,0.7-0.8,1c-0.5,0.5-1.1,0.8-1.8,0.9c-0.4,0.1-0.9,0.1-1.3,0.1c-1.1,0-2.2-0.4-3-1.3c-0.9-1-1.3-2.3-1.2-3.6
	c-0.1-1.3,0.4-2.6,1.2-3.7C111.7,40.4,112.9,39.8,114.1,39.9L114.1,39.9z M116.6,44c0-0.6-0.2-1.1-0.4-1.6c-0.4-0.8-1.3-1.2-2.2-1.1
	c-0.7,0-1.4,0.3-1.8,0.8c-0.5,0.5-0.8,1.3-0.8,2H116.6z M120.2,40.1h1.5v1.3c0.4-0.5,0.9-0.9,1.4-1.2c0.5-0.2,1.1-0.4,1.7-0.4
	c1.1-0.1,2.2,0.4,2.7,1.4c0.3,0.7,0.4,1.4,0.4,2.2v6h-1.6v-5.9c0-0.5-0.1-1-0.3-1.4c-0.3-0.6-0.9-0.9-1.5-0.9c-0.3,0-0.6,0-0.9,0.1
	c-0.4,0.1-0.8,0.4-1.1,0.8c-0.2,0.3-0.4,0.6-0.5,1c-0.1,0.5-0.1,0.9-0.1,1.4v4.9h-1.6V40.1z M130.5,37.5h1.6v2.6h1.5v1.3h-1.5v6.1
	c0,0.3,0.1,0.5,0.3,0.7c0.2,0.1,0.4,0.1,0.6,0.1c0.1,0,0.2,0,0.2,0s0.2,0,0.3,0v1.2c-0.2,0.1-0.4,0.1-0.6,0.1c-0.2,0-0.4,0-0.6,0
	c-0.6,0.1-1.1-0.1-1.5-0.6c-0.3-0.4-0.4-1-0.4-1.5v-6.2h-1.3v-1.3h1.3L130.5,37.5z M138.9,48.5c0.9,0.1,1.7-0.4,2.2-1.2
	c0.4-0.8,0.6-1.7,0.6-2.7c0-0.7-0.1-1.5-0.4-2.1c-0.4-0.9-1.3-1.4-2.3-1.3c-0.9-0.1-1.7,0.4-2.1,1.1c-0.5,0.8-0.7,1.7-0.7,2.7
	c0,0.9,0.2,1.7,0.7,2.5C137.3,48.2,138.1,48.5,138.9,48.5z M139,39.8c1.1,0,2.3,0.4,3.1,1.2c0.9,1,1.4,2.3,1.3,3.6
	c0.1,1.3-0.3,2.7-1.1,3.8c-0.8,1-2.1,1.6-3.4,1.5c-1.2,0.1-2.3-0.4-3.1-1.3c-0.8-1-1.2-2.3-1.1-3.5c-0.1-1.4,0.4-2.7,1.2-3.8
	C136.6,40.3,137.8,39.8,139,39.8L139,39.8z M151.2,44.9c0,0.9,0.2,1.8,0.6,2.5c0.4,0.7,1.2,1.1,2.1,1c0.7,0,1.4-0.3,1.8-0.9
	c0.5-0.8,0.8-1.8,0.7-2.7c0.1-0.9-0.2-1.9-0.7-2.6c-0.4-0.5-1.1-0.9-1.8-0.9c-0.8,0-1.5,0.3-1.9,0.9C151.4,43,151.2,43.9,151.2,44.9
	z M153.6,39.9c0.6,0,1.3,0.1,1.8,0.5c0.4,0.3,0.7,0.6,1,0.9v-4.8h1.5v13h-1.4v-1.3c-0.3,0.5-0.8,1-1.3,1.3c-0.5,0.3-1.1,0.4-1.7,0.4
	c-1.1,0-2.1-0.5-2.7-1.3c-0.8-1-1.2-2.2-1.2-3.5c0-1.3,0.3-2.5,1.1-3.6C151.3,40.4,152.4,39.9,153.6,39.9L153.6,39.9z M164.1,39.9
	c0.7,0,1.3,0.2,1.9,0.5c0.6,0.3,1.1,0.7,1.4,1.2c0.3,0.5,0.5,1.1,0.6,1.7c0.1,0.7,0.2,1.4,0.1,2.1h-6.9c0,0.8,0.2,1.6,0.7,2.3
	c0.5,0.6,1.2,0.9,2,0.9c0.7,0,1.5-0.3,2-0.8c0.3-0.3,0.5-0.7,0.6-1.1h1.6c-0.1,0.4-0.2,0.8-0.4,1.2c-0.2,0.4-0.5,0.7-0.8,1
	c-0.5,0.5-1.1,0.8-1.8,0.9c-0.4,0.1-0.9,0.1-1.3,0.1c-1.1,0-2.2-0.4-3-1.3c-0.9-1-1.3-2.3-1.2-3.6c-0.1-1.3,0.4-2.6,1.2-3.7
	C161.7,40.4,162.9,39.8,164.1,39.9L164.1,39.9z M166.7,44c0-0.6-0.2-1.1-0.4-1.6c-0.4-0.8-1.3-1.2-2.2-1.1c-0.7,0-1.4,0.3-1.8,0.8
	c-0.5,0.5-0.8,1.3-0.8,2H166.7z M171.2,46.5c0,0.4,0.2,0.9,0.4,1.2c0.5,0.6,1.3,0.8,2.1,0.8c0.5,0,1.1-0.1,1.5-0.4
	c0.4-0.2,0.7-0.7,0.7-1.2c0-0.4-0.2-0.7-0.5-0.9c-0.4-0.2-0.9-0.3-1.4-0.4l-1.3-0.3c-0.6-0.1-1.2-0.4-1.8-0.7c-0.6-0.4-1-1-1-1.8
	c0-0.8,0.3-1.6,1-2.2c0.7-0.6,1.7-0.9,2.6-0.8c1.2-0.1,2.3,0.4,3.1,1.2c0.4,0.5,0.6,1.1,0.6,1.7h-1.5c0-0.4-0.2-0.7-0.4-1
	c-0.5-0.5-1.2-0.7-1.9-0.6c-0.5,0-1,0.1-1.4,0.3c-0.3,0.2-0.5,0.5-0.5,0.9c0,0.4,0.2,0.8,0.6,1c0.3,0.2,0.7,0.3,1,0.4l1,0.3
	c0.8,0.2,1.6,0.4,2.3,0.8c0.6,0.4,1,1.2,0.9,1.9c0,0.8-0.3,1.6-1,2.2c-0.8,0.7-1.9,1-2.9,0.9c-1.1,0.1-2.2-0.2-3-1
	c-0.6-0.6-0.9-1.5-0.9-2.4L171.2,46.5z M182.9,39.8c0.9,0,1.8,0.2,2.6,0.8c0.7,0.7,1.2,1.6,1.2,2.7h-1.5c-0.1-0.5-0.3-1-0.6-1.4
	c-0.4-0.4-1-0.6-1.6-0.6c-1,0-1.8,0.6-2.2,1.5c-0.3,0.8-0.4,1.6-0.4,2.4c0,0.8,0.2,1.7,0.6,2.4c0.7,1,2.2,1.3,3.2,0.5
	c0.1-0.1,0.1-0.1,0.2-0.2c0.4-0.5,0.7-1,0.8-1.6h1.5c-0.1,2.1-1.8,3.7-3.8,3.6c-0.1,0-0.1,0-0.2,0c-1.1,0-2.2-0.5-2.9-1.3
	c-0.8-1-1.1-2.2-1.1-3.4c-0.1-1.4,0.3-2.8,1.2-3.9C180.6,40.3,181.7,39.8,182.9,39.8L182.9,39.8z M188.3,40.1h1.5v1.6
	c0.2-0.4,0.5-0.8,0.9-1.2c0.4-0.4,1-0.7,1.7-0.7c0,0,0.1,0,0.1,0c0.1,0,0.2,0,0.4,0v1.7c-0.1,0-0.2,0-0.3,0c-0.1,0-0.2,0-0.3,0
	c-0.7,0-1.4,0.2-1.8,0.8c-0.4,0.5-0.6,1.1-0.6,1.8v5.4h-1.6L188.3,40.1z M194.2,40.1h1.6v9.4h-1.6V40.1z M194.2,36.6h1.6v1.8h-1.6
	V36.6z M198.5,37.5h1.6v2.6h1.5v1.3h-1.5v6.1c0,0.3,0.1,0.5,0.3,0.7c0.2,0.1,0.4,0.1,0.6,0.1c0.1,0,0.2,0,0.2,0c0.1,0,0.2,0,0.3,0
	v1.2c-0.2,0.1-0.4,0.1-0.6,0.1c-0.2,0-0.4,0-0.6,0c-0.6,0.1-1.1-0.1-1.5-0.6c-0.3-0.4-0.4-1-0.4-1.5v-6.2h-1.3v-1.3h1.3V37.5z
	 M207,48.5c0.9,0.1,1.8-0.4,2.2-1.2c0.4-0.8,0.6-1.7,0.6-2.7c0-0.7-0.1-1.5-0.4-2.1c-0.4-0.9-1.3-1.4-2.3-1.3
	c-0.9-0.1-1.7,0.4-2.1,1.1c-0.5,0.8-0.7,1.7-0.7,2.7c0,0.9,0.2,1.7,0.7,2.5C205.3,48.2,206.1,48.5,207,48.5L207,48.5z M207,39.8
	c1.1,0,2.3,0.4,3.1,1.2c0.9,1,1.4,2.3,1.3,3.6c0.1,1.3-0.3,2.7-1.1,3.8c-0.8,1-2.1,1.6-3.4,1.5c-1.2,0.1-2.3-0.4-3.1-1.3
	c-0.8-1-1.2-2.2-1.1-3.5c-0.1-1.4,0.4-2.7,1.2-3.8C204.6,40.3,205.8,39.8,207,39.8L207,39.8z M222.2,39.9c0.7,0,1.3,0.2,1.9,0.5
	c0.6,0.3,1.1,0.7,1.4,1.2c0.3,0.5,0.5,1.1,0.6,1.7c0.1,0.7,0.2,1.4,0.1,2.1h-6.9c0,0.8,0.2,1.6,0.7,2.3c0.5,0.6,1.2,0.9,2,0.9
	c0.7,0,1.5-0.3,2-0.8c0.3-0.3,0.5-0.7,0.6-1.1h1.6c-0.1,0.4-0.2,0.8-0.4,1.2c-0.2,0.4-0.5,0.7-0.8,1c-0.5,0.5-1.1,0.8-1.8,0.9
	c-0.4,0.1-0.9,0.1-1.3,0.1c-1.1,0-2.2-0.4-3-1.3c-0.9-1-1.3-2.3-1.2-3.6c-0.1-1.3,0.4-2.6,1.2-3.7C219.7,40.4,220.9,39.8,222.2,39.9
	L222.2,39.9z M224.7,44c0-0.6-0.2-1.1-0.4-1.6c-0.4-0.8-1.3-1.2-2.2-1.1c-0.7,0-1.4,0.3-1.8,0.8c-0.5,0.5-0.8,1.3-0.8,2H224.7z
	 M228.3,40.1h1.5v1.3c0.4-0.5,0.9-0.9,1.4-1.2c0.5-0.2,1.1-0.4,1.7-0.4c1.1-0.1,2.2,0.4,2.7,1.4c0.3,0.7,0.4,1.4,0.4,2.2v6h-1.6
	v-5.9c0-0.5-0.1-1-0.3-1.4c-0.3-0.6-0.9-0.9-1.5-0.9c-0.3,0-0.6,0-0.9,0.1c-0.4,0.1-0.8,0.4-1.1,0.8c-0.2,0.3-0.4,0.6-0.5,1
	c-0.1,0.5-0.1,0.9-0.1,1.4v4.9h-1.6L228.3,40.1z M247.2,39.9c0.7,0,1.3,0.2,1.9,0.5c0.6,0.3,1.1,0.7,1.4,1.2
	c0.3,0.5,0.5,1.1,0.6,1.7c0.1,0.7,0.2,1.4,0.1,2.1h-6.9c0,0.8,0.2,1.6,0.7,2.3c0.5,0.6,1.2,0.9,2,0.9c0.7,0,1.5-0.3,2-0.8
	c0.3-0.3,0.5-0.7,0.6-1.1h1.6c-0.1,0.4-0.2,0.8-0.4,1.2c-0.2,0.4-0.5,0.7-0.8,1c-0.5,0.5-1.1,0.8-1.8,0.9c-0.4,0.1-0.9,0.1-1.3,0.1
	c-1.1,0-2.2-0.4-3-1.3c-0.9-1-1.3-2.3-1.2-3.6c-0.1-1.3,0.4-2.6,1.2-3.7C244.8,40.4,246,39.8,247.2,39.9L247.2,39.9z M249.7,44
	c0-0.6-0.2-1.1-0.4-1.6c-0.4-0.8-1.3-1.2-2.2-1.1c-0.7,0-1.4,0.3-1.8,0.8c-0.5,0.5-0.8,1.3-0.8,2H249.7z M253.3,36.6h1.6v12.9h-1.6
	V36.6z M262.3,40.1h1.6v1.3c0.3-0.4,0.6-0.7,1-1c0.5-0.4,1.1-0.5,1.8-0.5c0.6,0,1.3,0.2,1.8,0.6c0.3,0.3,0.5,0.6,0.7,0.9
	c0.3-0.5,0.7-0.9,1.2-1.1c0.5-0.2,1-0.4,1.6-0.4c1.1-0.1,2.1,0.4,2.6,1.4c0.3,0.6,0.4,1.3,0.4,2v6.3h-1.6V43c0.1-0.5-0.1-1-0.5-1.3
	c-0.3-0.2-0.7-0.4-1.1-0.4c-0.6,0-1.2,0.2-1.6,0.6c-0.5,0.6-0.7,1.3-0.7,2.1v5.5h-1.6v-6.1c0-0.5,0-1-0.2-1.4
	c-0.3-0.5-0.8-0.7-1.3-0.7c-0.6,0-1.2,0.3-1.6,0.7c-0.6,0.7-0.8,1.6-0.7,2.5v5h-1.6L262.3,40.1z M278.5,47c0,0.4,0.2,0.8,0.5,1.1
	c0.3,0.3,0.8,0.4,1.2,0.4c0.6,0,1.1-0.1,1.6-0.4c0.8-0.4,1.4-1.2,1.3-2.1v-1.3c-0.2,0.1-0.5,0.2-0.7,0.3c-0.3,0.1-0.6,0.1-0.9,0.2
	l-1,0.1c-0.4,0-0.9,0.2-1.3,0.4C278.7,45.9,278.4,46.5,278.5,47z M282.3,43.8c0.3,0,0.6-0.2,0.7-0.5c0.1-0.2,0.1-0.4,0.1-0.6
	c0-0.5-0.2-0.9-0.6-1.2c-0.5-0.3-1.1-0.4-1.6-0.4c-0.7-0.1-1.3,0.2-1.8,0.7c-0.2,0.3-0.4,0.7-0.4,1.1h-1.5c-0.1-0.9,0.4-1.9,1.1-2.4
	c0.8-0.5,1.6-0.7,2.5-0.7c0.9,0,1.9,0.2,2.7,0.6c0.7,0.4,1.1,1.2,1,2v5.4c0,0.1,0,0.3,0.1,0.4c0.1,0.1,0.3,0.2,0.4,0.1
	c0.1,0,0.1,0,0.2,0s0.2,0,0.3,0v1.2c-0.2,0.1-0.4,0.1-0.6,0.1c-0.2,0-0.4,0-0.5,0c-0.5,0-0.9-0.2-1.2-0.6c-0.1-0.3-0.2-0.6-0.3-0.9
	c-0.4,0.5-0.9,0.8-1.4,1.1c-0.6,0.3-1.3,0.5-2,0.5c-0.8,0-1.6-0.3-2.1-0.8c-0.5-0.5-0.8-1.2-0.8-2c0-0.8,0.3-1.5,0.8-2
	c0.6-0.5,1.4-0.8,2.1-0.9L282.3,43.8z M287.6,37.5h1.6v2.6h1.5v1.3h-1.5v6.1c0,0.3,0.1,0.5,0.3,0.7c0.2,0.1,0.4,0.1,0.6,0.1
	c0.1,0,0.2,0,0.2,0s0.2,0,0.3,0v1.2c-0.2,0.1-0.4,0.1-0.6,0.1c-0.2,0-0.4,0-0.6,0c-0.6,0.1-1.1-0.1-1.5-0.6c-0.3-0.4-0.4-1-0.4-1.5
	v-6.2h-1.3v-1.3h1.3L287.6,37.5z M296.2,39.9c0.7,0,1.3,0.2,1.9,0.5c0.6,0.3,1.1,0.7,1.4,1.2c0.3,0.5,0.5,1.1,0.6,1.7
	c0.1,0.7,0.2,1.4,0.1,2.1h-6.9c0,0.8,0.2,1.6,0.7,2.3c0.5,0.6,1.2,0.9,2,0.9c0.7,0,1.5-0.3,2-0.8c0.3-0.3,0.5-0.7,0.6-1.1h1.6
	c-0.1,0.4-0.2,0.8-0.4,1.2c-0.2,0.4-0.5,0.7-0.8,1c-0.5,0.5-1.1,0.8-1.8,0.9c-0.4,0.1-0.9,0.1-1.3,0.1c-1.1,0-2.2-0.4-3-1.3
	c-0.9-1-1.3-2.3-1.2-3.6c-0.1-1.3,0.4-2.6,1.2-3.7C293.8,40.4,295,39.8,296.2,39.9L296.2,39.9z M298.7,44c0-0.6-0.2-1.1-0.4-1.6
	c-0.4-0.8-1.3-1.2-2.2-1.1c-0.7,0-1.4,0.3-1.8,0.8c-0.5,0.5-0.8,1.3-0.8,2H298.7z M302.3,40.1h1.5v1.6c0.2-0.4,0.5-0.8,0.9-1.2
	c0.4-0.4,1-0.7,1.7-0.7c0,0,0.1,0,0.1,0c0.1,0,0.2,0,0.4,0v1.7c-0.1,0-0.2,0-0.3,0c-0.1,0-0.2,0-0.3,0c-0.7,0-1.4,0.2-1.8,0.8
	c-0.4,0.5-0.6,1.1-0.6,1.8v5.4h-1.6L302.3,40.1z M308.3,40.1h1.6v9.4h-1.6L308.3,40.1z M308.3,36.6h1.6v1.8h-1.6L308.3,36.6z
	 M313.5,47c0,0.4,0.2,0.8,0.5,1.1c0.3,0.3,0.8,0.4,1.2,0.4c0.6,0,1.1-0.1,1.6-0.4c0.8-0.4,1.4-1.2,1.3-2.1v-1.3
	c-0.2,0.1-0.5,0.2-0.7,0.3c-0.3,0.1-0.6,0.1-0.9,0.2l-1,0.1c-0.4,0-0.9,0.2-1.3,0.4C313.7,45.9,313.5,46.5,313.5,47z M317.3,43.8
	c0.3,0,0.6-0.2,0.7-0.5c0.1-0.2,0.1-0.4,0.1-0.6c0-0.5-0.2-0.9-0.6-1.2c-0.5-0.3-1.1-0.4-1.6-0.4c-0.7-0.1-1.3,0.2-1.8,0.7
	c-0.2,0.3-0.4,0.7-0.4,1.1h-1.5c-0.1-0.9,0.4-1.9,1.1-2.4c0.8-0.5,1.6-0.7,2.5-0.7c0.9,0,1.9,0.2,2.7,0.6c0.7,0.4,1.1,1.2,1,2v5.4
	c0,0.1,0,0.3,0.1,0.4c0.1,0.1,0.3,0.2,0.4,0.1c0.1,0,0.1,0,0.2,0s0.2,0,0.3,0v1.2c-0.2,0.1-0.4,0.1-0.6,0.1c-0.2,0-0.4,0-0.5,0
	c-0.5,0-0.9-0.2-1.2-0.6c-0.1-0.3-0.2-0.6-0.3-0.9c-0.4,0.5-0.9,0.8-1.4,1.1c-0.6,0.3-1.3,0.5-2,0.5c-0.8,0-1.6-0.3-2.1-0.8
	c-0.5-0.5-0.8-1.2-0.8-2c0-0.8,0.3-1.5,0.8-2c0.6-0.5,1.4-0.8,2.1-0.9L317.3,43.8z M322.3,36.6h1.6v12.9h-1.6V36.6z M334.9,39.8
	c0.9,0,1.8,0.2,2.6,0.8c0.7,0.7,1.2,1.6,1.2,2.7h-1.5c-0.1-0.5-0.3-1-0.6-1.4c-0.4-0.4-1-0.6-1.6-0.6c-1,0-1.8,0.6-2.2,1.5
	c-0.3,0.8-0.4,1.6-0.4,2.4c0,0.8,0.2,1.7,0.6,2.4c0.7,1,2.2,1.3,3.2,0.5c0.1-0.1,0.1-0.1,0.2-0.2c0.4-0.5,0.7-1,0.8-1.6h1.5
	c-0.1,2.1-1.8,3.7-3.8,3.6c-0.1,0-0.1,0-0.2,0c-1.1,0-2.2-0.5-2.9-1.3c-0.8-1-1.1-2.2-1.1-3.4c-0.1-1.4,0.3-2.8,1.2-3.9
	C332.6,40.3,333.7,39.8,334.9,39.8L334.9,39.8z M344,48.5c0.9,0.1,1.8-0.4,2.2-1.2c0.4-0.8,0.6-1.7,0.6-2.7c0-0.7-0.1-1.5-0.4-2.1
	c-0.4-0.9-1.3-1.4-2.3-1.3c-0.9-0.1-1.7,0.4-2.1,1.1c-0.5,0.8-0.7,1.7-0.7,2.7c0,0.9,0.2,1.7,0.7,2.5
	C342.4,48.2,343.2,48.5,344,48.5L344,48.5z M344.1,39.8c1.1,0,2.3,0.4,3.1,1.2c0.9,1,1.4,2.3,1.3,3.6c0.1,1.3-0.3,2.7-1.1,3.8
	c-0.8,1-2.1,1.6-3.4,1.5c-1.2,0.1-2.3-0.4-3.1-1.3c-0.8-1-1.2-2.3-1.1-3.5c-0.1-1.4,0.4-2.7,1.2-3.8
	C341.7,40.3,342.9,39.8,344.1,39.8L344.1,39.8z M350.3,40.1h1.6v1.3c0.3-0.4,0.6-0.7,1-1c0.5-0.4,1.1-0.5,1.8-0.5
	c0.6,0,1.3,0.2,1.8,0.6c0.3,0.3,0.5,0.6,0.7,0.9c0.3-0.5,0.7-0.9,1.2-1.1c0.5-0.2,1-0.4,1.6-0.4c1.1-0.1,2.1,0.4,2.6,1.4
	c0.3,0.6,0.4,1.3,0.4,2v6.3h-1.6V43c0.1-0.5-0.1-1-0.5-1.3c-0.3-0.2-0.7-0.4-1.1-0.4c-0.6,0-1.2,0.2-1.6,0.6
	c-0.5,0.6-0.7,1.3-0.7,2.1v5.5h-1.6v-6.1c0-0.5,0-1-0.2-1.4c-0.3-0.5-0.8-0.7-1.3-0.7c-0.6,0-1.2,0.3-1.6,0.7
	c-0.6,0.7-0.8,1.6-0.7,2.5v5h-1.6L350.3,40.1z M369.3,48.4c0.7,0,1.4-0.3,1.8-0.9c0.5-0.8,0.8-1.8,0.7-2.8c0-0.7-0.1-1.3-0.3-1.9
	c-0.5-1.2-1.8-1.9-3.1-1.4c-0.7,0.3-1.2,0.8-1.4,1.5c-0.2,0.7-0.3,1.5-0.3,2.2c0,0.6,0.1,1.3,0.3,1.9
	C367.4,47.9,368.3,48.5,369.3,48.4L369.3,48.4z M365.2,40.1h1.5v1.2c0.3-0.4,0.6-0.7,1-1c0.6-0.4,1.2-0.5,1.9-0.5c1,0,2,0.4,2.7,1.2
	c0.8,1,1.2,2.2,1.1,3.5c0,2.1-0.5,3.5-1.6,4.4c-0.7,0.6-1.5,0.8-2.4,0.8c-0.6,0-1.2-0.1-1.8-0.5c-0.4-0.2-0.7-0.6-0.9-0.9v4.8h-1.6
	L365.2,40.1z M375.4,36.6h1.6v12.9h-1.6V36.6z M383.2,39.9c0.7,0,1.3,0.2,1.9,0.5c0.6,0.3,1.1,0.7,1.4,1.2c0.3,0.5,0.5,1.1,0.6,1.7
	c0.1,0.7,0.2,1.4,0.1,2.1h-6.9c0,0.8,0.2,1.6,0.7,2.3c0.5,0.6,1.2,0.9,2,0.9c0.7,0,1.5-0.3,2-0.8c0.3-0.3,0.5-0.7,0.6-1.1h1.6
	c-0.1,0.4-0.2,0.8-0.4,1.2c-0.2,0.4-0.5,0.7-0.8,1c-0.5,0.5-1.1,0.8-1.8,0.9c-0.4,0.1-0.9,0.1-1.3,0.1c-1.1,0-2.2-0.4-3-1.3
	c-0.9-1-1.3-2.3-1.2-3.6c-0.1-1.3,0.4-2.6,1.2-3.7C380.8,40.4,382,39.8,383.2,39.9L383.2,39.9z M385.8,44c0-0.6-0.2-1.1-0.4-1.6
	c-0.4-0.8-1.3-1.2-2.2-1.1c-0.7,0-1.4,0.3-1.8,0.8c-0.5,0.5-0.8,1.3-0.8,2H385.8z M389.3,40.1h1.6v1.3c0.3-0.4,0.6-0.7,1-1
	c0.5-0.4,1.1-0.5,1.8-0.5c0.6,0,1.3,0.2,1.8,0.6c0.3,0.3,0.5,0.6,0.7,0.9c0.3-0.5,0.7-0.9,1.2-1.1c0.5-0.2,1-0.4,1.6-0.4
	c1.1-0.1,2.1,0.4,2.6,1.4c0.3,0.6,0.4,1.3,0.4,2v6.3h-1.6V43c0.1-0.5-0.1-1-0.5-1.3c-0.3-0.2-0.7-0.4-1.1-0.4
	c-0.6,0-1.2,0.2-1.6,0.6c-0.5,0.6-0.7,1.3-0.7,2.1v5.5h-1.6v-6.1c0-0.5,0-1-0.2-1.4c-0.3-0.5-0.8-0.7-1.3-0.7
	c-0.6,0-1.2,0.3-1.6,0.7c-0.6,0.7-0.8,1.6-0.7,2.5v5h-1.6L389.3,40.1z M408.2,39.9c0.7,0,1.3,0.2,1.9,0.5c0.6,0.3,1.1,0.7,1.4,1.2
	c0.3,0.5,0.5,1.1,0.6,1.7c0.1,0.7,0.2,1.4,0.1,2.1h-6.9c0,0.8,0.2,1.6,0.7,2.3c0.5,0.6,1.2,0.9,2,0.9c0.7,0,1.5-0.3,2-0.8
	c0.3-0.3,0.5-0.7,0.6-1.1h1.6c-0.1,0.4-0.2,0.8-0.4,1.2c-0.2,0.4-0.5,0.7-0.8,1c-0.5,0.5-1.1,0.8-1.8,0.9c-0.4,0.1-0.9,0.1-1.3,0.1
	c-1.1,0-2.2-0.4-3-1.3c-0.9-1-1.3-2.3-1.2-3.6c-0.1-1.3,0.4-2.6,1.2-3.7C405.8,40.4,407,39.8,408.2,39.9L408.2,39.9z M410.8,44
	c0-0.6-0.2-1.1-0.4-1.6c-0.4-0.8-1.3-1.2-2.2-1.1c-0.7,0-1.4,0.3-1.8,0.8c-0.5,0.5-0.8,1.3-0.8,2H410.8z M414.3,40.1h1.5v1.3
	c0.4-0.5,0.9-0.9,1.4-1.2c0.5-0.2,1.1-0.4,1.7-0.4c1.1-0.1,2.2,0.4,2.7,1.4c0.3,0.7,0.4,1.4,0.4,2.2v6h-1.6v-5.9
	c0-0.5-0.1-1-0.3-1.4c-0.3-0.6-0.9-0.9-1.5-0.9c-0.3,0-0.6,0-0.9,0.1c-0.4,0.1-0.8,0.4-1.1,0.8c-0.2,0.3-0.4,0.6-0.5,1
	c-0.1,0.5-0.1,0.9-0.1,1.4v4.9h-1.6L414.3,40.1z M424.6,37.5h1.6v2.6h1.5v1.3h-1.5v6.1c0,0.3,0.1,0.5,0.3,0.7
	c0.2,0.1,0.4,0.1,0.6,0.1c0.1,0,0.2,0,0.2,0s0.2,0,0.3,0v1.2c-0.2,0.1-0.4,0.1-0.6,0.1c-0.2,0-0.4,0-0.6,0c-0.6,0.1-1.1-0.1-1.5-0.6
	c-0.3-0.4-0.4-1-0.4-1.5v-6.2h-1.3v-1.3h1.3L424.6,37.5z M430.5,47c0,0.4,0.2,0.8,0.5,1.1c0.3,0.3,0.8,0.4,1.2,0.4
	c0.6,0,1.1-0.1,1.6-0.4c0.8-0.4,1.4-1.2,1.3-2.1v-1.3c-0.2,0.1-0.5,0.2-0.7,0.3c-0.3,0.1-0.6,0.1-0.9,0.2l-1,0.1
	c-0.4,0-0.9,0.2-1.3,0.4C430.8,45.9,430.5,46.5,430.5,47L430.5,47z M434.4,43.8c0.3,0,0.6-0.2,0.7-0.5c0.1-0.2,0.1-0.4,0.1-0.6
	c0-0.5-0.2-0.9-0.6-1.2c-0.5-0.3-1.1-0.4-1.6-0.4c-0.7-0.1-1.3,0.2-1.8,0.7c-0.2,0.3-0.4,0.7-0.4,1.1h-1.5c-0.1-0.9,0.4-1.9,1.1-2.4
	c0.8-0.5,1.6-0.7,2.5-0.7c0.9,0,1.9,0.2,2.7,0.6c0.7,0.4,1.1,1.2,1,2v5.4c0,0.1,0,0.3,0.1,0.4c0.1,0.1,0.3,0.2,0.4,0.1
	c0.1,0,0.1,0,0.2,0c0.1,0,0.2,0,0.3,0v1.2c-0.2,0.1-0.4,0.1-0.6,0.1c-0.2,0-0.4,0-0.5,0c-0.5,0-0.9-0.2-1.2-0.6
	c-0.1-0.3-0.2-0.6-0.3-0.9c-0.4,0.5-0.9,0.8-1.4,1.1c-0.6,0.3-1.3,0.5-2,0.5c-0.8,0-1.6-0.3-2.1-0.8c-0.5-0.5-0.8-1.2-0.8-2
	c0-0.8,0.3-1.5,0.8-2c0.6-0.5,1.4-0.8,2.1-0.9L434.4,43.8z M439.4,40.1h1.5v1.6c0.2-0.4,0.5-0.8,0.9-1.2c0.4-0.4,1-0.7,1.7-0.7
	c0,0,0.1,0,0.1,0s0.2,0,0.4,0v1.7c-0.1,0-0.2,0-0.3,0c-0.1,0-0.2,0-0.3,0c-0.7,0-1.4,0.2-1.8,0.8c-0.4,0.5-0.6,1.1-0.6,1.8v5.4h-1.6
	L439.4,40.1z M445.3,40.1h1.6v9.4h-1.6V40.1z M445.3,36.6h1.6v1.8h-1.6V36.6z M453.1,48.5c0.9,0.1,1.8-0.4,2.2-1.2
	c0.4-0.8,0.6-1.7,0.6-2.7c0-0.7-0.1-1.5-0.4-2.1c-0.4-0.9-1.3-1.4-2.3-1.3c-0.9-0.1-1.7,0.4-2.1,1.1c-0.5,0.8-0.7,1.7-0.7,2.7
	c0,0.9,0.2,1.7,0.7,2.5C451.5,48.2,452.3,48.5,453.1,48.5L453.1,48.5z M453.1,39.8c1.1,0,2.3,0.4,3.1,1.2c0.9,1,1.4,2.3,1.3,3.6
	c0.1,1.3-0.3,2.7-1.1,3.8c-0.8,1-2.1,1.6-3.4,1.5c-1.2,0.1-2.3-0.4-3.1-1.3c-0.8-1-1.2-2.3-1.1-3.5c-0.1-1.4,0.4-2.7,1.2-3.8
	C450.7,40.3,451.9,39.8,453.1,39.8L453.1,39.8z M459.7,47.6h1.8v1.9h-1.8V47.6z M469.5,36.6h2.5l3.7,10.9l3.7-10.9h2.5v12.9h-1.7
	v-7.6c0-0.3,0-0.7,0-1.3c0-0.6,0-1.3,0-2l-3.7,10.9h-1.7l-3.7-10.9V39c0,0.3,0,0.8,0,1.4s0,1.1,0,1.4v7.6h-1.7L469.5,36.6z
	 M485.6,47c0,0.4,0.2,0.8,0.5,1.1c0.3,0.3,0.8,0.4,1.2,0.4c0.6,0,1.1-0.1,1.6-0.4c0.8-0.4,1.4-1.2,1.3-2.1v-1.3
	c-0.2,0.1-0.5,0.2-0.7,0.3c-0.3,0.1-0.6,0.1-0.9,0.2l-1,0.1c-0.4,0-0.9,0.2-1.3,0.4C485.8,45.9,485.5,46.5,485.6,47z M489.4,43.8
	c0.3,0,0.6-0.2,0.7-0.5c0.1-0.2,0.1-0.4,0.1-0.6c0-0.5-0.2-0.9-0.6-1.2c-0.5-0.3-1.1-0.4-1.6-0.4c-0.7-0.1-1.3,0.2-1.8,0.7
	c-0.2,0.3-0.4,0.7-0.4,1.1h-1.5c-0.1-0.9,0.4-1.9,1.1-2.4c0.8-0.5,1.6-0.7,2.5-0.7c0.9,0,1.9,0.2,2.7,0.6c0.7,0.4,1.1,1.2,1,2v5.4
	c0,0.1,0,0.3,0.1,0.4c0.1,0.1,0.3,0.2,0.4,0.1c0.1,0,0.1,0,0.2,0s0.2,0,0.3,0v1.2c-0.2,0.1-0.4,0.1-0.6,0.1c-0.2,0-0.4,0-0.5,0
	c-0.5,0-0.9-0.2-1.2-0.6c-0.1-0.3-0.2-0.6-0.3-0.9c-0.4,0.5-0.9,0.8-1.4,1.1c-0.6,0.3-1.3,0.5-2,0.5c-0.8,0-1.6-0.3-2.1-0.8
	c-0.5-0.5-0.8-1.2-0.8-2c0-0.8,0.3-1.5,0.8-2c0.6-0.5,1.4-0.8,2.1-0.9L489.4,43.8z M494.4,40.1h1.5v1.3c0.4-0.5,0.9-0.9,1.4-1.2
	c0.5-0.2,1.1-0.4,1.7-0.4c1.1-0.1,2.2,0.4,2.7,1.4c0.3,0.7,0.4,1.4,0.4,2.2v6h-1.6v-5.9c0-0.5-0.1-1-0.3-1.4
	c-0.3-0.6-0.9-0.9-1.5-0.9c-0.3,0-0.6,0-0.9,0.1c-0.4,0.1-0.8,0.4-1.1,0.8c-0.2,0.3-0.4,0.6-0.5,1c-0.1,0.5-0.1,0.9-0.1,1.4v4.9
	h-1.6L494.4,40.1z M506,40.1v6.2c0,0.4,0.1,0.8,0.2,1.2c0.3,0.6,0.9,0.9,1.6,0.8c1,0.1,1.9-0.5,2.2-1.5c0.2-0.7,0.4-1.4,0.3-2.2
	v-4.6h1.6v9.4h-1.5l0-1.4c-0.2,0.3-0.5,0.7-0.8,0.9c-0.6,0.5-1.4,0.8-2.2,0.7c-1.1,0.1-2.2-0.4-2.7-1.3c-0.3-0.6-0.4-1.3-0.4-1.9
	v-6.4L506,40.1z M515.6,47c0,0.4,0.2,0.8,0.5,1.1c0.3,0.3,0.8,0.4,1.2,0.4c0.6,0,1.1-0.1,1.6-0.4c0.8-0.4,1.4-1.2,1.3-2.1v-1.3
	c-0.2,0.1-0.5,0.2-0.7,0.3c-0.3,0.1-0.6,0.1-0.9,0.2l-1,0.1c-0.4,0-0.9,0.2-1.3,0.4C515.8,45.9,515.6,46.5,515.6,47z M519.4,43.8
	c0.3,0,0.6-0.2,0.7-0.5c0.1-0.2,0.1-0.4,0.1-0.6c0-0.5-0.2-0.9-0.6-1.2c-0.5-0.3-1.1-0.4-1.6-0.4c-0.7-0.1-1.3,0.2-1.8,0.7
	c-0.2,0.3-0.4,0.7-0.4,1.1h-1.5c-0.1-0.9,0.4-1.9,1.1-2.4c0.8-0.5,1.6-0.7,2.5-0.7c0.9,0,1.9,0.2,2.7,0.6c0.7,0.4,1.1,1.2,1,2v5.4
	c0,0.1,0,0.3,0.1,0.4c0.1,0.1,0.3,0.2,0.4,0.1c0.1,0,0.1,0,0.2,0s0.2,0,0.3,0v1.2c-0.2,0.1-0.4,0.1-0.6,0.1c-0.2,0-0.4,0-0.5,0
	c-0.5,0-0.9-0.2-1.2-0.6c-0.1-0.3-0.2-0.6-0.3-0.9c-0.4,0.5-0.9,0.8-1.4,1.1c-0.6,0.3-1.3,0.5-2,0.5c-0.8,0-1.6-0.3-2.1-0.8
	c-0.5-0.5-0.8-1.2-0.8-2c0-0.8,0.3-1.5,0.8-2c0.6-0.5,1.4-0.8,2.1-0.9L519.4,43.8z M524.4,36.6h1.6v12.9h-1.6V36.6z M534.4,44.9
	c0,0.9,0.2,1.8,0.6,2.5c0.4,0.7,1.2,1.1,2.1,1c0.7,0,1.4-0.3,1.8-0.9c0.5-0.8,0.8-1.8,0.7-2.7c0.1-0.9-0.2-1.9-0.7-2.6
	c-0.4-0.5-1.1-0.9-1.8-0.9c-0.8,0-1.5,0.3-1.9,0.9C534.6,43,534.3,43.9,534.4,44.9z M536.8,39.9c0.6,0,1.3,0.1,1.8,0.5
	c0.4,0.3,0.7,0.6,1,0.9v-4.8h1.5v13h-1.4v-1.3c-0.3,0.5-0.8,1-1.3,1.3c-0.5,0.3-1.1,0.4-1.7,0.4c-1.1,0-2.1-0.5-2.7-1.3
	c-0.8-1-1.2-2.2-1.2-3.5c0-1.3,0.3-2.5,1-3.6C534.4,40.4,535.6,39.9,536.8,39.9L536.8,39.9z M547.3,39.9c0.7,0,1.3,0.2,1.9,0.5
	c0.6,0.3,1.1,0.7,1.4,1.2c0.3,0.5,0.5,1.1,0.6,1.7c0.1,0.7,0.2,1.4,0.1,2.1h-6.9c0,0.8,0.2,1.6,0.7,2.3c0.5,0.6,1.2,0.9,2,0.9
	c0.7,0,1.5-0.3,2-0.8c0.3-0.3,0.5-0.7,0.6-1.1h1.6c-0.1,0.4-0.2,0.8-0.4,1.2c-0.2,0.4-0.5,0.7-0.8,1c-0.5,0.5-1.1,0.8-1.8,0.9
	c-0.4,0.1-0.9,0.1-1.3,0.1c-1.1,0-2.2-0.4-3-1.3c-0.9-1-1.3-2.3-1.2-3.6c-0.1-1.3,0.4-2.6,1.2-3.7C544.9,40.4,546.1,39.8,547.3,39.9
	L547.3,39.9z M549.8,44c0-0.6-0.2-1.1-0.4-1.6c-0.4-0.8-1.3-1.2-2.2-1.1c-0.7,0-1.4,0.3-1.8,0.8c-0.5,0.5-0.8,1.3-0.8,2H549.8z
	 M571.6,47c0,0.4,0.2,0.8,0.5,1.1c0.3,0.3,0.8,0.4,1.2,0.4c0.6,0,1.1-0.1,1.6-0.4c0.8-0.4,1.4-1.2,1.3-2.1v-1.3
	c-0.2,0.1-0.5,0.2-0.7,0.3c-0.3,0.1-0.6,0.1-0.9,0.2l-1,0.1c-0.4,0-0.9,0.2-1.3,0.4C571.9,45.9,571.6,46.5,571.6,47L571.6,47z
	 M575.5,43.8c0.3,0,0.6-0.2,0.7-0.5c0.1-0.2,0.1-0.4,0.1-0.6c0-0.5-0.2-0.9-0.6-1.2c-0.5-0.3-1.1-0.4-1.6-0.4
	c-0.7-0.1-1.3,0.2-1.8,0.7c-0.2,0.3-0.4,0.7-0.4,1.1h-1.5c-0.1-0.9,0.4-1.9,1.1-2.4c0.8-0.5,1.6-0.7,2.5-0.7c0.9,0,1.9,0.2,2.7,0.6
	c0.7,0.4,1.1,1.2,1,2v5.4c0,0.1,0,0.3,0.1,0.4c0.1,0.1,0.3,0.2,0.4,0.1c0.1,0,0.1,0,0.2,0s0.2,0,0.3,0v1.2c-0.2,0.1-0.4,0.1-0.6,0.1
	c-0.2,0-0.4,0-0.5,0c-0.5,0-0.9-0.2-1.2-0.6c-0.1-0.3-0.2-0.6-0.3-0.9c-0.4,0.5-0.9,0.8-1.4,1.1c-0.6,0.3-1.3,0.5-2,0.5
	c-0.8,0-1.6-0.3-2.1-0.8c-0.5-0.5-0.8-1.2-0.8-2c0-0.8,0.3-1.5,0.8-2c0.6-0.5,1.4-0.8,2.1-0.9L575.5,43.8z M580.7,37.5h1.6v2.6h1.5
	v1.3h-1.5v6.1c0,0.3,0.1,0.5,0.3,0.7c0.2,0.1,0.4,0.1,0.6,0.1c0.1,0,0.2,0,0.2,0s0.2,0,0.3,0v1.2c-0.2,0.1-0.4,0.1-0.6,0.1
	c-0.2,0-0.4,0-0.6,0c-0.6,0.1-1.1-0.1-1.5-0.6c-0.3-0.4-0.4-1-0.4-1.5v-6.2h-1.3v-1.3h1.3L580.7,37.5z M585.5,40.1h1.5v1.6
	c0.2-0.4,0.5-0.8,0.9-1.2c0.4-0.4,1-0.7,1.7-0.7c0,0,0.1,0,0.1,0c0.1,0,0.2,0,0.4,0v1.7c-0.1,0-0.2,0-0.3,0c-0.1,0-0.2,0-0.3,0
	c-0.7,0-1.4,0.2-1.8,0.8c-0.4,0.5-0.6,1.1-0.6,1.8v5.4h-1.6L585.5,40.1z M595.2,48.5c0.9,0.1,1.8-0.4,2.2-1.2
	c0.4-0.8,0.6-1.7,0.6-2.7c0-0.7-0.1-1.5-0.4-2.1c-0.4-0.9-1.3-1.4-2.3-1.3c-0.9-0.1-1.7,0.4-2.1,1.1c-0.5,0.8-0.7,1.7-0.7,2.7
	c0,0.9,0.2,1.7,0.7,2.5C593.5,48.2,594.3,48.5,595.2,48.5L595.2,48.5z M595.2,39.8c1.1,0,2.3,0.4,3.1,1.2c0.9,1,1.4,2.3,1.3,3.6
	c0.1,1.3-0.3,2.7-1.1,3.8c-0.8,1-2.1,1.6-3.4,1.5c-1.2,0.1-2.3-0.4-3.1-1.3c-0.8-1-1.2-2.3-1.1-3.5c-0.1-1.4,0.4-2.7,1.2-3.8
	C592.8,40.3,594,39.8,595.2,39.8L595.2,39.8z M601.4,40.1h1.5v1.3c0.4-0.5,0.9-0.9,1.4-1.2c0.5-0.2,1.1-0.4,1.7-0.4
	c1.1-0.1,2.2,0.4,2.7,1.4c0.3,0.7,0.4,1.4,0.4,2.2v6h-1.6v-5.9c0-0.5-0.1-1-0.3-1.4c-0.3-0.6-0.9-0.9-1.5-0.9c-0.3,0-0.6,0-0.9,0.1
	c-0.4,0.1-0.8,0.4-1.1,0.8c-0.2,0.3-0.4,0.6-0.5,1c-0.1,0.5-0.1,0.9-0.1,1.4v4.9h-1.6L601.4,40.1z M612.7,47c0,0.4,0.2,0.8,0.5,1.1
	c0.3,0.3,0.8,0.4,1.2,0.4c0.6,0,1.1-0.1,1.6-0.4c0.8-0.4,1.4-1.2,1.3-2.1v-1.3c-0.2,0.1-0.5,0.2-0.7,0.3c-0.3,0.1-0.6,0.1-0.9,0.2
	l-1,0.1c-0.4,0-0.9,0.2-1.3,0.4C612.9,45.9,612.6,46.5,612.7,47z M616.5,43.8c0.3,0,0.6-0.2,0.7-0.5c0.1-0.2,0.1-0.4,0.1-0.6
	c0-0.5-0.2-0.9-0.6-1.2c-0.5-0.3-1.1-0.4-1.6-0.4c-0.7-0.1-1.3,0.2-1.8,0.7c-0.2,0.3-0.4,0.7-0.4,1.1h-1.5c-0.1-0.9,0.4-1.9,1.1-2.4
	c0.8-0.5,1.6-0.7,2.5-0.7c0.9,0,1.9,0.2,2.7,0.6c0.7,0.4,1.1,1.2,1,2v5.4c0,0.1,0,0.3,0.1,0.4c0.1,0.1,0.3,0.2,0.4,0.1
	c0.1,0,0.1,0,0.2,0s0.2,0,0.3,0v1.2c-0.2,0.1-0.4,0.1-0.6,0.1c-0.2,0-0.4,0-0.5,0c-0.5,0-0.9-0.2-1.2-0.6c-0.1-0.3-0.2-0.6-0.3-0.9
	c-0.4,0.5-0.9,0.8-1.4,1.1c-0.6,0.3-1.3,0.5-2,0.5c-0.8,0-1.6-0.3-2.1-0.8c-0.5-0.5-0.8-1.2-0.8-2c0-0.8,0.3-1.5,0.8-2
	c0.6-0.5,1.4-0.8,2.1-0.9L616.5,43.8z M623,38.4h-1.6v-1.8h1.6V38.4z M620,51.9c0.4,0,0.9,0,1.3-0.2c0.1-0.1,0.2-0.4,0.2-1V40.1h1.6
	v10.8c0,0.5-0.1,1.1-0.3,1.5c-0.5,0.6-1.3,1-2.1,0.9c-0.1,0-0.2,0-0.2,0s-0.2,0-0.4,0V51.9z M629.4,39.9c0.7,0,1.3,0.2,1.9,0.5
	c0.6,0.3,1.1,0.7,1.4,1.2c0.3,0.5,0.5,1.1,0.6,1.7c0.1,0.7,0.2,1.4,0.1,2.1h-6.9c0,0.8,0.2,1.6,0.7,2.3c0.5,0.6,1.2,0.9,2,0.9
	c0.7,0,1.5-0.3,2-0.8c0.3-0.3,0.5-0.7,0.6-1.1h1.6c-0.1,0.4-0.2,0.8-0.4,1.2c-0.2,0.4-0.5,0.7-0.8,1c-0.5,0.5-1.1,0.8-1.8,0.9
	c-0.4,0.1-0.9,0.1-1.3,0.1c-1.1,0-2.2-0.4-3-1.3c-0.9-1-1.3-2.3-1.2-3.6c-0.1-1.3,0.4-2.6,1.2-3.7C627,40.4,628.1,39.8,629.4,39.9
	L629.4,39.9z M631.9,44c0-0.6-0.2-1.1-0.4-1.6c-0.4-0.8-1.3-1.2-2.2-1.1c-0.7,0-1.4,0.3-1.8,0.8c-0.5,0.5-0.8,1.3-0.8,2H631.9z
	 M640.3,36.5h1.5v4.7c0.7-0.9,1.7-1.4,2.8-1.4c1.1,0,2.1,0.4,2.9,1.2c0.8,1,1.2,2.3,1.1,3.6c0.1,1.3-0.3,2.6-1.1,3.7
	c-0.7,1-1.8,1.5-3,1.5c-0.6,0-1.3-0.2-1.8-0.5c-0.4-0.3-0.7-0.6-0.9-1v1.2h-1.5L640.3,36.5z M644.5,48.4c0.8,0,1.5-0.4,1.9-1
	c0.5-0.8,0.7-1.8,0.6-2.7c0-0.9-0.2-1.7-0.6-2.5c-0.4-0.6-1.1-1-1.9-1c-0.7,0-1.4,0.3-1.9,0.8c-0.6,0.7-0.9,1.7-0.8,2.6
	c0,0.7,0.1,1.5,0.3,2.2C642.5,47.8,643.4,48.5,644.5,48.4z M651.7,47c0,0.4,0.2,0.8,0.5,1.1c0.3,0.3,0.8,0.4,1.2,0.4
	c0.6,0,1.1-0.1,1.6-0.4c0.8-0.4,1.4-1.2,1.3-2.1v-1.3c-0.2,0.1-0.5,0.2-0.7,0.3c-0.3,0.1-0.6,0.1-0.9,0.2l-1,0.1
	c-0.4,0-0.9,0.2-1.3,0.4C651.9,45.9,651.7,46.5,651.7,47z M655.5,43.8c0.3,0,0.6-0.2,0.7-0.5c0.1-0.2,0.1-0.4,0.1-0.6
	c0-0.5-0.2-0.9-0.6-1.2c-0.5-0.3-1.1-0.4-1.6-0.4c-0.7-0.1-1.3,0.2-1.8,0.7c-0.2,0.3-0.4,0.7-0.4,1.1h-1.5c-0.1-0.9,0.4-1.9,1.1-2.4
	c0.8-0.5,1.6-0.7,2.5-0.7c0.9,0,1.9,0.2,2.7,0.6c0.7,0.4,1.1,1.2,1,2v5.4c0,0.1,0,0.3,0.1,0.4c0.1,0.1,0.3,0.2,0.4,0.1
	c0.1,0,0.1,0,0.2,0s0.2,0,0.3,0v1.2c-0.2,0.1-0.4,0.1-0.6,0.1c-0.2,0-0.4,0-0.5,0c-0.5,0-0.9-0.2-1.2-0.6c-0.1-0.3-0.2-0.6-0.3-0.9
	c-0.4,0.5-0.9,0.8-1.4,1.1c-0.6,0.3-1.3,0.5-2,0.5c-0.8,0-1.6-0.3-2.1-0.8c-0.5-0.5-0.8-1.2-0.8-2c0-0.8,0.3-1.5,0.8-2
	c0.6-0.5,1.4-0.8,2.1-0.9L655.5,43.8z M656.2,36.3l-2.3,2.5h-1.2l1.6-2.5H656.2z M661.4,46.5c0,0.4,0.2,0.9,0.4,1.2
	c0.5,0.6,1.3,0.8,2.1,0.8c0.5,0,1.1-0.1,1.5-0.4c0.4-0.2,0.7-0.7,0.7-1.2c0-0.4-0.2-0.7-0.5-0.9c-0.4-0.2-0.9-0.3-1.4-0.4l-1.3-0.3
	c-0.6-0.1-1.2-0.4-1.8-0.7c-0.6-0.4-1-1-1-1.8c0-0.8,0.3-1.6,1-2.2c0.7-0.6,1.7-0.9,2.6-0.8c1.2-0.1,2.3,0.4,3.1,1.2
	c0.4,0.5,0.6,1.1,0.6,1.7h-1.5c0-0.4-0.2-0.7-0.4-1c-0.5-0.5-1.2-0.7-1.9-0.6c-0.5,0-1,0.1-1.4,0.3c-0.3,0.2-0.5,0.5-0.5,0.9
	c0,0.4,0.2,0.8,0.6,1c0.3,0.2,0.7,0.3,1,0.4l1,0.3c0.8,0.2,1.6,0.4,2.3,0.8c0.6,0.4,1,1.2,0.9,1.9c0,0.8-0.3,1.6-1,2.2
	c-0.8,0.7-1.9,1-2.9,0.9c-1.1,0.1-2.2-0.2-3-1c-0.6-0.6-0.9-1.5-0.9-2.4L661.4,46.5z M669.5,40.1h1.6v9.4h-1.6L669.5,40.1z
	 M669.5,36.6h1.6v1.8h-1.6L669.5,36.6z M677.1,39.8c0.9,0,1.8,0.2,2.6,0.8c0.7,0.7,1.2,1.6,1.2,2.7h-1.5c-0.1-0.5-0.3-1-0.6-1.4
	c-0.4-0.4-1-0.6-1.6-0.6c-1,0-1.8,0.6-2.2,1.5c-0.3,0.8-0.4,1.6-0.4,2.4c0,0.8,0.2,1.7,0.6,2.4c0.7,1,2.2,1.3,3.2,0.5
	c0.1-0.1,0.1-0.1,0.2-0.2c0.4-0.5,0.7-1,0.8-1.6h1.5c-0.1,2.1-1.8,3.7-3.8,3.6c-0.1,0-0.1,0-0.2,0c-1.1,0-2.2-0.5-2.9-1.3
	c-0.8-1-1.1-2.2-1.1-3.4c-0.1-1.4,0.3-2.8,1.2-3.9C674.8,40.3,675.9,39.8,677.1,39.8L677.1,39.8z M686.2,48.5
	c0.9,0.1,1.8-0.4,2.2-1.2c0.4-0.8,0.6-1.7,0.6-2.7c0-0.7-0.1-1.5-0.4-2.1c-0.4-0.9-1.3-1.4-2.3-1.3c-0.9-0.1-1.7,0.4-2.1,1.1
	c-0.5,0.8-0.7,1.7-0.7,2.7c0,0.9,0.2,1.7,0.7,2.5C684.6,48.2,685.4,48.5,686.2,48.5L686.2,48.5z M686.3,39.8c1.1,0,2.3,0.4,3.1,1.2
	c0.9,1,1.4,2.3,1.3,3.6c0.1,1.3-0.3,2.7-1.1,3.8c-0.8,1-2.1,1.6-3.4,1.5c-1.2,0.1-2.3-0.4-3.1-1.3c-0.8-1-1.2-2.3-1.1-3.5
	c-0.1-1.4,0.4-2.7,1.2-3.8C683.9,40.3,685,39.8,686.3,39.8L686.3,39.8z M701.4,39.9c0.7,0,1.3,0.2,1.9,0.5c0.6,0.3,1.1,0.7,1.4,1.2
	c0.3,0.5,0.5,1.1,0.6,1.7c0.1,0.7,0.2,1.4,0.1,2.1h-6.9c0,0.8,0.2,1.6,0.7,2.3c0.5,0.6,1.2,0.9,2,0.9c0.7,0,1.5-0.3,2-0.8
	c0.3-0.3,0.5-0.7,0.6-1.1h1.6c-0.1,0.4-0.2,0.8-0.4,1.2c-0.2,0.4-0.5,0.7-0.8,1c-0.5,0.5-1.1,0.8-1.8,0.9c-0.4,0.1-0.9,0.1-1.3,0.1
	c-1.1,0-2.2-0.4-3-1.3c-0.9-1-1.3-2.3-1.2-3.6c-0.1-1.3,0.4-2.6,1.2-3.7C699,40.4,700.2,39.8,701.4,39.9L701.4,39.9z M703.9,44
	c0-0.6-0.2-1.1-0.5-1.6c-0.4-0.8-1.3-1.2-2.2-1.1c-0.7,0-1.4,0.3-1.8,0.8c-0.5,0.5-0.8,1.3-0.8,2L703.9,44z M32.2,64.1h1.6v9.4h-1.6
	V64.1z M32.2,60.6h1.6v1.8h-1.6V60.6z M36.2,64.1h1.5v1.3c0.4-0.5,0.9-0.9,1.4-1.2c0.5-0.2,1.1-0.4,1.7-0.4c1.1-0.1,2.2,0.4,2.7,1.4
	c0.3,0.7,0.4,1.4,0.4,2.2v6h-1.6v-5.9c0-0.5-0.1-1-0.3-1.4c-0.3-0.6-0.9-0.9-1.5-0.9c-0.3,0-0.6,0-0.9,0.1c-0.4,0.1-0.8,0.4-1.1,0.8
	c-0.2,0.3-0.4,0.6-0.5,1c-0.1,0.5-0.1,0.9-0.1,1.4v4.9h-1.6L36.2,64.1z M46.5,61.5h1.6v2.6h1.5v1.3h-1.5v6.1c0,0.3,0.1,0.5,0.3,0.7
	c0.2,0.1,0.4,0.1,0.6,0.1c0.1,0,0.2,0,0.2,0c0.1,0,0.2,0,0.3,0v1.2c-0.2,0.1-0.4,0.1-0.6,0.1c-0.2,0-0.4,0-0.6,0
	c-0.6,0.1-1.1-0.1-1.5-0.6c-0.3-0.4-0.4-1-0.4-1.5v-6.2h-1.3v-1.3h1.3L46.5,61.5z M55.1,63.9c0.7,0,1.3,0.2,1.9,0.5
	c0.6,0.3,1.1,0.7,1.4,1.2c0.3,0.5,0.5,1.1,0.6,1.7c0.1,0.7,0.2,1.4,0.1,2.1h-6.9c0,0.8,0.2,1.6,0.7,2.3c0.5,0.6,1.2,0.9,2,0.9
	c0.7,0,1.5-0.3,2-0.8c0.3-0.3,0.5-0.7,0.6-1.1h1.6c-0.1,0.4-0.2,0.8-0.4,1.2c-0.2,0.4-0.5,0.7-0.8,1c-0.5,0.5-1.1,0.8-1.8,0.9
	c-0.4,0.1-0.9,0.1-1.3,0.1c-1.1,0-2.2-0.4-3-1.3c-0.9-1-1.3-2.3-1.2-3.6c-0.1-1.3,0.4-2.6,1.2-3.7C52.7,64.4,53.9,63.8,55.1,63.9
	L55.1,63.9z M57.6,68c0-0.6-0.2-1.1-0.4-1.6c-0.4-0.8-1.3-1.2-2.2-1.1c-0.7,0-1.4,0.3-1.8,0.8c-0.5,0.5-0.8,1.3-0.8,2L57.6,68z
	 M61.2,64.1h1.5v1.6c0.2-0.4,0.5-0.8,0.9-1.2c0.4-0.4,1-0.7,1.7-0.7c0,0,0.1,0,0.1,0c0.1,0,0.2,0,0.4,0v1.7c-0.1,0-0.2,0-0.3,0
	c-0.1,0-0.2,0-0.3,0c-0.7,0-1.4,0.2-1.8,0.8c-0.4,0.5-0.6,1.1-0.6,1.8v5.4h-1.6L61.2,64.1z M71.1,72.4c0.7,0,1.4-0.3,1.8-0.9
	c0.5-0.8,0.8-1.8,0.7-2.8c0-0.7-0.1-1.3-0.3-1.9c-0.5-1.2-1.8-1.9-3.1-1.4c-0.7,0.3-1.2,0.8-1.4,1.5c-0.2,0.7-0.3,1.5-0.3,2.2
	c0,0.6,0.1,1.3,0.3,1.9C69.2,71.9,70.1,72.5,71.1,72.4L71.1,72.4z M67,64.1h1.5v1.2c0.3-0.4,0.6-0.7,1-1c0.6-0.4,1.2-0.5,1.9-0.5
	c1,0,2,0.4,2.7,1.2c0.8,1,1.2,2.2,1.1,3.5c0,2.1-0.5,3.5-1.6,4.4c-0.7,0.6-1.5,0.8-2.4,0.8c-0.6,0-1.2-0.1-1.8-0.5
	c-0.4-0.2-0.7-0.6-0.9-0.9v4.8H67L67,64.1z M77.2,64.1h1.5v1.6c0.2-0.4,0.5-0.8,0.9-1.2c0.4-0.4,1-0.7,1.7-0.7c0,0,0.1,0,0.1,0
	c0.1,0,0.2,0,0.4,0v1.7c-0.1,0-0.2,0-0.3,0c-0.1,0-0.2,0-0.3,0c-0.7,0-1.4,0.2-1.8,0.8c-0.4,0.5-0.6,1.1-0.6,1.8v5.4h-1.6L77.2,64.1
	z M87.1,63.9c0.7,0,1.3,0.2,1.9,0.5c0.6,0.3,1.1,0.7,1.4,1.2c0.3,0.5,0.5,1.1,0.6,1.7c0.1,0.7,0.2,1.4,0.1,2.1h-6.9
	c0,0.8,0.2,1.6,0.7,2.3c0.5,0.6,1.2,0.9,2,0.9c0.7,0,1.5-0.3,2-0.8c0.3-0.3,0.5-0.7,0.6-1.1h1.6c-0.1,0.4-0.2,0.8-0.4,1.2
	c-0.2,0.4-0.5,0.7-0.8,1c-0.5,0.5-1.1,0.8-1.8,0.9c-0.4,0.1-0.9,0.1-1.3,0.1c-1.1,0-2.2-0.4-3-1.3c-0.9-1-1.3-2.3-1.2-3.6
	c-0.1-1.3,0.4-2.6,1.2-3.7C84.7,64.4,85.9,63.8,87.1,63.9L87.1,63.9z M89.6,68c0-0.6-0.2-1.1-0.4-1.6c-0.4-0.8-1.3-1.2-2.2-1.1
	c-0.7,0-1.4,0.3-1.8,0.8c-0.5,0.5-0.8,1.3-0.8,2L89.6,68z M93.5,61.5h1.6v2.6h1.5v1.3h-1.5v6.1c0,0.3,0.1,0.5,0.3,0.7
	c0.2,0.1,0.4,0.1,0.6,0.1c0.1,0,0.2,0,0.2,0c0.1,0,0.2,0,0.3,0v1.2c-0.2,0.1-0.4,0.1-0.6,0.1c-0.2,0-0.4,0-0.6,0
	c-0.6,0.1-1.1-0.1-1.5-0.6c-0.3-0.4-0.4-1-0.4-1.5v-6.2h-1.3v-1.3h1.3L93.5,61.5z M99.4,71c0,0.4,0.2,0.8,0.5,1.1
	c0.3,0.3,0.8,0.4,1.2,0.4c0.6,0,1.1-0.1,1.6-0.4c0.8-0.4,1.4-1.2,1.3-2.1v-1.3c-0.2,0.1-0.5,0.2-0.7,0.3c-0.3,0.1-0.6,0.1-0.9,0.2
	l-1,0.1c-0.4,0-0.9,0.2-1.3,0.4C99.6,69.9,99.4,70.5,99.4,71L99.4,71z M103.2,67.8c0.3,0,0.6-0.2,0.7-0.5c0.1-0.2,0.1-0.4,0.1-0.6
	c0-0.5-0.2-0.9-0.6-1.2c-0.5-0.3-1.1-0.4-1.6-0.4c-0.7-0.1-1.3,0.2-1.8,0.7c-0.2,0.3-0.4,0.7-0.4,1.1h-1.5c-0.1-0.9,0.4-1.9,1.1-2.4
	c0.8-0.5,1.6-0.7,2.5-0.7c0.9,0,1.9,0.2,2.7,0.6c0.7,0.4,1.1,1.2,1,2v5.4c0,0.1,0,0.3,0.1,0.4c0.1,0.1,0.3,0.2,0.4,0.1
	c0.1,0,0.1,0,0.2,0c0.1,0,0.2,0,0.3,0v1.2c-0.2,0.1-0.4,0.1-0.6,0.1c-0.2,0-0.4,0-0.5,0c-0.5,0-0.9-0.2-1.2-0.6
	c-0.1-0.3-0.2-0.6-0.3-0.9c-0.4,0.5-0.9,0.8-1.4,1.1c-0.6,0.3-1.3,0.5-2,0.5c-0.8,0-1.6-0.3-2.1-0.8c-0.5-0.5-0.8-1.2-0.8-2
	c0-0.8,0.3-1.5,0.8-2c0.6-0.5,1.4-0.8,2.1-0.9L103.2,67.8z M111.8,63.8c0.9,0,1.8,0.2,2.6,0.8c0.7,0.7,1.2,1.6,1.2,2.7h-1.5
	c-0.1-0.5-0.3-1-0.6-1.4c-0.4-0.4-1-0.6-1.6-0.6c-1,0-1.8,0.6-2.2,1.5c-0.3,0.8-0.4,1.6-0.4,2.4c0,0.8,0.2,1.7,0.6,2.4
	c0.7,1,2.2,1.3,3.2,0.5c0.1-0.1,0.1-0.1,0.2-0.2c0.4-0.5,0.7-1,0.8-1.6h1.5c-0.1,2.1-1.8,3.7-3.8,3.6c-0.1,0-0.1,0-0.2,0
	c-1.1,0-2.2-0.5-2.9-1.3c-0.8-1-1.1-2.2-1.1-3.4c-0.1-1.4,0.3-2.8,1.2-3.9C109.5,64.3,110.6,63.8,111.8,63.8L111.8,63.8z
	 M117.2,64.1h1.6v9.4h-1.6L117.2,64.1z M117.2,60.6h1.6v1.8h-1.6L117.2,60.6z M124.9,72.5c0.9,0.1,1.8-0.4,2.2-1.2
	c0.4-0.8,0.6-1.7,0.6-2.7c0-0.7-0.1-1.5-0.4-2.1c-0.4-0.9-1.3-1.4-2.3-1.3c-0.9-0.1-1.7,0.4-2.1,1.1c-0.5,0.8-0.7,1.7-0.7,2.7
	c0,0.9,0.2,1.7,0.7,2.5C123.3,72.2,124.1,72.5,124.9,72.5z M125,63.8c1.1,0,2.3,0.4,3.1,1.2c0.9,1,1.4,2.3,1.3,3.6
	c0.1,1.3-0.3,2.7-1.1,3.8c-0.8,1-2.1,1.6-3.4,1.5c-1.2,0.1-2.3-0.4-3.1-1.3c-0.8-1-1.2-2.3-1.1-3.5c-0.1-1.4,0.4-2.7,1.2-3.8
	C122.6,64.3,123.8,63.8,125,63.8z M126.8,60.3l-2.3,2.5h-1.2l1.6-2.5H126.8z M131.2,64.1h1.5v1.3c0.4-0.5,0.9-0.9,1.4-1.2
	c0.5-0.2,1.1-0.4,1.7-0.4c1.1-0.1,2.2,0.4,2.7,1.4c0.3,0.7,0.4,1.4,0.4,2.2v6h-1.6v-5.9c0-0.5-0.1-1-0.3-1.4
	c-0.3-0.6-0.9-0.9-1.5-0.9c-0.3,0-0.6,0-0.9,0.1c-0.4,0.1-0.8,0.4-1.1,0.8c-0.2,0.3-0.4,0.6-0.5,1c-0.1,0.5-0.1,0.9-0.1,1.4v4.9
	h-1.6L131.2,64.1z M147.2,68.9c0,0.9,0.2,1.8,0.6,2.5c0.4,0.7,1.2,1.1,2.1,1c0.7,0,1.4-0.3,1.8-0.9c0.5-0.8,0.8-1.8,0.7-2.7
	c0.1-0.9-0.2-1.9-0.7-2.6c-0.4-0.5-1.1-0.9-1.8-0.9c-0.8,0-1.5,0.3-1.9,0.9C147.4,67,147.2,67.9,147.2,68.9z M149.6,63.9
	c0.6,0,1.3,0.1,1.8,0.5c0.4,0.3,0.7,0.6,1,0.9v-4.8h1.5v13h-1.4v-1.3c-0.3,0.5-0.8,1-1.3,1.3c-0.5,0.3-1.1,0.4-1.7,0.4
	c-1.1,0-2.1-0.5-2.7-1.3c-0.8-1-1.2-2.2-1.2-3.5c0-1.3,0.3-2.5,1.1-3.6C147.3,64.4,148.4,63.9,149.6,63.9L149.6,63.9z M160.1,63.9
	c0.7,0,1.3,0.2,1.9,0.5c0.6,0.3,1.1,0.7,1.4,1.2c0.3,0.5,0.5,1.1,0.6,1.7c0.1,0.7,0.2,1.4,0.1,2.1h-6.9c0,0.8,0.2,1.6,0.7,2.3
	c0.5,0.6,1.2,0.9,2,0.9c0.7,0,1.5-0.3,2-0.8c0.3-0.3,0.5-0.7,0.6-1.1h1.6c-0.1,0.4-0.2,0.8-0.4,1.2c-0.2,0.4-0.5,0.7-0.8,1
	c-0.5,0.5-1.1,0.8-1.8,0.9c-0.4,0.1-0.9,0.1-1.3,0.1c-1.1,0-2.2-0.4-3-1.3c-0.9-1-1.3-2.3-1.2-3.6c-0.1-1.3,0.4-2.6,1.2-3.7
	C157.7,64.4,158.9,63.8,160.1,63.9L160.1,63.9z M162.7,68c0-0.6-0.2-1.1-0.4-1.6c-0.4-0.8-1.3-1.2-2.2-1.1c-0.7,0-1.4,0.3-1.8,0.8
	c-0.5,0.5-0.8,1.3-0.8,2H162.7z M172.2,68.9c0,0.9,0.2,1.8,0.6,2.5c0.4,0.7,1.2,1.1,2.1,1c0.7,0,1.4-0.3,1.8-0.9
	c0.5-0.8,0.8-1.8,0.7-2.7c0.1-0.9-0.2-1.9-0.7-2.6c-0.4-0.5-1.1-0.9-1.8-0.9c-0.8,0-1.5,0.3-1.9,0.9C172.4,67,172.2,67.9,172.2,68.9
	z M174.6,63.9c0.6,0,1.3,0.1,1.8,0.5c0.4,0.3,0.7,0.6,1,0.9v-4.8h1.5v13h-1.4v-1.3c-0.3,0.5-0.8,1-1.3,1.3c-0.5,0.3-1.1,0.4-1.7,0.4
	c-1.1,0-2.1-0.5-2.7-1.3c-0.8-1-1.2-2.2-1.2-3.5c0-1.3,0.3-2.5,1.1-3.6C172.3,64.4,173.4,63.9,174.6,63.9L174.6,63.9z M181.2,64.1
	h1.6v9.4h-1.6V64.1z M181.2,60.6h1.6v1.8h-1.6V60.6z M186.2,70.5c0,0.4,0.2,0.9,0.4,1.2c0.5,0.6,1.3,0.8,2.1,0.8
	c0.5,0,1.1-0.1,1.5-0.4c0.4-0.2,0.7-0.7,0.7-1.2c0-0.4-0.2-0.7-0.5-0.9c-0.4-0.2-0.9-0.3-1.4-0.4l-1.3-0.3c-0.6-0.1-1.2-0.4-1.8-0.7
	c-0.6-0.4-1-1-1-1.8c0-0.8,0.3-1.6,1-2.2c0.7-0.6,1.7-0.9,2.6-0.8c1.2-0.1,2.3,0.4,3.1,1.2c0.4,0.5,0.6,1.1,0.6,1.7h-1.5
	c0-0.4-0.2-0.7-0.4-1c-0.5-0.5-1.2-0.7-1.9-0.6c-0.5,0-1,0.1-1.4,0.3c-0.3,0.2-0.5,0.5-0.5,0.9c0,0.4,0.2,0.8,0.6,1
	c0.3,0.2,0.7,0.3,1,0.4l1,0.3c0.8,0.2,1.6,0.4,2.3,0.8c0.6,0.4,1,1.2,0.9,1.9c0,0.8-0.3,1.6-1,2.2c-0.8,0.7-1.9,1-2.9,0.9
	c-1.1,0.1-2.2-0.2-3-1c-0.6-0.6-0.9-1.5-0.9-2.4L186.2,70.5z M198.2,63.9c0.7,0,1.3,0.2,1.9,0.5c0.6,0.3,1.1,0.7,1.4,1.2
	c0.3,0.5,0.5,1.1,0.6,1.7c0.1,0.7,0.2,1.4,0.1,2.1h-6.9c0,0.8,0.2,1.6,0.7,2.3c0.5,0.6,1.2,0.9,2,0.9c0.7,0,1.5-0.3,2-0.8
	c0.3-0.3,0.5-0.7,0.6-1.1h1.6c-0.1,0.4-0.2,0.8-0.4,1.2c-0.2,0.4-0.5,0.7-0.8,1c-0.5,0.5-1.1,0.8-1.8,0.9c-0.4,0.1-0.9,0.1-1.3,0.1
	c-1.1,0-2.2-0.4-3-1.3c-0.9-1-1.3-2.3-1.2-3.6c-0.1-1.3,0.4-2.6,1.2-3.7C195.8,64.4,196.9,63.8,198.2,63.9L198.2,63.9z M200.7,68
	c0-0.6-0.2-1.1-0.4-1.6c-0.4-0.8-1.3-1.2-2.2-1.1c-0.7,0-1.4,0.3-1.8,0.8c-0.5,0.5-0.8,1.3-0.8,2L200.7,68z M204.3,64.1h1.5v1.3
	c0.4-0.5,0.9-0.9,1.4-1.2c0.5-0.2,1.1-0.4,1.7-0.4c1.1-0.1,2.2,0.4,2.7,1.4c0.3,0.7,0.4,1.4,0.4,2.2v6h-1.6v-5.9
	c0-0.5-0.1-1-0.3-1.4c-0.3-0.6-0.9-0.9-1.5-0.9c-0.3,0-0.6,0-0.9,0.1c-0.4,0.1-0.8,0.4-1.1,0.8c-0.2,0.3-0.4,0.6-0.5,1
	c-0.1,0.5-0.1,0.9-0.1,1.4v4.9h-1.6L204.3,64.1z M208.9,61.2c0.1,0.1,0.3,0.1,0.4,0.2c0.1,0,0.3,0.1,0.4,0.1c0.3,0,0.5-0.1,0.7-0.3
	c0.1-0.2,0.1-0.3,0.2-0.5h0.9c0,0.6-0.3,1.1-0.7,1.5c-0.3,0.3-0.7,0.4-1.1,0.4c-0.2,0-0.3,0-0.5-0.1c-0.2,0-0.4-0.1-0.5-0.2
	l-0.5-0.2c-0.3-0.1-0.5-0.2-0.7-0.2c-0.2,0-0.3-0.1-0.5-0.1c-0.2,0-0.4,0.1-0.5,0.2c-0.1,0.2-0.2,0.4-0.3,0.6h-0.9
	c0.1-0.4,0.2-0.8,0.4-1.1c0.3-0.5,0.9-0.8,1.5-0.8c0.2,0,0.4,0,0.7,0.1C208.3,60.9,208.6,61,208.9,61.2L208.9,61.2z M218,72.5
	c0.9,0.1,1.8-0.4,2.2-1.2c0.4-0.8,0.6-1.7,0.6-2.7c0-0.7-0.1-1.5-0.4-2.1c-0.4-0.9-1.3-1.4-2.3-1.3c-0.9-0.1-1.7,0.4-2.1,1.1
	c-0.5,0.8-0.7,1.7-0.7,2.7c0,0.9,0.2,1.7,0.7,2.5C216.4,72.2,217.2,72.5,218,72.5L218,72.5z M218.1,63.8c1.1,0,2.3,0.4,3.1,1.2
	c0.9,1,1.4,2.3,1.3,3.6c0.1,1.3-0.3,2.7-1.1,3.8c-0.8,1-2.1,1.6-3.4,1.5c-1.2,0.1-2.3-0.4-3.1-1.3c-0.8-1-1.2-2.3-1.1-3.5
	c-0.1-1.4,0.4-2.7,1.2-3.8C215.6,64.3,216.8,63.8,218.1,63.8L218.1,63.8z M224.7,71.6h1.8v1.9h-1.8L224.7,71.6z"/>
<g id="Grupo_33682" transform="translate(956.508 3688.527)">
	<g id="Grupo_28535">
		<path id="Trazado_71256" class="st2" d="M-200.6-3598.8L-200.6-3598.8l-192.9,0.1v-19.8h188.1c16.1,0,33.8-0.7,49.9-9.4v19.9
			C-164.2-3601.5-184.9-3599.2-200.6-3598.8z"/>
		<path id="Trazado_71257" class="st2" d="M-200.6-3596.1L-200.6-3596.1l-192.9-0.1v19.9h188.1c16.1,0,33.8,0.7,49.9,9.4v-19.8
			C-164.2-3593.4-184.9-3595.7-200.6-3596.1z"/>
	</g>
	<rect id="Rectángulo_29892" x="-220.7" y="-3597.6" class="st3" width="4.2" height="10.7"/>
	<rect id="Rectángulo_29893" x="-229.2" y="-3597.6" class="st3" width="4.2" height="10.7"/>
	<rect id="Rectángulo_29894" x="-237.7" y="-3597.6" class="st3" width="4.2" height="10.7"/>
	<rect id="Rectángulo_29895" x="-246.1" y="-3597.6" class="st3" width="4.2" height="10.7"/>
	<rect id="Rectángulo_29896" x="-254.6" y="-3597.6" class="st3" width="4.2" height="10.7"/>
	<rect id="Rectángulo_29897" x="-263.1" y="-3597.6" class="st3" width="4.2" height="10.7"/>
	<rect id="Rectángulo_29898" x="-271.5" y="-3597.6" class="st3" width="4.2" height="10.7"/>
	<rect id="Rectángulo_29899" x="-280" y="-3597.6" class="st3" width="4.2" height="10.7"/>
	<rect id="Rectángulo_29900" x="-288.4" y="-3597.6" class="st3" width="4.2" height="10.7"/>
	<rect id="Rectángulo_29901" x="-296.9" y="-3597.6" class="st3" width="4.2" height="10.7"/>
	<rect id="Rectángulo_29902" x="-305.4" y="-3597.6" class="st3" width="4.2" height="10.7"/>
	<rect id="Rectángulo_29903" x="-313.8" y="-3597.6" class="st3" width="4.2" height="10.7"/>
	<rect id="Rectángulo_29904" x="-322.3" y="-3597.6" class="st3" width="4.2" height="10.7"/>
	<rect id="Rectángulo_29905" x="-330.8" y="-3597.6" class="st3" width="4.2" height="10.7"/>
	<rect id="Rectángulo_29906" x="-339.2" y="-3597.6" class="st3" width="4.2" height="10.7"/>
	<rect id="Rectángulo_29907" x="-347.7" y="-3597.6" class="st3" width="4.2" height="10.7"/>
	<rect id="Rectángulo_29908" x="-356.2" y="-3597.6" class="st3" width="4.2" height="10.7"/>
	<rect id="Rectángulo_29909" x="-364.6" y="-3597.6" class="st3" width="4.2" height="10.7"/>
	<rect id="Rectángulo_29910" x="-373.1" y="-3597.6" class="st3" width="4.2" height="10.7"/>
	<rect id="Rectángulo_29911" x="-381.5" y="-3597.6" class="st3" width="4.2" height="10.7"/>
	<path id="Trazado_71258" class="st4" d="M-192.9-3597.4L-192.9-3597.4c0,5.2-4.2,9.4-9.4,9.4h0c-5.2,0-9.4-4.2-9.4-9.4l0,0
		c0-5.2,4.2-9.4,9.4-9.4h0C-197.1-3606.8-192.9-3602.6-192.9-3597.4z"/>
	<rect id="Rectángulo_29912" x="-225" y="-3608.3" class="st3" width="4.2" height="10.7"/>
	<rect id="Rectángulo_29913" x="-233.4" y="-3608.3" class="st3" width="4.2" height="10.7"/>
	<rect id="Rectángulo_29914" x="-241.9" y="-3608.3" class="st3" width="4.2" height="10.7"/>
	<rect id="Rectángulo_29915" x="-250.4" y="-3608.3" class="st3" width="4.2" height="10.7"/>
	<rect id="Rectángulo_29916" x="-258.8" y="-3608.3" class="st3" width="4.2" height="10.7"/>
	<rect id="Rectángulo_29917" x="-267.3" y="-3608.3" class="st3" width="4.2" height="10.7"/>
	<rect id="Rectángulo_29918" x="-275.8" y="-3608.3" class="st3" width="4.2" height="10.7"/>
	<rect id="Rectángulo_29919" x="-284.2" y="-3608.3" class="st3" width="4.2" height="10.7"/>
	<rect id="Rectángulo_29920" x="-292.7" y="-3608.3" class="st3" width="4.2" height="10.7"/>
	<rect id="Rectángulo_29921" x="-301.1" y="-3608.3" class="st3" width="4.2" height="10.7"/>
	<rect id="Rectángulo_29922" x="-309.6" y="-3608.3" class="st3" width="4.2" height="10.7"/>
	<rect id="Rectángulo_29923" x="-318.1" y="-3608.3" class="st3" width="4.2" height="10.7"/>
	<rect id="Rectángulo_29924" x="-326.5" y="-3608.3" class="st3" width="4.2" height="10.7"/>
	<rect id="Rectángulo_29925" x="-335" y="-3608.3" class="st3" width="4.2" height="10.7"/>
	<rect id="Rectángulo_29926" x="-343.5" y="-3608.3" class="st3" width="4.2" height="10.7"/>
	<rect id="Rectángulo_29927" x="-351.9" y="-3608.3" class="st3" width="4.2" height="10.7"/>
	<rect id="Rectángulo_29928" x="-360.4" y="-3608.3" class="st3" width="4.2" height="10.7"/>
	<rect id="Rectángulo_29929" x="-368.8" y="-3608.3" class="st3" width="4.2" height="10.7"/>
	<rect id="Rectángulo_29930" x="-377.3" y="-3608.3" class="st3" width="4.2" height="10.7"/>
	<rect id="Rectángulo_29931" x="-385.8" y="-3608.3" class="st3" width="4.2" height="10.7"/>
</g>
</svg>
