<?xml version="1.0" encoding="utf-8"?>
<!-- Generator: Adobe Illustrator 25.0.0, SVG Export Plug-In . SVG Version: 6.00 Build 0)  -->
<svg version="1.1" id="Capa_1" xmlns="http://www.w3.org/2000/svg" xmlns:xlink="http://www.w3.org/1999/xlink" x="0px" y="0px"
	 viewBox="0 0 829 127.7" style="enable-background:new 0 0 829 127.7;" xml:space="preserve">
<style type="text/css">
	.st0{opacity:0.225;fill:#D268CC;enable-background:new    ;}
	.st1{fill:#00223D;}
	.st2{fill-rule:evenodd;clip-rule:evenodd;fill:#43433B;}
	.st3{fill:#D268CC;}
	.st4{fill-rule:evenodd;clip-rule:evenodd;fill:#D268CC;}
</style>
<g id="Grupo_33876" transform="translate(-393.508 -3628)">
	<path id="Rectángulo_31595" class="st0" d="M408.5,3628h732c8.3,0,15,6.7,15,15v65c0,8.3-6.7,15-15,15h-732c-8.3,0-15-6.7-15-15
		v-65C393.5,3634.7,400.2,3628,408.5,3628z"/>
	<path id="Trazado_85186" class="st1" d="M431.9,3649.5c0.7,0,1.4-0.1,1.9-0.5c0.5-0.4,0.8-1.1,0.7-1.8c0.1-0.8-0.3-1.5-1-1.9
		c-0.5-0.2-0.9-0.3-1.4-0.3h-4.3v4.4H431.9z M426.1,3643.6h6c0.8,0,1.7,0.1,2.4,0.4c1.2,0.5,1.9,1.7,1.8,3.1c0,0.7-0.1,1.3-0.5,1.9
		c-0.3,0.5-0.8,0.9-1.3,1.2c0.4,0.2,0.8,0.4,1.1,0.8c0.3,0.5,0.4,1.1,0.4,1.6l0.1,1.7c0,0.4,0,0.7,0.1,1.1c0.1,0.3,0.3,0.6,0.6,0.8
		v0.3h-2.1c-0.1-0.1-0.1-0.3-0.1-0.4c-0.1-0.3-0.1-0.7-0.1-1l-0.1-2.1c0-0.7-0.3-1.4-0.9-1.7c-0.5-0.2-1-0.3-1.6-0.2h-4v5.5h-1.7
		V3643.6z M442.6,3646.9c0.7,0,1.3,0.2,1.9,0.5c0.6,0.3,1.1,0.7,1.4,1.2c0.3,0.5,0.5,1.1,0.6,1.7c0.1,0.7,0.2,1.4,0.1,2.1h-6.9
		c0,0.8,0.2,1.6,0.7,2.3c0.5,0.6,1.2,0.9,2,0.9c0.7,0,1.5-0.3,2-0.8c0.3-0.3,0.5-0.7,0.6-1.1h1.6c-0.1,0.4-0.2,0.8-0.4,1.2
		c-0.2,0.4-0.5,0.7-0.8,1c-0.5,0.5-1.1,0.8-1.8,0.9c-0.4,0.1-0.9,0.1-1.3,0.1c-1.1,0-2.2-0.4-3-1.3c-0.9-1-1.3-2.3-1.2-3.6
		c-0.1-1.3,0.4-2.6,1.2-3.7C440.2,3647.4,441.3,3646.8,442.6,3646.9L442.6,3646.9z M445.1,3651c0-0.6-0.2-1.1-0.4-1.6
		c-0.4-0.8-1.3-1.2-2.2-1.1c-0.7,0-1.4,0.3-1.8,0.8c-0.5,0.5-0.8,1.3-0.8,2L445.1,3651z M449.9,3654c0,0.4,0.2,0.8,0.5,1.1
		c0.3,0.3,0.8,0.4,1.2,0.4c0.6,0,1.1-0.1,1.6-0.4c0.8-0.4,1.4-1.2,1.3-2.1v-1.3c-0.2,0.1-0.5,0.2-0.7,0.3c-0.3,0.1-0.6,0.1-0.9,0.2
		l-1,0.1c-0.4,0-0.9,0.2-1.3,0.4C450.1,3652.9,449.8,3653.5,449.9,3654z M453.7,3650.8c0.3,0,0.6-0.2,0.7-0.5
		c0.1-0.2,0.1-0.4,0.1-0.6c0-0.5-0.2-0.9-0.6-1.2c-0.5-0.3-1.1-0.4-1.6-0.4c-0.7-0.1-1.3,0.2-1.8,0.7c-0.2,0.3-0.4,0.7-0.4,1.1h-1.5
		c-0.1-1,0.4-1.9,1.1-2.4c0.8-0.5,1.6-0.7,2.5-0.7c0.9,0,1.9,0.2,2.7,0.6c0.7,0.4,1.1,1.2,1,2v5.4c0,0.1,0,0.3,0.1,0.4
		c0.1,0.1,0.3,0.2,0.4,0.1c0.1,0,0.1,0,0.2,0c0.1,0,0.2,0,0.3,0v1.2c-0.2,0.1-0.4,0.1-0.6,0.1c-0.2,0-0.4,0-0.5,0
		c-0.5,0-0.9-0.2-1.2-0.6c-0.1-0.3-0.2-0.6-0.3-0.9c-0.4,0.5-0.9,0.8-1.4,1.1c-0.6,0.3-1.3,0.5-2,0.5c-0.8,0-1.6-0.3-2.1-0.8
		c-0.5-0.5-0.8-1.2-0.8-2c0-0.8,0.3-1.5,0.8-2c0.6-0.5,1.4-0.8,2.1-0.9L453.7,3650.8z M458.7,3643.6h1.6v12.9h-1.6V3643.6z
		 M462.7,3647.1h1.6v9.4h-1.6V3647.1z M462.7,3643.6h1.6v1.8h-1.6V3643.6z M466,3655.3l5.6-6.8h-5.2v-1.4h7.3v1.3l-5.5,6.7h5.7v1.4
		H466L466,3655.3z M476.9,3654c0,0.4,0.2,0.8,0.5,1.1c0.3,0.3,0.8,0.4,1.2,0.4c0.6,0,1.1-0.1,1.6-0.4c0.8-0.4,1.4-1.2,1.3-2.1v-1.3
		c-0.2,0.1-0.5,0.2-0.7,0.3c-0.3,0.1-0.6,0.1-0.9,0.2l-1,0.1c-0.4,0-0.9,0.2-1.3,0.4C477.1,3652.9,476.9,3653.5,476.9,3654z
		 M480.7,3650.8c0.3,0,0.6-0.2,0.7-0.5c0.1-0.2,0.1-0.4,0.1-0.6c0-0.5-0.2-0.9-0.6-1.2c-0.5-0.3-1.1-0.4-1.6-0.4
		c-0.7-0.1-1.3,0.2-1.8,0.7c-0.2,0.3-0.4,0.7-0.4,1.1h-1.5c-0.1-1,0.4-1.9,1.1-2.4c0.8-0.5,1.6-0.7,2.5-0.7c0.9,0,1.9,0.2,2.7,0.6
		c0.7,0.4,1.1,1.2,1,2v5.4c0,0.1,0,0.3,0.1,0.4c0.1,0.1,0.3,0.2,0.4,0.1c0.1,0,0.1,0,0.2,0c0.1,0,0.2,0,0.3,0v1.2
		c-0.2,0.1-0.4,0.1-0.6,0.1c-0.2,0-0.4,0-0.5,0c-0.5,0-0.9-0.2-1.2-0.6c-0.1-0.3-0.2-0.6-0.3-0.9c-0.4,0.5-0.9,0.8-1.4,1.1
		c-0.6,0.3-1.3,0.5-2,0.5c-0.8,0-1.6-0.3-2.1-0.8c-0.5-0.5-0.8-1.2-0.8-2c0-0.8,0.3-1.5,0.8-2c0.6-0.5,1.4-0.8,2.1-0.9L480.7,3650.8
		z M485.7,3647.1h1.5v1.6c0.2-0.4,0.5-0.8,0.9-1.2c0.4-0.4,1-0.7,1.7-0.7c0,0,0.1,0,0.1,0s0.2,0,0.4,0v1.7c-0.1,0-0.2,0-0.3,0
		c-0.1,0-0.2,0-0.3,0c-0.7,0-1.4,0.2-1.8,0.8c-0.4,0.5-0.6,1.1-0.6,1.8v5.4h-1.6L485.7,3647.1z M496.7,3643.6h1.6v12.9h-1.6
		L496.7,3643.6z M501.9,3654c0,0.4,0.2,0.8,0.5,1.1c0.3,0.3,0.8,0.4,1.2,0.4c0.6,0,1.1-0.1,1.6-0.4c0.8-0.4,1.4-1.2,1.3-2.1v-1.3
		c-0.2,0.1-0.5,0.2-0.7,0.3c-0.3,0.1-0.6,0.1-0.9,0.2l-1,0.1c-0.4,0-0.9,0.2-1.3,0.4C502.1,3652.9,501.9,3653.5,501.9,3654z
		 M505.7,3650.8c0.3,0,0.6-0.2,0.7-0.5c0.1-0.2,0.1-0.4,0.1-0.6c0-0.5-0.2-0.9-0.6-1.2c-0.5-0.3-1.1-0.4-1.6-0.4
		c-0.7-0.1-1.3,0.2-1.8,0.7c-0.2,0.3-0.4,0.7-0.4,1.1h-1.5c-0.1-1,0.4-1.9,1.1-2.4c0.8-0.5,1.6-0.7,2.5-0.7c0.9,0,1.9,0.2,2.7,0.6
		c0.7,0.4,1.1,1.2,1,2v5.4c0,0.1,0,0.3,0.1,0.4c0.1,0.1,0.3,0.2,0.4,0.1c0.1,0,0.1,0,0.2,0c0.1,0,0.2,0,0.3,0v1.2
		c-0.2,0.1-0.4,0.1-0.6,0.1c-0.2,0-0.4,0-0.5,0c-0.5,0-0.9-0.2-1.2-0.6c-0.1-0.3-0.2-0.6-0.3-0.9c-0.4,0.5-0.9,0.8-1.4,1.1
		c-0.6,0.3-1.3,0.5-2,0.5c-0.8,0-1.6-0.3-2.1-0.8c-0.5-0.5-0.8-1.2-0.8-2c0-0.8,0.3-1.5,0.8-2c0.6-0.5,1.4-0.8,2.1-0.9L505.7,3650.8
		z M511.6,3653.6c0,0.4,0.2,0.9,0.4,1.2c0.5,0.6,1.3,0.8,2.1,0.8c0.5,0,1.1-0.1,1.5-0.4c0.4-0.2,0.7-0.7,0.7-1.2
		c0-0.4-0.2-0.7-0.5-0.9c-0.4-0.2-0.9-0.3-1.4-0.4l-1.3-0.3c-0.6-0.1-1.2-0.4-1.8-0.7c-0.6-0.4-1-1-1-1.8c0-0.8,0.3-1.6,1-2.2
		c0.7-0.6,1.7-0.9,2.6-0.8c1.2-0.1,2.3,0.4,3.1,1.3c0.4,0.5,0.6,1.1,0.6,1.7h-1.5c0-0.4-0.2-0.7-0.4-1c-0.5-0.5-1.2-0.7-1.9-0.6
		c-0.5,0-1,0.1-1.4,0.3c-0.3,0.2-0.5,0.5-0.5,0.9c0,0.4,0.2,0.8,0.6,1c0.3,0.2,0.7,0.3,1,0.4l1,0.3c0.8,0.2,1.6,0.4,2.3,0.8
		c0.6,0.4,1,1.2,0.9,1.9c0,0.8-0.3,1.6-1,2.2c-0.8,0.7-1.9,1-2.9,0.9c-1.1,0.1-2.2-0.2-3-1c-0.6-0.6-0.9-1.5-0.9-2.4L511.6,3653.6z
		 M528.4,3655.5c0.9,0.1,1.8-0.4,2.2-1.2c0.4-0.8,0.6-1.7,0.6-2.6c0-0.7-0.1-1.5-0.4-2.1c-0.4-0.9-1.3-1.4-2.3-1.3
		c-0.9-0.1-1.7,0.4-2.1,1.1c-0.5,0.8-0.7,1.7-0.7,2.7c0,0.9,0.2,1.8,0.7,2.5C526.8,3655.2,527.6,3655.5,528.4,3655.5L528.4,3655.5z
		 M528.5,3646.8c1.1,0,2.3,0.4,3.1,1.2c0.9,1,1.3,2.3,1.2,3.6c0.1,1.3-0.3,2.7-1.1,3.8c-0.8,1-2.1,1.6-3.4,1.5
		c-1.2,0.1-2.3-0.4-3.1-1.3c-0.8-1-1.2-2.3-1.1-3.5c-0.1-1.4,0.4-2.7,1.2-3.8C526.1,3647.3,527.3,3646.8,528.5,3646.8L528.5,3646.8z
		 M538.7,3655.4c0.7,0,1.4-0.3,1.8-0.9c0.5-0.8,0.8-1.8,0.7-2.8c0-0.7-0.1-1.3-0.3-1.9c-0.5-1.2-1.8-1.9-3.1-1.4
		c-0.7,0.3-1.2,0.8-1.4,1.5c-0.2,0.7-0.3,1.5-0.3,2.2c0,0.6,0.1,1.3,0.3,1.9C536.8,3654.9,537.7,3655.5,538.7,3655.4L538.7,3655.4z
		 M534.6,3647.1h1.5v1.2c0.3-0.4,0.6-0.7,1-1c0.6-0.4,1.2-0.5,1.9-0.5c1,0,2,0.4,2.7,1.2c0.8,1,1.2,2.2,1.1,3.5
		c0,2.1-0.5,3.5-1.6,4.4c-0.7,0.6-1.5,0.8-2.4,0.8c-0.6,0-1.2-0.1-1.8-0.5c-0.4-0.2-0.7-0.6-0.9-0.9v4.8h-1.6L534.6,3647.1z
		 M548.6,3646.9c0.7,0,1.3,0.2,1.9,0.5c0.6,0.3,1.1,0.7,1.4,1.2c0.3,0.5,0.5,1.1,0.6,1.7c0.1,0.7,0.2,1.4,0.1,2.1h-6.9
		c0,0.8,0.2,1.6,0.7,2.3c0.5,0.6,1.2,0.9,2,0.9c0.7,0,1.5-0.3,2-0.8c0.3-0.3,0.5-0.7,0.6-1.1h1.6c-0.1,0.4-0.2,0.8-0.4,1.2
		c-0.2,0.4-0.5,0.7-0.8,1c-0.5,0.5-1.1,0.8-1.8,0.9c-0.4,0.1-0.9,0.1-1.3,0.1c-1.1,0-2.2-0.4-3-1.3c-0.9-1-1.3-2.3-1.2-3.6
		c-0.1-1.3,0.4-2.6,1.2-3.7C546.2,3647.4,547.4,3646.8,548.6,3646.9L548.6,3646.9z M551.2,3651c0-0.6-0.2-1.1-0.4-1.6
		c-0.4-0.8-1.3-1.2-2.2-1.1c-0.7,0-1.4,0.3-1.8,0.8c-0.5,0.5-0.8,1.3-0.8,2H551.2z M554.8,3647.1h1.5v1.6c0.2-0.4,0.5-0.8,0.9-1.2
		c0.4-0.4,1-0.7,1.7-0.7c0,0,0.1,0,0.1,0s0.2,0,0.4,0v1.7c-0.1,0-0.2,0-0.3,0c-0.1,0-0.2,0-0.3,0c-0.7,0-1.4,0.2-1.8,0.8
		c-0.4,0.5-0.6,1.1-0.6,1.8v5.4h-1.6L554.8,3647.1z M561.9,3654c0,0.4,0.2,0.8,0.5,1.1c0.3,0.3,0.8,0.4,1.2,0.4
		c0.6,0,1.1-0.1,1.6-0.4c0.8-0.4,1.4-1.2,1.3-2.1v-1.3c-0.2,0.1-0.5,0.2-0.7,0.3c-0.3,0.1-0.6,0.1-0.9,0.2l-1,0.1
		c-0.4,0-0.9,0.2-1.3,0.4C562.2,3652.9,561.9,3653.5,561.9,3654L561.9,3654z M565.8,3650.8c0.3,0,0.6-0.2,0.7-0.5
		c0.1-0.2,0.1-0.4,0.1-0.6c0-0.5-0.2-0.9-0.6-1.2c-0.5-0.3-1.1-0.4-1.6-0.4c-0.7-0.1-1.3,0.2-1.8,0.7c-0.2,0.3-0.4,0.7-0.4,1.1h-1.5
		c-0.1-1,0.4-1.9,1.1-2.4c0.8-0.5,1.6-0.7,2.5-0.7c0.9,0,1.9,0.2,2.7,0.6c0.7,0.4,1.1,1.2,1,2v5.4c0,0.1,0,0.3,0.1,0.4
		c0.1,0.1,0.3,0.2,0.4,0.1c0.1,0,0.1,0,0.2,0c0.1,0,0.2,0,0.3,0v1.2c-0.2,0.1-0.4,0.1-0.6,0.1c-0.2,0-0.4,0-0.5,0
		c-0.5,0-0.9-0.2-1.2-0.6c-0.1-0.3-0.2-0.6-0.3-0.9c-0.4,0.5-0.9,0.8-1.4,1.1c-0.6,0.3-1.3,0.5-2,0.5c-0.8,0-1.6-0.3-2.1-0.8
		c-0.5-0.5-0.8-1.2-0.8-2c0-0.8,0.3-1.5,0.8-2c0.6-0.5,1.4-0.8,2.1-0.9L565.8,3650.8z M574.4,3646.8c0.9,0,1.8,0.2,2.6,0.8
		c0.7,0.7,1.2,1.6,1.2,2.7h-1.5c-0.1-0.5-0.3-1-0.6-1.4c-0.4-0.4-1-0.6-1.6-0.6c-1,0-1.8,0.6-2.2,1.5c-0.3,0.8-0.4,1.6-0.4,2.4
		c0,0.8,0.2,1.7,0.6,2.4c0.7,1,2.2,1.3,3.2,0.5c0.1-0.1,0.1-0.1,0.2-0.2c0.4-0.5,0.7-1,0.8-1.6h1.5c-0.1,1-0.5,2-1.3,2.7
		c-0.8,0.6-1.7,0.9-2.7,0.9c-1.1,0-2.2-0.5-2.9-1.3c-0.8-1-1.1-2.2-1.1-3.4c-0.1-1.4,0.3-2.8,1.2-3.9
		C572.1,3647.3,573.2,3646.8,574.4,3646.8L574.4,3646.8z M579.7,3647.1h1.6v9.4h-1.6V3647.1z M579.7,3643.6h1.6v1.8h-1.6V3643.6z
		 M587.5,3655.5c0.9,0.1,1.8-0.4,2.2-1.2c0.4-0.8,0.6-1.7,0.6-2.6c0-0.7-0.1-1.5-0.4-2.1c-0.4-0.9-1.3-1.4-2.3-1.3
		c-0.9-0.1-1.7,0.4-2.1,1.1c-0.5,0.8-0.7,1.7-0.7,2.7c0,0.9,0.2,1.8,0.7,2.5C585.8,3655.2,586.6,3655.5,587.5,3655.5L587.5,3655.5z
		 M587.5,3646.8c1.1,0,2.2,0.4,3.1,1.2c0.9,1,1.4,2.3,1.3,3.6c0.1,1.3-0.3,2.7-1.1,3.8c-0.8,1-2.1,1.6-3.4,1.5
		c-1.2,0.1-2.3-0.4-3.1-1.3c-0.8-1-1.2-2.3-1.1-3.5c-0.1-1.4,0.4-2.7,1.2-3.8C585.1,3647.3,586.3,3646.8,587.5,3646.8L587.5,3646.8z
		 M593.8,3647.1h1.5v1.3c0.4-0.5,0.9-0.9,1.4-1.2c0.5-0.2,1.1-0.4,1.7-0.4c1.1-0.1,2.2,0.4,2.7,1.4c0.3,0.7,0.4,1.4,0.4,2.2v6h-1.6
		v-5.9c0-0.5-0.1-1-0.3-1.4c-0.3-0.6-0.9-0.9-1.5-0.9c-0.3,0-0.6,0-0.9,0.1c-0.4,0.1-0.8,0.4-1.1,0.8c-0.2,0.3-0.4,0.6-0.5,1
		c-0.1,0.5-0.1,0.9-0.1,1.4v4.9h-1.6L593.8,3647.1z M607.7,3646.9c0.7,0,1.3,0.2,1.9,0.5c0.6,0.3,1.1,0.7,1.4,1.2
		c0.3,0.5,0.5,1.1,0.6,1.7c0.1,0.7,0.2,1.4,0.1,2.1h-6.9c0,0.8,0.2,1.6,0.7,2.3c0.5,0.6,1.2,0.9,2,0.9c0.7,0,1.5-0.3,2-0.8
		c0.3-0.3,0.5-0.7,0.6-1.1h1.6c-0.1,0.4-0.2,0.8-0.4,1.2c-0.2,0.4-0.5,0.7-0.8,1c-0.5,0.5-1.1,0.8-1.8,0.9c-0.4,0.1-0.9,0.1-1.3,0.1
		c-1.1,0-2.2-0.4-3-1.3c-0.9-1-1.3-2.3-1.2-3.6c-0.1-1.3,0.4-2.6,1.2-3.7C605.3,3647.4,606.4,3646.8,607.7,3646.9L607.7,3646.9z
		 M610.2,3651c0-0.6-0.2-1.1-0.4-1.6c-0.4-0.8-1.3-1.2-2.2-1.1c-0.7,0-1.4,0.3-1.8,0.8c-0.5,0.5-0.8,1.3-0.8,2H610.2z M614.7,3653.5
		c0,0.4,0.2,0.9,0.4,1.2c0.5,0.6,1.3,0.8,2.1,0.8c0.5,0,1.1-0.1,1.5-0.4c0.4-0.2,0.7-0.7,0.7-1.2c0-0.4-0.2-0.7-0.5-0.9
		c-0.4-0.2-0.9-0.3-1.4-0.4l-1.3-0.3c-0.6-0.1-1.2-0.4-1.8-0.7c-0.6-0.4-1-1-1-1.8c0-0.8,0.3-1.6,1-2.2c0.7-0.6,1.7-0.9,2.6-0.8
		c1.2-0.1,2.3,0.4,3.1,1.2c0.4,0.5,0.6,1.1,0.6,1.7h-1.5c0-0.4-0.2-0.7-0.4-1c-0.5-0.5-1.2-0.7-1.9-0.6c-0.5,0-1,0.1-1.4,0.3
		c-0.3,0.2-0.5,0.5-0.5,0.9c0,0.4,0.2,0.8,0.6,1c0.3,0.2,0.7,0.3,1,0.4l1,0.3c0.8,0.2,1.6,0.4,2.3,0.8c0.6,0.4,1,1.2,0.9,1.9
		c0,0.8-0.3,1.6-1,2.2c-0.8,0.7-1.9,1-2.9,0.9c-1.1,0.1-2.2-0.2-3-1c-0.6-0.6-0.9-1.5-0.9-2.4L614.7,3653.5z M627.8,3647.1h1.6v9.4
		h-1.6V3647.1z M627.8,3643.6h1.6v1.8h-1.6V3643.6z M631.8,3647.1h1.5v1.3c0.4-0.5,0.9-0.9,1.4-1.2c0.5-0.2,1.1-0.4,1.7-0.4
		c1.1-0.1,2.2,0.4,2.7,1.4c0.3,0.7,0.4,1.4,0.4,2.2v6h-1.6v-5.9c0-0.5-0.1-1-0.3-1.4c-0.3-0.6-0.9-0.9-1.5-0.9c-0.3,0-0.6,0-0.9,0.1
		c-0.4,0.1-0.8,0.4-1.1,0.8c-0.2,0.3-0.4,0.6-0.5,1c-0.1,0.5-0.1,0.9-0.1,1.4v4.9h-1.6L631.8,3647.1z M642.8,3651.9
		c0,0.9,0.2,1.8,0.6,2.5c0.4,0.7,1.2,1.1,2.1,1c0.7,0,1.4-0.3,1.8-0.9c0.5-0.8,0.8-1.8,0.7-2.7c0.1-0.9-0.2-1.9-0.7-2.6
		c-0.4-0.5-1.1-0.9-1.8-0.9c-0.8,0-1.5,0.3-1.9,0.9C643,3650,642.7,3650.9,642.8,3651.9z M645.2,3646.9c0.6,0,1.3,0.1,1.8,0.5
		c0.4,0.3,0.7,0.6,1,0.9v-4.8h1.5v13H648v-1.3c-0.3,0.5-0.8,1-1.3,1.3c-0.5,0.3-1.1,0.4-1.7,0.4c-1.1,0-2.1-0.5-2.7-1.3
		c-0.8-1-1.2-2.2-1.2-3.5c0-1.3,0.3-2.5,1-3.6C642.8,3647.4,644,3646.9,645.2,3646.9L645.2,3646.9z M651.8,3647.1h1.6v9.4h-1.6
		V3647.1z M651.8,3643.6h1.6v1.8h-1.6V3643.6z M659.4,3646.8c0.9,0,1.8,0.2,2.6,0.8c0.7,0.7,1.2,1.6,1.2,2.7h-1.5
		c-0.1-0.5-0.3-1-0.6-1.4c-0.4-0.4-1-0.6-1.6-0.6c-1,0-1.8,0.6-2.2,1.5c-0.3,0.8-0.4,1.6-0.4,2.4c0,0.8,0.2,1.7,0.6,2.4
		c0.7,1,2.2,1.3,3.2,0.5c0.1-0.1,0.1-0.1,0.2-0.2c0.4-0.5,0.7-1,0.8-1.6h1.5c-0.1,1-0.5,2-1.3,2.7c-0.8,0.6-1.7,0.9-2.7,0.9
		c-1.1,0-2.2-0.5-2.9-1.3c-0.8-1-1.1-2.2-1.1-3.4c-0.1-1.4,0.3-2.8,1.2-3.9C657.1,3647.3,658.2,3646.8,659.4,3646.8L659.4,3646.8z
		 M666,3654c0,0.4,0.2,0.8,0.5,1.1c0.3,0.3,0.8,0.4,1.2,0.4c0.6,0,1.1-0.1,1.6-0.4c0.8-0.4,1.4-1.2,1.3-2.1v-1.3
		c-0.2,0.1-0.5,0.2-0.7,0.3c-0.3,0.1-0.6,0.1-0.9,0.2l-1,0.1c-0.4,0-0.9,0.2-1.3,0.4C666.2,3652.9,666,3653.5,666,3654z
		 M669.8,3650.8c0.3,0,0.6-0.2,0.7-0.5c0.1-0.2,0.1-0.4,0.1-0.6c0-0.5-0.2-0.9-0.6-1.2c-0.5-0.3-1.1-0.4-1.6-0.4
		c-0.7-0.1-1.3,0.2-1.8,0.7c-0.2,0.3-0.4,0.7-0.4,1.1h-1.5c-0.1-0.9,0.4-1.9,1.1-2.4c0.8-0.5,1.6-0.7,2.5-0.7c0.9,0,1.9,0.2,2.7,0.6
		c0.7,0.4,1.1,1.2,1,2v5.4c0,0.1,0,0.3,0.1,0.4c0.1,0.1,0.3,0.2,0.4,0.1c0.1,0,0.1,0,0.2,0c0.1,0,0.2,0,0.3,0v1.2
		c-0.2,0.1-0.4,0.1-0.6,0.1c-0.2,0-0.4,0-0.5,0c-0.5,0-0.9-0.2-1.2-0.6c-0.1-0.3-0.2-0.6-0.3-0.9c-0.4,0.5-0.9,0.8-1.4,1.1
		c-0.6,0.3-1.3,0.5-2,0.5c-0.8,0-1.6-0.3-2.1-0.8c-0.5-0.5-0.8-1.2-0.8-2c0-0.8,0.3-1.5,0.8-2c0.6-0.5,1.4-0.8,2.1-0.9L669.8,3650.8
		z M675.8,3651.9c0,0.9,0.2,1.8,0.6,2.5c0.4,0.7,1.2,1.1,2.1,1c0.7,0,1.4-0.3,1.8-0.9c0.5-0.8,0.8-1.8,0.7-2.7
		c0.1-0.9-0.2-1.9-0.7-2.6c-0.4-0.5-1.1-0.9-1.8-0.9c-0.8,0-1.5,0.3-1.9,0.9C676,3650,675.7,3650.9,675.8,3651.9z M678.2,3646.9
		c0.6,0,1.3,0.1,1.8,0.5c0.4,0.3,0.7,0.6,1,0.9v-4.8h1.5v13H681v-1.3c-0.3,0.5-0.8,1-1.3,1.3c-0.5,0.3-1.1,0.4-1.7,0.4
		c-1.1,0-2.1-0.5-2.7-1.3c-0.8-1-1.2-2.2-1.2-3.5c0-1.3,0.3-2.5,1.1-3.6C675.9,3647.4,677,3646.9,678.2,3646.9L678.2,3646.9z
		 M686,3654c0,0.4,0.2,0.8,0.5,1.1c0.3,0.3,0.8,0.4,1.2,0.4c0.6,0,1.1-0.1,1.6-0.4c0.8-0.4,1.4-1.2,1.3-2.1v-1.3
		c-0.2,0.1-0.5,0.2-0.7,0.3c-0.3,0.1-0.6,0.1-0.9,0.2l-1,0.1c-0.4,0-0.9,0.2-1.3,0.4C686.3,3652.9,686,3653.5,686,3654L686,3654z
		 M689.9,3650.8c0.3,0,0.6-0.2,0.7-0.5c0.1-0.2,0.1-0.4,0.1-0.6c0-0.5-0.2-0.9-0.6-1.2c-0.5-0.3-1.1-0.4-1.6-0.4
		c-0.7-0.1-1.3,0.2-1.8,0.7c-0.2,0.3-0.4,0.7-0.4,1.1h-1.5c-0.1-0.9,0.4-1.9,1.1-2.4c0.8-0.5,1.6-0.7,2.5-0.7c0.9,0,1.9,0.2,2.7,0.6
		c0.7,0.4,1.1,1.2,1,2v5.4c0,0.1,0,0.3,0.1,0.4c0.1,0.1,0.3,0.2,0.4,0.1c0.1,0,0.1,0,0.2,0c0.1,0,0.2,0,0.3,0v1.2
		c-0.2,0.1-0.4,0.1-0.6,0.1c-0.2,0-0.4,0-0.5,0c-0.5,0-0.9-0.2-1.2-0.6c-0.1-0.3-0.2-0.6-0.3-0.9c-0.4,0.5-0.9,0.8-1.4,1.1
		c-0.6,0.3-1.3,0.5-2,0.5c-0.8,0-1.6-0.3-2.1-0.8c-0.5-0.5-0.8-1.2-0.8-2c0-0.8,0.3-1.5,0.8-2c0.6-0.5,1.4-0.8,2.1-0.9L689.9,3650.8
		z M695.8,3653.5c0,0.4,0.2,0.9,0.4,1.2c0.5,0.6,1.3,0.8,2.1,0.8c0.5,0,1.1-0.1,1.5-0.4c0.4-0.2,0.7-0.7,0.7-1.2
		c0-0.4-0.2-0.7-0.5-0.9c-0.4-0.2-0.9-0.3-1.4-0.4l-1.3-0.3c-0.6-0.1-1.2-0.4-1.8-0.7c-0.6-0.4-1-1-1-1.8c0-0.8,0.3-1.6,1-2.2
		c0.7-0.6,1.7-0.9,2.6-0.8c1.2-0.1,2.3,0.4,3.1,1.2c0.4,0.5,0.6,1.1,0.6,1.7h-1.5c0-0.4-0.2-0.7-0.4-1c-0.5-0.5-1.2-0.7-1.9-0.6
		c-0.5,0-1,0.1-1.4,0.3c-0.3,0.2-0.5,0.5-0.5,0.9c0,0.4,0.2,0.8,0.6,1c0.3,0.2,0.7,0.3,1,0.4l1,0.3c0.8,0.2,1.6,0.4,2.3,0.8
		c0.6,0.4,1,1.2,0.9,1.9c0,0.8-0.3,1.6-1,2.2c-0.8,0.7-1.9,1-2.9,0.9c-1.1,0.1-2.2-0.2-3-1c-0.6-0.6-0.9-1.5-0.9-2.4L695.8,3653.5z
		 M712.8,3655.4c0.7,0,1.4-0.3,1.8-0.9c0.5-0.8,0.8-1.8,0.7-2.8c0-0.7-0.1-1.3-0.3-1.9c-0.5-1.2-1.8-1.9-3.1-1.4
		c-0.7,0.3-1.2,0.8-1.4,1.5c-0.2,0.7-0.3,1.5-0.3,2.2c0,0.6,0.1,1.3,0.3,1.9C710.9,3654.9,711.8,3655.5,712.8,3655.4L712.8,3655.4z
		 M708.7,3647.1h1.5v1.3c0.3-0.4,0.6-0.7,1-1c0.6-0.4,1.2-0.5,1.9-0.5c1,0,2,0.4,2.7,1.2c0.8,1,1.2,2.2,1.1,3.5
		c0,2.1-0.5,3.5-1.6,4.4c-0.7,0.6-1.5,0.8-2.4,0.8c-0.6,0-1.2-0.1-1.8-0.5c-0.4-0.2-0.7-0.6-0.9-0.9v4.8h-1.6L708.7,3647.1z
		 M720,3654c0,0.4,0.2,0.8,0.5,1.1c0.3,0.3,0.8,0.4,1.2,0.4c0.6,0,1.1-0.1,1.6-0.4c0.8-0.4,1.4-1.2,1.3-2.1v-1.3
		c-0.2,0.1-0.5,0.2-0.7,0.3c-0.3,0.1-0.6,0.1-0.9,0.2l-1,0.1c-0.4,0-0.9,0.2-1.3,0.4C720.3,3652.9,720,3653.5,720,3654z
		 M723.9,3650.8c0.3,0,0.6-0.2,0.7-0.5c0.1-0.2,0.1-0.4,0.1-0.6c0-0.5-0.2-0.9-0.6-1.2c-0.5-0.3-1.1-0.4-1.6-0.4
		c-0.7-0.1-1.3,0.2-1.8,0.7c-0.2,0.3-0.4,0.7-0.4,1.1h-1.5c-0.1-1,0.4-1.9,1.1-2.4c0.8-0.5,1.6-0.7,2.5-0.7c0.9,0,1.9,0.2,2.7,0.6
		c0.7,0.4,1.1,1.2,1,2v5.4c0,0.1,0,0.3,0.1,0.4c0.1,0.1,0.3,0.2,0.4,0.1c0.1,0,0.1,0,0.2,0c0.1,0,0.2,0,0.3,0v1.2
		c-0.2,0.1-0.4,0.1-0.6,0.1c-0.2,0-0.4,0-0.5,0c-0.5,0-0.9-0.2-1.2-0.6c-0.1-0.3-0.2-0.6-0.3-0.9c-0.4,0.5-0.9,0.8-1.4,1.1
		c-0.6,0.3-1.3,0.5-2,0.5c-0.8,0-1.6-0.3-2.1-0.8c-0.5-0.5-0.8-1.2-0.8-2c0-0.8,0.3-1.5,0.8-2c0.6-0.5,1.4-0.8,2.1-0.9L723.9,3650.8
		z M728.9,3647.1h1.5v1.6c0.2-0.4,0.5-0.8,0.9-1.2c0.4-0.4,1-0.7,1.7-0.7c0,0,0.1,0,0.1,0c0.1,0,0.2,0,0.4,0v1.7c-0.1,0-0.2,0-0.3,0
		c-0.1,0-0.2,0-0.3,0c-0.7,0-1.4,0.2-1.8,0.8c-0.4,0.5-0.6,1.1-0.6,1.8v5.4h-1.6L728.9,3647.1z M736,3654c0,0.4,0.2,0.8,0.5,1.1
		c0.3,0.3,0.8,0.4,1.2,0.4c0.6,0,1.1-0.1,1.6-0.4c0.8-0.4,1.4-1.2,1.3-2.1v-1.3c-0.2,0.1-0.5,0.2-0.7,0.3c-0.3,0.1-0.6,0.1-0.9,0.2
		l-1,0.1c-0.4,0-0.9,0.2-1.3,0.4C736.3,3652.9,736,3653.5,736,3654L736,3654z M739.9,3650.8c0.3,0,0.6-0.2,0.7-0.5
		c0.1-0.2,0.1-0.4,0.1-0.6c0-0.5-0.2-0.9-0.6-1.2c-0.5-0.3-1.1-0.4-1.6-0.4c-0.7-0.1-1.3,0.2-1.8,0.7c-0.2,0.3-0.4,0.7-0.4,1.1h-1.5
		c-0.1-0.9,0.4-1.9,1.1-2.4c0.8-0.5,1.6-0.7,2.5-0.7c0.9,0,1.9,0.2,2.7,0.6c0.7,0.4,1.1,1.2,1,2v5.4c0,0.1,0,0.3,0.1,0.4
		c0.1,0.1,0.3,0.2,0.4,0.1c0.1,0,0.1,0,0.2,0c0.1,0,0.2,0,0.3,0v1.2c-0.2,0.1-0.4,0.1-0.6,0.1c-0.2,0-0.4,0-0.5,0
		c-0.5,0-0.9-0.2-1.2-0.6c-0.1-0.3-0.2-0.6-0.3-0.9c-0.4,0.5-0.9,0.8-1.4,1.1c-0.6,0.3-1.3,0.5-2,0.5c-0.8,0-1.6-0.3-2.1-0.8
		c-0.5-0.5-0.8-1.2-0.8-2c0-0.8,0.3-1.5,0.8-2c0.6-0.5,1.4-0.8,2.1-0.9L739.9,3650.8z M750.8,3651.9c0,0.9,0.2,1.8,0.6,2.5
		c0.4,0.7,1.2,1.1,2.1,1c0.7,0,1.4-0.3,1.8-0.9c0.5-0.8,0.8-1.8,0.7-2.7c0.1-0.9-0.2-1.9-0.7-2.6c-0.4-0.5-1.1-0.9-1.8-0.9
		c-0.8,0-1.5,0.3-1.9,0.9C751,3650,750.8,3650.9,750.8,3651.9z M753.2,3646.9c0.6,0,1.3,0.1,1.8,0.5c0.4,0.3,0.7,0.6,1,0.9v-4.8h1.5
		v13h-1.4v-1.3c-0.3,0.5-0.8,1-1.3,1.3c-0.5,0.3-1.1,0.4-1.7,0.4c-1.1,0-2.1-0.5-2.7-1.3c-0.8-1-1.2-2.2-1.2-3.5
		c0-1.3,0.3-2.5,1-3.6C750.9,3647.4,752,3646.9,753.2,3646.9L753.2,3646.9z M763.8,3646.9c0.7,0,1.3,0.2,1.9,0.5
		c0.6,0.3,1.1,0.7,1.4,1.2c0.3,0.5,0.5,1.1,0.6,1.7c0.1,0.7,0.2,1.4,0.1,2.1H761c0,0.8,0.2,1.6,0.7,2.3c0.5,0.6,1.2,0.9,2,0.9
		c0.7,0,1.5-0.3,2-0.8c0.3-0.3,0.5-0.7,0.6-1.1h1.6c-0.1,0.4-0.2,0.8-0.4,1.2c-0.2,0.4-0.5,0.7-0.8,1c-0.5,0.5-1.1,0.8-1.8,0.9
		c-0.4,0.1-0.9,0.1-1.3,0.1c-1.1,0-2.2-0.4-3-1.3c-0.9-1-1.3-2.3-1.2-3.6c-0.1-1.3,0.4-2.6,1.2-3.7
		C761.4,3647.4,762.5,3646.8,763.8,3646.9L763.8,3646.9z M766.3,3651c0-0.6-0.2-1.1-0.4-1.6c-0.4-0.8-1.3-1.2-2.2-1.1
		c-0.7,0-1.4,0.3-1.8,0.8c-0.5,0.5-0.8,1.3-0.8,2L766.3,3651z M770.8,3653.5c0,0.4,0.2,0.9,0.4,1.2c0.5,0.6,1.3,0.8,2.1,0.8
		c0.5,0,1.1-0.1,1.5-0.4c0.4-0.2,0.7-0.7,0.7-1.2c0-0.4-0.2-0.7-0.5-0.9c-0.4-0.2-0.9-0.3-1.4-0.4l-1.3-0.3
		c-0.6-0.1-1.2-0.4-1.8-0.7c-0.6-0.4-1-1-1-1.8c0-0.8,0.3-1.6,1-2.2c0.7-0.6,1.7-0.9,2.6-0.8c1.2-0.1,2.3,0.4,3.1,1.2
		c0.4,0.5,0.6,1.1,0.6,1.7h-1.5c0-0.4-0.2-0.7-0.4-1c-0.5-0.5-1.2-0.7-1.9-0.6c-0.5,0-1,0.1-1.4,0.3c-0.3,0.2-0.5,0.5-0.5,0.9
		c0,0.4,0.2,0.8,0.6,1c0.3,0.2,0.7,0.3,1,0.4l1,0.3c0.8,0.2,1.6,0.4,2.3,0.8c0.6,0.4,1,1.2,0.9,1.9c0,0.8-0.3,1.6-1,2.2
		c-0.8,0.7-1.9,1-2.9,0.9c-1.1,0.1-2.2-0.2-3-1c-0.6-0.6-0.9-1.5-0.9-2.4L770.8,3653.5z M780.1,3654c0,0.4,0.2,0.8,0.5,1.1
		c0.3,0.3,0.8,0.4,1.2,0.4c0.6,0,1.1-0.1,1.6-0.4c0.8-0.4,1.4-1.2,1.3-2.1v-1.3c-0.2,0.1-0.5,0.2-0.7,0.3c-0.3,0.1-0.6,0.1-0.9,0.2
		l-1,0.1c-0.4,0-0.9,0.2-1.3,0.4C780.3,3652.9,780,3653.5,780.1,3654L780.1,3654z M783.9,3650.8c0.3,0,0.6-0.2,0.7-0.5
		c0.1-0.2,0.1-0.4,0.1-0.6c0-0.5-0.2-0.9-0.6-1.2c-0.5-0.3-1.1-0.4-1.6-0.4c-0.7-0.1-1.3,0.2-1.8,0.7c-0.2,0.3-0.4,0.7-0.4,1.1h-1.5
		c-0.1-0.9,0.4-1.9,1.1-2.4c0.8-0.5,1.6-0.7,2.5-0.7c0.9,0,1.9,0.2,2.7,0.6c0.7,0.4,1.1,1.2,1,2v5.4c0,0.1,0,0.3,0.1,0.4
		c0.1,0.1,0.3,0.2,0.4,0.1c0.1,0,0.1,0,0.2,0c0.1,0,0.2,0,0.3,0v1.2c-0.2,0.1-0.4,0.1-0.6,0.1c-0.2,0-0.4,0-0.5,0
		c-0.5,0-0.9-0.2-1.2-0.6c-0.1-0.3-0.2-0.6-0.3-0.9c-0.4,0.5-0.9,0.8-1.4,1.1c-0.6,0.3-1.3,0.5-2,0.5c-0.8,0-1.6-0.3-2.1-0.8
		c-0.5-0.5-0.8-1.2-0.8-2c0-0.8,0.3-1.5,0.8-2c0.6-0.5,1.4-0.8,2.1-0.9L783.9,3650.8z M788.9,3647.1h1.5v1.6
		c0.2-0.4,0.5-0.8,0.9-1.2c0.4-0.4,1-0.7,1.7-0.7c0,0,0.1,0,0.1,0c0.1,0,0.2,0,0.4,0v1.7c-0.1,0-0.2,0-0.3,0c-0.1,0-0.2,0-0.3,0
		c-0.7,0-1.4,0.2-1.8,0.8c-0.4,0.5-0.6,1.1-0.6,1.8v5.4h-1.6L788.9,3647.1z M794.9,3647.1h1.5v1.6c0.2-0.4,0.5-0.8,0.9-1.2
		c0.4-0.4,1-0.7,1.7-0.7c0,0,0.1,0,0.1,0s0.2,0,0.4,0v1.7c-0.1,0-0.2,0-0.3,0c-0.1,0-0.2,0-0.3,0c-0.7,0-1.4,0.2-1.8,0.8
		c-0.4,0.5-0.6,1.1-0.6,1.8v5.4h-1.6L794.9,3647.1z M804.6,3655.5c0.9,0.1,1.8-0.4,2.2-1.2c0.4-0.8,0.6-1.7,0.6-2.7
		c0-0.7-0.1-1.5-0.4-2.1c-0.4-0.9-1.3-1.4-2.3-1.3c-0.9-0.1-1.7,0.4-2.1,1.1c-0.5,0.8-0.7,1.7-0.7,2.7c0,0.9,0.2,1.8,0.7,2.5
		C803,3655.2,803.8,3655.5,804.6,3655.5z M804.7,3646.8c1.1,0,2.3,0.4,3.1,1.2c0.9,1,1.4,2.3,1.3,3.6c0.1,1.3-0.3,2.7-1.1,3.8
		c-0.8,1-2.1,1.6-3.4,1.5c-1.2,0.1-2.3-0.4-3.1-1.3c-0.8-1-1.2-2.3-1.1-3.5c-0.1-1.4,0.4-2.7,1.2-3.8
		C802.2,3647.3,803.4,3646.8,804.7,3646.8L804.7,3646.8z M810.9,3643.6h1.6v12.9h-1.6V3643.6z M814.9,3643.6h1.6v12.9h-1.6
		L814.9,3643.6z M820.1,3654c0,0.4,0.2,0.8,0.5,1.1c0.3,0.3,0.8,0.4,1.2,0.4c0.6,0,1.1-0.1,1.6-0.4c0.8-0.4,1.4-1.2,1.3-2.1v-1.3
		c-0.2,0.1-0.5,0.2-0.7,0.3c-0.3,0.1-0.6,0.1-0.9,0.2l-1,0.1c-0.4,0-0.9,0.2-1.3,0.4C820.3,3652.9,820.1,3653.5,820.1,3654z
		 M823.9,3650.8c0.3,0,0.6-0.2,0.7-0.5c0.1-0.2,0.1-0.4,0.1-0.6c0-0.5-0.2-0.9-0.6-1.2c-0.5-0.3-1.1-0.4-1.6-0.4
		c-0.7-0.1-1.3,0.2-1.8,0.7c-0.2,0.3-0.4,0.7-0.4,1.1h-1.5c-0.1-0.9,0.4-1.9,1.1-2.4c0.8-0.5,1.6-0.7,2.5-0.7c0.9,0,1.9,0.2,2.7,0.6
		c0.7,0.4,1.1,1.2,1,2v5.4c0,0.1,0,0.3,0.1,0.4c0.1,0.1,0.3,0.2,0.4,0.1c0.1,0,0.1,0,0.2,0c0.1,0,0.2,0,0.3,0v1.2
		c-0.2,0.1-0.4,0.1-0.6,0.1c-0.2,0-0.4,0-0.5,0c-0.5,0-0.9-0.2-1.2-0.6c-0.1-0.3-0.2-0.6-0.3-0.9c-0.4,0.5-0.9,0.8-1.4,1.1
		c-0.6,0.3-1.3,0.5-2,0.5c-0.8,0-1.6-0.3-2.1-0.8c-0.5-0.5-0.8-1.2-0.8-2c0-0.8,0.3-1.5,0.8-2c0.6-0.5,1.4-0.8,2.1-0.9L823.9,3650.8
		z M828.9,3647.1h1.5v1.6c0.2-0.4,0.5-0.8,0.9-1.2c0.4-0.4,1-0.7,1.7-0.7c0,0,0.1,0,0.1,0c0.1,0,0.2,0,0.4,0v1.7c-0.1,0-0.2,0-0.3,0
		c-0.1,0-0.2,0-0.3,0c-0.7,0-1.4,0.2-1.8,0.8c-0.4,0.5-0.6,1.1-0.6,1.8v5.4h-1.6L828.9,3647.1z M843.8,3646.9c0.7,0,1.3,0.2,1.9,0.5
		c0.6,0.3,1.1,0.7,1.4,1.2c0.3,0.5,0.5,1.1,0.6,1.7c0.1,0.7,0.2,1.4,0.1,2.1H841c0,0.8,0.2,1.6,0.7,2.3c0.5,0.6,1.2,0.9,2,0.9
		c0.7,0,1.5-0.3,2-0.8c0.3-0.3,0.5-0.7,0.6-1.1h1.6c-0.1,0.4-0.2,0.8-0.4,1.2c-0.2,0.4-0.5,0.7-0.8,1c-0.5,0.5-1.1,0.8-1.8,0.9
		c-0.4,0.1-0.9,0.1-1.3,0.1c-1.1,0-2.2-0.4-3-1.3c-0.9-1-1.3-2.3-1.2-3.6c-0.1-1.3,0.4-2.6,1.2-3.7
		C841.4,3647.4,842.6,3646.8,843.8,3646.9z M846.3,3651c0-0.6-0.2-1.1-0.4-1.6c-0.4-0.8-1.3-1.2-2.2-1.1c-0.7,0-1.4,0.3-1.8,0.8
		c-0.5,0.5-0.8,1.3-0.8,2L846.3,3651z M849.9,3643.6h1.6v12.9h-1.6V3643.6z M862.9,3655.4c0.7,0,1.4-0.3,1.8-0.9
		c0.5-0.8,0.8-1.8,0.7-2.8c0-0.7-0.1-1.3-0.3-1.9c-0.5-1.2-1.8-1.9-3.1-1.4c-0.7,0.3-1.2,0.8-1.4,1.5c-0.2,0.7-0.3,1.5-0.3,2.2
		c0,0.6,0.1,1.3,0.3,1.9C861,3654.9,861.9,3655.5,862.9,3655.4L862.9,3655.4z M858.8,3647.1h1.5v1.2c0.3-0.4,0.6-0.7,1-1
		c0.6-0.4,1.2-0.5,1.9-0.5c1,0,2,0.4,2.7,1.2c0.8,1,1.2,2.2,1.1,3.5c0,2.1-0.5,3.5-1.6,4.4c-0.7,0.6-1.5,0.8-2.4,0.8
		c-0.6,0-1.2-0.1-1.8-0.5c-0.4-0.2-0.7-0.6-0.9-0.9v4.8h-1.6L858.8,3647.1z M870.1,3654c0,0.4,0.2,0.8,0.5,1.1
		c0.3,0.3,0.8,0.4,1.2,0.4c0.6,0,1.1-0.1,1.6-0.4c0.8-0.4,1.4-1.2,1.3-2.1v-1.3c-0.2,0.1-0.5,0.2-0.7,0.3c-0.3,0.1-0.6,0.1-0.9,0.2
		l-1,0.1c-0.4,0-0.9,0.2-1.3,0.4C870.4,3652.9,870.1,3653.5,870.1,3654z M873.9,3650.8c0.3,0,0.6-0.2,0.7-0.5
		c0.1-0.2,0.1-0.4,0.1-0.6c0-0.5-0.2-0.9-0.6-1.2c-0.5-0.3-1.1-0.4-1.6-0.4c-0.7-0.1-1.3,0.2-1.8,0.7c-0.2,0.3-0.4,0.7-0.4,1.1h-1.5
		c-0.1-0.9,0.4-1.9,1.1-2.4c0.8-0.5,1.6-0.7,2.5-0.7c0.9,0,1.9,0.2,2.7,0.6c0.7,0.4,1.1,1.2,1,2v5.4c0,0.1,0,0.3,0.1,0.4
		c0.1,0.1,0.3,0.2,0.4,0.1c0.1,0,0.1,0,0.2,0c0.1,0,0.2,0,0.3,0v1.2c-0.2,0.1-0.4,0.1-0.6,0.1c-0.2,0-0.4,0-0.5,0
		c-0.5,0-0.9-0.2-1.2-0.6c-0.1-0.3-0.2-0.6-0.3-0.9c-0.4,0.5-0.9,0.8-1.4,1.1c-0.6,0.3-1.3,0.5-2,0.5c-0.8,0-1.6-0.3-2.1-0.8
		c-0.5-0.5-0.8-1.2-0.8-2c0-0.8,0.3-1.5,0.8-2c0.6-0.5,1.4-0.8,2.1-0.9L873.9,3650.8z M879.2,3644.5h1.6v2.6h1.5v1.3h-1.5v6.1
		c0,0.3,0.1,0.5,0.3,0.7c0.2,0.1,0.4,0.1,0.6,0.1c0.1,0,0.2,0,0.2,0s0.2,0,0.3,0v1.2c-0.2,0.1-0.4,0.1-0.6,0.1c-0.2,0-0.4,0-0.6,0
		c-0.6,0.1-1.1-0.1-1.5-0.6c-0.3-0.4-0.4-1-0.4-1.5v-6.2H878v-1.3h1.3L879.2,3644.5z M884,3647.1h1.5v1.6c0.2-0.4,0.5-0.8,0.9-1.2
		c0.4-0.4,1-0.7,1.7-0.7c0,0,0.1,0,0.1,0s0.2,0,0.4,0v1.7c-0.1,0-0.2,0-0.3,0c-0.1,0-0.2,0-0.3,0c-0.7,0-1.4,0.2-1.8,0.8
		c-0.4,0.5-0.6,1.1-0.6,1.8v5.4H884L884,3647.1z M893.6,3655.5c0.9,0.1,1.8-0.4,2.2-1.2c0.4-0.8,0.6-1.7,0.6-2.7
		c0-0.7-0.1-1.5-0.4-2.1c-0.4-0.9-1.3-1.4-2.3-1.3c-0.9-0.1-1.7,0.4-2.1,1.1c-0.5,0.8-0.7,1.7-0.7,2.7c0,0.9,0.2,1.8,0.7,2.5
		C892,3655.2,892.8,3655.5,893.6,3655.5L893.6,3655.5z M893.7,3646.8c1.1,0,2.3,0.4,3.1,1.2c0.9,1,1.4,2.3,1.3,3.6
		c0.1,1.3-0.3,2.7-1.1,3.8c-0.8,1-2.1,1.6-3.4,1.5c-1.2,0.1-2.3-0.4-3.1-1.3c-0.8-1-1.2-2.3-1.1-3.5c-0.1-1.4,0.4-2.7,1.2-3.8
		C891.3,3647.3,892.5,3646.8,893.7,3646.8L893.7,3646.8z M895.5,3643.3l-2.3,2.5H892l1.6-2.5H895.5z M899.9,3647.1h1.5v1.3
		c0.4-0.5,0.9-0.9,1.4-1.2c0.5-0.2,1.1-0.4,1.7-0.4c1.1-0.1,2.2,0.4,2.7,1.4c0.3,0.7,0.4,1.4,0.4,2.2v6H906v-5.9
		c0-0.5-0.1-1-0.3-1.4c-0.3-0.6-0.9-0.9-1.5-0.9c-0.3,0-0.6,0-0.9,0.1c-0.4,0.1-0.8,0.4-1.1,0.8c-0.2,0.3-0.4,0.6-0.5,1
		c-0.1,0.5-0.1,0.9-0.1,1.4v4.9h-1.6V3647.1z M914.8,3643.5h1.5v4.7c0.7-0.9,1.7-1.4,2.8-1.4c1.1,0,2.1,0.4,2.9,1.2
		c0.8,1,1.2,2.3,1.1,3.6c0.1,1.3-0.3,2.6-1.1,3.7c-0.7,1-1.8,1.5-3,1.5c-0.6,0-1.3-0.2-1.8-0.5c-0.4-0.3-0.7-0.6-0.9-1v1.2h-1.5
		L914.8,3643.5z M918.9,3655.4c0.8,0,1.5-0.4,1.9-1c0.5-0.8,0.7-1.8,0.6-2.7c0-0.9-0.2-1.7-0.6-2.5c-0.4-0.6-1.1-1-1.9-1
		c-0.7,0-1.4,0.3-1.9,0.8c-0.6,0.7-0.9,1.7-0.8,2.6c0,0.7,0.1,1.5,0.3,2.2C916.9,3654.8,917.9,3655.5,918.9,3655.4z M926.2,3654
		c0,0.4,0.2,0.8,0.5,1.1c0.3,0.3,0.8,0.4,1.2,0.4c0.6,0,1.1-0.1,1.6-0.4c0.8-0.4,1.4-1.2,1.3-2.1v-1.3c-0.2,0.1-0.5,0.2-0.7,0.3
		c-0.3,0.1-0.6,0.1-0.9,0.2l-1,0.1c-0.4,0-0.9,0.2-1.3,0.4C926.4,3652.9,926.1,3653.5,926.2,3654L926.2,3654z M930,3650.8
		c0.3,0,0.6-0.2,0.7-0.5c0.1-0.2,0.1-0.4,0.1-0.6c0-0.5-0.2-0.9-0.6-1.2c-0.5-0.3-1.1-0.4-1.6-0.4c-0.7-0.1-1.3,0.2-1.8,0.7
		c-0.2,0.3-0.4,0.7-0.4,1.1H925c-0.1-0.9,0.4-1.9,1.1-2.4c0.8-0.5,1.6-0.7,2.5-0.7c0.9,0,1.9,0.2,2.7,0.6c0.7,0.4,1.1,1.2,1,2v5.4
		c0,0.1,0,0.3,0.1,0.4c0.1,0.1,0.3,0.2,0.4,0.1c0.1,0,0.1,0,0.2,0c0.1,0,0.2,0,0.3,0v1.2c-0.2,0.1-0.4,0.1-0.6,0.1
		c-0.2,0-0.4,0-0.5,0c-0.5,0-0.9-0.2-1.2-0.6c-0.1-0.3-0.2-0.6-0.3-0.9c-0.4,0.5-0.9,0.8-1.4,1.1c-0.6,0.3-1.3,0.5-2,0.5
		c-0.8,0-1.6-0.3-2.1-0.8c-0.5-0.5-0.8-1.2-0.8-2c0-0.8,0.3-1.5,0.8-2c0.6-0.5,1.4-0.8,2.1-0.9L930,3650.8z M930.7,3643.3l-2.3,2.5
		h-1.2l1.6-2.5L930.7,3643.3z M935.9,3653.5c0,0.4,0.2,0.9,0.4,1.2c0.5,0.6,1.3,0.8,2.1,0.8c0.5,0,1.1-0.1,1.5-0.4
		c0.4-0.2,0.7-0.7,0.7-1.2c0-0.4-0.2-0.7-0.5-0.9c-0.4-0.2-0.9-0.3-1.4-0.4l-1.3-0.3c-0.6-0.1-1.2-0.4-1.8-0.7c-0.6-0.4-1-1-1-1.8
		c0-0.8,0.3-1.6,1-2.2c0.7-0.6,1.7-0.9,2.6-0.8c1.2-0.1,2.3,0.4,3.1,1.2c0.4,0.5,0.6,1.1,0.6,1.7h-1.5c0-0.4-0.2-0.7-0.4-1
		c-0.5-0.5-1.2-0.7-1.9-0.6c-0.5,0-1,0.1-1.4,0.3c-0.3,0.2-0.5,0.5-0.5,0.9c0,0.4,0.2,0.8,0.6,1c0.3,0.2,0.7,0.3,1,0.4l1,0.3
		c0.8,0.2,1.6,0.4,2.3,0.8c0.6,0.4,1,1.2,0.9,1.9c0,0.8-0.3,1.6-1,2.2c-0.8,0.7-1.9,1-2.9,0.9c-1.1,0.1-2.2-0.2-3-1
		c-0.6-0.6-0.9-1.5-0.9-2.4L935.9,3653.5z M944,3647.1h1.6v9.4H944V3647.1z M944,3643.6h1.6v1.8H944V3643.6z M951.6,3646.8
		c0.9,0,1.8,0.2,2.6,0.8c0.7,0.7,1.2,1.6,1.2,2.7h-1.5c-0.1-0.5-0.3-1-0.6-1.4c-0.4-0.4-1-0.6-1.6-0.6c-1,0-1.8,0.6-2.2,1.5
		c-0.3,0.8-0.4,1.6-0.4,2.4c0,0.8,0.2,1.7,0.6,2.4c0.7,1,2.2,1.3,3.2,0.5c0.1-0.1,0.1-0.1,0.2-0.2c0.4-0.5,0.7-1,0.8-1.6h1.5
		c-0.1,1-0.5,2-1.3,2.7c-0.8,0.6-1.7,0.9-2.7,0.9c-1.1,0-2.2-0.5-2.9-1.3c-0.8-1-1.1-2.2-1.1-3.4c-0.1-1.4,0.3-2.8,1.2-3.9
		C949.3,3647.3,950.4,3646.8,951.6,3646.8L951.6,3646.8z M960.7,3655.5c0.9,0.1,1.8-0.4,2.2-1.2c0.4-0.8,0.6-1.7,0.6-2.6
		c0-0.7-0.1-1.5-0.4-2.1c-0.4-0.9-1.3-1.4-2.3-1.3c-0.9-0.1-1.7,0.4-2.1,1.1c-0.5,0.8-0.7,1.7-0.7,2.7c0,0.9,0.2,1.8,0.7,2.5
		C959.1,3655.2,959.9,3655.5,960.7,3655.5L960.7,3655.5z M960.7,3646.8c1.1,0,2.3,0.4,3.1,1.2c0.9,1,1.4,2.3,1.3,3.6
		c0.1,1.3-0.3,2.7-1.1,3.8c-0.8,1-2.1,1.6-3.4,1.5c-1.2,0.1-2.3-0.4-3.1-1.3c-0.8-1-1.2-2.3-1.1-3.5c-0.1-1.4,0.4-2.7,1.2-3.8
		C958.3,3647.3,959.5,3646.8,960.7,3646.8L960.7,3646.8z M972,3647.1h1.6v1.3c0.3-0.4,0.6-0.7,1-1c0.5-0.4,1.1-0.5,1.8-0.5
		c0.6,0,1.3,0.2,1.8,0.6c0.3,0.3,0.5,0.6,0.7,0.9c0.3-0.5,0.7-0.9,1.2-1.1c0.5-0.2,1-0.4,1.6-0.4c1.1-0.1,2.1,0.4,2.6,1.4
		c0.3,0.6,0.4,1.3,0.4,2v6.3H983v-6.5c0.1-0.5-0.1-1-0.5-1.3c-0.3-0.2-0.7-0.4-1.1-0.4c-0.6,0-1.2,0.2-1.6,0.6
		c-0.5,0.6-0.7,1.3-0.7,2.1v5.5h-1.6v-6.1c0-0.5,0-1-0.2-1.4c-0.3-0.5-0.8-0.7-1.3-0.7c-0.6,0-1.2,0.3-1.6,0.7
		c-0.6,0.7-0.8,1.6-0.7,2.5v5H972L972,3647.1z M988.2,3654c0,0.4,0.2,0.8,0.5,1.1c0.3,0.3,0.8,0.4,1.2,0.4c0.6,0,1.1-0.1,1.6-0.4
		c0.8-0.4,1.4-1.2,1.3-2.1v-1.3c-0.2,0.1-0.5,0.2-0.7,0.3c-0.3,0.1-0.6,0.1-0.9,0.2l-1,0.1c-0.4,0-0.9,0.2-1.3,0.4
		C988.4,3652.9,988.1,3653.5,988.2,3654z M992,3650.8c0.3,0,0.6-0.2,0.7-0.5c0.1-0.2,0.1-0.4,0.1-0.6c0-0.5-0.2-0.9-0.6-1.2
		c-0.5-0.3-1.1-0.4-1.6-0.4c-0.7-0.1-1.3,0.2-1.8,0.7c-0.2,0.3-0.4,0.7-0.4,1.1H987c-0.1-0.9,0.4-1.9,1.1-2.4
		c0.8-0.5,1.6-0.7,2.5-0.7c0.9,0,1.9,0.2,2.7,0.6c0.7,0.4,1.1,1.2,1,2v5.4c0,0.1,0,0.3,0.1,0.4c0.1,0.1,0.3,0.2,0.4,0.1
		c0.1,0,0.1,0,0.2,0c0.1,0,0.2,0,0.3,0v1.2c-0.2,0.1-0.4,0.1-0.6,0.1c-0.2,0-0.4,0-0.5,0c-0.5,0-0.9-0.2-1.2-0.6
		c-0.1-0.3-0.2-0.6-0.3-0.9c-0.4,0.5-0.9,0.8-1.4,1.1c-0.6,0.3-1.3,0.5-2,0.5c-0.8,0-1.6-0.3-2.1-0.8c-0.5-0.5-0.8-1.2-0.8-2
		c0-0.8,0.3-1.5,0.8-2c0.6-0.5,1.4-0.8,2.1-0.9L992,3650.8z M997.9,3653.6c0,0.4,0.2,0.9,0.4,1.2c0.5,0.6,1.3,0.8,2.1,0.8
		c0.5,0,1.1-0.1,1.5-0.4c0.4-0.2,0.7-0.7,0.7-1.2c0-0.4-0.2-0.7-0.5-0.9c-0.4-0.2-0.9-0.3-1.4-0.4l-1.3-0.3
		c-0.6-0.1-1.2-0.4-1.8-0.7c-0.6-0.4-1-1-1-1.8c0-0.8,0.3-1.6,1-2.2c0.7-0.6,1.7-0.9,2.6-0.8c1.2-0.1,2.3,0.4,3.1,1.2
		c0.4,0.5,0.6,1.1,0.6,1.7h-1.5c0-0.4-0.2-0.7-0.4-1c-0.5-0.5-1.2-0.7-1.9-0.6c-0.5,0-1,0.1-1.4,0.3c-0.3,0.2-0.5,0.5-0.5,0.9
		c0,0.4,0.2,0.8,0.6,1c0.3,0.2,0.7,0.3,1,0.4l1,0.3c0.8,0.2,1.6,0.4,2.3,0.8c0.6,0.4,1,1.2,0.9,1.9c0,0.8-0.3,1.6-1,2.2
		c-0.8,0.7-1.9,1-2.9,0.9c-1.1,0.1-2.2-0.2-3-1c-0.6-0.6-0.9-1.5-0.9-2.4L997.9,3653.6z M1009.6,3646.8c0.9,0,1.8,0.2,2.6,0.8
		c0.7,0.7,1.2,1.6,1.2,2.7h-1.5c-0.1-0.5-0.3-1-0.6-1.4c-0.4-0.4-1-0.6-1.6-0.6c-1,0-1.8,0.6-2.2,1.5c-0.3,0.8-0.4,1.6-0.4,2.4
		c0,0.8,0.2,1.7,0.6,2.4c0.7,1,2.2,1.3,3.2,0.5c0.1-0.1,0.1-0.1,0.2-0.2c0.4-0.5,0.7-1,0.8-1.6h1.5c-0.1,1-0.5,2-1.3,2.7
		c-0.8,0.6-1.7,0.9-2.7,0.9c-1.1,0-2.2-0.5-2.9-1.3c-0.8-1-1.1-2.2-1.1-3.4c-0.1-1.4,0.3-2.8,1.2-3.9
		C1007.3,3647.3,1008.4,3646.8,1009.6,3646.8z M1016.6,3647.1v6.2c0,0.4,0.1,0.8,0.2,1.2c0.3,0.6,0.9,0.9,1.6,0.8
		c1,0.1,1.9-0.5,2.2-1.5c0.2-0.7,0.4-1.4,0.3-2.2v-4.6h1.6v9.4h-1.5l0-1.4c-0.2,0.3-0.5,0.7-0.8,0.9c-0.6,0.5-1.4,0.8-2.2,0.7
		c-1.1,0.1-2.2-0.4-2.7-1.3c-0.3-0.6-0.4-1.3-0.4-1.9v-6.4L1016.6,3647.1z M1025,3643.6h1.6v12.9h-1.6L1025,3643.6z M1029,3647.1
		h1.6v9.4h-1.6V3647.1z M1029,3643.6h1.6v1.8h-1.6V3643.6z M1033,3647.1h1.5v1.3c0.4-0.5,0.9-0.9,1.4-1.2c0.5-0.2,1.1-0.4,1.7-0.4
		c1.1-0.1,2.2,0.4,2.7,1.4c0.3,0.7,0.4,1.4,0.4,2.2v6h-1.6v-5.9c0-0.5-0.1-1-0.3-1.4c-0.3-0.6-0.9-0.9-1.5-0.9c-0.3,0-0.6,0-0.9,0.1
		c-0.4,0.1-0.8,0.4-1.1,0.8c-0.2,0.3-0.4,0.6-0.5,1c-0.1,0.5-0.1,0.9-0.1,1.4v4.9h-1.6L1033,3647.1z M1046.7,3655.5
		c0.9,0.1,1.8-0.4,2.2-1.2c0.4-0.8,0.6-1.7,0.6-2.7c0-0.7-0.1-1.5-0.4-2.1c-0.4-0.9-1.3-1.4-2.3-1.3c-0.9-0.1-1.7,0.4-2.1,1.1
		c-0.5,0.8-0.7,1.7-0.7,2.7c0,0.9,0.2,1.8,0.7,2.5C1045.1,3655.2,1045.9,3655.5,1046.7,3655.5L1046.7,3655.5z M1046.8,3646.8
		c1.1,0,2.3,0.4,3.1,1.2c0.9,1,1.3,2.3,1.3,3.6c0.1,1.3-0.3,2.7-1.1,3.8c-0.8,1-2.1,1.6-3.4,1.5c-1.2,0.1-2.3-0.4-3.1-1.3
		c-0.8-1-1.2-2.3-1.1-3.5c-0.1-1.4,0.4-2.7,1.2-3.8C1044.4,3647.3,1045.5,3646.8,1046.8,3646.8L1046.8,3646.8z M426.6,3677.5
		c0,0.4,0.2,0.9,0.4,1.2c0.5,0.6,1.3,0.8,2.1,0.8c0.5,0,1.1-0.1,1.5-0.4c0.4-0.2,0.7-0.7,0.7-1.2c0-0.4-0.2-0.7-0.5-0.9
		c-0.4-0.2-0.9-0.4-1.4-0.4l-1.3-0.3c-0.6-0.1-1.2-0.4-1.8-0.7c-0.6-0.4-1-1-1-1.8c0-0.8,0.3-1.6,1-2.2c0.7-0.6,1.7-0.9,2.6-0.8
		c1.2-0.1,2.3,0.4,3.1,1.2c0.4,0.5,0.6,1.1,0.6,1.7H431c0-0.4-0.2-0.7-0.4-1c-0.5-0.5-1.2-0.7-1.9-0.6c-0.5,0-1,0.1-1.4,0.3
		c-0.3,0.2-0.5,0.5-0.5,0.9c0,0.4,0.2,0.8,0.6,1c0.3,0.2,0.7,0.3,1,0.4l1,0.3c0.8,0.2,1.6,0.4,2.3,0.8c0.6,0.4,1,1.2,0.9,1.9
		c0,0.8-0.3,1.6-0.9,2.2c-0.8,0.7-1.9,1-2.9,0.9c-1.1,0.1-2.2-0.2-3-1c-0.6-0.6-0.9-1.5-0.9-2.4L426.6,3677.5z M438.6,3670.9
		c0.7,0,1.3,0.2,1.9,0.5c0.6,0.3,1.1,0.7,1.4,1.2c0.3,0.5,0.5,1.1,0.6,1.7c0.1,0.7,0.2,1.4,0.1,2.1h-6.9c0,0.8,0.2,1.6,0.7,2.3
		c0.5,0.6,1.2,0.9,2,0.9c0.7,0,1.5-0.3,2-0.8c0.3-0.3,0.5-0.7,0.6-1.1h1.6c-0.1,0.4-0.2,0.8-0.4,1.2c-0.2,0.4-0.5,0.7-0.8,1
		c-0.5,0.5-1.1,0.8-1.8,0.9c-0.4,0.1-0.9,0.1-1.3,0.1c-1.1,0-2.2-0.4-3-1.3c-0.9-1-1.3-2.3-1.2-3.6c-0.1-1.3,0.4-2.6,1.2-3.7
		C436.2,3671.4,437.3,3670.8,438.6,3670.9z M441.1,3675c0-0.6-0.2-1.1-0.4-1.6c-0.4-0.8-1.3-1.2-2.2-1.1c-0.7,0-1.4,0.3-1.8,0.8
		c-0.5,0.5-0.8,1.3-0.8,2H441.1z M448,3670.9c0.7,0,1.4,0.2,1.9,0.5c0.3,0.3,0.7,0.6,0.9,0.9v-1.2h1.5v8.6c0,1-0.1,1.9-0.5,2.8
		c-0.7,1.3-2.2,2.1-3.7,1.9c-0.9,0-1.8-0.2-2.6-0.7c-0.7-0.5-1.1-1.3-1.2-2.1h1.6c0,0.4,0.2,0.7,0.5,1c0.5,0.4,1.1,0.6,1.7,0.5
		c1,0.1,1.9-0.4,2.4-1.3c0.3-0.9,0.4-1.8,0.3-2.7c-0.3,0.4-0.7,0.8-1.1,1.1c-1.5,0.7-3.2,0.4-4.4-0.7c-0.9-1-1.3-2.3-1.1-3.6
		c-0.1-1.3,0.3-2.6,1.1-3.7C445.9,3671.4,446.9,3670.9,448,3670.9L448,3670.9z M450.8,3675.8c0.1-0.9-0.2-1.8-0.7-2.6
		c-0.5-0.5-1.1-0.9-1.8-0.8c-1-0.1-2,0.6-2.3,1.6c-0.2,0.7-0.4,1.4-0.3,2.2c-0.1,0.9,0.2,1.7,0.6,2.4c0.4,0.5,1.1,0.9,1.7,0.8
		c1,0.1,2-0.6,2.4-1.5C450.7,3677.1,450.9,3676.5,450.8,3675.8L450.8,3675.8z M456.3,3671.1v6.2c0,0.4,0.1,0.8,0.2,1.2
		c0.3,0.6,0.9,0.9,1.6,0.8c1,0.1,1.9-0.5,2.2-1.5c0.2-0.7,0.4-1.4,0.3-2.2v-4.6h1.6v9.4h-1.5l0-1.4c-0.2,0.3-0.5,0.7-0.8,0.9
		c-0.6,0.5-1.4,0.8-2.2,0.7c-1.1,0.1-2.2-0.4-2.7-1.3c-0.3-0.6-0.4-1.3-0.4-1.9v-6.4L456.3,3671.1z M460.3,3667.3l-2.3,2.5h-1.2
		l1.6-2.5H460.3z M464.7,3671.1h1.5v1.3c0.4-0.5,0.9-0.9,1.4-1.2c0.5-0.2,1.1-0.4,1.7-0.4c1.1-0.1,2.2,0.4,2.7,1.4
		c0.3,0.7,0.4,1.4,0.4,2.2v6h-1.6v-5.9c0-0.5-0.1-0.9-0.3-1.4c-0.3-0.6-0.9-0.9-1.5-0.9c-0.3,0-0.6,0-0.9,0.1
		c-0.4,0.1-0.8,0.4-1.1,0.8c-0.2,0.3-0.4,0.6-0.5,1c-0.1,0.5-0.1,0.9-0.1,1.4v4.9h-1.6V3671.1z M483.6,3670.9c0.7,0,1.3,0.2,1.9,0.5
		c0.6,0.3,1.1,0.7,1.4,1.2c0.3,0.5,0.5,1.1,0.6,1.7c0.1,0.7,0.2,1.4,0.1,2.1h-6.9c0,0.8,0.2,1.6,0.7,2.3c0.5,0.6,1.2,0.9,2,0.9
		c0.7,0,1.5-0.3,2-0.8c0.3-0.3,0.5-0.7,0.6-1.1h1.6c-0.1,0.4-0.2,0.8-0.4,1.2c-0.2,0.4-0.5,0.7-0.8,1c-0.5,0.5-1.1,0.8-1.8,0.9
		c-0.4,0.1-0.9,0.1-1.3,0.1c-1.1,0-2.2-0.4-3-1.3c-0.9-1-1.3-2.3-1.2-3.6c-0.1-1.3,0.4-2.6,1.2-3.7
		C481.2,3671.4,482.4,3670.8,483.6,3670.9L483.6,3670.9z M486.1,3675c0-0.6-0.2-1.1-0.4-1.6c-0.4-0.8-1.3-1.2-2.2-1.1
		c-0.7,0-1.4,0.3-1.8,0.8c-0.5,0.5-0.8,1.3-0.8,2L486.1,3675z M489.8,3667.6h1.6v12.9h-1.6L489.8,3667.6z M502.7,3679.4
		c0.7,0,1.4-0.3,1.8-0.9c0.5-0.8,0.8-1.8,0.7-2.8c0-0.7-0.1-1.3-0.3-1.9c-0.5-1.2-1.8-1.9-3.1-1.4c-0.7,0.3-1.2,0.8-1.4,1.5
		c-0.2,0.7-0.3,1.5-0.3,2.2c0,0.6,0.1,1.3,0.3,1.9C500.8,3678.9,501.7,3679.5,502.7,3679.4z M498.6,3671.1h1.5v1.2
		c0.3-0.4,0.6-0.7,1-1c0.6-0.4,1.2-0.5,1.9-0.5c1,0,2,0.4,2.7,1.2c0.8,1,1.2,2.2,1.1,3.5c0,2.1-0.5,3.5-1.6,4.4
		c-0.7,0.6-1.5,0.8-2.4,0.8c-0.6,0-1.2-0.1-1.8-0.5c-0.4-0.2-0.7-0.6-0.9-0.9v4.8h-1.6L498.6,3671.1z M431.2,3703.6
		c0.7,0,1.4-0.3,1.8-0.9c0.5-0.8,0.8-1.8,0.7-2.8c0-0.7-0.1-1.3-0.3-1.9c-0.5-1.2-1.8-1.9-3.1-1.4c-0.7,0.3-1.2,0.8-1.4,1.5
		c-0.2,0.7-0.3,1.5-0.3,2.2c0,0.6,0.1,1.3,0.3,1.9C429.3,3703.1,430.2,3703.7,431.2,3703.6z M427.1,3695.3h1.5v1.2
		c0.3-0.4,0.6-0.7,1-1c0.6-0.4,1.2-0.5,1.9-0.5c1,0,2,0.4,2.7,1.2c0.8,1,1.2,2.2,1.1,3.5c0,2.1-0.5,3.5-1.6,4.4
		c-0.7,0.6-1.5,0.8-2.4,0.8c-0.6,0-1.2-0.1-1.8-0.5c-0.4-0.2-0.7-0.6-0.9-0.9v4.8h-1.6L427.1,3695.3z M508.8,3671.1h1.5v1.6
		c0.2-0.4,0.5-0.8,0.9-1.2c0.4-0.4,1-0.7,1.7-0.7c0,0,0.1,0,0.1,0s0.2,0,0.4,0v1.7c-0.1,0-0.2,0-0.3,0c-0.1,0-0.2,0-0.3,0
		c-0.7,0-1.4,0.2-1.8,0.8c-0.4,0.5-0.6,1.1-0.6,1.8v5.4h-1.6L508.8,3671.1z M518.5,3679.5c0.9,0.1,1.8-0.4,2.2-1.2
		c0.4-0.8,0.6-1.7,0.6-2.7c0-0.7-0.1-1.5-0.4-2.1c-0.4-0.9-1.3-1.4-2.3-1.3c-0.9-0.1-1.7,0.4-2.1,1.1c-0.5,0.8-0.7,1.7-0.7,2.7
		c0,0.9,0.2,1.8,0.7,2.5C516.8,3679.2,517.6,3679.5,518.5,3679.5L518.5,3679.5z M518.5,3670.8c1.1,0,2.3,0.4,3.1,1.2
		c0.9,1,1.4,2.3,1.3,3.6c0.1,1.3-0.3,2.7-1.1,3.8c-0.8,1-2.1,1.6-3.4,1.5c-1.2,0.1-2.3-0.4-3.1-1.3c-0.8-1-1.2-2.3-1.1-3.5
		c-0.1-1.4,0.4-2.7,1.2-3.8C516.1,3671.3,517.3,3670.8,518.5,3670.8L518.5,3670.8z M528.4,3670.8c0.9,0,1.8,0.2,2.6,0.8
		c0.7,0.7,1.2,1.6,1.2,2.7h-1.5c-0.1-0.5-0.3-1-0.6-1.4c-0.4-0.4-1-0.6-1.6-0.6c-1,0-1.8,0.6-2.2,1.5c-0.3,0.8-0.4,1.6-0.4,2.4
		c0,0.8,0.2,1.7,0.6,2.4c0.7,1,2.2,1.3,3.2,0.5c0.1-0.1,0.1-0.1,0.2-0.2c0.4-0.5,0.7-1,0.8-1.6h1.5c-0.1,2.1-1.8,3.7-3.8,3.6
		c-0.1,0-0.1,0-0.2,0c-1.1,0-2.2-0.5-2.9-1.3c-0.8-1-1.1-2.2-1.1-3.4c-0.1-1.4,0.3-2.8,1.2-3.9
		C526.1,3671.3,527.2,3670.8,528.4,3670.8L528.4,3670.8z M537.6,3670.9c0.7,0,1.3,0.2,1.9,0.5c0.6,0.3,1.1,0.7,1.4,1.2
		c0.3,0.5,0.5,1.1,0.6,1.7c0.1,0.7,0.2,1.4,0.1,2.1h-6.9c0,0.8,0.2,1.6,0.7,2.3c0.5,0.6,1.2,0.9,2,0.9c0.7,0,1.5-0.3,2-0.8
		c0.3-0.3,0.5-0.7,0.6-1.1h1.6c-0.1,0.4-0.2,0.8-0.4,1.2c-0.2,0.4-0.5,0.7-0.8,1c-0.5,0.5-1.1,0.8-1.8,0.9c-0.4,0.1-0.9,0.1-1.3,0.1
		c-1.1,0-2.2-0.4-3-1.3c-0.9-1-1.3-2.3-1.2-3.6c-0.1-1.3,0.4-2.6,1.2-3.7C535.2,3671.4,536.4,3670.8,537.6,3670.9L537.6,3670.9z
		 M540.2,3675c0-0.6-0.2-1.1-0.4-1.6c-0.4-0.8-1.3-1.2-2.2-1.1c-0.7,0-1.4,0.3-1.8,0.8c-0.5,0.5-0.8,1.3-0.8,2H540.2z M544.7,3675.9
		c0,0.9,0.2,1.8,0.6,2.5c0.4,0.7,1.2,1.1,2.1,1c0.7,0,1.4-0.3,1.8-0.9c0.5-0.8,0.8-1.8,0.7-2.7c0.1-0.9-0.2-1.9-0.7-2.6
		c-0.4-0.5-1.1-0.9-1.8-0.9c-0.8,0-1.5,0.3-1.9,0.9C544.9,3674,544.7,3674.9,544.7,3675.9L544.7,3675.9z M547.1,3670.9
		c0.6,0,1.3,0.1,1.8,0.5c0.4,0.3,0.7,0.6,1,0.9v-4.8h1.5v13H550v-1.3c-0.3,0.5-0.8,1-1.3,1.3c-0.5,0.3-1.1,0.4-1.7,0.4
		c-1.1,0-2.1-0.5-2.7-1.3c-0.8-1-1.2-2.2-1.2-3.5c0-1.3,0.3-2.5,1-3.6C544.8,3671.4,545.9,3670.9,547.1,3670.9L547.1,3670.9z
		 M553.7,3671.1h1.6v9.4h-1.6V3671.1z M553.7,3667.6h1.6v1.8h-1.6V3667.6z M557.7,3671.1h1.6v1.3c0.3-0.4,0.6-0.7,1-1
		c0.5-0.4,1.1-0.5,1.8-0.5c0.6,0,1.3,0.2,1.8,0.6c0.3,0.3,0.5,0.6,0.7,0.9c0.3-0.5,0.7-0.9,1.2-1.1c0.5-0.2,1-0.4,1.6-0.4
		c1.1-0.1,2.1,0.4,2.6,1.4c0.3,0.6,0.4,1.3,0.4,2v6.3h-1.6v-6.5c0.1-0.5-0.1-1-0.5-1.3c-0.3-0.2-0.7-0.4-1.1-0.4
		c-0.6,0-1.2,0.2-1.6,0.6c-0.5,0.6-0.7,1.3-0.7,2.1v5.5h-1.6v-6.1c0-0.5,0-1-0.2-1.4c-0.3-0.5-0.8-0.7-1.3-0.7
		c-0.6,0-1.2,0.3-1.6,0.7c-0.6,0.7-0.8,1.6-0.7,2.5v5h-1.6L557.7,3671.1z M572.7,3671.1h1.6v9.4h-1.6V3671.1z M572.7,3667.6h1.6v1.8
		h-1.6V3667.6z M580.7,3670.9c0.7,0,1.3,0.2,1.9,0.5c0.6,0.3,1.1,0.7,1.4,1.2c0.3,0.5,0.5,1.1,0.6,1.7c0.1,0.7,0.2,1.4,0.1,2.1h-6.9
		c0,0.8,0.2,1.6,0.7,2.3c0.5,0.6,1.2,0.9,2,0.9c0.7,0,1.5-0.3,2-0.8c0.3-0.3,0.5-0.7,0.6-1.1h1.6c-0.1,0.4-0.2,0.8-0.4,1.2
		c-0.2,0.4-0.5,0.7-0.8,1c-0.5,0.5-1.1,0.8-1.8,0.9c-0.4,0.1-0.9,0.1-1.3,0.1c-1.1,0-2.2-0.4-3-1.3c-0.9-1-1.3-2.3-1.2-3.6
		c-0.1-1.3,0.4-2.6,1.2-3.7C578.2,3671.4,579.4,3670.8,580.7,3670.9L580.7,3670.9z M583.2,3675c0-0.6-0.2-1.1-0.4-1.6
		c-0.4-0.8-1.3-1.2-2.2-1.1c-0.7,0-1.4,0.3-1.8,0.8c-0.5,0.5-0.8,1.3-0.8,2H583.2z M586.8,3671.1h1.5v1.3c0.4-0.5,0.9-0.9,1.4-1.2
		c0.5-0.2,1.1-0.4,1.7-0.4c1.1-0.1,2.2,0.4,2.7,1.4c0.3,0.7,0.4,1.4,0.4,2.2v6h-1.6v-5.9c0-0.5-0.1-1-0.3-1.4
		c-0.3-0.6-0.9-0.9-1.5-0.9c-0.3,0-0.6,0-0.9,0.1c-0.4,0.1-0.8,0.4-1.1,0.8c-0.2,0.3-0.4,0.6-0.5,1c-0.1,0.5-0.1,0.9-0.1,1.4v4.9
		h-1.6L586.8,3671.1z M597.1,3668.5h1.6v2.6h1.5v1.3h-1.5v6.1c0,0.3,0.1,0.5,0.3,0.7c0.2,0.1,0.4,0.1,0.6,0.1c0.1,0,0.2,0,0.2,0
		s0.2,0,0.3,0v1.2c-0.2,0.1-0.4,0.1-0.6,0.1c-0.2,0-0.4,0-0.6,0c-0.6,0.1-1.1-0.1-1.5-0.6c-0.3-0.4-0.4-1-0.4-1.5v-6.2h-1.3v-1.3
		h1.3L597.1,3668.5z M605.5,3679.5c0.9,0.1,1.8-0.4,2.2-1.2c0.4-0.8,0.6-1.7,0.6-2.7c0-0.7-0.1-1.5-0.4-2.1
		c-0.4-0.9-1.3-1.4-2.3-1.3c-0.9-0.1-1.7,0.4-2.1,1.1c-0.5,0.8-0.7,1.7-0.7,2.7c0,0.9,0.2,1.8,0.7,2.5
		C603.9,3679.2,604.7,3679.5,605.5,3679.5z M605.6,3670.8c1.1,0,2.3,0.4,3.1,1.2c0.9,1,1.4,2.3,1.3,3.6c0.1,1.3-0.3,2.7-1.1,3.8
		c-0.8,1-2.1,1.6-3.4,1.5c-1.2,0.1-2.3-0.4-3.1-1.3c-0.8-1-1.2-2.3-1.1-3.5c-0.1-1.4,0.4-2.7,1.2-3.8
		C603.1,3671.3,604.3,3670.8,605.6,3670.8L605.6,3670.8z M617.8,3675.9c0,0.9,0.2,1.8,0.6,2.5c0.4,0.7,1.2,1.1,2.1,1
		c0.7,0,1.4-0.3,1.8-0.9c0.5-0.8,0.8-1.8,0.7-2.7c0.1-0.9-0.2-1.9-0.7-2.6c-0.4-0.5-1.1-0.9-1.8-0.9c-0.8,0-1.5,0.3-1.9,0.9
		C618,3674,617.7,3674.9,617.8,3675.9z M620.2,3670.9c0.6,0,1.3,0.1,1.8,0.5c0.4,0.3,0.7,0.6,1,0.9v-4.8h1.5v13H623v-1.3
		c-0.3,0.5-0.8,1-1.3,1.3c-0.5,0.3-1.1,0.4-1.7,0.4c-1.1,0-2.1-0.5-2.7-1.3c-0.8-1-1.2-2.2-1.2-3.5c0-1.3,0.3-2.5,1-3.6
		C617.8,3671.4,619,3670.9,620.2,3670.9L620.2,3670.9z M630.7,3670.9c0.7,0,1.3,0.2,1.9,0.5c0.6,0.3,1.1,0.7,1.4,1.2
		c0.3,0.5,0.5,1.1,0.6,1.7c0.1,0.7,0.2,1.4,0.1,2.1H628c0,0.8,0.2,1.6,0.7,2.3c0.5,0.6,1.2,0.9,2,0.9c0.7,0,1.5-0.3,2-0.8
		c0.3-0.3,0.5-0.7,0.6-1.1h1.6c-0.1,0.4-0.2,0.8-0.4,1.2c-0.2,0.4-0.5,0.7-0.8,1c-0.5,0.5-1.1,0.8-1.8,0.9c-0.4,0.1-0.9,0.1-1.3,0.1
		c-1.1,0-2.2-0.4-3-1.3c-0.9-1-1.3-2.3-1.2-3.6c-0.1-1.3,0.4-2.6,1.2-3.7C628.3,3671.4,629.5,3670.8,630.7,3670.9L630.7,3670.9z
		 M633.2,3675c0-0.6-0.2-1.1-0.4-1.6c-0.4-0.8-1.3-1.2-2.2-1.1c-0.7,0-1.4,0.3-1.8,0.8c-0.5,0.5-0.8,1.3-0.8,2H633.2z M637.7,3677.5
		c0,0.4,0.2,0.9,0.4,1.2c0.5,0.6,1.3,0.8,2.1,0.8c0.5,0,1.1-0.1,1.5-0.4c0.4-0.2,0.7-0.7,0.7-1.2c0-0.4-0.2-0.7-0.5-0.9
		c-0.4-0.2-0.9-0.3-1.4-0.4l-1.3-0.3c-0.6-0.1-1.2-0.4-1.8-0.7c-0.6-0.4-1-1-1-1.8c0-0.8,0.3-1.6,1-2.2c0.7-0.6,1.7-0.9,2.6-0.8
		c1.2-0.1,2.3,0.4,3.1,1.2c0.4,0.5,0.6,1.1,0.6,1.7h-1.5c0-0.4-0.2-0.7-0.4-1c-0.5-0.5-1.2-0.7-1.9-0.6c-0.5,0-1,0.1-1.4,0.3
		c-0.3,0.2-0.5,0.5-0.5,0.9c0,0.4,0.2,0.8,0.6,1c0.3,0.2,0.7,0.3,1,0.4l1,0.3c0.8,0.2,1.6,0.4,2.3,0.8c0.6,0.4,1,1.2,0.9,1.9
		c0,0.8-0.3,1.6-1,2.2c-0.8,0.7-1.9,1-2.9,0.9c-1.1,0.1-2.2-0.2-3-1c-0.6-0.6-0.9-1.5-0.9-2.4L637.7,3677.5z M649.4,3670.8
		c0.9,0,1.8,0.2,2.6,0.8c0.7,0.7,1.2,1.6,1.2,2.7h-1.5c-0.1-0.5-0.3-1-0.6-1.4c-0.4-0.4-1-0.6-1.6-0.6c-1,0-1.8,0.6-2.2,1.5
		c-0.3,0.8-0.4,1.6-0.4,2.4c0,0.8,0.2,1.7,0.6,2.4c0.7,1,2.2,1.3,3.2,0.5c0.1-0.1,0.1-0.1,0.2-0.2c0.4-0.5,0.7-1,0.8-1.6h1.5
		c-0.1,2.1-1.8,3.7-3.8,3.6c-0.1,0-0.1,0-0.2,0c-1.1,0-2.2-0.5-2.9-1.3c-0.8-1-1.1-2.2-1.1-3.4c-0.1-1.4,0.3-2.8,1.2-3.9
		C647.1,3671.3,648.3,3670.8,649.4,3670.8L649.4,3670.8z M654.8,3671.1h1.5v1.6c0.2-0.4,0.5-0.8,0.9-1.2c0.4-0.4,1-0.7,1.7-0.7
		c0,0,0.1,0,0.1,0c0.1,0,0.2,0,0.4,0v1.7c-0.1,0-0.2,0-0.3,0c-0.1,0-0.2,0-0.3,0c-0.7,0-1.4,0.2-1.8,0.8c-0.4,0.5-0.6,1.1-0.6,1.8
		v5.4h-1.6L654.8,3671.1z M660.8,3671.1h1.6v9.4h-1.6L660.8,3671.1z M660.8,3667.6h1.6v1.8h-1.6L660.8,3667.6z M665.1,3668.5h1.6
		v2.6h1.5v1.3h-1.5v6.1c0,0.3,0.1,0.5,0.3,0.7c0.2,0.1,0.4,0.1,0.6,0.1c0.1,0,0.2,0,0.2,0s0.2,0,0.3,0v1.2c-0.2,0.1-0.4,0.1-0.6,0.1
		c-0.2,0-0.4,0-0.6,0c-0.6,0.1-1.1-0.1-1.5-0.6c-0.3-0.4-0.4-1-0.4-1.5v-6.2h-1.3v-1.3h1.3L665.1,3668.5z M673.5,3679.5
		c0.9,0.1,1.8-0.4,2.2-1.2c0.4-0.8,0.6-1.7,0.6-2.6c0-0.7-0.1-1.5-0.4-2.1c-0.4-0.9-1.3-1.4-2.3-1.3c-0.9-0.1-1.7,0.4-2.1,1.1
		c-0.5,0.8-0.7,1.7-0.7,2.7c0,0.9,0.2,1.8,0.7,2.5C671.9,3679.2,672.7,3679.5,673.5,3679.5L673.5,3679.5z M673.6,3670.8
		c1.1,0,2.3,0.4,3.1,1.2c0.9,1,1.4,2.3,1.3,3.6c0.1,1.3-0.3,2.7-1.1,3.8c-0.8,1-2.1,1.6-3.4,1.5c-1.2,0.1-2.3-0.4-3.1-1.3
		c-0.8-1-1.2-2.3-1.1-3.5c-0.1-1.4,0.4-2.7,1.2-3.8C671.2,3671.3,672.4,3670.8,673.6,3670.8L673.6,3670.8z M688.7,3670.9
		c0.7,0,1.3,0.2,1.9,0.5c0.6,0.3,1.1,0.7,1.4,1.2c0.3,0.5,0.5,1.1,0.6,1.7c0.1,0.7,0.2,1.4,0.1,2.1H686c0,0.8,0.2,1.6,0.7,2.3
		c0.5,0.6,1.2,0.9,2,0.9c0.7,0,1.5-0.3,2-0.8c0.3-0.3,0.5-0.7,0.6-1.1h1.6c-0.1,0.4-0.2,0.8-0.4,1.2c-0.2,0.4-0.5,0.7-0.8,1
		c-0.5,0.5-1.1,0.8-1.8,0.9c-0.4,0.1-0.9,0.1-1.3,0.1c-1.1,0-2.2-0.4-3-1.3c-0.9-1-1.3-2.3-1.2-3.6c-0.1-1.3,0.4-2.6,1.2-3.7
		C686.3,3671.4,687.5,3670.8,688.7,3670.9L688.7,3670.9z M691.2,3675c0-0.6-0.2-1.1-0.4-1.6c-0.4-0.8-1.3-1.2-2.2-1.1
		c-0.7,0-1.4,0.3-1.8,0.8c-0.5,0.5-0.8,1.3-0.8,2L691.2,3675z M694.8,3671.1h1.5v1.3c0.4-0.5,0.9-0.9,1.4-1.2
		c0.5-0.2,1.1-0.4,1.7-0.4c1.1-0.1,2.2,0.4,2.7,1.4c0.3,0.7,0.4,1.4,0.4,2.2v6h-1.6v-5.9c0-0.5-0.1-1-0.3-1.4
		c-0.3-0.6-0.9-0.9-1.5-0.9c-0.3,0-0.6,0-0.9,0.1c-0.4,0.1-0.8,0.4-1.1,0.8c-0.2,0.3-0.4,0.6-0.5,1c-0.1,0.5-0.1,0.9-0.1,1.4v4.9
		h-1.6L694.8,3671.1z M713.7,3670.9c0.7,0,1.3,0.2,1.9,0.5c0.6,0.3,1.1,0.7,1.4,1.2c0.3,0.5,0.5,1.1,0.6,1.7
		c0.1,0.7,0.2,1.4,0.1,2.1H711c0,0.8,0.2,1.6,0.7,2.3c0.5,0.6,1.2,0.9,2,0.9c0.7,0,1.5-0.3,2-0.8c0.3-0.3,0.5-0.7,0.6-1.1h1.6
		c-0.1,0.4-0.2,0.8-0.4,1.2c-0.2,0.4-0.5,0.7-0.8,1c-0.5,0.5-1.1,0.8-1.8,0.9c-0.4,0.1-0.9,0.1-1.3,0.1c-1.1,0-2.2-0.4-3-1.3
		c-0.9-1-1.3-2.3-1.2-3.6c-0.1-1.3,0.4-2.6,1.2-3.7C711.3,3671.4,712.5,3670.8,713.7,3670.9L713.7,3670.9z M716.3,3675
		c0-0.6-0.2-1.1-0.4-1.6c-0.4-0.8-1.3-1.2-2.2-1.1c-0.7,0-1.4,0.3-1.8,0.8c-0.5,0.5-0.8,1.3-0.8,2H716.3z M719.9,3667.6h1.6v12.9
		h-1.6V3667.6z M728.8,3671.1h1.6v1.3c0.3-0.4,0.6-0.7,1-1c0.5-0.4,1.1-0.5,1.8-0.5c0.6,0,1.3,0.2,1.8,0.6c0.3,0.3,0.5,0.6,0.7,0.9
		c0.3-0.5,0.7-0.9,1.2-1.1c0.5-0.2,1-0.4,1.6-0.4c1.1-0.1,2.1,0.4,2.6,1.4c0.3,0.6,0.4,1.3,0.4,2v6.3h-1.6v-6.5
		c0.1-0.5-0.1-1-0.5-1.3c-0.3-0.2-0.7-0.4-1.1-0.4c-0.6,0-1.2,0.2-1.6,0.6c-0.5,0.6-0.7,1.3-0.7,2.1v5.5h-1.6v-6.1
		c0-0.5,0-1-0.2-1.4c-0.3-0.5-0.8-0.7-1.3-0.7c-0.6,0-1.2,0.3-1.6,0.7c-0.6,0.7-0.8,1.6-0.7,2.5v5h-1.6L728.8,3671.1z M745,3678
		c0,0.4,0.2,0.8,0.5,1.1c0.3,0.3,0.8,0.4,1.2,0.4c0.6,0,1.1-0.1,1.6-0.4c0.8-0.4,1.4-1.2,1.3-2.1v-1.3c-0.2,0.1-0.5,0.2-0.7,0.3
		c-0.3,0.1-0.6,0.1-0.9,0.2l-1,0.1c-0.4,0-0.9,0.2-1.3,0.4C745.3,3676.9,745,3677.5,745,3678z M748.9,3674.8c0.3,0,0.6-0.2,0.7-0.5
		c0.1-0.2,0.1-0.4,0.1-0.6c0-0.5-0.2-0.9-0.6-1.2c-0.5-0.3-1.1-0.4-1.6-0.4c-0.7-0.1-1.3,0.2-1.8,0.7c-0.2,0.3-0.4,0.7-0.4,1.1h-1.5
		c-0.1-0.9,0.4-1.9,1.1-2.4c0.8-0.5,1.6-0.7,2.5-0.7c0.9,0,1.9,0.2,2.7,0.6c0.7,0.4,1.1,1.2,1,2v5.4c0,0.1,0,0.3,0.1,0.4
		c0.1,0.1,0.3,0.2,0.4,0.1c0.1,0,0.1,0,0.2,0c0.1,0,0.2,0,0.3,0v1.2c-0.2,0.1-0.4,0.1-0.6,0.1c-0.2,0-0.4,0-0.5,0
		c-0.5,0-0.9-0.2-1.2-0.6c-0.1-0.3-0.2-0.6-0.3-0.9c-0.4,0.5-0.9,0.8-1.4,1.1c-0.6,0.3-1.3,0.5-2,0.5c-0.8,0-1.6-0.3-2.1-0.8
		c-0.5-0.5-0.8-1.2-0.8-2c0-0.8,0.3-1.5,0.8-2c0.6-0.5,1.4-0.8,2.1-0.9L748.9,3674.8z M754.2,3668.5h1.6v2.6h1.5v1.3h-1.5v6.1
		c0,0.3,0.1,0.5,0.3,0.7c0.2,0.1,0.4,0.1,0.6,0.1c0.1,0,0.2,0,0.2,0c0.1,0,0.2,0,0.3,0v1.2c-0.2,0.1-0.4,0.1-0.6,0.1
		c-0.2,0-0.4,0-0.6,0c-0.6,0.1-1.1-0.1-1.5-0.6c-0.3-0.4-0.4-1-0.4-1.5v-6.2h-1.3v-1.3h1.3L754.2,3668.5z M762.8,3670.9
		c0.7,0,1.3,0.2,1.9,0.5c0.6,0.3,1.1,0.7,1.4,1.2c0.3,0.5,0.5,1.1,0.6,1.7c0.1,0.7,0.2,1.4,0.1,2.1H760c0,0.8,0.2,1.6,0.7,2.3
		c0.5,0.6,1.2,0.9,2,0.9c0.7,0,1.5-0.3,2-0.8c0.3-0.3,0.5-0.7,0.6-1.1h1.6c-0.1,0.4-0.2,0.8-0.4,1.2c-0.2,0.4-0.5,0.7-0.8,1
		c-0.5,0.5-1.1,0.8-1.8,0.9c-0.4,0.1-0.9,0.1-1.3,0.1c-1.1,0-2.2-0.4-3-1.3c-0.9-1-1.3-2.3-1.2-3.6c-0.1-1.3,0.4-2.6,1.2-3.7
		C760.3,3671.4,761.5,3670.8,762.8,3670.9L762.8,3670.9z M765.3,3675c0-0.6-0.2-1.1-0.4-1.6c-0.4-0.8-1.3-1.2-2.2-1.1
		c-0.7,0-1.4,0.3-1.8,0.8c-0.5,0.5-0.8,1.3-0.8,2H765.3z M768.9,3671.1h1.5v1.6c0.2-0.4,0.5-0.8,0.9-1.2c0.4-0.4,1-0.7,1.7-0.7
		c0,0,0.1,0,0.1,0c0.1,0,0.2,0,0.4,0v1.7c-0.1,0-0.2,0-0.3,0c-0.1,0-0.2,0-0.3,0c-0.7,0-1.4,0.2-1.8,0.8c-0.4,0.5-0.6,1.1-0.6,1.8
		v5.4h-1.6L768.9,3671.1z M774.8,3671.1h1.6v9.4h-1.6L774.8,3671.1z M774.8,3667.6h1.6v1.8h-1.6L774.8,3667.6z M780.1,3678
		c0,0.4,0.2,0.8,0.5,1.1c0.3,0.3,0.8,0.4,1.2,0.4c0.6,0,1.1-0.1,1.6-0.4c0.8-0.4,1.4-1.2,1.3-2.1v-1.3c-0.2,0.1-0.5,0.2-0.7,0.3
		c-0.3,0.1-0.6,0.1-0.9,0.2l-1,0.1c-0.4,0-0.9,0.2-1.3,0.4C780.3,3676.9,780,3677.5,780.1,3678z M783.9,3674.8
		c0.3,0,0.6-0.2,0.7-0.5c0.1-0.2,0.1-0.4,0.1-0.6c0-0.5-0.2-0.9-0.6-1.2c-0.5-0.3-1.1-0.4-1.7-0.4c-0.7-0.1-1.3,0.2-1.8,0.7
		c-0.2,0.3-0.4,0.7-0.4,1.1h-1.5c-0.1-0.9,0.4-1.9,1.1-2.4c0.8-0.5,1.6-0.7,2.5-0.7c0.9,0,1.9,0.2,2.7,0.6c0.7,0.4,1.1,1.2,1,2v5.4
		c0,0.1,0,0.3,0.1,0.4c0.1,0.1,0.3,0.2,0.4,0.1c0.1,0,0.1,0,0.2,0c0.1,0,0.2,0,0.3,0v1.2c-0.2,0.1-0.4,0.1-0.6,0.1
		c-0.2,0-0.4,0-0.5,0c-0.5,0-0.9-0.2-1.2-0.6c-0.1-0.3-0.2-0.6-0.3-0.9c-0.4,0.5-0.9,0.8-1.4,1.1c-0.6,0.3-1.3,0.5-2,0.5
		c-0.8,0-1.6-0.3-2.1-0.8c-0.5-0.5-0.8-1.2-0.8-2c0-0.8,0.3-1.5,0.8-2c0.6-0.5,1.4-0.8,2.1-0.9L783.9,3674.8z M788.9,3667.6h1.6
		v12.9h-1.6L788.9,3667.6z M801.5,3670.8c0.9,0,1.8,0.2,2.6,0.8c0.7,0.7,1.2,1.6,1.2,2.7h-1.5c-0.1-0.5-0.3-1-0.6-1.4
		c-0.4-0.4-1-0.6-1.6-0.6c-1,0-1.8,0.6-2.2,1.5c-0.3,0.8-0.4,1.6-0.4,2.4c0,0.8,0.2,1.7,0.6,2.4c0.7,1,2.2,1.3,3.2,0.5
		c0.1-0.1,0.1-0.1,0.2-0.2c0.4-0.5,0.7-1,0.8-1.6h1.5c-0.1,2.1-1.8,3.7-3.8,3.6c-0.1,0-0.1,0-0.2,0c-1.1,0-2.2-0.5-2.9-1.3
		c-0.8-1-1.1-2.2-1.1-3.4c-0.1-1.4,0.3-2.8,1.2-3.9C799.2,3671.3,800.3,3670.8,801.5,3670.8L801.5,3670.8z M810.6,3679.5
		c0.9,0.1,1.8-0.4,2.2-1.2c0.4-0.8,0.6-1.7,0.6-2.6c0-0.7-0.1-1.5-0.4-2.1c-0.4-0.9-1.3-1.4-2.3-1.3c-0.9-0.1-1.7,0.4-2.1,1.1
		c-0.5,0.8-0.7,1.7-0.7,2.7c0,0.9,0.2,1.8,0.7,2.5C809,3679.2,809.8,3679.5,810.6,3679.5L810.6,3679.5z M810.7,3670.8
		c1.1,0,2.3,0.4,3.1,1.2c0.9,1,1.4,2.3,1.3,3.6c0.1,1.3-0.3,2.7-1.1,3.8c-0.8,1-2.1,1.6-3.4,1.5c-1.2,0.1-2.3-0.4-3.1-1.3
		c-0.8-1-1.2-2.3-1.1-3.5c-0.1-1.4,0.4-2.7,1.2-3.8C808.2,3671.3,809.4,3670.8,810.7,3670.8L810.7,3670.8z M816.9,3671.1h1.6v1.3
		c0.3-0.4,0.6-0.7,1-1c0.5-0.4,1.1-0.5,1.8-0.5c0.6,0,1.3,0.2,1.8,0.6c0.3,0.3,0.5,0.6,0.7,0.9c0.3-0.5,0.7-0.9,1.2-1.1
		c0.5-0.2,1-0.4,1.6-0.4c1.1-0.1,2.1,0.4,2.6,1.4c0.3,0.6,0.4,1.3,0.4,2v6.3h-1.6v-6.5c0.1-0.5-0.1-1-0.5-1.3
		c-0.3-0.2-0.7-0.4-1.1-0.4c-0.6,0-1.2,0.2-1.6,0.6c-0.5,0.6-0.7,1.3-0.7,2.1v5.5h-1.6v-6.1c0-0.5,0-1-0.2-1.4
		c-0.3-0.5-0.8-0.7-1.3-0.7c-0.6,0-1.2,0.3-1.6,0.7c-0.6,0.7-0.8,1.6-0.7,2.5v5h-1.6L816.9,3671.1z M835.8,3679.4
		c0.7,0,1.4-0.3,1.8-0.9c0.5-0.8,0.8-1.8,0.7-2.8c0-0.7-0.1-1.3-0.3-1.9c-0.5-1.2-1.8-1.9-3.1-1.4c-0.7,0.3-1.2,0.8-1.4,1.5
		c-0.2,0.7-0.3,1.5-0.3,2.2c0,0.6,0.1,1.3,0.3,1.9C833.9,3678.9,834.8,3679.5,835.8,3679.4L835.8,3679.4z M831.7,3671.1h1.5v1.2
		c0.3-0.4,0.6-0.7,1-1c0.6-0.4,1.2-0.5,1.9-0.5c1,0,2,0.4,2.7,1.2c0.8,1,1.2,2.2,1.1,3.5c0,2.1-0.5,3.5-1.6,4.4
		c-0.7,0.6-1.5,0.8-2.4,0.8c-0.6,0-1.2-0.1-1.8-0.5c-0.4-0.2-0.7-0.6-0.9-0.9v4.8h-1.6L831.7,3671.1z M841.9,3667.6h1.6v12.9h-1.6
		L841.9,3667.6z M849.8,3670.9c0.7,0,1.3,0.2,1.9,0.5c0.6,0.3,1.1,0.7,1.4,1.2c0.3,0.5,0.5,1.1,0.6,1.7c0.1,0.7,0.2,1.4,0.1,2.1H847
		c0,0.8,0.2,1.6,0.7,2.3c0.5,0.6,1.2,0.9,2,0.9c0.7,0,1.5-0.3,2-0.8c0.3-0.3,0.5-0.7,0.6-1.1h1.6c-0.1,0.4-0.2,0.8-0.4,1.1
		c-0.2,0.4-0.5,0.7-0.8,1c-0.5,0.5-1.1,0.8-1.8,0.9c-0.4,0.1-0.9,0.1-1.3,0.1c-1.1,0-2.2-0.4-3-1.3c-0.9-1-1.3-2.3-1.2-3.6
		c-0.1-1.3,0.4-2.6,1.2-3.7C847.4,3671.4,848.6,3670.8,849.8,3670.9L849.8,3670.9z M852.3,3675c0-0.6-0.2-1.1-0.4-1.6
		c-0.4-0.8-1.3-1.2-2.2-1.1c-0.7,0-1.4,0.3-1.8,0.8c-0.5,0.5-0.8,1.3-0.8,2H852.3z M855.9,3671.1h1.6v1.3c0.3-0.4,0.6-0.7,1-1
		c0.5-0.4,1.1-0.5,1.8-0.5c0.6,0,1.3,0.2,1.8,0.6c0.3,0.3,0.5,0.6,0.7,0.9c0.3-0.5,0.7-0.9,1.2-1.1c0.5-0.2,1-0.4,1.6-0.4
		c1.1-0.1,2.1,0.4,2.6,1.4c0.3,0.6,0.4,1.3,0.4,2v6.3h-1.6v-6.5c0.1-0.5-0.1-1-0.5-1.3c-0.3-0.2-0.7-0.4-1.1-0.4
		c-0.6,0-1.2,0.2-1.6,0.6c-0.5,0.6-0.7,1.3-0.7,2.1v5.5h-1.6v-6.1c0-0.5,0-1-0.2-1.4c-0.3-0.5-0.8-0.7-1.3-0.7
		c-0.6,0-1.2,0.3-1.6,0.7c-0.6,0.7-0.8,1.6-0.7,2.5v5h-1.6L855.9,3671.1z M874.8,3670.9c0.7,0,1.3,0.2,1.9,0.5
		c0.6,0.3,1.1,0.7,1.4,1.2c0.3,0.5,0.5,1.1,0.6,1.7c0.1,0.7,0.2,1.4,0.1,2.1H872c0,0.8,0.2,1.6,0.7,2.3c0.5,0.6,1.2,0.9,2,0.9
		c0.7,0,1.5-0.3,2-0.8c0.3-0.3,0.5-0.7,0.6-1.1h1.6c-0.1,0.4-0.2,0.8-0.4,1.2c-0.2,0.4-0.5,0.7-0.8,1c-0.5,0.5-1.1,0.8-1.8,0.9
		c-0.4,0.1-0.9,0.1-1.3,0.1c-1.1,0-2.2-0.4-3-1.3c-0.9-1-1.3-2.3-1.2-3.6c-0.1-1.3,0.4-2.6,1.2-3.7
		C872.4,3671.4,873.6,3670.8,874.8,3670.9L874.8,3670.9z M877.3,3675c0-0.6-0.2-1.1-0.4-1.6c-0.4-0.8-1.3-1.2-2.2-1.1
		c-0.7,0-1.4,0.3-1.8,0.8c-0.5,0.5-0.8,1.3-0.8,2H877.3z M880.9,3671.1h1.5v1.3c0.4-0.5,0.9-0.9,1.4-1.2c0.5-0.2,1.1-0.4,1.7-0.4
		c1.1-0.1,2.2,0.4,2.7,1.4c0.3,0.7,0.4,1.4,0.4,2.2v6h-1.6v-5.9c0-0.5-0.1-1-0.3-1.4c-0.3-0.6-0.9-0.9-1.5-0.9c-0.3,0-0.6,0-0.9,0.1
		c-0.4,0.1-0.8,0.4-1.1,0.8c-0.2,0.3-0.4,0.6-0.5,1c-0.1,0.5-0.1,0.9-0.1,1.4v4.9h-1.6L880.9,3671.1z M891.2,3668.5h1.6v2.6h1.5v1.3
		h-1.5v6.1c0,0.3,0.1,0.5,0.3,0.7c0.2,0.1,0.4,0.1,0.6,0.1c0.1,0,0.2,0,0.2,0s0.2,0,0.3,0v1.2c-0.2,0.1-0.4,0.1-0.6,0.1
		c-0.2,0-0.4,0-0.6,0c-0.6,0.1-1.1-0.1-1.5-0.6c-0.3-0.4-0.4-1-0.4-1.5v-6.2h-1.3v-1.3h1.3L891.2,3668.5z M897.1,3678
		c0,0.4,0.2,0.8,0.5,1.1c0.3,0.3,0.8,0.4,1.2,0.4c0.6,0,1.1-0.1,1.6-0.4c0.8-0.4,1.4-1.2,1.3-2.1v-1.3c-0.2,0.1-0.5,0.2-0.7,0.3
		c-0.3,0.1-0.6,0.1-0.9,0.2l-1,0.1c-0.4,0-0.9,0.2-1.3,0.4C897.4,3676.9,897.1,3677.5,897.1,3678L897.1,3678z M900.9,3674.8
		c0.3,0,0.6-0.2,0.7-0.5c0.1-0.2,0.1-0.4,0.1-0.6c0-0.5-0.2-0.9-0.6-1.2c-0.5-0.3-1.1-0.4-1.6-0.4c-0.7-0.1-1.3,0.2-1.8,0.7
		c-0.2,0.3-0.4,0.7-0.4,1.1h-1.5c-0.1-0.9,0.4-1.9,1.1-2.4c0.8-0.5,1.6-0.7,2.5-0.7c0.9,0,1.9,0.2,2.7,0.6c0.7,0.4,1.1,1.2,1,2v5.4
		c0,0.1,0,0.3,0.1,0.4c0.1,0.1,0.3,0.2,0.4,0.1c0.1,0,0.1,0,0.2,0c0.1,0,0.2,0,0.3,0v1.2c-0.2,0.1-0.4,0.1-0.6,0.1
		c-0.2,0-0.4,0-0.5,0c-0.5,0-0.9-0.2-1.2-0.6c-0.1-0.3-0.2-0.6-0.3-0.9c-0.4,0.5-0.9,0.8-1.4,1.1c-0.6,0.3-1.3,0.5-2,0.5
		c-0.8,0-1.6-0.3-2.1-0.8c-0.5-0.5-0.8-1.2-0.8-2c0-0.8,0.3-1.5,0.8-2c0.6-0.5,1.4-0.8,2.1-0.9L900.9,3674.8z M906,3671.1h1.5v1.6
		c0.2-0.4,0.5-0.8,0.9-1.2c0.4-0.4,1-0.7,1.7-0.7c0,0,0.1,0,0.1,0c0.1,0,0.2,0,0.4,0v1.7c-0.1,0-0.2,0-0.3,0c-0.1,0-0.2,0-0.3,0
		c-0.7,0-1.4,0.2-1.8,0.8c-0.4,0.5-0.6,1.1-0.6,1.8v5.4H906L906,3671.1z M911.9,3671.1h1.6v9.4h-1.6V3671.1z M911.9,3667.6h1.6v1.8
		h-1.6V3667.6z M919.6,3679.5c0.9,0.1,1.8-0.4,2.2-1.2c0.4-0.8,0.6-1.7,0.6-2.7c0-0.7-0.1-1.5-0.4-2.1c-0.4-0.9-1.3-1.4-2.3-1.3
		c-0.9-0.1-1.7,0.4-2.1,1.1c-0.5,0.8-0.7,1.7-0.7,2.7c0,0.9,0.2,1.8,0.7,2.5C918,3679.2,918.8,3679.5,919.6,3679.5L919.6,3679.5z
		 M919.7,3670.8c1.1,0,2.3,0.4,3.1,1.2c0.9,1,1.4,2.3,1.3,3.6c0.1,1.3-0.3,2.7-1.1,3.8c-0.8,1-2.1,1.6-3.4,1.5
		c-1.2,0.1-2.3-0.4-3.1-1.3c-0.8-1-1.2-2.3-1.1-3.5c-0.1-1.4,0.4-2.7,1.2-3.8C917.3,3671.3,918.5,3670.8,919.7,3670.8L919.7,3670.8z
		 M926.3,3678.6h1.8v1.9h-1.8V3678.6z M936.1,3667.6h2.5l3.7,10.9l3.7-10.9h2.5v12.9h-1.7v-7.6c0-0.3,0-0.7,0-1.3s0-1.3,0-2
		l-3.7,10.9h-1.7l-3.7-10.9v0.4c0,0.3,0,0.8,0,1.4c0,0.6,0,1.1,0,1.4v7.6h-1.7L936.1,3667.6z M952.1,3678c0,0.4,0.2,0.8,0.5,1.1
		c0.3,0.3,0.8,0.4,1.2,0.4c0.6,0,1.1-0.1,1.6-0.4c0.8-0.4,1.4-1.2,1.3-2.1v-1.3c-0.2,0.1-0.5,0.2-0.7,0.3c-0.3,0.1-0.6,0.1-0.9,0.2
		l-1,0.1c-0.4,0-0.9,0.2-1.3,0.4C952.4,3676.9,952.1,3677.5,952.1,3678z M956,3674.8c0.3,0,0.6-0.2,0.7-0.5c0.1-0.2,0.1-0.4,0.1-0.6
		c0-0.5-0.2-0.9-0.6-1.2c-0.5-0.3-1.1-0.4-1.6-0.4c-0.7-0.1-1.3,0.2-1.8,0.7c-0.2,0.3-0.4,0.7-0.4,1.1H951c-0.1-0.9,0.4-1.9,1.1-2.4
		c0.8-0.5,1.6-0.7,2.5-0.7c0.9,0,1.9,0.2,2.7,0.6c0.7,0.4,1.1,1.2,1,2v5.4c0,0.1,0,0.3,0.1,0.4c0.1,0.1,0.3,0.2,0.4,0.1
		c0.1,0,0.1,0,0.2,0c0.1,0,0.2,0,0.3,0v1.2c-0.2,0.1-0.4,0.1-0.6,0.1c-0.2,0-0.4,0-0.5,0c-0.5,0-0.9-0.2-1.2-0.6
		c-0.1-0.3-0.2-0.6-0.3-0.9c-0.4,0.5-0.9,0.8-1.4,1.1c-0.6,0.3-1.3,0.5-2,0.5c-0.8,0-1.6-0.3-2.1-0.8c-0.5-0.5-0.8-1.2-0.8-2
		c0-0.8,0.3-1.5,0.8-2c0.6-0.5,1.4-0.8,2.1-0.9L956,3674.8z M960.9,3671.1h1.5v1.3c0.4-0.5,0.9-0.9,1.4-1.2c0.5-0.2,1.1-0.4,1.7-0.4
		c1.1-0.1,2.2,0.4,2.7,1.4c0.3,0.7,0.4,1.4,0.4,2.2v6H967v-5.9c0-0.5-0.1-1-0.3-1.4c-0.3-0.6-0.9-0.9-1.5-0.9c-0.3,0-0.6,0-0.9,0.1
		c-0.4,0.1-0.8,0.4-1.1,0.8c-0.2,0.3-0.4,0.6-0.5,1c-0.1,0.5-0.1,0.9-0.1,1.4v4.9h-1.6L960.9,3671.1z M972.5,3671.1v6.2
		c0,0.4,0.1,0.8,0.2,1.2c0.3,0.6,0.9,0.9,1.6,0.8c1,0.1,1.9-0.5,2.2-1.5c0.2-0.7,0.4-1.4,0.3-2.2v-4.6h1.6v9.4H977l0-1.4
		c-0.2,0.3-0.5,0.7-0.8,0.9c-0.6,0.5-1.4,0.8-2.2,0.7c-1.1,0.1-2.2-0.4-2.7-1.3c-0.3-0.6-0.4-1.3-0.4-1.9v-6.4L972.5,3671.1z
		 M982.2,3678c0,0.4,0.2,0.8,0.5,1.1c0.3,0.3,0.8,0.4,1.2,0.4c0.6,0,1.1-0.1,1.6-0.4c0.8-0.4,1.4-1.2,1.3-2.1v-1.3
		c-0.2,0.1-0.5,0.2-0.7,0.3c-0.3,0.1-0.6,0.1-0.9,0.2l-1,0.1c-0.4,0-0.9,0.2-1.3,0.4C982.4,3676.9,982.1,3677.5,982.2,3678
		L982.2,3678z M986,3674.8c0.3,0,0.6-0.2,0.7-0.5c0.1-0.2,0.1-0.4,0.1-0.6c0-0.5-0.2-0.9-0.6-1.2c-0.5-0.3-1.1-0.4-1.6-0.4
		c-0.7-0.1-1.3,0.2-1.8,0.7c-0.2,0.3-0.4,0.7-0.4,1.1H981c-0.1-0.9,0.4-1.9,1.1-2.4c0.8-0.5,1.6-0.7,2.5-0.7c0.9,0,1.9,0.2,2.7,0.6
		c0.7,0.4,1.1,1.2,1,2v5.4c0,0.1,0,0.3,0.1,0.4c0.1,0.1,0.3,0.2,0.4,0.1c0.1,0,0.1,0,0.2,0c0.1,0,0.2,0,0.3,0v1.2
		c-0.2,0.1-0.4,0.1-0.6,0.1c-0.2,0-0.4,0-0.5,0c-0.5,0-0.9-0.2-1.2-0.6c-0.1-0.3-0.2-0.6-0.3-0.9c-0.4,0.5-0.9,0.8-1.4,1.1
		c-0.6,0.3-1.3,0.5-2,0.5c-0.8,0-1.6-0.3-2.1-0.8c-0.5-0.5-0.9-1.2-0.8-2c0-0.8,0.3-1.5,0.8-2c0.6-0.5,1.4-0.8,2.1-0.9L986,3674.8z
		 M991,3667.6h1.6v12.9H991V3667.6z M1001,3675.9c0,0.9,0.2,1.8,0.6,2.5c0.4,0.7,1.2,1.1,2.1,1c0.7,0,1.4-0.3,1.8-0.9
		c0.5-0.8,0.8-1.8,0.7-2.7c0.1-0.9-0.2-1.9-0.7-2.6c-0.4-0.5-1.1-0.9-1.8-0.9c-0.8,0-1.5,0.3-1.9,0.9
		C1001.2,3674,1000.9,3674.9,1001,3675.9L1001,3675.9z M1003.3,3670.9c0.6,0,1.3,0.1,1.8,0.5c0.4,0.3,0.7,0.6,1,0.9v-4.8h1.5v13
		h-1.4v-1.3c-0.3,0.5-0.8,1-1.3,1.3c-0.5,0.3-1.1,0.4-1.7,0.4c-1.1,0-2.1-0.5-2.7-1.3c-0.8-1-1.2-2.2-1.2-3.5c0-1.3,0.3-2.5,1-3.6
		C1001,3671.4,1002.1,3670.9,1003.3,3670.9L1003.3,3670.9z M1013.9,3670.9c0.7,0,1.3,0.2,1.9,0.5c0.6,0.3,1.1,0.7,1.4,1.2
		c0.3,0.5,0.5,1.1,0.6,1.7c0.1,0.7,0.2,1.4,0.1,2.1h-6.9c0,0.8,0.2,1.6,0.7,2.3c0.5,0.6,1.2,0.9,2,0.9c0.7,0,1.5-0.3,2-0.8
		c0.3-0.3,0.5-0.7,0.6-1.1h1.5c-0.1,0.4-0.2,0.8-0.4,1.2c-0.2,0.4-0.5,0.7-0.8,1c-0.5,0.5-1.1,0.8-1.8,0.9c-0.4,0.1-0.9,0.1-1.3,0.1
		c-1.1,0-2.2-0.4-3-1.3c-0.9-1-1.3-2.3-1.2-3.6c-0.1-1.3,0.4-2.6,1.2-3.7C1011.5,3671.4,1012.7,3670.8,1013.9,3670.9L1013.9,3670.9z
		 M1016.4,3675c0-0.6-0.2-1.1-0.4-1.6c-0.4-0.8-1.3-1.2-2.2-1.1c-0.7,0-1.4,0.3-1.8,0.8c-0.5,0.5-0.8,1.3-0.8,2H1016.4z M438.9,3702
		c0,0.4,0.2,0.8,0.5,1.1c0.3,0.3,0.8,0.4,1.2,0.4c0.6,0,1.1-0.1,1.6-0.4c0.8-0.4,1.4-1.2,1.3-2.1v-1.3c-0.2,0.1-0.5,0.2-0.7,0.3
		c-0.3,0.1-0.6,0.1-0.9,0.2l-1,0.1c-0.4,0-0.9,0.2-1.3,0.4C439.1,3700.9,438.8,3701.5,438.9,3702z M442.7,3698.8
		c0.3,0,0.6-0.2,0.7-0.5c0.1-0.2,0.1-0.4,0.1-0.6c0-0.5-0.2-0.9-0.6-1.2c-0.5-0.3-1.1-0.4-1.6-0.4c-0.7-0.1-1.3,0.2-1.8,0.7
		c-0.2,0.3-0.4,0.7-0.4,1.1h-1.5c-0.1-0.9,0.4-1.9,1.1-2.4c0.8-0.5,1.6-0.7,2.5-0.7c0.9,0,1.9,0.2,2.7,0.6c0.7,0.4,1.1,1.2,1,2v5.4
		c0,0.1,0,0.3,0.1,0.4c0.1,0.1,0.3,0.2,0.4,0.1c0.1,0,0.1,0,0.2,0c0.1,0,0.2,0,0.3,0v1.2c-0.2,0.1-0.4,0.1-0.6,0.1
		c-0.2,0-0.4,0-0.5,0c-0.5,0-0.9-0.2-1.2-0.6c-0.1-0.3-0.2-0.6-0.3-0.9c-0.4,0.5-0.9,0.8-1.4,1.1c-0.6,0.3-1.3,0.5-2,0.5
		c-0.8,0-1.6-0.3-2.1-0.8c-0.5-0.5-0.8-1.2-0.8-2c0-0.8,0.3-1.5,0.8-2c0.6-0.5,1.4-0.8,2.1-0.9L442.7,3698.8z M448,3692.5h1.6v2.6
		h1.5v1.3h-1.5v6.1c0,0.3,0.1,0.5,0.3,0.7c0.2,0.1,0.4,0.1,0.6,0.1c0.1,0,0.2,0,0.2,0c0.1,0,0.2,0,0.3,0v1.2
		c-0.2,0.1-0.4,0.1-0.6,0.1c-0.2,0-0.4,0-0.6,0c-0.6,0.1-1.1-0.1-1.5-0.6c-0.3-0.4-0.4-1-0.4-1.5v-6.2h-1.3v-1.3h1.3V3692.5z
		 M452.7,3695.1h1.5v1.6c0.2-0.4,0.5-0.8,0.9-1.2c0.4-0.4,1-0.7,1.7-0.7c0,0,0.1,0,0.1,0c0.1,0,0.2,0,0.4,0v1.7c-0.1,0-0.2,0-0.3,0
		c-0.1,0-0.2,0-0.3,0c-0.7,0-1.4,0.2-1.8,0.8c-0.4,0.5-0.6,1.1-0.6,1.8v5.4h-1.6V3695.1z M462.4,3703.5c0.9,0.1,1.8-0.4,2.2-1.2
		c0.4-0.8,0.6-1.7,0.6-2.6c0-0.7-0.1-1.5-0.4-2.1c-0.4-0.9-1.3-1.4-2.3-1.3c-0.9-0.1-1.7,0.4-2.1,1.1c-0.5,0.8-0.7,1.7-0.7,2.7
		c0,0.9,0.2,1.8,0.7,2.5C460.8,3703.2,461.6,3703.5,462.4,3703.5L462.4,3703.5z M462.5,3694.8c1.1,0,2.3,0.4,3.1,1.2
		c0.9,1,1.3,2.3,1.3,3.6c0.1,1.3-0.3,2.7-1.1,3.8c-0.8,1-2.1,1.6-3.4,1.5c-1.2,0.1-2.3-0.4-3.1-1.3c-0.8-1-1.2-2.3-1.1-3.5
		c-0.1-1.4,0.4-2.7,1.2-3.8C460,3695.3,461.2,3694.8,462.5,3694.8L462.5,3694.8z M468.7,3695.1h1.5v1.3c0.4-0.5,0.9-0.9,1.4-1.2
		c0.5-0.2,1.1-0.4,1.7-0.4c1.1-0.1,2.2,0.4,2.7,1.4c0.3,0.7,0.4,1.4,0.4,2.2v6h-1.6v-5.9c0-0.5-0.1-1-0.3-1.4
		c-0.3-0.6-0.9-0.9-1.5-0.9c-0.3,0-0.6,0-0.9,0.1c-0.4,0.1-0.8,0.4-1.1,0.8c-0.2,0.3-0.4,0.6-0.5,1c-0.1,0.5-0.1,0.9-0.1,1.4v4.9
		h-1.6L468.7,3695.1z M479.9,3702c0,0.4,0.2,0.8,0.5,1.1c0.3,0.3,0.8,0.4,1.2,0.4c0.6,0,1.1-0.1,1.6-0.4c0.8-0.4,1.4-1.2,1.3-2.1
		v-1.3c-0.2,0.1-0.5,0.2-0.7,0.3c-0.3,0.1-0.6,0.1-0.9,0.2l-1,0.1c-0.4,0-0.9,0.2-1.3,0.4C480.2,3700.9,479.9,3701.5,479.9,3702z
		 M483.7,3698.8c0.3,0,0.6-0.2,0.7-0.5c0.1-0.2,0.1-0.4,0.1-0.6c0-0.5-0.2-0.9-0.6-1.2c-0.5-0.3-1.1-0.4-1.6-0.4
		c-0.7-0.1-1.3,0.2-1.8,0.7c-0.2,0.3-0.4,0.7-0.4,1.1h-1.5c-0.1-0.9,0.4-1.9,1.1-2.4c0.8-0.5,1.6-0.7,2.5-0.7c0.9,0,1.9,0.2,2.7,0.6
		c0.7,0.4,1.1,1.2,1,2v5.4c0,0.1,0,0.3,0.1,0.4c0.1,0.1,0.3,0.2,0.4,0.1c0.1,0,0.1,0,0.2,0c0.1,0,0.2,0,0.3,0v1.2
		c-0.2,0.1-0.4,0.1-0.6,0.1c-0.2,0-0.4,0-0.5,0c-0.5,0-0.9-0.2-1.2-0.6c-0.1-0.3-0.2-0.6-0.3-0.9c-0.4,0.5-0.9,0.8-1.4,1.1
		c-0.6,0.3-1.3,0.5-2,0.5c-0.8,0-1.6-0.3-2.1-0.8c-0.5-0.5-0.8-1.2-0.8-2c0-0.8,0.3-1.5,0.8-2c0.6-0.5,1.4-0.8,2.1-0.9L483.7,3698.8
		z M490.3,3693.4h-1.6v-1.8h1.6L490.3,3693.4z M487.2,3706.9c0.4,0,0.9,0,1.3-0.2c0.1-0.1,0.2-0.4,0.2-1v-10.6h1.6v10.8
		c0,0.5-0.1,1.1-0.3,1.5c-0.5,0.6-1.3,1-2.1,0.9c-0.1,0-0.2,0-0.2,0c-0.1,0-0.2,0-0.4,0V3706.9z M496.6,3694.9
		c0.7,0,1.3,0.2,1.9,0.5c0.6,0.3,1.1,0.7,1.4,1.2c0.3,0.5,0.5,1.1,0.6,1.7c0.1,0.7,0.2,1.4,0.1,2.1h-6.9c0,0.8,0.2,1.6,0.7,2.3
		c0.5,0.6,1.2,0.9,2,0.9c0.7,0,1.5-0.3,2-0.8c0.3-0.3,0.5-0.7,0.6-1.1h1.6c-0.1,0.4-0.2,0.8-0.4,1.2c-0.2,0.4-0.5,0.7-0.8,1
		c-0.5,0.5-1.1,0.8-1.8,0.9c-0.4,0.1-0.9,0.1-1.3,0.1c-1.1,0-2.2-0.4-3-1.3c-0.9-1-1.3-2.3-1.2-3.6c-0.1-1.3,0.4-2.6,1.2-3.7
		C494.2,3695.4,495.4,3694.8,496.6,3694.9z M499.1,3699c0-0.6-0.2-1.1-0.4-1.6c-0.4-0.8-1.3-1.2-2.2-1.1c-0.7,0-1.4,0.3-1.8,0.8
		c-0.5,0.5-0.8,1.3-0.8,2L499.1,3699z M507.6,3691.5h1.5v4.7c0.7-0.9,1.7-1.4,2.8-1.4c1.1,0,2.1,0.4,2.9,1.2c0.8,1,1.2,2.3,1.1,3.6
		c0.1,1.3-0.3,2.6-1.1,3.7c-0.7,1-1.8,1.5-3,1.5c-0.6,0-1.3-0.2-1.8-0.5c-0.4-0.3-0.7-0.6-0.9-1v1.2h-1.5L507.6,3691.5z
		 M511.7,3703.4c0.8,0,1.5-0.4,1.9-1c0.5-0.8,0.7-1.8,0.6-2.7c0-0.9-0.2-1.7-0.6-2.5c-0.4-0.6-1.1-1-1.9-1c-0.7,0-1.4,0.3-1.9,0.8
		c-0.6,0.7-0.9,1.7-0.8,2.6c0,0.7,0.1,1.5,0.3,2.2C509.7,3702.8,510.7,3703.5,511.7,3703.4z M518.9,3702c0,0.4,0.2,0.8,0.5,1.1
		c0.3,0.3,0.8,0.4,1.2,0.4c0.6,0,1.1-0.1,1.6-0.4c0.8-0.4,1.4-1.2,1.3-2.1v-1.3c-0.2,0.1-0.5,0.2-0.7,0.3c-0.3,0.1-0.6,0.1-0.9,0.2
		l-1,0.1c-0.4,0-0.9,0.2-1.3,0.4C519.2,3700.9,518.9,3701.5,518.9,3702z M522.8,3698.8c0.3,0,0.6-0.2,0.7-0.5
		c0.1-0.2,0.1-0.4,0.1-0.6c0-0.5-0.2-0.9-0.6-1.2c-0.5-0.3-1.1-0.4-1.6-0.4c-0.7-0.1-1.3,0.2-1.8,0.7c-0.2,0.3-0.4,0.7-0.4,1.1h-1.5
		c-0.1-0.9,0.4-1.9,1.1-2.4c0.8-0.5,1.6-0.7,2.5-0.7c0.9,0,1.9,0.2,2.7,0.6c0.7,0.4,1.1,1.2,1,2v5.4c0,0.1,0,0.3,0.1,0.4
		c0.1,0.1,0.3,0.2,0.4,0.1c0.1,0,0.1,0,0.2,0c0.1,0,0.2,0,0.3,0v1.2c-0.2,0.1-0.4,0.1-0.6,0.1c-0.2,0-0.4,0-0.5,0
		c-0.5,0-0.9-0.2-1.2-0.6c-0.1-0.3-0.2-0.6-0.3-0.9c-0.4,0.5-0.9,0.8-1.4,1.1c-0.6,0.3-1.3,0.5-2,0.5c-0.8,0-1.6-0.3-2.1-0.8
		c-0.5-0.5-0.8-1.2-0.8-2c0-0.8,0.3-1.5,0.8-2c0.6-0.5,1.4-0.8,2.1-0.9L522.8,3698.8z M523.4,3691.3l-2.3,2.5h-1.2l1.6-2.5H523.4z
		 M528.7,3701.5c0,0.4,0.2,0.9,0.4,1.2c0.5,0.6,1.3,0.8,2.1,0.8c0.5,0,1.1-0.1,1.5-0.4c0.4-0.2,0.7-0.7,0.7-1.2
		c0-0.4-0.2-0.7-0.5-0.9c-0.4-0.2-0.9-0.3-1.4-0.4l-1.3-0.3c-0.6-0.1-1.2-0.4-1.8-0.7c-0.6-0.4-1-1-1-1.8c0-0.8,0.3-1.6,1-2.2
		c0.7-0.6,1.7-0.9,2.6-0.8c1.2-0.1,2.3,0.4,3.1,1.2c0.4,0.5,0.6,1.1,0.6,1.7h-1.5c0-0.4-0.2-0.7-0.4-1c-0.5-0.5-1.2-0.7-1.9-0.6
		c-0.5,0-1,0.1-1.4,0.3c-0.3,0.2-0.5,0.5-0.5,0.9c0,0.4,0.2,0.8,0.6,1c0.3,0.2,0.7,0.3,1,0.4l1,0.3c0.8,0.2,1.6,0.4,2.3,0.8
		c0.6,0.4,1,1.2,0.9,1.9c0,0.8-0.3,1.6-1,2.2c-0.8,0.7-1.9,1-2.9,0.9c-1.1,0.1-2.2-0.2-3-1c-0.6-0.6-0.9-1.5-0.9-2.4L528.7,3701.5z
		 M536.7,3695.1h1.6v9.4h-1.6V3695.1z M536.7,3691.6h1.6v1.8h-1.6V3691.6z M544.4,3694.8c0.9,0,1.8,0.2,2.6,0.8
		c0.7,0.7,1.2,1.6,1.2,2.7h-1.5c-0.1-0.5-0.3-1-0.6-1.4c-0.4-0.4-1-0.6-1.6-0.6c-1,0-1.8,0.6-2.2,1.5c-0.3,0.8-0.4,1.6-0.4,2.4
		c0,0.8,0.2,1.7,0.6,2.4c0.7,1,2.2,1.3,3.2,0.5c0.1-0.1,0.1-0.1,0.2-0.2c0.4-0.5,0.7-1,0.8-1.6h1.5c-0.1,2.1-1.8,3.7-3.8,3.6
		c-0.1,0-0.1,0-0.2,0c-1.1,0-2.2-0.5-2.9-1.3c-0.8-1-1.1-2.2-1.1-3.4c-0.1-1.4,0.3-2.8,1.2-3.9
		C542.1,3695.3,543.2,3694.8,544.4,3694.8L544.4,3694.8z M553.5,3703.5c0.9,0.1,1.8-0.4,2.2-1.2c0.4-0.8,0.6-1.7,0.6-2.6
		c0-0.7-0.1-1.5-0.4-2.1c-0.4-0.9-1.3-1.4-2.3-1.3c-0.9-0.1-1.7,0.4-2.1,1.1c-0.5,0.8-0.7,1.7-0.7,2.7c0,0.9,0.2,1.8,0.7,2.5
		C551.9,3703.2,552.6,3703.5,553.5,3703.5L553.5,3703.5z M553.5,3694.8c1.1,0,2.3,0.4,3.1,1.2c0.9,1,1.4,2.3,1.3,3.6
		c0.1,1.3-0.3,2.7-1.1,3.8c-0.8,1-2.1,1.6-3.4,1.5c-1.2,0.1-2.3-0.4-3.1-1.3c-0.8-1-1.2-2.3-1.1-3.5c-0.1-1.4,0.4-2.7,1.2-3.8
		C551.1,3695.3,552.3,3694.8,553.5,3694.8L553.5,3694.8z M568.7,3694.9c0.7,0,1.3,0.2,1.9,0.5c0.6,0.3,1.1,0.7,1.4,1.2
		c0.3,0.5,0.5,1.1,0.6,1.7c0.1,0.7,0.2,1.4,0.1,2.1h-6.9c0,0.8,0.2,1.6,0.7,2.3c0.5,0.6,1.2,0.9,2,0.9c0.7,0,1.5-0.3,2-0.8
		c0.3-0.3,0.5-0.7,0.6-1.1h1.6c-0.1,0.4-0.2,0.8-0.4,1.2c-0.2,0.4-0.5,0.7-0.8,1c-0.5,0.5-1.1,0.8-1.8,0.9c-0.4,0.1-0.9,0.1-1.3,0.1
		c-1.1,0-2.2-0.4-3-1.3c-0.9-1-1.3-2.3-1.2-3.6c-0.1-1.3,0.4-2.6,1.2-3.7C566.3,3695.4,567.4,3694.8,568.7,3694.9L568.7,3694.9z
		 M571.2,3699c0-0.6-0.2-1.1-0.4-1.6c-0.4-0.8-1.3-1.2-2.2-1.1c-0.7,0-1.4,0.3-1.8,0.8c-0.5,0.5-0.8,1.3-0.8,2H571.2z M579.8,3695.1
		h1.6v9.4h-1.6V3695.1z M579.8,3691.6h1.6v1.8h-1.6V3691.6z M583.8,3695.1h1.5v1.3c0.4-0.5,0.9-0.9,1.4-1.2c0.5-0.2,1.1-0.4,1.7-0.4
		c1.1-0.1,2.2,0.4,2.7,1.4c0.3,0.7,0.4,1.4,0.4,2.2v6h-1.6v-5.9c0-0.5-0.1-1-0.3-1.4c-0.3-0.6-0.9-0.9-1.5-0.9c-0.3,0-0.6,0-0.9,0.1
		c-0.4,0.1-0.8,0.4-1.1,0.8c-0.2,0.3-0.4,0.6-0.5,1c-0.1,0.5-0.1,0.9-0.1,1.4v4.9h-1.6L583.8,3695.1z M594.1,3692.5h1.6v2.6h1.5v1.3
		h-1.5v6.1c0,0.3,0.1,0.5,0.3,0.7c0.2,0.1,0.4,0.1,0.6,0.1c0.1,0,0.2,0,0.2,0s0.2,0,0.3,0v1.2c-0.2,0.1-0.4,0.1-0.6,0.1
		c-0.2,0-0.4,0-0.6,0c-0.6,0.1-1.1-0.1-1.5-0.6c-0.3-0.4-0.4-1-0.4-1.5v-6.2h-1.3v-1.3h1.3L594.1,3692.5z M602.7,3694.9
		c0.7,0,1.3,0.2,1.9,0.5c0.6,0.3,1.1,0.7,1.4,1.2c0.3,0.5,0.5,1.1,0.6,1.7c0.1,0.7,0.2,1.4,0.1,2.1h-6.9c0,0.8,0.2,1.6,0.7,2.3
		c0.5,0.6,1.2,0.9,2,0.9c0.7,0,1.5-0.3,2-0.8c0.3-0.3,0.5-0.7,0.6-1.1h1.6c-0.1,0.4-0.2,0.8-0.4,1.1c-0.2,0.4-0.5,0.7-0.8,1
		c-0.5,0.5-1.1,0.8-1.8,0.9c-0.4,0.1-0.9,0.1-1.3,0.1c-1.1,0-2.2-0.4-3-1.3c-0.9-1-1.3-2.3-1.2-3.6c-0.1-1.3,0.4-2.6,1.2-3.7
		C600.3,3695.4,601.5,3694.8,602.7,3694.9L602.7,3694.9z M605.2,3699c0-0.6-0.2-1.1-0.4-1.6c-0.4-0.8-1.3-1.2-2.2-1.1
		c-0.7,0-1.4,0.3-1.8,0.8c-0.5,0.5-0.8,1.3-0.8,2H605.2z M608.8,3695.1h1.5v1.6c0.2-0.4,0.5-0.8,0.9-1.2c0.4-0.4,1-0.7,1.7-0.7
		c0,0,0.1,0,0.1,0c0.1,0,0.2,0,0.4,0v1.7c-0.1,0-0.2,0-0.3,0c-0.1,0-0.2,0-0.3,0c-0.7,0-1.4,0.2-1.8,0.8c-0.4,0.5-0.6,1.1-0.6,1.8
		v5.4h-1.6L608.8,3695.1z M618.7,3703.4c0.7,0,1.4-0.3,1.8-0.9c0.5-0.8,0.8-1.8,0.7-2.8c0-0.7-0.1-1.3-0.3-1.9
		c-0.5-1.2-1.8-1.9-3.1-1.4c-0.7,0.3-1.2,0.8-1.4,1.5c-0.2,0.7-0.3,1.5-0.3,2.2c0,0.6,0.1,1.3,0.3,1.9
		C616.8,3702.9,617.8,3703.5,618.7,3703.4L618.7,3703.4z M614.6,3695.1h1.5v1.2c0.3-0.4,0.6-0.7,1-1c0.6-0.4,1.2-0.5,1.9-0.5
		c1,0,2,0.4,2.7,1.2c0.8,1,1.2,2.2,1.1,3.5c0,2.1-0.5,3.5-1.6,4.4c-0.7,0.6-1.5,0.8-2.4,0.8c-0.6,0-1.2-0.1-1.8-0.5
		c-0.4-0.2-0.7-0.6-0.9-0.9v4.8h-1.6L614.6,3695.1z M624.8,3695.1h1.5v1.6c0.2-0.4,0.5-0.8,0.9-1.2c0.4-0.4,1-0.7,1.7-0.7
		c0,0,0.1,0,0.1,0c0.1,0,0.2,0,0.4,0v1.7c-0.1,0-0.2,0-0.3,0c-0.1,0-0.2,0-0.3,0c-0.7,0-1.4,0.2-1.8,0.8c-0.4,0.5-0.6,1.1-0.6,1.8
		v5.4h-1.6L624.8,3695.1z M634.7,3694.9c0.7,0,1.3,0.2,1.9,0.5c0.6,0.3,1.1,0.7,1.4,1.2c0.3,0.5,0.5,1.1,0.6,1.7
		c0.1,0.7,0.2,1.4,0.1,2.1h-6.9c0,0.8,0.2,1.6,0.7,2.3c0.5,0.6,1.2,0.9,2,0.9c0.7,0,1.5-0.3,2-0.8c0.3-0.3,0.5-0.7,0.6-1.1h1.6
		c-0.1,0.4-0.2,0.8-0.4,1.2c-0.2,0.4-0.5,0.7-0.8,1c-0.5,0.5-1.1,0.8-1.8,0.9c-0.4,0.1-0.9,0.1-1.3,0.1c-1.1,0-2.2-0.4-3-1.3
		c-0.9-1-1.3-2.3-1.2-3.6c-0.1-1.3,0.4-2.6,1.2-3.7C632.3,3695.4,633.5,3694.8,634.7,3694.9L634.7,3694.9z M637.2,3699
		c0-0.6-0.2-1.1-0.4-1.6c-0.4-0.8-1.3-1.2-2.2-1.1c-0.7,0-1.4,0.3-1.8,0.8c-0.5,0.5-0.8,1.3-0.8,2H637.2z M641.1,3692.5h1.6v2.6h1.5
		v1.3h-1.5v6.1c0,0.3,0.1,0.5,0.3,0.7c0.2,0.1,0.4,0.1,0.6,0.1c0.1,0,0.2,0,0.2,0c0.1,0,0.2,0,0.3,0v1.2c-0.2,0.1-0.4,0.1-0.6,0.1
		c-0.2,0-0.4,0-0.6,0c-0.6,0.1-1.1-0.1-1.5-0.6c-0.3-0.4-0.4-1-0.4-1.5v-6.2h-1.3v-1.3h1.3L641.1,3692.5z M647,3702
		c0,0.4,0.2,0.8,0.5,1.1c0.3,0.3,0.8,0.4,1.2,0.4c0.6,0,1.1-0.1,1.6-0.4c0.8-0.4,1.4-1.2,1.3-2.1v-1.3c-0.2,0.1-0.5,0.2-0.7,0.3
		c-0.3,0.1-0.6,0.1-0.9,0.2l-1,0.1c-0.4,0-0.9,0.2-1.3,0.4C647.2,3700.9,647,3701.5,647,3702L647,3702z M650.8,3698.8
		c0.3,0,0.6-0.2,0.7-0.5c0.1-0.2,0.1-0.4,0.1-0.6c0-0.5-0.2-0.9-0.6-1.2c-0.5-0.3-1.1-0.4-1.6-0.4c-0.7-0.1-1.3,0.2-1.8,0.7
		c-0.2,0.3-0.4,0.7-0.4,1.1h-1.5c-0.1-0.9,0.4-1.9,1.1-2.4c0.8-0.5,1.6-0.7,2.5-0.7c0.9,0,1.9,0.2,2.7,0.6c0.7,0.4,1.1,1.2,1,2v5.4
		c0,0.1,0,0.3,0.1,0.4c0.1,0.1,0.3,0.2,0.4,0.1c0.1,0,0.1,0,0.2,0c0.1,0,0.2,0,0.3,0v1.2c-0.2,0.1-0.4,0.1-0.6,0.1
		c-0.2,0-0.4,0-0.5,0c-0.5,0-0.9-0.2-1.2-0.6c-0.1-0.3-0.2-0.6-0.3-0.9c-0.4,0.5-0.9,0.8-1.4,1.1c-0.6,0.3-1.3,0.5-2,0.5
		c-0.8,0-1.6-0.3-2.1-0.8c-0.5-0.5-0.8-1.2-0.8-2c0-0.8,0.3-1.5,0.8-2c0.6-0.5,1.4-0.8,2.1-0.9L650.8,3698.8z M659.4,3694.8
		c0.9,0,1.8,0.2,2.6,0.8c0.7,0.7,1.2,1.6,1.2,2.7h-1.5c-0.1-0.5-0.3-1-0.6-1.4c-0.4-0.4-1-0.6-1.6-0.6c-1,0-1.8,0.6-2.2,1.5
		c-0.3,0.8-0.4,1.6-0.4,2.4c0,0.8,0.2,1.7,0.6,2.4c0.7,1,2.2,1.3,3.2,0.5c0.1-0.1,0.1-0.1,0.2-0.2c0.4-0.5,0.7-1,0.8-1.6h1.5
		c-0.1,2.1-1.8,3.7-3.8,3.6c-0.1,0-0.1,0-0.2,0c-1.1,0-2.2-0.5-2.9-1.3c-0.8-1-1.1-2.2-1.1-3.4c-0.1-1.4,0.3-2.8,1.2-3.9
		C657.1,3695.3,658.3,3694.8,659.4,3694.8L659.4,3694.8z M664.8,3695.1h1.6v9.4h-1.6L664.8,3695.1z M664.8,3691.6h1.6v1.8h-1.6
		L664.8,3691.6z M672.5,3703.5c0.9,0.1,1.8-0.4,2.2-1.2c0.4-0.8,0.6-1.7,0.6-2.6c0-0.7-0.1-1.5-0.4-2.1c-0.4-0.9-1.3-1.4-2.3-1.3
		c-0.9-0.1-1.7,0.4-2.1,1.1c-0.5,0.8-0.7,1.7-0.7,2.7c0,0.9,0.2,1.8,0.7,2.5C670.9,3703.2,671.7,3703.5,672.5,3703.5L672.5,3703.5z
		 M672.6,3694.8c1.1,0,2.3,0.4,3.1,1.2c0.9,1,1.4,2.3,1.3,3.6c0.1,1.3-0.3,2.7-1.1,3.8c-0.8,1-2.1,1.6-3.4,1.5
		c-1.2,0.1-2.3-0.4-3.1-1.3c-0.8-1-1.2-2.3-1.1-3.5c-0.1-1.4,0.4-2.7,1.2-3.8C670.2,3695.3,671.4,3694.8,672.6,3694.8L672.6,3694.8z
		 M674.4,3691.3l-2.3,2.5h-1.2l1.6-2.5H674.4z M678.8,3695.1h1.5v1.3c0.4-0.5,0.9-0.9,1.4-1.2c0.5-0.2,1.1-0.4,1.7-0.4
		c1.1-0.1,2.2,0.4,2.7,1.4c0.3,0.7,0.4,1.4,0.4,2.2v6h-1.6v-5.9c0-0.5-0.1-1-0.3-1.4c-0.3-0.6-0.9-0.9-1.5-0.9c-0.3,0-0.6,0-0.9,0.1
		c-0.4,0.1-0.8,0.4-1.1,0.8c-0.2,0.3-0.4,0.6-0.5,1c-0.1,0.5-0.1,0.9-0.1,1.4v4.9h-1.6L678.8,3695.1z M694.8,3699.9
		c0,0.9,0.2,1.8,0.6,2.5c0.4,0.7,1.2,1.1,2.1,1c0.7,0,1.4-0.3,1.8-0.9c0.5-0.8,0.8-1.8,0.7-2.7c0.1-0.9-0.2-1.9-0.7-2.6
		c-0.4-0.5-1.1-0.9-1.8-0.9c-0.8,0-1.5,0.3-1.9,0.9C695,3698,694.8,3698.9,694.8,3699.9z M697.2,3694.9c0.6,0,1.3,0.1,1.8,0.5
		c0.4,0.3,0.7,0.6,1,0.9v-4.8h1.5v13h-1.4v-1.3c-0.3,0.5-0.8,1-1.3,1.3c-0.5,0.3-1.1,0.4-1.7,0.4c-1.1,0-2.1-0.5-2.7-1.3
		c-0.8-1-1.2-2.2-1.2-3.5c0-1.3,0.3-2.5,1-3.6C694.9,3695.4,696,3694.9,697.2,3694.9L697.2,3694.9z M707.8,3694.9
		c0.7,0,1.3,0.2,1.9,0.5c0.6,0.3,1.1,0.7,1.4,1.2c0.3,0.5,0.5,1.1,0.6,1.7c0.1,0.7,0.2,1.4,0.1,2.1H705c0,0.8,0.2,1.6,0.7,2.3
		c0.5,0.6,1.2,0.9,2,0.9c0.7,0,1.5-0.3,2-0.8c0.3-0.3,0.5-0.7,0.6-1.1h1.6c-0.1,0.4-0.2,0.8-0.4,1.2c-0.2,0.4-0.5,0.7-0.8,1
		c-0.5,0.5-1.1,0.8-1.8,0.9c-0.4,0.1-0.9,0.1-1.3,0.1c-1.1,0-2.2-0.4-3-1.3c-0.9-1-1.3-2.3-1.2-3.6c-0.1-1.3,0.4-2.6,1.2-3.7
		C705.3,3695.4,706.5,3694.8,707.8,3694.9L707.8,3694.9z M710.3,3699c0-0.6-0.2-1.1-0.4-1.6c-0.4-0.8-1.3-1.2-2.2-1.1
		c-0.7,0-1.4,0.3-1.8,0.8c-0.5,0.5-0.8,1.3-0.8,2H710.3z M719.8,3699.9c0,0.9,0.2,1.8,0.6,2.5c0.4,0.7,1.2,1.1,2.1,1
		c0.7,0,1.4-0.3,1.8-0.9c0.5-0.8,0.8-1.8,0.7-2.7c0.1-0.9-0.2-1.9-0.7-2.6c-0.4-0.5-1.1-0.9-1.8-0.9c-0.8,0-1.5,0.3-1.9,0.9
		C720,3698,719.8,3698.9,719.8,3699.9L719.8,3699.9z M722.2,3694.9c0.6,0,1.3,0.1,1.8,0.5c0.4,0.3,0.7,0.6,1,0.9v-4.8h1.5v13h-1.4
		v-1.3c-0.3,0.5-0.8,1-1.3,1.3c-0.5,0.3-1.1,0.4-1.7,0.4c-1.1,0-2.1-0.5-2.7-1.3c-0.8-1-1.2-2.2-1.2-3.5c0-1.3,0.3-2.5,1-3.6
		C719.9,3695.4,721,3694.9,722.2,3694.9L722.2,3694.9z M728.9,3695.1h1.6v9.4h-1.6V3695.1z M728.9,3691.6h1.6v1.8h-1.6V3691.6z
		 M733.8,3701.5c0,0.4,0.2,0.9,0.4,1.2c0.5,0.6,1.3,0.8,2.1,0.8c0.5,0,1.1-0.1,1.5-0.4c0.4-0.2,0.7-0.7,0.7-1.2
		c0-0.4-0.2-0.7-0.5-0.9c-0.4-0.2-0.9-0.3-1.4-0.4l-1.3-0.3c-0.6-0.1-1.2-0.4-1.8-0.7c-0.6-0.4-1-1-1-1.8c0-0.8,0.3-1.6,1-2.2
		c0.7-0.6,1.7-0.9,2.6-0.8c1.2-0.1,2.3,0.4,3.1,1.2c0.4,0.5,0.6,1.1,0.6,1.7h-1.5c0-0.4-0.2-0.7-0.4-1c-0.5-0.5-1.2-0.7-1.9-0.6
		c-0.5,0-1,0.1-1.4,0.3c-0.3,0.2-0.5,0.5-0.5,0.9c0,0.4,0.2,0.8,0.6,1c0.3,0.2,0.7,0.3,1,0.4l1,0.3c0.8,0.2,1.6,0.4,2.3,0.8
		c0.6,0.4,1,1.2,0.9,1.9c0,0.8-0.3,1.6-1,2.2c-0.8,0.7-1.9,1-2.9,0.9c-1.1,0.1-2.2-0.2-3-1c-0.6-0.6-0.9-1.5-0.9-2.4L733.8,3701.5z
		 M745.8,3694.9c0.7,0,1.3,0.2,1.9,0.5c0.6,0.3,1.1,0.7,1.4,1.2c0.3,0.5,0.5,1.1,0.6,1.7c0.1,0.7,0.2,1.4,0.1,2.1H743
		c0,0.8,0.2,1.6,0.7,2.3c0.5,0.6,1.2,0.9,2,0.9c0.7,0,1.5-0.3,2-0.8c0.3-0.3,0.5-0.7,0.6-1.1h1.6c-0.1,0.4-0.2,0.8-0.4,1.2
		c-0.2,0.4-0.5,0.7-0.8,1c-0.5,0.5-1.1,0.8-1.8,0.9c-0.4,0.1-0.9,0.1-1.3,0.1c-1.1,0-2.2-0.4-3-1.3c-0.9-1-1.3-2.3-1.2-3.6
		c-0.1-1.3,0.4-2.6,1.2-3.7C743.4,3695.4,744.5,3694.8,745.8,3694.9L745.8,3694.9z M748.3,3699c0-0.6-0.2-1.1-0.4-1.6
		c-0.4-0.8-1.3-1.2-2.2-1.1c-0.7,0-1.4,0.3-1.8,0.8c-0.5,0.5-0.8,1.3-0.8,2H748.3z M751.9,3695.1h1.5v1.3c0.4-0.5,0.9-0.9,1.4-1.2
		c0.5-0.2,1.1-0.4,1.7-0.4c1.1-0.1,2.2,0.4,2.7,1.4c0.3,0.7,0.4,1.4,0.4,2.2v6h-1.6v-5.9c0-0.5-0.1-1-0.3-1.4
		c-0.3-0.6-0.9-0.9-1.5-0.9c-0.3,0-0.6,0-0.9,0.1c-0.4,0.1-0.8,0.4-1.1,0.8c-0.2,0.3-0.4,0.6-0.5,1c-0.1,0.5-0.1,0.9-0.1,1.4v4.9
		h-1.6L751.9,3695.1z M756.5,3692.2c0.1,0.1,0.3,0.1,0.4,0.2c0.1,0,0.3,0.1,0.4,0.1c0.3,0,0.5-0.1,0.7-0.3c0.1-0.2,0.1-0.3,0.2-0.5
		h0.9c0,0.6-0.3,1.1-0.7,1.5c-0.3,0.3-0.7,0.4-1.1,0.4c-0.2,0-0.3,0-0.5-0.1c-0.2,0-0.4-0.1-0.5-0.2l-0.5-0.2
		c-0.3-0.1-0.5-0.2-0.7-0.2c-0.2,0-0.3-0.1-0.5-0.1c-0.2,0-0.4,0.1-0.5,0.2c-0.1,0.2-0.2,0.4-0.3,0.6H753c0.1-0.4,0.2-0.8,0.4-1.1
		c0.3-0.5,0.9-0.8,1.5-0.8c0.2,0,0.4,0,0.7,0.1C755.9,3691.9,756.2,3692,756.5,3692.2L756.5,3692.2z M765.6,3703.5
		c0.9,0.1,1.8-0.4,2.2-1.2c0.4-0.8,0.6-1.7,0.6-2.7c0-0.7-0.1-1.5-0.4-2.1c-0.4-0.9-1.3-1.4-2.3-1.3c-0.9-0.1-1.7,0.4-2.1,1.1
		c-0.5,0.8-0.7,1.7-0.7,2.7c0,0.9,0.2,1.8,0.7,2.5C764,3703.2,764.8,3703.5,765.6,3703.5L765.6,3703.5z M765.7,3694.8
		c1.1,0,2.3,0.4,3.1,1.2c0.9,1,1.4,2.3,1.3,3.6c0.1,1.3-0.3,2.7-1.1,3.8c-0.8,1-2.1,1.6-3.4,1.5c-1.2,0.1-2.3-0.4-3.1-1.3
		c-0.8-1-1.2-2.3-1.1-3.5c-0.1-1.4,0.4-2.7,1.2-3.8C763.2,3695.3,764.4,3694.8,765.7,3694.8L765.7,3694.8z M772.3,3702.6h1.8v1.9
		h-1.8L772.3,3702.6z"/>
	<g id="Grupo_33682" transform="translate(984.508 3694.527)">
		<g id="Grupo_28535">
			<path id="Trazado_71256" class="st2" d="M192.9,29.2L192.9,29.2L0,29.3V9.4h188.1c16.1,0,33.8-0.7,49.9-9.4v19.8
				C229.3,26.5,208.6,28.8,192.9,29.2z"/>
			<path id="Trazado_71257" class="st2" d="M192.9,31.9L192.9,31.9L0,31.9v19.9h188.1c16.1,0,33.8,0.7,49.9,9.4V41.3
				C229.3,34.6,208.6,32.3,192.9,31.9z"/>
		</g>
		<rect id="Rectángulo_29892" x="172.8" y="30.4" class="st3" width="4.2" height="10.7"/>
		<rect id="Rectángulo_29893" x="164.3" y="30.4" class="st3" width="4.2" height="10.7"/>
		<rect id="Rectángulo_29894" x="155.8" y="30.4" class="st3" width="4.2" height="10.7"/>
		<rect id="Rectángulo_29895" x="147.4" y="30.4" class="st3" width="4.2" height="10.7"/>
		<rect id="Rectángulo_29896" x="138.9" y="30.4" class="st3" width="4.2" height="10.7"/>
		<rect id="Rectángulo_29897" x="130.4" y="30.4" class="st3" width="4.2" height="10.7"/>
		<rect id="Rectángulo_29898" x="122" y="30.4" class="st3" width="4.2" height="10.7"/>
		<rect id="Rectángulo_29899" x="113.5" y="30.4" class="st3" width="4.2" height="10.7"/>
		<rect id="Rectángulo_29900" x="105.1" y="30.4" class="st3" width="4.2" height="10.7"/>
		<rect id="Rectángulo_29901" x="96.6" y="30.4" class="st3" width="4.2" height="10.7"/>
		<rect id="Rectángulo_29902" x="88.1" y="30.4" class="st3" width="4.2" height="10.7"/>
		<rect id="Rectángulo_29903" x="79.7" y="30.4" class="st3" width="4.2" height="10.7"/>
		<rect id="Rectángulo_29904" x="71.2" y="30.4" class="st3" width="4.2" height="10.7"/>
		<rect id="Rectángulo_29905" x="62.7" y="30.4" class="st3" width="4.2" height="10.7"/>
		<rect id="Rectángulo_29906" x="54.3" y="30.4" class="st3" width="4.2" height="10.7"/>
		<rect id="Rectángulo_29907" x="45.8" y="30.4" class="st3" width="4.2" height="10.7"/>
		<rect id="Rectángulo_29908" x="37.4" y="30.4" class="st3" width="4.2" height="10.7"/>
		<rect id="Rectángulo_29909" x="28.9" y="30.4" class="st3" width="4.2" height="10.7"/>
		<rect id="Rectángulo_29910" x="20.4" y="30.4" class="st3" width="4.2" height="10.7"/>
		<rect id="Rectángulo_29911" x="12" y="30.4" class="st3" width="4.2" height="10.7"/>
		<path id="Trazado_71258" class="st4" d="M200.6,30.6L200.6,30.6c0,5.2-4.2,9.4-9.4,9.4h0c-5.2,0-9.4-4.2-9.4-9.4l0,0
			c0-5.2,4.2-9.4,9.4-9.4h0C196.4,21.2,200.6,25.4,200.6,30.6z"/>
		<rect id="Rectángulo_29912" x="168.5" y="19.7" class="st3" width="4.2" height="10.7"/>
		<rect id="Rectángulo_29913" x="160.1" y="19.7" class="st3" width="4.2" height="10.7"/>
		<rect id="Rectángulo_29914" x="151.6" y="19.7" class="st3" width="4.2" height="10.7"/>
		<rect id="Rectángulo_29915" x="143.1" y="19.7" class="st3" width="4.2" height="10.7"/>
		<rect id="Rectángulo_29916" x="134.7" y="19.7" class="st3" width="4.2" height="10.7"/>
		<rect id="Rectángulo_29917" x="126.2" y="19.7" class="st3" width="4.2" height="10.7"/>
		<rect id="Rectángulo_29918" x="117.8" y="19.7" class="st3" width="4.2" height="10.7"/>
		<rect id="Rectángulo_29919" x="109.3" y="19.7" class="st3" width="4.2" height="10.7"/>
		<rect id="Rectángulo_29920" x="100.8" y="19.7" class="st3" width="4.2" height="10.7"/>
		<rect id="Rectángulo_29921" x="92.4" y="19.7" class="st3" width="4.2" height="10.7"/>
		<rect id="Rectángulo_29922" x="83.9" y="19.7" class="st3" width="4.2" height="10.7"/>
		<rect id="Rectángulo_29923" x="75.4" y="19.7" class="st3" width="4.2" height="10.7"/>
		<rect id="Rectángulo_29924" x="67" y="19.7" class="st3" width="4.2" height="10.7"/>
		<rect id="Rectángulo_29925" x="58.5" y="19.7" class="st3" width="4.2" height="10.7"/>
		<rect id="Rectángulo_29926" x="50.1" y="19.7" class="st3" width="4.2" height="10.7"/>
		<rect id="Rectángulo_29927" x="41.6" y="19.7" class="st3" width="4.2" height="10.7"/>
		<rect id="Rectángulo_29928" x="33.1" y="19.7" class="st3" width="4.2" height="10.7"/>
		<rect id="Rectángulo_29929" x="24.7" y="19.7" class="st3" width="4.2" height="10.7"/>
		<rect id="Rectángulo_29930" x="16.2" y="19.7" class="st3" width="4.2" height="10.7"/>
		<rect id="Rectángulo_29931" x="7.7" y="19.7" class="st3" width="4.2" height="10.7"/>
	</g>
</g>
</svg>
