<svg xmlns="http://www.w3.org/2000/svg" xmlns:xlink="http://www.w3.org/1999/xlink" width="284.712" height="413.811" viewBox="0 0 284.712 413.811">
  <defs>
    <linearGradient id="linear-gradient" x1="0.5" y1="1" x2="0.5" gradientUnits="objectBoundingBox">
      <stop offset="0.248" stop-color="#b48329"/>
      <stop offset="0.788" stop-color="#986501"/>
    </linearGradient>
  </defs>
  <g id="Grupo_33739" data-name="Grupo 33739" transform="translate(-267 -4255)">
    <ellipse id="Elipse_983" data-name="Elipse 983" cx="142.356" cy="24.751" rx="142.356" ry="24.751" transform="translate(267 4619.31)" fill="#aed3f2"/>
    <g id="Grupo_33736" data-name="Grupo 33736" transform="translate(37.377 4181.885)">
      <g id="Grupo_33720" data-name="Grupo 33720" transform="translate(239.55 80.163)">
        <g id="Grupo_33719" data-name="Grupo 33719">
          <path id="Trazado_82401" data-name="Trazado 82401" d="M262.338,213.022c1.259-9.65,2.668-19.287,1.429-28.8-.762-5.8-4.155-15.533-7.936-19.41-8.957,15.594-7.808,35.125-9.3,52.421-1.491,17.237-2.612,36.728,6.532,52.224,10.523-7.62,8.371-24.2,7.845-35.233C260.57,227.176,261.415,220.095,262.338,213.022Z" transform="translate(-237.472 -48.254)" fill="#ffbc73"/>
          <path id="Trazado_82402" data-name="Trazado 82402" d="M263.556,184.218c-.762-5.8-4.155-15.533-7.936-19.41a53.739,53.739,0,0,0-5.469,14.145c2.572,3.625,3.243,8.685,3.613,12.922a122.624,122.624,0,0,1-.7,25.007,162.838,162.838,0,0,1-4.416,23.986,79.186,79.186,0,0,1-2.521,8.049,54.4,54.4,0,0,0,6.72,20.537c10.523-7.62,8.371-24.2,7.845-35.233-.336-7.045.51-14.126,1.433-21.2C263.386,203.372,264.795,193.735,263.556,184.218Z" transform="translate(-237.261 -48.254)" fill="#eda06b"/>
          <g id="Grupo_33711" data-name="Grupo 33711" transform="translate(0 300.285)">
            <path id="Trazado_82403" data-name="Trazado 82403" d="M275.911,348.069c-1.282-.363-5.655.406-7.291.435A11.546,11.546,0,0,1,264,347.158c-2.285,4.14-7.144,7.367-11.2,9.834-3.964,2.41-12.048,3.269-13.051,8.008-2.591,12.259,21.377,5.188,26.957,3.932,6.558-1.481,13.43-3.1,12.451-12.241C278.763,353.046,277.836,348.613,275.911,348.069Z" transform="translate(-239.55 -285.081)" fill="#4ab6a0"/>
            <path id="Trazado_82404" data-name="Trazado 82404" d="M269.331,347.859a9.16,9.16,0,0,0-2.6-.013c.82,4.052,1.271,7.813-.582,11.78a25.608,25.608,0,0,1-7.082,9.041c-.2.158-.406.3-.6.456.652-.16,1.22-.3,1.663-.4,6.558-1.481,13.43-3.1,12.452-12.241C272.183,352.836,271.256,348.4,269.331,347.859Z" transform="translate(-232.97 -284.871)" fill="#18a086"/>
            <path id="Trazado_82405" data-name="Trazado 82405" d="M279.138,356.641c-3.135,3.006-9.264,4.428-12.786,5.45-4.361,1.266-23.347,6.667-26.595-.425a.245.245,0,0,0-.012.034c-2.591,12.259,21.377,5.188,26.957,3.932,4.376-.989,10.57-2.854,12.853-5C280.427,359.82,279.97,356.886,279.138,356.641Z" transform="translate(-239.55 -281.781)" fill="#b1fce6"/>
            <path id="Trazado_82406" data-name="Trazado 82406" d="M256.024,301.107c2.96,17.18,4.276,36.507,2.017,63.274-4.962,5.366,6.435,5.666,12.476,1.839,2.115-13.934,7.033-47.8,5.063-62.16C269.495,302.687,262.393,301.261,256.024,301.107Z" transform="translate(-233.817 -301.107)" fill="#ffbc73"/>
            <path id="Trazado_82407" data-name="Trazado 82407" d="M258.685,365.133c-3.413.6-9.348,1.372-12.576.825s-5.937-1.472-6.443-3.846c-1.835,11.56,21.529,4.686,27.031,3.444,4.376-.989,10.57-2.854,12.853-5,.744-.694.51-2.91-.089-3.7C278.276,360.163,266.058,363.834,258.685,365.133Z" transform="translate(-239.545 -281.705)" fill="#428474"/>
            <path id="Trazado_82408" data-name="Trazado 82408" d="M263.652,301.785a49.619,49.619,0,0,1,3.769,12.14,75.938,75.938,0,0,1,1.285,24.783,94.937,94.937,0,0,1-8.224,29.816,18.515,18.515,0,0,0,8.484-2.541c2.115-13.934,7.033-47.8,5.063-62.16C270.77,303.089,267.222,302.346,263.652,301.785Z" transform="translate(-232.266 -300.871)" fill="#efa452"/>
          </g>
          <g id="Grupo_33712" data-name="Grupo 33712" transform="translate(40.869 303.119)">
            <path id="Trazado_82409" data-name="Trazado 82409" d="M303.081,349.241c-1.321-.164-5.528,1.256-7.143,1.529-1.9.324-2.958-1.3-4.06-1.543a51.081,51.081,0,0,1-10.3,12.323c-3.556,2.979-11.419,5.047-11.694,9.882-.712,12.507,21.916,1.906,27.242-.178,6.257-2.455,12.807-5.089,10.46-13.981C306.652,353.73,305.065,349.488,303.081,349.241Z" transform="translate(-269.869 -287.195)" fill="#4ab6a0"/>
            <path id="Trazado_82410" data-name="Trazado 82410" d="M295.846,349.24a7.787,7.787,0,0,0-2.181.288c3.277,7.438,1.355,14.968-3.007,21.421,6.013-2.378,11.947-5.152,9.695-13.678C299.417,353.729,297.831,349.487,295.846,349.24Z" transform="translate(-262.634 -287.195)" fill="#18a086"/>
            <path id="Trazado_82411" data-name="Trazado 82411" d="M308.063,357.583c-2.646,3.437-8.49,5.775-11.819,7.317-4.117,1.907-22.072,10.107-26.353,3.588l-.005.035c-.712,12.507,21.916,1.906,27.242-.178,4.177-1.636,10.018-4.416,11.953-6.878C309.817,360.527,308.922,357.7,308.063,357.583Z" transform="translate(-269.869 -284.287)" fill="#b1fce6"/>
            <path id="Trazado_82412" data-name="Trazado 82412" d="M291.43,367.668c-5.133,1.785-17.79,7.131-21.549,1.335.3,11.238,22.034,1.073,27.242-.968,4.177-1.636,10.018-4.416,11.953-6.878a3.174,3.174,0,0,0-.063-2.681C304.757,362.226,295.5,366.25,291.43,367.668Z" transform="translate(-269.865 -283.976)" fill="#428474"/>
            <path id="Trazado_82413" data-name="Trazado 82413" d="M282.076,303.232c5.361,14.371,9.01,39.536,5.4,63.074-4.668,5.627,6.728,5.308,12.555,1.167,1.367-14.03,4.469-48.11,1.731-62.342C295.611,304.085,288.445,303.042,282.076,303.232Z" transform="translate(-265.621 -303.209)" fill="#ffbc73"/>
            <path id="Trazado_82414" data-name="Trazado 82414" d="M289.471,303.591c6.41,12.6,6.753,27.482,5.628,41.386-.678,8.359-1.4,16.773-3.818,24.845-.015.055-.035.106-.053.164a17.966,17.966,0,0,0,6.226-2.646c1.367-14.03,4.469-48.11,1.731-62.342C296.125,304.481,292.813,303.956,289.471,303.591Z" transform="translate(-263.047 -303.076)" fill="#efa452"/>
          </g>
          <path id="Trazado_82415" data-name="Trazado 82415" d="M252.937,304.373c1.163,12.516,3.022,24.353,3.022,41.632,6.139,3.363,18.373,4.408,27.856.414,1.4-8.234-4.6-34.645-5.488-41.865-.9-7.314.117-58.8.906-59.448.311-.257,5.725,2.362,6.376,2.7.251,4.31.262,45.548,2.546,59.854,2.521,15.788,5.279,28.694,5.279,38.341,0,0,3.415,3.582,12.094,3.354,6.576-.173,11.924-1.406,15.51-5.558-.054-4.727-3.255-13.491-4.07-18.216-2.967-17.265-2.421-17.775-1.782-31.1.69-14.43,2.669-33.019,3.386-47.533.549-11.13.855-37.193-11.841-42.56-6.629-2.8-15.261,4.284-21.954,4.957-8.178.824-21.18-5.063-28.358.356-6.52,4.922-7.5,36.272-6.793,50.461.7,14.127,1.961,29.423,3.241,43.485C252.893,303.892,252.914,304.132,252.937,304.373Z" transform="translate(-236.11 -34.706)" fill="url(#linear-gradient)"/>
          <path id="Trazado_82416" data-name="Trazado 82416" d="M280.521,227.533c3.258-.52,13.041-3.179,15.174.938,1.813,3.5.023,5.407-.64,9-.634,3.421,2.266,7.539,3.166,10.754,2.728,9.746.682,20.592,1.151,30.65,2.205-.332,4.438-.151,6.677-.613a1.191,1.191,0,0,1,1.446.822c1.05,5.1-.325,9.618-2.257,14.351-.7,1.723-7.217,14.631-4.144,15.666,6.979,2.355,6.8,8.784,4.235,14.476,11.353,3.568,6.714,15.9-.155,25.762,6.348-.222,11.525-1.488,15.019-5.534-.054-4.727-3.255-13.491-4.07-18.216-2.967-17.265-2.421-17.775-1.782-31.1.69-14.43,2.669-33.019,3.386-47.533.549-11.13.855-37.193-11.841-42.56-6.629-2.8-15.261,4.284-21.954,4.957-8.178.824-21.18-5.063-28.358.356-1.527,1.153-2.746,3.766-3.715,7.259C259.122,224.02,270.44,229.14,280.521,227.533Z" transform="translate(-235.266 -34.706)" fill="#70360f" opacity="0.4"/>
          <path id="Trazado_82417" data-name="Trazado 82417" d="M275.337,235.235c.173-.143,1.914.6,3.544,1.348,1.566-5.144-7.938-4.444-12.555-4.458,3.01,9.773.156,21.265.613,31.3.46,10.106-4.93,18.348-6.306,28.024a33.162,33.162,0,0,0,4.62-.593A1.191,1.191,0,0,1,266.7,292.3c-.751,4.074-.206,8.228-.732,12.319,3.208,1.05,5.427,3.207,4.571,7.028-1.428,6.385-4.2,11.139-3.823,17.972.167,3.017.751,6.3.714,9.48a35.229,35.229,0,0,0,12.489-2.55c1.4-8.234-4.6-34.645-5.488-41.865C273.532,287.369,274.548,235.888,275.337,235.235Z" transform="translate(-232.213 -24.836)" fill="#70360f" opacity="0.4"/>
          <path id="Trazado_82418" data-name="Trazado 82418" d="M253.822,144.041c.706,1.167,1.694,2.134,2.4,3.273a21.6,21.6,0,0,0,3.193,3.2,24.66,24.66,0,0,1,4.076-1.326,32.1,32.1,0,0,1,4.928-.337c4.742-.044,9.29-.495,14.038-.084,3.528.309,7.109.431,10.574.774,1.522.151,6.543.182,6.551,2.577.671-1.159,2.9-2.076,4.1-2.616,1.33-.6,2.724-.9,4.1-1.383.948-.333,1.751-.976,2.685-1.336a24.38,24.38,0,0,0,2.6-.851c1.016-.52,2.071-.936,3.06-1.527,3.383-2.023,7.441-4.13,9.662-7.584,2.277-3.54,1.909-8.9,1.372-12.852-.918-6.749-1.406-15.458-6.485-20.579A59.884,59.884,0,0,0,287.9,86.74c-11.37-1.75-21.5-1.539-29.738,7.552a33.2,33.2,0,0,0-7.8,16.264c-1.066,5.326-3.846,10.85-3.022,16.4a34.945,34.945,0,0,0,3.634,10.434,18.04,18.04,0,0,1,1.94,4.423A7.058,7.058,0,0,0,253.822,144.041Z" transform="translate(-236.894 -75.721)" fill="#7a4d27"/>
          <path id="Trazado_82419" data-name="Trazado 82419" d="M314.733,230.466c-1.875-5.365-3.522-10.547-4.975-16.021-1.889-7.116-1.8-13.814-1.375-21.075a48.779,48.779,0,0,1,.942-7.361q.19-6.442.55-12.9c-.05-.322-.1-.644-.155-.973-2.536-3.238-3.383-7.618-3.22-12.239a52.4,52.4,0,0,1,1.05-8.321c.371-1.87,2-5.431,1.159-7.037-.9-1.719-4.982-3.563-6.635-4.531a31.552,31.552,0,0,0-7.277-3.258,51.931,51.931,0,0,0-8.98-2.2c-7.9-.778-14.5,2.381-21.057,6.313a14.426,14.426,0,0,0-4.014,3.246,21.646,21.646,0,0,0-2.99,4.8c-1.217,2.592-2.762,5.122-3.862,7.809a7.9,7.9,0,0,0-.816,3.948c.164,1.143.852,2.383.88,3.508.026,1.089-.776,2.381-1.225,3.336-1.383,2.949-3.481,5.586-3.086,9.041.636,5.54,3.929,8.873,5.623,13.646,1.271,3.584.849,18.061.565,21.1-.361,3.865-.12,7.824-.786,11.609-.507,2.879-.81,6.1-1.847,8.848-.909,2.406-2.62,4.481-3.358,6.993,3.71.241,7.967,1.957,11.225,3.652,3.783,1.968,8.882,2.284,13.011,2.7,4.788.485,9.529.186,14.366.186,4.567,0,8.557-2.347,13.105-2.75a41.606,41.606,0,0,0,11-2.72c1.371-.531,3.862-1.347,4.558-2.819C318.086,234.913,315.4,232.38,314.733,230.466Z" transform="translate(-236.053 -58.826)" fill="#8acc59"/>
          <path id="Trazado_82420" data-name="Trazado 82420" d="M274.853,138.988c1.124-.542,4.087-.936,4.617-2.226.448-1.085-.3-1.769-1.3-2.192-5.622.69-10.663,3.237-15.672,6.241a14.427,14.427,0,0,0-4.014,3.246,20.233,20.233,0,0,0-2.4,3.621,2.915,2.915,0,0,0,1.411,1.469c3.23-3.359,7.438-5.139,11.5-7.134C270.957,141.049,272.914,139.921,274.853,138.988Z" transform="translate(-233.795 -58.777)" fill="#75bf00"/>
          <path id="Trazado_82421" data-name="Trazado 82421" d="M300.024,162.37l0-.005c-.221-.39-.43-.787-.615-1.2h0c-.026-.059-.047-.123-.072-.181l0-.007c-.2-.458-.376-.927-.53-1.409a.387.387,0,0,0-.015-.046c0-.008,0-.019-.008-.03q-.245-.774-.422-1.587c-2.528,37.431-6.445,31.8-7.219,37.334-.433,3.1,3.315,5.078,3.311,6.146-.013,2.828-4.576,2.621-4.18,5.395.483,3.379,2.228,4.969.433,8.173a10.129,10.129,0,0,1-5.632,4.706c-2.077.816-5.613,2.288-6.91,4.075,3.154.867,8.424-.563,11.567-1.549,1.291-.4,2.762-1.6,4.021-.987,2.337,1.138-1.069,6.3-2.159,7.432-1.765,1.837-3.754,2.4-6.135,2.889-2.072.423-3.869,1.116-5.973,1.43-1.38.206-4.175.41-5.036,1.415,2.846,1.225,7.626-.137,10.638-.282s5.906.154,8.879.139a42.845,42.845,0,0,0,9.94-2.577c1.371-.531,3.862-1.347,4.558-2.819.977-2.081-1.707-4.614-2.375-6.528-1.082-3.1-2.081-6.139-3.018-9.2-.76-2.242-1.355-4.545-1.957-6.817-.14-.528-.248-1.05-.367-1.574-.077-.325-.158-.648-.229-.977l-.005-.019-.023-.12a53.428,53.428,0,0,1-1.182-13.709c.073-1.568.34-3.115.431-4.675a48.786,48.786,0,0,1,.942-7.361q.19-6.442.55-12.9c-.05-.322-.1-.644-.155-.973a12.953,12.953,0,0,1-1.026-1.554Z" transform="translate(-227.407 -50.656)" fill="#75bf00"/>
          <path id="Trazado_82422" data-name="Trazado 82422" d="M290.012,213.01c2.277-.3,3.77-.449,5.442,1.978,1.205,1.751-.268,6.067-.8,7.79-1.329,4.32-4.442,7.53-8.2,9.9a58.688,58.688,0,0,0,18.016-4.563c.209-1.926-1.973-4.115-2.567-5.817-1.082-3.1-2.081-6.139-3.018-9.2-.76-2.242-1.355-4.545-1.957-6.817-.14-.528-.248-1.05-.367-1.574-.077-.325-.158-.648-.229-.977l-.005-.019-.023-.12a53.428,53.428,0,0,1-1.182-13.709c.073-1.568.34-3.115.431-4.675a48.786,48.786,0,0,1,.942-7.361q.19-6.442.55-12.9c-.05-.322-.1-.644-.155-.973a12.953,12.953,0,0,1-1.026-1.554l-.023-.043,0-.005c-.221-.39-.43-.787-.615-1.2-.026-.059-.047-.123-.071-.181l0-.007c-.2-.458-.376-.927-.53-1.409a.382.382,0,0,0-.015-.046c0-.008,0-.019-.008-.03q-.245-.774-.422-1.587c-.323,4.8-.671,8.882-1.031,12.38,2.274,4.405-.03,13.644-.417,17.078-.531,4.733.461,8.045,1.229,12.658a7.835,7.835,0,0,1-.266,3.524C293.142,207.034,291.385,209.821,290.012,213.01Z" transform="translate(-223.227 -50.656)" fill="#41a004" opacity="0.65"/>
          <path id="Trazado_82423" data-name="Trazado 82423" d="M283.279,234.078c-3.218-.919-6.376-1.242-9.621-1.862a23.9,23.9,0,0,1-4.826-1.56c-1.347-.566-4.3-.762-4.5-2.553,2.416-.07,5.1,1.069,7.634,1.158,4.078.147,8.159.023,12.232-.189,3.323-.173,9.067-.009,11.078-3.406a4.019,4.019,0,0,0-1.208-.016c-2.143-.1-4.547.876-6.681,1.126-2.7.314-5.654,1.068-8.306.594-2.452-.437-4.988-.948-7.454-1.434-2.114-.417-5.507-.391-6.992-2,1.577-.092,3.49.2,4.483-1.262-1.058,1.554-9.242-4.854-9.963-5.819-3.324-4.442-.065-7.711,4.548-8.646-5.152-.232-7.228-4.651-5.76-5.554,2.519-1.556-2.127-2.258,0-15.146.584-3.536.712-7.169-1.185-10.367-1.481-2.5-3.37-4.683-4.931-7.126a19.979,19.979,0,0,1-2.18-4.288,15.679,15.679,0,0,0,.315,1.766c.059.253.137.492.208.737.1.333.189.666.3.984.084.243.177.477.268.712.125.318.253.635.392.944.089.2.179.4.274.6q.277.58.572,1.151l.129.252a47.933,47.933,0,0,1,3.149,6.426c.592,1.672.813,5.109.848,9.021.042,2.548.008,5.176-.055,7.386,0,.047,0,.1,0,.143-.011.369-.023.72-.035,1.061-.005.147-.011.294-.016.434-.007.181-.013.354-.022.526-.011.27-.024.527-.035.767-.005.1-.011.186-.016.279-.013.27-.028.522-.043.744l-.008.1c-.016.244-.032.462-.049.636,0,.028,0,.054-.005.082-.02.429-.039.852-.059,1.255,0,.047-.023.1-.028.144-.112,1.878-.144,3.769-.24,5.644q-.042.874-.112,1.739c-.015.174-.035.346-.053.52-.071.747-.159,1.49-.288,2.224-.507,2.879-.81,6.1-1.847,8.848-.909,2.406-2.62,4.481-3.358,6.993,3.71.241,7.967,1.957,11.225,3.652,3.783,1.968,8.882,2.284,13.011,2.7a86.419,86.419,0,0,0,10.266.232C283.971,234.3,283.618,234.174,283.279,234.078Z" transform="translate(-236.037 -47.933)" fill="#75bf00"/>
          <path id="Trazado_82424" data-name="Trazado 82424" d="M297.388,156.52c.193-1.724.464-3.44.8-5.141.371-1.87,2-5.431,1.159-7.037-.9-1.719-4.982-3.563-6.635-4.531a31.554,31.554,0,0,0-7.277-3.258c-1.789-.507-3.615-1.093-5.477-1.553-3.982,1.254-5.145,5.28-.2,6.677a29.464,29.464,0,0,1,4.773,1.4c6.367,3.038,10.1,8.642,12.648,14.994C297.23,157.625,297.3,157.1,297.388,156.52Z" transform="translate(-226.694 -58.627)" fill="#75bf00"/>
          <path id="Trazado_82425" data-name="Trazado 82425" d="M260.748,141.071c-.3.29-.592.6-.89.954a21.647,21.647,0,0,0-2.99,4.8c-1.217,2.592-2.762,5.122-3.862,7.809a7.9,7.9,0,0,0-.816,3.948c.164,1.143.852,2.383.88,3.507a3.934,3.934,0,0,1-.36,1.531c1.123-.464,3.166-4.955,3.392-5.645,1.243-3.823,1.469-7.874,3.044-11.613a31.849,31.849,0,0,1,3.015-5.95C261.71,140.613,261.226,140.843,260.748,141.071Z" transform="translate(-235.166 -56.744)" fill="#75bf00"/>
          <path id="Trazado_82426" data-name="Trazado 82426" d="M259.791,142.225a18.138,18.138,0,0,0-1.17,1.573c-.2.39-.391.782-.561,1.178-1.534,3.587-1.854,7.163-2.743,10.874a33.653,33.653,0,0,1-1.037,3.636c-.294.817-.984,1.786-1.3,2.653,0,.05.022.1.023.15a5.133,5.133,0,0,1-.66,2.2c1.325-2.072,2.932-3.979,3.692-6.315,1.212-3.723,1.971-7.639,2.847-11.431.6-2.614,2.4-4.6,3.582-6.906A12.686,12.686,0,0,0,259.791,142.225Z" transform="translate(-235.098 -56.944)" fill="#41a004"/>
          <path id="Trazado_82427" data-name="Trazado 82427" d="M287.556,171.7c-3.238,2.417-5.058,2.936-11.241,4.494,3.168,1.879,10.234-1.068,12.747-3.247,2.891-2.5,4.574-7.376,4.939-11.109C292.269,164.844,290.357,169.609,287.556,171.7Z" transform="translate(-226.756 -49.287)" fill="#75bf00"/>
          <path id="Trazado_82428" data-name="Trazado 82428" d="M268.165,128c-.077-.252-.151-.5-.235-.762v.736C268.005,127.982,268.086,127.989,268.165,128Z" transform="translate(-229.674 -61.329)" fill="#fcb17e"/>
          <path id="Trazado_82429" data-name="Trazado 82429" d="M265.828,140.267a3.057,3.057,0,0,0,.02.332c.117,1.072.247,2.15.348,3.223a13.864,13.864,0,0,0,1.562,5.826c.945,1.442,3.086.979,4.533.731,6.531-1.128,11.891-5.136,15.977-10.141.022-.026-2.246-4.448-2.344-5.036-.221-1.328,1.082-4.637.239-5.7-.659-.829-2.56.69-3.175.993a18.112,18.112,0,0,1-5.666,1.333c-1.685.218-3.6-.457-5.261-.8a19.712,19.712,0,0,1-3.049-.518,8.791,8.791,0,0,1-2.207-1.421,19.928,19.928,0,0,0,.558,3.17,20.753,20.753,0,0,1,.28,4.311,3.537,3.537,0,0,1-.751,2.008C266.3,139.23,265.831,139.42,265.828,140.267Z" transform="translate(-230.406 -60.684)" fill="#eda06b"/>
          <path id="Trazado_82430" data-name="Trazado 82430" d="M253.031,129.821a23.2,23.2,0,0,0,4.678,12.57,55.276,55.276,0,0,0,6.81,6.956c6.949,5.911,17.895,4.3,25.733.906a25.5,25.5,0,0,0,12.017-11.306c4.184-7.339,5.964-16.342,7.46-23.407,1.438-6.828-1.5-14.077-1.43-18.64-5.7-2.257-11.214,2.763-16.548-1.658-4.5-3.727-7.565-9.038-13.8-10.156-3.292-.592-6.256.421-9.251,1.6-13.44,5.275-19.777,14.773-14.514,29.049a10.009,10.009,0,0,1,.3,7.126A15.645,15.645,0,0,0,253.031,129.821Z" transform="translate(-235.1 -76.058)" fill="#ffbc73"/>
          <path id="Trazado_82431" data-name="Trazado 82431" d="M307.985,96.7c-1.421-3.506-3.565-1.313-7.591-1.641-4.942-.4-9.551-5.036-14.32-6.708a40.7,40.7,0,0,0-16.7-2.329c-15.63,1.308-20.144,15.878-15.172,29.37a10.009,10.009,0,0,1,.3,7.126,19.63,19.63,0,0,0-1.355,4.655c.067-.2.128-.4.206-.586.7-1.7,1.836-3.342,2.693-5.025,1.246-2.447-1.162-7.192.035-10.37a24.347,24.347,0,0,1,6.717-9.123c1.468-1.3,3.578-3.374,5.3-4.238,2.988-1.5,3.548-.484,6.278,1.236,9.114,5.743,21.479,7.975,25.337,19.514,2.111,6.315,4.175,15.745,1.3,22.067.444-.665.87-1.341,1.267-2.04,4.184-7.339,5.964-16.342,7.46-23.407,1.113-5.263.054-12.178-1.375-17.337A10.736,10.736,0,0,0,307.985,96.7Z" transform="translate(-235.12 -75.715)" fill="#efa452"/>
          <path id="Trazado_82432" data-name="Trazado 82432" d="M257.18,105.9l.086.049c.613-.659,2.839-.736,4.035-.776,1.969-.077,1.8-.315,2.684-1.308a36.252,36.252,0,0,0-4.528.009C258.513,104.054,256.251,105.509,257.18,105.9Z" transform="translate(-233.492 -69.487)" fill="#7a471e"/>
          <path id="Trazado_82433" data-name="Trazado 82433" d="M277.752,104.592c.884,1.006.7,1.24,2.786,1.353,1.274.059,3.638.174,4.257.845l.094-.049c1.011-.372-1.317-1.863-2.313-2.064A41.741,41.741,0,0,0,277.752,104.592Z" transform="translate(-226.256 -69.219)" fill="#7a471e"/>
          <g id="Grupo_33714" data-name="Grupo 33714" transform="translate(51.299 37.427)">
            <path id="Trazado_82434" data-name="Trazado 82434" d="M279.665,116.042c5.237,2.552,7.738-7.5,2.129-9.491C277.028,104.86,276.346,114.389,279.665,116.042Z" transform="translate(-277.606 -106.024)" fill="#f9a458"/>
            <g id="Grupo_33713" data-name="Grupo 33713" transform="translate(1.513 2.347)">
              <path id="Trazado_82435" data-name="Trazado 82435" d="M280.2,108.151c-2.17,1.345-1.58,4.674-.557,5.8a4.781,4.781,0,0,0,2.278.128c.539-.089,1.337-.367,1.539-1.041C284.979,110.165,282.343,106.818,280.2,108.151Z" transform="translate(-278.728 -107.849)" fill="#020202"/>
              <path id="Trazado_82436" data-name="Trazado 82436" d="M279.886,110.441c.771.356,1.033-.484.326-.91C279.588,109.4,279.27,110.151,279.886,110.441Z" transform="translate(-278.441 -107.269)" fill="#fff"/>
            </g>
            <path id="Trazado_82437" data-name="Trazado 82437" d="M284.546,113.507c1.552-1.928.011-5.308-1.75-6.652-2.05-1.562-5.365-.634-4.47,2.425,2.04-4.69,8.67.439,5.91,3.9Z" transform="translate(-277.407 -106.108)" fill="#b56f2a"/>
            <path id="Trazado_82438" data-name="Trazado 82438" d="M278.762,114.02c.74,1.256,2.161.793,3.224.417,1.378-.479,1.925-.952,2.06-2.479l-.075-.185C283.293,114.073,280.753,114.051,278.762,114.02Z" transform="translate(-277.203 -104.137)" fill="#b56f2a"/>
          </g>
          <g id="Grupo_33716" data-name="Grupo 33716" transform="translate(21.822 36.854)">
            <path id="Trazado_82439" data-name="Trazado 82439" d="M259.3,106.049c-5.66,1.825-3.266,12.729,1.848,9.551l.59.137C264.272,114.029,264.117,104.495,259.3,106.049Z" transform="translate(-255.635 -105.616)" fill="#f9a458"/>
            <g id="Grupo_33715" data-name="Grupo 33715" transform="translate(1.406 2.763)">
              <path id="Trazado_82440" data-name="Trazado 82440" d="M257.178,112.858c.181.681.969.981,1.51,1.084a4.654,4.654,0,0,0,2.285-.055c1.049-1.1,1.74-4.411-.391-5.822C258.483,106.672,255.75,109.942,257.178,112.858Z" transform="translate(-256.782 -107.733)" fill="#020202"/>
              <path id="Trazado_82441" data-name="Trazado 82441" d="M258.166,110.326c.626-.272.328-1.029-.3-.913C257.144,109.808,257.386,110.657,258.166,110.326Z" transform="translate(-256.554 -107.153)" fill="#fff"/>
            </g>
            <path id="Trazado_82442" data-name="Trazado 82442" d="M262.664,108.921c.984-3.024-2.3-4.057-4.393-2.553-1.8,1.29-3.444,4.622-1.948,6.593l.319-.311C253.988,109.1,260.763,104.185,262.664,108.921Z" transform="translate(-255.739 -105.684)" fill="#b56f2a"/>
            <path id="Trazado_82443" data-name="Trazado 82443" d="M256.379,111.588c.089,1.531.623,2.019,1.988,2.549,1.047.4,2.455.9,3.237-.329-1.994-.027-4.537-.086-5.147-2.4Z" transform="translate(-255.516 -103.692)" fill="#b56f2a"/>
          </g>
          <path id="Trazado_82444" data-name="Trazado 82444" d="M293.349,113.814a5.774,5.774,0,0,0-1.308,1.882c-.5,1.091-.832,2.3-1.285,3.326-.732,1.641-2.453,5.722.375,6.515,2.445.687,4.6-3.086,5.389-4.819.749-1.634,4.187-6,2.332-7.812C297.544,111.626,294.538,112.746,293.349,113.814Z" transform="translate(-222.145 -66.515)" fill="#efa452"/>
          <path id="Trazado_82445" data-name="Trazado 82445" d="M260.817,125.213c.135.434.438.429.5-.057a1.77,1.77,0,0,1,.245-.953c.268-.3.8-.266,1-.661C261.71,122.935,260.576,124.424,260.817,125.213Z" transform="translate(-232.161 -62.664)" fill="#b56f2a"/>
          <path id="Trazado_82446" data-name="Trazado 82446" d="M273.46,123.835c.35.278.818.028,1.186.189.291.132.461.5.619.763.257.415.534.293.474-.154C275.637,123.813,273.984,122.926,273.46,123.835Z" transform="translate(-227.75 -62.646)" fill="#b56f2a"/>
          <g id="Grupo_33717" data-name="Grupo 33717" transform="translate(32.134 49.116)">
            <path id="Trazado_82447" data-name="Trazado 82447" d="M263.63,118c.487,2.46,2.669,2.922,5.011,2.5a8.3,8.3,0,0,0,2.735-.768,3.859,3.859,0,0,0,1.236-2.82c.005-1.7-3.823-2.15-5.172-1.677l.286-.137C265.761,115.233,262.964,114.658,263.63,118Z" transform="translate(-263.339 -114.686)" fill="#ffce94"/>
            <path id="Trazado_82448" data-name="Trazado 82448" d="M263.981,115.875a18.335,18.335,0,0,1,7.227-.341c-2.073-.708-5.542-1.4-7.378.34Z" transform="translate(-263.234 -114.78)" fill="#fce4d0"/>
            <path id="Trazado_82449" data-name="Trazado 82449" d="M268.258,120.977c2.4-.1,5.648-2.172,4.382-4.669.646,4.7-10.421,4.036-8.972-.131C262.372,119.3,265.866,121.085,268.258,120.977Z" transform="translate(-263.388 -114.293)" fill="#b56f2a"/>
          </g>
          <path id="Trazado_82450" data-name="Trazado 82450" d="M261.338,124.074a6.358,6.358,0,0,0,3.716,3,12.811,12.811,0,0,0,4.777.554,18.489,18.489,0,0,0,4.807-.913,19.09,19.09,0,0,0,4.51-2.177,13,13,0,0,1-9.249,4.388,11.059,11.059,0,0,1-5.229-.918A5.629,5.629,0,0,1,261.338,124.074Z" transform="translate(-231.968 -62.43)" fill="#b56f2a"/>
          <path id="Trazado_82451" data-name="Trazado 82451" d="M293.222,108.027c5.618,3.644,9.181,8.44,10.471,17.07,1.5,10.032-1.054,20.347-3.739,29.955.5-1.618,14.215-4.086,16.447-5.078,8.789-3.905,12.664-9.929,13.878-19.236.485-3.729-.271-7.429-.705-10.947-1.353-10.946-7.825-26.736-16.617-33.833s-25.422-10.175-35.659-5.1c-2.6,1.289-3.925,2.43-6.779,2.833-15.37,2.177-22.16,15.064-24.309,29.481-.647,4.339-.206,8.4-.011,12.728.151,3.35-.361,6.449.638,9.776,2.131,7.1,7.809,12.52,13.037,17.459-10.15-9.591-8.215-28.58-3.311-40.055,1.535-3.591,4.576-6.878,7.413-9.475.659-.6,8.576-8.436,7.75-8.833,1.68.809,3.428,3.253,5.209,4.537a39.823,39.823,0,0,0,7.436,4.238A57.873,57.873,0,0,1,293.222,108.027Z" transform="translate(-237.351 -78.344)" fill="#bc7742"/>
          <path id="Trazado_82452" data-name="Trazado 82452" d="M294.524,239.754a48.771,48.771,0,0,1-2.561,14.548c-1.523,4.175-4.4,8.9-3.556,13.523.049.266,3.537-5.182,3.745-5.353,2.417-2,3.111.661,2.544,3.326-.492,2.321-8.341,11.788-1,10.677,4.924-.747,10.111-6.061,11.583-10.714,1.514-4.795-.666-11.083-.152-16.226,1.012-10.129,3.486-20.025,5.036-30.07,1.522-9.859,1.546-19.435,1.546-29.381,0-4.984.439-10.377-.8-15.25-1.7-6.667-8.736-6.229-13.822-3-3.575,2.271-1.426,8.324-.993,12.717a89.059,89.059,0,0,1,.326,12.036Q295.577,218.205,294.524,239.754Z" transform="translate(-222.601 -46.6)" fill="#ffbc73"/>
          <path id="Trazado_82453" data-name="Trazado 82453" d="M293.963,251.842c5.337-12.028,6.073-23.621,6.643-36.656.392-9.018-1.507-18.694.484-27.568,1.5-6.689,5.1-7.209,10.505-8.387a27.486,27.486,0,0,0-.7-4.4c-1.7-6.667-8.736-6.229-13.822-3-3.575,2.271-1.426,8.324-.993,12.717a89.069,89.069,0,0,1,.326,12.036q-.837,21.615-1.89,43.164a48.772,48.772,0,0,1-2.561,14.548c-1.244,3.409-3.386,7.189-3.673,10.974C289.563,260.5,292.245,255.711,293.963,251.842Z" transform="translate(-222.592 -46.6)" fill="#eda06b"/>
          <g id="Grupo_33718" data-name="Grupo 33718" transform="translate(66.896 85.205)">
            <path id="Trazado_82454" data-name="Trazado 82454" d="M294.629,141.757a22,22,0,0,0-2.688,5.172,34.636,34.636,0,0,0-2.1,6.627c-.869,4.443-1.045,9.386.472,13.715,2.428,6.927,2.638,13.094,3.029,20.464,3.822,2.112,13.87,2.112,18.167-1.735-.925-7.371-1.7-14.471-3.76-21.567-2.177-7.5-6.646-17.966-12.968-22.881C294.728,141.619,294.678,141.688,294.629,141.757Z" transform="translate(-289.177 -141.552)" fill="#75bf00"/>
            <path id="Trazado_82455" data-name="Trazado 82455" d="M291.073,157.612a30.907,30.907,0,0,1,2.629-8.856c.209-.462,1.624-3.359,2.848-5.612a19.73,19.73,0,0,0-1.781-1.592c-.051.067-.1.136-.151.2-.16.216-.283.423-.425.634-.7,1.394-1.4,2.8-2.1,4.2-.074.15-.143.311-.214.465a34.91,34.91,0,0,0-2,6.272c-.031.156-.065.314-.094.472-.046.244-.086.493-.127.741a29.794,29.794,0,0,0-.011,10.3l.024.12c.066.329.144.651.226.969.12.453.244.9.4,1.344.39,1.111.771,2.195,1.144,3.268A45.958,45.958,0,0,1,291.073,157.612Z" transform="translate(-289.166 -141.552)" fill="#41a004"/>
          </g>
          <path id="Trazado_82456" data-name="Trazado 82456" d="M252.016,108.824c4.585-6.53,16.38-11.488,14.859-20.979-.307.235-.554.524-.851.748-1.608-1.076-1.4-3.088-.319-4.585-7.29.984-14.4,9.78-17.012,16.041,1.294-3.111,4.913-5.627,7.917-6.569-1,3.2-3.746,6.849-5.334,9.978a19.78,19.78,0,0,1,4.568-4.447C255.721,102.1,253.013,105.748,252.016,108.824Z" transform="translate(-236.369 -76.372)" fill="#d8975b"/>
          <path id="Trazado_82457" data-name="Trazado 82457" d="M277.216,100.375c8.568,6.185,18.034,10.587,22.443,21.134-1.987-4.756-2.664-10.343-4.5-15.242a43.384,43.384,0,0,1,5.132,5.741c.439-4.362-3.207-9.321-3.933-13.588a32.131,32.131,0,0,1,11.318,7.669c-.27-4.856-5.021-9.112-5.4-13.58,1.392.562,2.937,1.941,4.3,2.492.012-6.7-7.209-11.837-13.231-13.268-4.884-1.159-15.7-4.655-19.543-.055,2.092-.061,4.917.365,5.462,2.6-1.5.044-3.051-.112-4.327.526a7.254,7.254,0,0,1,2.492,3.156c-3.374-.791-6.4-1.361-9.889-.21,1.959,1.875,7.454,3.493,7.651,6.51.013.2-7.949-2.114-8.809-2.1,2.932-.032,6.09,4.549,8.234,6.256C275.468,99.088,276.337,99.74,277.216,100.375Z" transform="translate(-230.213 -77.987)" fill="#d8975b"/>
        </g>
        <path id="Trazado_82458" data-name="Trazado 82458" d="M254.522,119.526c1.3,1.816,4.114,1.623,6.111.962,1.917-.634,6.191-3.42,3.5-5.666-1.181-.987-3.9.121-5.268.089-2.406-.058-6.239-.394-4.791,3.743A3.459,3.459,0,0,0,254.522,119.526Z" transform="translate(-234.606 -65.792)" fill="#f29e66"/>
        <path id="Trazado_82459" data-name="Trazado 82459" d="M278.689,121.532c2.766,1.162,9.5-.336,7.706-4.731-.762-1.868-1.318-1.057-3.144-.859-2.49.272-7.3-2.465-9.377-.975C271.109,116.956,277.079,120.857,278.689,121.532Z" transform="translate(-227.856 -65.754)" fill="#f29e66"/>
      </g>
      <g id="Grupo_33735" data-name="Grupo 33735" transform="translate(308.724 73.115)">
        <g id="Grupo_33721" data-name="Grupo 33721" transform="translate(68.551 357.738)">
          <path id="Trazado_82460" data-name="Trazado 82460" d="M385,352.768c-3.766,1.06-5.807,5.45-8.823,7.627-4.427,3.2-10.125,5-15.428,6.224a39.181,39.181,0,0,1-9.371,1.268,15.787,15.787,0,0,1-4.509-.639c-.958-.3-2.555-1.558-3.555-1.458-2.475.256-1.666,2.812-.272,4.273a4.294,4.294,0,0,0,.775.652c6.164,3.924,14.052.9,20.227-1.227,3.355-1.161,6.338-3.142,9.565-4.579,1.14-.511,5.729-3.6,5.837-1.041,3.324-.543,8.4-1.255,9.281-5.068C389.264,356.471,388.307,351.838,385,352.768Z" transform="translate(-341.72 -333.576)" fill="#754525"/>
          <path id="Trazado_82461" data-name="Trazado 82461" d="M364.736,354.1c-5.578,2.416-30.005,13.437-20.642,19.21,8.8,5.42,33.085-6.267,42.606-12.377,4.288-2.749.752-18.8-1.391-22.208l-15.974-.231C371.65,343.45,373.614,350.264,364.736,354.1Z" transform="translate(-341.63 -338.499)" fill="#a5714e"/>
          <path id="Trazado_82462" data-name="Trazado 82462" d="M364.736,354.1c-5.578,2.416-30.005,13.437-20.642,19.21a8.438,8.438,0,0,0,1.308.632c-.061-4.85,5.818-8.9,10.365-10.942,5.776-2.6,11.809-5.2,16.256-10.13,3.754-4.171,5.765-9.119,3.172-14.294l-5.858-.082C371.65,343.45,373.614,350.264,364.736,354.1Z" transform="translate(-341.63 -338.499)" fill="#b27c54"/>
          <path id="Trazado_82463" data-name="Trazado 82463" d="M384.108,349.544c.1,8.444-10.028,12.718-17.361,16.584-6.706,3.528-17.734,6.48-23.936,1.827-.026-.011-.045-.039-.066-.054-1.235,1.98-1.1,3.851,1.349,5.361,8.8,5.42,33.085-6.267,42.606-12.377,4.288-2.749.752-18.8-1.391-22.208l-1.972-.026a2.431,2.431,0,0,1,.677,1.721c.081,3.077.793,6.109.1,9.156Z" transform="translate(-341.629 -338.446)" fill="#8e6342"/>
        </g>
        <g id="Grupo_33722" data-name="Grupo 33722" transform="translate(136.54 357.918)">
          <path id="Trazado_82464" data-name="Trazado 82464" d="M428.073,350.634c-3.807.983-8.9,6.446-11.481,9.278-3.826,4.214-10.172,6.2-15.7,6.971-2.169.3-8.252.209-8.713,3.212-.384,2.536,4.9,4,6.643,4.613a23.314,23.314,0,0,0,9.259,1.361,21.5,21.5,0,0,0,8.515-2.4c4.161-2.147,6.67-10.645,11.423-10.66,1.171,2.4,6.834-3.726,7.19-5.322C436.1,353.655,432.19,349.571,428.073,350.634Z" transform="translate(-392.157 -334.515)" fill="#754525"/>
          <path id="Trazado_82465" data-name="Trazado 82465" d="M394.17,374.272c8.491,6.2,20.014,4.954,25.818-2.7,3.722-4.912,11.12-9.346,13.081-13.307,3.336-6.744-4.749-10.869-6.123-18.644l-14.042-.985c1.372,4.02.647,13.545-4.521,21.208C404.982,364.879,387.817,369.637,394.17,374.272Z" transform="translate(-391.943 -338.632)" fill="#a5714e"/>
          <path id="Trazado_82466" data-name="Trazado 82466" d="M394.17,374.272c.166.119.334.23.5.344,2.437-3.645,7.515-6.333,11.318-8.314,9.9-5.168,13.37-16.793,11.992-27.31l-5.079-.359c1.372,4.02.647,13.545-4.521,21.208C404.982,364.879,387.817,369.637,394.17,374.272Z" transform="translate(-391.943 -338.632)" fill="#b27c54"/>
          <path id="Trazado_82467" data-name="Trazado 82467" d="M420.513,363.759c-6.888,5.679-17.524,12.148-25.3,4.86-2.426,1.84-3.5,3.652-1.039,5.449,8.491,6.2,20.014,4.954,25.818-2.7,3.722-4.912,11.12-9.346,13.081-13.307,3.336-6.744-4.749-10.869-6.123-18.644l-2.747-.191c.348,4.552,2.89,8.7,3.083,13.324C427.484,357.383,423.994,360.893,420.513,363.759Z" transform="translate(-391.943 -338.427)" fill="#8e6342"/>
        </g>
        <path id="Trazado_82468" data-name="Trazado 82468" d="M415.091,135.429a16.646,16.646,0,0,0,.605,1.971c.435,1.271.983,2.991,2.586,2.854,1.81-.154,3.251-2.282,3.944-3.8a3.285,3.285,0,0,0-1.437-4.579c-1.19-.679-3.8-2.007-5.074-.96-.953.785-.418,2.041-.516,3.071A3.94,3.94,0,0,0,415.091,135.429Z" transform="translate(-247.651 -53.136)" fill="#378caa"/>
        <path id="Trazado_82469" data-name="Trazado 82469" d="M389.846,144.713c-4.067,1.731-8.13,3.677-12.2,5.469-1.545.675-3.09,1.332-4.638,1.941-12.106,4.781-24.616,6.008-37.123,1.143-4.044-1.577-11.767-7.615-18.127-9.036-3.1-.7-6.209,3.479-6.922,6.515-1.481,6.3-.3,11.668,8.634,17.027,9.512,5.7,24.442,10.8,39.292,9.669,19-1.438,34.632-8.664,43.553-13.332,9.6-5.024,15.083-10.386,11.67-21.04C409.82,130.07,397.326,141.527,389.846,144.713Z" transform="translate(-284.104 -50.881)" fill="#6fd8d8"/>
        <path id="Trazado_82470" data-name="Trazado 82470" d="M385.8,163.431c-1.042-.542-.334-2.1-1.9-2.178s-1.386,1.512-1.9,2.491c-.493.941-1.324,2.068-2.538,1.459-.984-.5-.926-2.3-1.624-3.022-2.885-2.97-4.613,2.514-7.4,2.263-1.707-.154-2.157-1.74-3.72-2.3-3.158-1.12-5.765.474-7.514,2.894-1.208,1.672-1.4,3.52-3.514,3.378-1.983-.132-3.718-1.623-5.763-.752-1.463.625-1.309,1.454-3.226.983a20.369,20.369,0,0,1-5.118-1.9c-3.993-2.112-8.618-2.4-12.735-4.179-2.708-1.169-2.842-2.009-3.715-4.663A27.894,27.894,0,0,0,319.3,147.9c-3.672-3.881-7.287-2.168-8.467,2.85-1.481,6.3-.3,11.668,8.634,17.027,9.512,5.7,24.442,10.8,39.292,9.669,19-1.438,34.632-8.664,43.553-13.332,9.6-5.024,15.083-10.386,11.67-21.04-2.634-8.224-8.6-6.656-14.525-3.591-1.646,2.972-1.388,6.7-3.042,9.689-1.809,3.273-6.057,2.288-7.488,5.988a9.907,9.907,0,0,0-.764,3.406c.04,1.123.944,2.273.528,3.408C388.354,162.908,386.74,163.916,385.8,163.431Z" transform="translate(-284.104 -50.881)" fill="#68b0c1"/>
        <path id="Trazado_82471" data-name="Trazado 82471" d="M345.87,174.188c-2.393-1.027-4.7-2.257-7.06-3.369-4.377-2.062-9.014-4.056-13.925-4.208a5.454,5.454,0,0,1-4.533-1.925c-.709-.931-.853-2.046-2.141-1.987-1.105.055-2.92,1.7-4.2,1.971a20.706,20.706,0,0,0,4.167,3.083c9.511,5.7,24.442,10.8,39.292,9.669,19-1.438,34.632-8.664,43.553-13.332,9.6-5.024,15.083-10.386,11.67-21.04-1.487-4.644-4.865-6.953-9.658-5.613-5.941,1.662-4.1,8.654-5.326,13.209-.527,1.965-2.681,2.846-3.013,4.744-.481,2.771,1.262,5.675-.45,8.417-1.676,2.681-6.2,4.395-9,5.466-4.014,1.531-7.906.069-11.9,1.2-1.464.412-10.031,3.781-7.955.2.317-.546,5.551-4.779,3.269-4.965-2.518-.2-3.358,4.915-6.391,4.718-.243-1.27,1.794-3.276,1-4.368-1.064-1.467-2.522.418-2.978,1.2-1.056,1.836-.84,5.335-2.677,6.647-1.7,1.213-4.457-1.37-5.982-2.212-.437-.243-4.463-2.25-4.276-.709.137,1.117,1.941,1.046,2.265,2.164C350.279,175.469,346.817,174.6,345.87,174.188Z" transform="translate(-282.812 -50.862)" fill="#4897af"/>
        <path id="Trazado_82472" data-name="Trazado 82472" d="M313.931,143.385a10.845,10.845,0,0,0-3.1,5.14c-1.248,5.3-.542,9.943,5.013,14.469,4.235-.625,7.938-2.693,6.656-8.01A19.792,19.792,0,0,0,313.931,143.385Z" transform="translate(-284.101 -48.661)" fill="#498791"/>
        <path id="Trazado_82473" data-name="Trazado 82473" d="M313.989,146.742c-1.688.934-1.148,2.922-2.389,4.062-1.325,1.223-4.164.605-5.748.443-1.483-.151-4.4-.818-5.544.34-1.645,1.654.209,3.766,1.744,4.651a11.772,11.772,0,0,0,4.68,1.122c.36.04.72.086,1.077.144,3.753.6,7.534,2.851,11.434,2.191,2.118-.355,2.8-1.626,3.028-3.615.321-2.747.551-6.359-1.858-8.341C318.989,146.564,315.683,145.808,313.989,146.742Z" transform="translate(-287.804 -47.638)" fill="#ffbc73"/>
        <g id="Grupo_33723" data-name="Grupo 33723" transform="translate(0 96.896)">
          <path id="Trazado_82474" data-name="Trazado 82474" d="M361.214,234.6c3.348-9.211,6.515-17.91,6.524-27.162.015-13.365-14.281-20.084-25.768-25.485-4.409-2.071-8.577-4.028-11.4-6.055-15.982-11.477-19.775-19.325-22.04-24.011-1.418-2.931-2.758-5.7-6.315-6.679a5.125,5.125,0,0,0-4.741.952c-3.811,3.1-3.455,11.108-2.29,28.916.825,12.6,1.76,26.889.075,37.186-.464,2.846-.983,5.563-1.491,8.24-2.658,14.023-5.172,27.262.593,51.084l6.9-1.669c-5.405-22.331-3.138-34.266-.518-48.09.52-2.735,1.047-5.511,1.521-8.416,1.817-11.1.853-25.821,0-38.8-.457-7-1.049-16.049-.628-20.634.151.3.31.625.493,1,2.39,4.95,6.842,14.163,24.292,26.689,3.354,2.406,7.8,4.5,12.518,6.714,10.172,4.78,21.7,10.2,21.688,19.049-.008,8-2.829,15.761-6.094,24.743-1.775,4.88-3.609,9.923-5.13,15.425a88.959,88.959,0,0,0-1.491,41.42c.461,2.174.952,4.254,1.428,6.286,2.281,9.711,4.084,17.381,1.481,27.8-.53,2.123-1.105,4.272-1.684,6.442-3.11,11.656-6.326,23.7-4.512,36.283,1.434,9.977,6.733,19.394,11.857,28.5,1.587,2.816,3.145,5.589,4.537,8.3l6.319-3.243c-1.433-2.79-3.036-5.644-4.665-8.544-4.806-8.536-9.77-17.364-11.016-26.023-1.608-11.141,1.417-22.477,4.343-33.441.588-2.208,1.171-4.394,1.711-6.551,3.021-12.09.845-21.347-1.457-31.143-.466-1.986-.945-4.018-1.4-6.139a81.707,81.707,0,0,1,1.39-38.053C357.7,244.26,359.486,239.348,361.214,234.6Z" transform="translate(-290.866 -144.996)" fill="#ffc74a"/>
        </g>
        <g id="Grupo_33724" data-name="Grupo 33724" transform="translate(0.019 99.529)">
          <path id="Trazado_82475" data-name="Trazado 82475" d="M302.263,212.731c1.817-11.1.853-25.821,0-38.8-.443-6.814-1.01-15.526-.65-20.213-.472-1.286-.96-2.572-1.4-3.869-1.049-1.623-2.37-2.932-4.021-2.9a10.642,10.642,0,0,0-1.3,3.669c.654,10.5,4.439,20.176,6.078,30.481a84.06,84.06,0,0,1,.244,23.316c-.929,7.775-2.249,15.255-5.368,22.491-1.535,3.568-3.191,7.077-4.713,10.625a90.12,90.12,0,0,0-.089,12.128c3.518,1.086,6.047,3.7,7.821,7.139-2.056-14.82-.209-24.648,1.879-35.653C301.262,218.412,301.789,215.636,302.263,212.731Z" transform="translate(-290.88 -146.95)" fill="#ef7507"/>
          <path id="Trazado_82476" data-name="Trazado 82476" d="M351.016,209.681a51.947,51.947,0,0,0,2.015-13.608c.008-8.261-5.449-13.977-12.33-18.418-2.556,1.237-5.16,2.343-7.574,3.764,7,3.82,12.809,8.368,12.8,14.646a36.692,36.692,0,0,1-.309,4.45A11.957,11.957,0,0,1,351.016,209.681Z" transform="translate(-276.178 -136.264)" fill="#ef7507"/>
        </g>
        <path id="Trazado_82477" data-name="Trazado 82477" d="M422.75,391.239c.979,5.457,8.341,5.337,13.569,4.8,4.218-.434,13.252-.345,16-4.341,3.121-4.529-1.967-16.125-2.961-21.231-3.188-16.389-8.878-31.983-14.594-47.609-4.543-12.408-3.753-23.815-2.46-36.654,1.033-10.194,2.668-19.99,4.114-30.234,2.35-16.68,6.1-33.49-.829-49.673-2.294-5.357-7.349-5.1-12.871-6.154-10.036-1.921-20.539-4.6-30.768-5.166-3.917-.216-10.9-2.176-13.992.588-2.53,2.261-2.606,8.135-3.625,11.009-3.118,8.781-8.758,16.77-12.17,25.392-7.066,17.86-14.1,33.935-17.156,52.739-1.409,8.677-3.479,19.5-.762,28.3,2.753,8.909,5.152,17.273,7.775,26.3,2.661,9.16,6.919,17.87,9.316,27.095,2.235,8.6,1.719,17.513,3.218,26.223.72,4.184,28.772,2.341,29.079.855,3.331-16.117-5.55-31.574-10.8-46.211-4.889-13.624-11.486-29.7-11.737-44.338-.124-7.262,3.322-13.21,5.279-20.054,2.258-7.879,5.516-15.421,8.738-22.94.83-1.941,2.731-9.44,4.637-10.223,2.154-.883,8.162,3.181,10.284,4.006,1.256,21.561-.142,43.487,5.221,64.621a129.042,129.042,0,0,0,5.144,15.432c2.614,6.631,4.559,13.651,6.721,20.476,1.558,4.918,2.847,10.149,4.106,15.143C423.074,376.71,421.461,384.08,422.75,391.239Z" transform="translate(-272.751 -31.011)" fill="#15579f"/>
        <path id="Trazado_82478" data-name="Trazado 82478" d="M402.067,346.393c6.818-2.08,13.444-13.715,13.444-18.031-6.594,9-12.013,8.607-11.257,7.438,7.383-11.42,8.522-18.495,8.522-24.5-2.848,3.266-5.849,17.54-11.7,17.775C402.426,334.862,401.735,340.679,402.067,346.393Z" transform="translate(-252.512 9.773)" fill="#012128" opacity="0.38"/>
        <path id="Trazado_82479" data-name="Trazado 82479" d="M382.279,246.424c.83-1.941,2.731-9.44,4.637-10.223,2.154-.883,8.162,3.181,10.284,4.006.027.444.034.89.061,1.336a33.453,33.453,0,0,1,2.8-4.68c-3.671-2.747-8.541-5.539-12.414-2.824-3.4,2.385-5.6,5.969-7.581,9.544-4.788,8.643-9.39,17.7-13.345,26.758-1,2.279-1.433,6.771-5.082,6.12a9.347,9.347,0,0,1-5.055-2.709,17.277,17.277,0,0,0,3.932,6.906,1.7,1.7,0,0,1,0,2.362c-2.67,2.784-6.11,4.142-9.455,5.8a51.678,51.678,0,0,0,8.73.952,1.684,1.684,0,0,1,1.444,2.51c-2.377,3.41-6.116,6.3-7.507,10.339,3.254-.689,6.3-1.8,9.722-1.88a1.668,1.668,0,0,1,1.67,1.67c-1.436,11.969,4.293,24.956,7.711,36.12,1.658,5.423,6.638,11.1,6.917,16.9.244,5.078-2.309,8.364,1.8,12.53a1.678,1.678,0,0,1,0,2.36c-4.057,3.365-6.811,7.8-10.729,11.276,8.461.4,19.793-.681,19.988-1.623,3.331-16.117-5.55-31.574-10.8-46.211-4.889-13.624-11.486-29.7-11.737-44.338-.124-7.262,3.322-13.21,5.279-20.054C375.8,261.486,379.057,253.944,382.279,246.424Z" transform="translate(-269.918 -17.499)" fill="#012128" opacity="0.38"/>
        <path id="Trazado_82480" data-name="Trazado 82480" d="M416.879,378.764a38.334,38.334,0,0,1-10.047,6c2.793.933,6.456.8,9.447.492,4.218-.434,13.252-.345,16-4.341,3.121-4.529-1.967-16.125-2.962-21.231-3.188-16.389-8.878-31.983-14.594-47.609-4.543-12.408-3.753-23.815-2.46-36.653,1.033-10.194,2.668-19.99,4.114-30.234.942-6.693,2.1-13.4,2.716-20.088-5.852,1.879-11.693,3.788-17.7,5.128,3.131.4,6.346,1.38,7.473,4.248,2.07,5.276-1.3,11.84-.82,17.267.864,9.836-1.142,21.112-2.092,30.995-.8,8.314-4.053,16.075-5.454,24.248.954-.669,1.925-1.313,2.939-1.922a1.694,1.694,0,0,1,2.515,1.444c.515,4.107-.491,7.539-1.738,11.128,1.537-1.034,3.069-2.072,4.707-2.971a1.7,1.7,0,0,1,2.453,1c2.17,5.565-1.263,8.932-3.638,13.48,13.569,1.308,10.157,18.4,13.657,28.719C424.086,365.771,423.837,373.125,416.879,378.764Z" transform="translate(-252.711 -20.225)" fill="#012128" opacity="0.4"/>
        <path id="Trazado_82481" data-name="Trazado 82481" d="M356.964,327.194c1.379,5.306,1.711,10.733,2.114,16.157,5.174-11.368,3.64-24.836-.383-36.579-1.043,5.21-1.921,10.454-3.2,15.611C356.011,323.982,356.543,325.575,356.964,327.194Z" transform="translate(-268.376 8.198)" fill="#012128" opacity="0.3"/>
        <path id="Trazado_82482" data-name="Trazado 82482" d="M456.4,194.281c4.368-11.029,9.2-22.1,6.443-34.161-2.033-8.9-12.562-18.092-20.728-21.8-5.732-2.6-11.161-1.654-17.068-2.408-4.308-.546-7.742-3-12.357-2.486-6.751.756-15.181,1.007-21.251,4.191-7.159,3.745-4.953,9.556-5.042,16.466a130.883,130.883,0,0,1-2.3,22.486,143.232,143.232,0,0,1-14.468,41.137c-3.331,6.2-7,12.775-9.449,19.371-2.062,5.565-5.721,11.637-6.569,17.562-.279,1.961,24.919,10.315,27.459,11.68-.848-.456,13.144-27.629,13.489-30.462.236,10.566,3.282,21.088,3.584,31.479a31.786,31.786,0,0,0,7.407-.439c12.375-1.565,36.051-5.9,38.833-6.005-1.039.038-3.975-14.829-4.056-16.525a81.119,81.119,0,0,1,.53-15.545C442.641,216.923,451.872,205.712,456.4,194.281Z" transform="translate(-269.032 -52.151)" fill="#6fd8d8"/>
        <path id="Trazado_82483" data-name="Trazado 82483" d="M452.639,194.281c4.368-11.029,9.2-22.1,6.443-34.161-2.033-8.9-12.562-18.092-20.728-21.8-5.732-2.6-11.161-1.654-17.068-2.408-4.308-.546-7.742-3-12.357-2.486-6.751.756-15.181,1.007-21.251,4.191-5.555,2.906-5.469,7.059-5.2,12a12.32,12.32,0,0,1,5.552-2.718c4.582-.813,6.829.972,10.284,3.757,6.121,4.932,15.081-.453,21.962,1.858,6.611,2.216,8.7,9.065,6.749,15.493-2.021,6.662-6.094,8.537-11.923,10.079-2.817.747-4.816,3.051-7.809,3.654-3.347.677-5.493-1.2-8.693-1.375-4.621-.253-5.285,3.72-8.63,5.529-1.378.745-11.918.724-11.5-.96a142.694,142.694,0,0,1-12.608,32.767c-.479.89-.973,1.808-1.461,2.716,21.669,4.669,12.079,26.835,3.493,42.291,4.579,1.7,8.49,3.113,9.409,3.606-.751-.4,10.1-21.7,12.856-28.564C393.63,225.1,396,219.348,403.28,217.073c3.234-1.012,12.582-4.949,17.33-3.087,5.395.286,5.311,7.179,5,12.034-.775,12.287-2.377,25.165,1.007,37.021,7-1.155,12.722-2.106,14-2.151-1.039.038-3.975-14.829-4.056-16.525a81.121,81.121,0,0,1,.53-15.545C438.882,216.923,448.114,205.712,452.639,194.281Z" transform="translate(-265.274 -52.151)" fill="#85bdcf"/>
        <path id="Trazado_82484" data-name="Trazado 82484" d="M390.746,211.908q1.051-7.008,2.359-13.972c.007-.043.032-.063.042-.1.159-3.122.388-6.234.8-9.331.491-3.622-1.632-4.819-2.354-.806q-.441,2.475-.9,4.957c-.79,4.2-1.578,8.407-2.563,12.566-3.508,14.84-8.614,29.028-18.592,40.722,2.994,1.108,5.3,1.975,5.977,2.339-.751-.4,10.1-21.7,12.856-28.564C389.2,216.723,389.965,214.161,390.746,211.908Z" transform="translate(-263.486 -34.113)" fill="#67b4c1"/>
        <path id="Trazado_82485" data-name="Trazado 82485" d="M435.576,185.214c3.342-8.436,6.919-16.9,7.2-25.8-.613.786-1.266,1.542-1.932,2.29-3.2,8.688-24.226,20.611-19.534,26.239a1.688,1.688,0,0,1,0,2.36c-1.533,1.313-2.983,2.7-4.448,4.079a34.089,34.089,0,0,0,3.711.927,1.675,1.675,0,0,1,1,2.453c-1.8,2.522-3.66,4.912-5.265,7.512h1.039a1.69,1.69,0,0,1,1.61,2.114c-.9,3.932-3.855,7.206-4.587,11.1a82.51,82.51,0,0,0-.922,15.739c.044,6.489,1.872,12.492,3.619,18.515,3.312-.532,5.717-.894,6.492-.919-1.039.038-3.975-14.829-4.056-16.525a81.121,81.121,0,0,1,.53-15.545C421.82,207.856,431.051,196.645,435.576,185.214Z" transform="translate(-248.211 -43.084)" fill="#67b4c1"/>
        <path id="Trazado_82486" data-name="Trazado 82486" d="M402.991,133.425c-5.865.659-12.995.94-18.747,3.086a1.555,1.555,0,0,1-.2.426,12.15,12.15,0,0,0-2.575,6.842c4.626-1.6,9.309-2.54,12.807,2.124.512.682.962,1.392,1.411,2.106,1.593,2.526,5.164,3.5,7.914,3.35,4.266-.235,8.033-1.093,12.249.353,5.926,2.03,9.862,7.584,15.826,9.253,2.017-2.364,3.715-5.691,6.159-7.587,1.271-.985,7.418-6,8.916-4.345a46.528,46.528,0,0,0-14.335-10.715c-5.732-2.6-11.161-1.654-17.068-2.408C411.04,135.365,407.607,132.909,402.991,133.425Z" transform="translate(-259.336 -52.151)" fill="#4696af"/>
        <path id="Trazado_82487" data-name="Trazado 82487" d="M403.049,130.549c-2.728-4.8-8.532-4.823-12.623-1.775-3.676,2.74-9.21,13.039-9.254,17.709,1.632-2.139,6.185-7.132,9.1-6.124,4.38,1.518,4.854,9.382,9.733,11.722-.989-.474-2.153-10.319-2.145-11.649C397.889,136.41,399.9,133.233,403.049,130.549Z" transform="translate(-259.44 -54.474)" fill="#85bdcf"/>
        <path id="Trazado_82488" data-name="Trazado 82488" d="M400.726,130.546c-2.428-4.265-7.281-4.748-11.206-2.65a8.546,8.546,0,0,1,.39,1.592c1.1,3.192-.216,6.26-1.712,9.274-.119.526-.271,1.047-.35,1.585.031.008.069,0,.1.008,4.38,1.518,4.854,9.382,9.733,11.722-.989-.474-2.153-10.319-2.145-11.649C395.566,136.407,397.573,133.23,400.726,130.546Z" transform="translate(-257.117 -54.471)" fill="#69adbc"/>
        <path id="Trazado_82489" data-name="Trazado 82489" d="M400.294,130.546c-2.428-4.265-7.281-4.748-11.206-2.65.03.086.036.164.061.248.026.046.066.071.089.121.275.612.553,1.229.826,1.848a11.369,11.369,0,0,1,1.589,4.273,15.253,15.253,0,0,1,.717,4.394c-.009,2.3-.22,4.587-.324,6.875,1.324,2.528,2.67,5.209,5.2,6.422-.989-.474-2.153-10.319-2.145-11.649C395.134,136.407,397.141,133.23,400.294,130.546Z" transform="translate(-256.685 -54.471)" fill="#55a4b7"/>
        <path id="Trazado_82490" data-name="Trazado 82490" d="M396.454,127.476c-.078-.256-.155-.516-.24-.778v.754C396.291,127.462,396.376,127.466,396.454,127.476Z" transform="translate(-254.205 -54.468)" fill="#fcb17e"/>
        <path id="Trazado_82491" data-name="Trazado 82491" d="M392.9,96.219c-1.3-2-.442-6.283-2.118-7.727-1.716-1.483-3.931.739-4.973,2.072-3.789,4.831-1.662,12.024.194,17.237,1.13,3.169,2.428,6.162,2.832,9.431.3,2.414-.8,7.751,3.024,7.36,6.964-.716,5.884-13.372,5.69-17.879a15.72,15.72,0,0,0-1-5.18C395.7,99.195,394.176,98.18,392.9,96.219Z" transform="translate(-258.559 -67.935)" fill="#7a471e"/>
        <path id="Trazado_82492" data-name="Trazado 82492" d="M392.275,141.458a23.119,23.119,0,0,0,.519,3.5c.256,1.827,1.719,6.075,3.615,6.764,2.189.793,6.814-2.1,8.918-2.8.334-.105.667-.217,1-.324,4.211-1.374,8.47-2.688,12.714-3.946,2.8-.832,5.508-2.17,8.157-3.125a42.475,42.475,0,0,1-2.2-7.755,12.615,12.615,0,0,1,.1-4.033c.108-.585.324-3.037.735-3.292-1.432.891-2.359,2.37-3.834,3.32-3.967,2.567-8.154,2.953-12.758,3.362-2.491.216-5.323-.45-7.779-.785a43.859,43.859,0,0,1-4.509-.512c-.3-.071-3.273-1.364-3.272-1.392-.132,2.646,1.029,5.482-.217,8C392.91,139.583,392.3,140.1,392.275,141.458Z" transform="translate(-255.576 -54.552)" fill="#eda06b"/>
        <path id="Trazado_82493" data-name="Trazado 82493" d="M384.2,124.506a23.7,23.7,0,0,0,4.781,12.842,56.5,56.5,0,0,0,6.958,7.108c7.1,6.039,18.286,4.4,26.294.929a26.085,26.085,0,0,0,12.282-11.552c4.274-7.5,6.093-16.7,7.623-23.92,1.468-6.973-1.53-14.385-1.461-19.047-3.323-1.316-9.038,1.081-13.061.534-3.723-.514-10.7-.52-14.761-.779a2.642,2.642,0,0,0-.287.011.846.846,0,0,0-.291.008c-4.064.105-11.036-.09-14.774.317-4.818.511-10.436-3.978-12.988,1.356-2.409,5.035-1.012,12.7.865,17.8a10.217,10.217,0,0,1,.307,7.279A16,16,0,0,0,384.2,124.506Z" transform="translate(-258.722 -67.353)" fill="#ffbc73"/>
        <path id="Trazado_82494" data-name="Trazado 82494" d="M384.2,124.506a23.7,23.7,0,0,0,4.781,12.842,56.5,56.5,0,0,0,6.958,7.108c7.1,6.039,18.286,4.4,26.294.929a26.085,26.085,0,0,0,12.282-11.552c4.274-7.5,6.093-16.7,7.623-23.92,1.468-6.973-1.53-14.385-1.461-19.047-3.323-1.316-9.038,1.081-13.061.534-3.723-.514-10.7-.52-14.761-.779a2.642,2.642,0,0,0-.287.011.846.846,0,0,0-.291.008c-4.064.105-11.036-.09-14.774.317-4.818.511-10.436-3.978-12.988,1.356-2.409,5.035-1.012,12.7.865,17.8a10.217,10.217,0,0,1,.307,7.279A16,16,0,0,0,384.2,124.506Zm1.531-19.442a1.523,1.523,0,0,1,2.4-1.445c-.417-2.773-2.453-7.681.813-9.662a23.7,23.7,0,0,0,12.319,6.665c2.571.45,5.2,1.144,7.859,1.545,1.642.245,6.321,1.066,7.378.152a7.91,7.91,0,0,1-3.688-1.542c1.047.992,3.694,1.054,5.033,1.151,3.165.228,2.84-.5,3.072-3.377,3.905-.611,11.988,3.611,14.281,6.628,4.145,5.45-1.092,17.058-3.27,22.269-2.061,4.934-8.406,13.388-14.959,11.233-3.836-1.264-3.869-3.567-8.208-2.612a17.1,17.1,0,0,1-10.32-.516,5.307,5.307,0,0,1,.039.981c-.148,2.068-3.149,3.108-4.76,2.038a16.537,16.537,0,0,1-7.111-10.469c-.53-3.33.975-6.758.789-10.114C387.162,113.633,386.327,109.37,385.731,105.063Z" transform="translate(-258.722 -67.353)" fill="#efa452"/>
        <path id="Trazado_82495" data-name="Trazado 82495" d="M385.975,106.088l.166.162c1.18-2.271,5.45-2.538,7.744-2.673,3.777-.267,3.459-1.092,5.152-4.513-1.8-.187-6.88-.43-8.692.039C388.535,99.735,384.2,104.747,385.975,106.088Z" transform="translate(-257.914 -64.165)" fill="#7a471e"/>
        <path id="Trazado_82496" data-name="Trazado 82496" d="M406.344,99.191c1.7,3.467,1.335,4.279,5.346,4.668,2.445.2,6.98.6,8.169,2.909l.178-.162c1.94-1.281-2.525-6.433-4.439-7.116C413.685,98.969,408.266,99.056,406.344,99.191Z" transform="translate(-250.68 -64.076)" fill="#7a471e"/>
        <path id="Trazado_82497" data-name="Trazado 82497" d="M388.079,108.792c-1.308-.844-2.077.322-2.343,2.662a6.8,6.8,0,0,0,1.356,5.178c2,2.1,4.241,1.023,6.5-.58,1.988-1.407,3.994-4.555.678-5.379C391.813,110.058,390.151,110.769,388.079,108.792Z" transform="translate(-257.869 -60.795)" fill="#f29e66"/>
        <path id="Trazado_82498" data-name="Trazado 82498" d="M410.147,109.95c-3.875-.4-2.99,3.253-1.433,5.269,1.775,2.3,3.735,4.1,6.724,2.843a6.812,6.812,0,0,0,3.513-4.351c.659-2.294.3-3.65-1.432-3.32C414.508,111.505,413.02,110.245,410.147,109.95Z" transform="translate(-250.316 -60.307)" fill="#f29e66"/>
        <g id="Grupo_33726" data-name="Grupo 33726" transform="translate(160.432 40.972)">
          <path id="Trazado_82499" data-name="Trazado 82499" d="M411.619,111.895c4.419,2.151,6.53-6.33,1.8-8.011C409.393,102.456,408.818,110.5,411.619,111.895Z" transform="translate(-409.881 -103.438)" fill="#f9a458"/>
          <g id="Grupo_33725" data-name="Grupo 33725" transform="translate(1.277 1.981)">
            <path id="Trazado_82500" data-name="Trazado 82500" d="M412.072,105.234c-1.829,1.138-1.33,3.944-.469,4.895a3.985,3.985,0,0,0,1.924.111c.454-.074,1.13-.31,1.3-.88C416.1,106.935,413.878,104.108,412.072,105.234Z" transform="translate(-410.828 -104.979)" fill="#020202"/>
            <path id="Trazado_82501" data-name="Trazado 82501" d="M411.805,107.165c.65.3.871-.408.274-.767C411.555,106.292,411.286,106.921,411.805,107.165Z" transform="translate(-410.586 -104.489)" fill="#fff"/>
          </g>
          <path id="Trazado_82502" data-name="Trazado 82502" d="M415.738,109.755c1.309-1.628.008-4.478-1.477-5.616-1.728-1.318-4.527-.535-3.77,2.046,1.721-3.955,7.316.372,4.986,3.292Z" transform="translate(-409.713 -103.51)" fill="#b56f2a"/>
          <path id="Trazado_82503" data-name="Trazado 82503" d="M410.856,110.186c.626,1.061,1.824.67,2.722.352,1.163-.4,1.624-.8,1.738-2.092l-.063-.155C414.679,110.232,412.537,110.212,410.856,110.186Z" transform="translate(-409.541 -101.846)" fill="#b56f2a"/>
          <path id="Trazado_82504" data-name="Trazado 82504" d="M417.889,108.978c-.7-1.225-2.619-.623-3.644-.569-.547.2.778,1.147,1,1.3a7.268,7.268,0,0,1,1.372,1.417c-.456-.749-.814-1.744-1.72-2.076A21.221,21.221,0,0,1,417.889,108.978Z" transform="translate(-408.408 -101.873)" fill="#b56f2a"/>
        </g>
        <g id="Grupo_33728" data-name="Grupo 33728" transform="translate(128.324 40.573)">
          <path id="Trazado_82505" data-name="Trazado 82505" d="M391.276,103.521c-4.776,1.542-2.757,10.742,1.562,8.06l.5.116C395.47,110.253,395.337,102.212,391.276,103.521Z" transform="translate(-385.207 -103.156)" fill="#f9a458"/>
          <g id="Grupo_33727" data-name="Grupo 33727" transform="translate(4.159 2.33)">
            <path id="Trazado_82506" data-name="Trazado 82506" d="M389.482,109.266c.151.574.82.832,1.274.915a3.922,3.922,0,0,0,1.928-.046c.886-.929,1.469-3.723-.33-4.913C390.584,104.045,388.276,106.808,389.482,109.266Z" transform="translate(-389.148 -104.942)" fill="#020202"/>
            <path id="Trazado_82507" data-name="Trazado 82507" d="M390.315,107.131c.528-.231.276-.869-.252-.772C389.455,106.694,389.658,107.409,390.315,107.131Z" transform="translate(-388.955 -104.453)" fill="#fff"/>
          </g>
          <path id="Trazado_82508" data-name="Trazado 82508" d="M394.11,105.944c.832-2.55-1.942-3.421-3.707-2.155-1.517,1.089-2.908,3.9-1.642,5.565l.27-.262C386.791,106.1,392.506,101.95,394.11,105.944Z" transform="translate(-385.295 -103.214)" fill="#b56f2a"/>
          <path id="Trazado_82509" data-name="Trazado 82509" d="M387.267,110.817a7.274,7.274,0,0,1,1.41-1.372c.232-.14,1.587-1.054,1.045-1.262-1.022-.092-2.925-.748-3.66.45a22.252,22.252,0,0,1,2.986.171C388.13,109.109,387.744,110.083,387.267,110.817Z" transform="translate(-386.062 -101.575)" fill="#b56f2a"/>
          <path id="Trazado_82510" data-name="Trazado 82510" d="M388.808,108.2c.076,1.291.524,1.7,1.677,2.149.884.34,2.073.76,2.731-.275-1.681-.026-3.828-.071-4.343-2.027Z" transform="translate(-385.106 -101.533)" fill="#b56f2a"/>
        </g>
        <path id="Trazado_82511" data-name="Trazado 82511" d="M425.333,111A5.9,5.9,0,0,0,424,112.927c-.515,1.113-.852,2.354-1.316,3.4-.748,1.677-2.506,5.848.382,6.658,2.5.7,4.7-3.15,5.508-4.922.768-1.672,4.281-6.128,2.385-7.983C429.621,108.768,426.547,109.914,425.333,111Z" transform="translate(-245.417 -60.456)" fill="#efa452"/>
        <path id="Trazado_82512" data-name="Trazado 82512" d="M440.208,124.409a8.9,8.9,0,0,1,2.262-1.982c.847-.644.981-2.443,1.332-3.409.717-1.96,1.465-3.92,2.048-5.92,1.274-4.353,4.862-14.1-.233-21.776C433.185,72.6,412.658,74.417,410.067,76.579c.6-1.127,3.677-3.127,5.428-2.844-11.157-2.1-17.211,1.4-21.726,6.627a2.038,2.038,0,0,1-.7.454c-.061-.015-.133-.009-.194-.02-1.748,1.049-3.609,1.886-5.345,2.932-3.931,2.374-5.61,6.694-5.784,10.861a18.665,18.665,0,0,0,2.122,9.8c0-.077,0-.151.008-.231a2.972,2.972,0,0,0,.034.311,20.8,20.8,0,0,0,2.048,3.1c.628.462,1.341.9,2.076,1.352a9.477,9.477,0,0,1-1.932-7.185,10.574,10.574,0,0,1,2.966-5.436c5.217,6.665,15.41,9.086,23.112,11.469-1.7-1.831-4.291-3.145-5.528-5.273,4.167,1.587,8.829,2.74,12.716,4.447.643-1.577.2-2.878.1-4.475,2.9-.321,6.189,1.7,8.859,2.5,3.16.953,6.094,2.2,9.1,3.343.105-1.747-.632-3.743-.861-5.544,3.3,3.609,3.911,8.534,3.417,13.415a94.916,94.916,0,0,1-2.472,9.939c-.615,1.891-1.469,3.782-2.2,5.606-.123.3-.266.609-.414.907a1.388,1.388,0,0,0,.113.193c-.051-.022-.105-.035-.158-.055-.48,1-1.174,1.731-1.56,2.774a9.425,9.425,0,0,1-1.955,2.732c-1.418,1.585-3.258,3.123-5.454,3.351s-3.094-1.081-3.946-2.879a18.285,18.285,0,0,0-4.19-5.965c-3.152-2.9-7.224-2.786-11.048-1.495-1.7.57-2.526.356-4.269-.065-3.336-.806-4.7-2.137-7.636.51a15.36,15.36,0,0,0-4.15,5.79c-.613,1.781-.34,3.006-2.1,4.194-.473.318,6.856,9.563,7.852,10.136a27.786,27.786,0,0,0,9.943,3.308,26.888,26.888,0,0,0,14.918-2.131c4.353-1.941,7.082-5.422,10.486-8.641a31.856,31.856,0,0,0,2.154-2.708,13.344,13.344,0,0,0,1.142-1.418,21.919,21.919,0,0,0,1.24-2.606,11.062,11.062,0,0,1,.63-1.181c.368-.6.357-.55.061-1.1-.956-1.8.071-3.929.74-5.693A25.014,25.014,0,0,1,440.208,124.409Zm-22.273,20.1c-1.158,2.534-5.264,4.029-7.9,3.761a5.371,5.371,0,0,1-3.77-2.257c-.218-.3-1.6-4.066-.721-4.028-.82-.035-1.464-.224-2.274-.218.189,1.281-.36,3.583-1.663,4.469-3.947,2.714-9.459-1.839-9.13-6.066.224-2.912,2.444-3.392,4.992-3.218,2.488.174,4.8,1.3,7.264,1.577,3.522.4,6.895-1.681,10.381-1.223a3.928,3.928,0,0,1,2.931,3.029A6.171,6.171,0,0,1,417.935,144.513Z" transform="translate(-259.245 -73.115)" fill="#7a471e"/>
        <path id="Trazado_82513" data-name="Trazado 82513" d="M401.281,124.155c-5.946.159-7.029-1.791-8.7-2.924-.567,2.23,3.111,4.622,4.889,4.989a18.589,18.589,0,0,0,8.093.164,7.646,7.646,0,0,0,3.547-1.86,6.5,6.5,0,0,0,1.823-3.282c-.043-.024-.081-.05-.119-.075a10.407,10.407,0,0,1-2.486,1.5A16.152,16.152,0,0,1,401.281,124.155Z" transform="translate(-255.49 -56.393)" fill="#cc7833"/>
        <path id="Trazado_82514" data-name="Trazado 82514" d="M392.687,121.288c-.034-.024-.07-.047-.108-.074-.567,2.23,3.111,4.622,4.889,4.989a18.589,18.589,0,0,0,8.093.164,7.646,7.646,0,0,0,3.547-1.86,6.642,6.642,0,0,0,1.845-3.263l-.011-.007C406.929,126.663,395.747,127.9,392.687,121.288Z" transform="translate(-255.49 -56.376)" fill="#b56f2a"/>
        <path id="Trazado_82515" data-name="Trazado 82515" d="M392.091,122.651c.139.445.448.439.51-.058a1.815,1.815,0,0,1,.251-.972c.275-.306.817-.274,1.026-.677C393,120.324,391.845,121.844,392.091,122.651Z" transform="translate(-255.652 -56.521)" fill="#b56f2a"/>
        <path id="Trazado_82516" data-name="Trazado 82516" d="M405.01,121.244c.357.28.837.026,1.21.19.3.135.474.516.632.78.264.426.547.3.487-.155C407.234,121.219,405.547,120.317,405.01,121.244Z" transform="translate(-251.144 -56.502)" fill="#b56f2a"/>
        <g id="Grupo_33731" data-name="Grupo 33731" transform="translate(123.325 37.703)">
          <g id="Grupo_33729" data-name="Grupo 33729">
            <path id="Trazado_82517" data-name="Trazado 82517" d="M385.684,101.092c-3.764-.31-4.062,9.552-2.265,11.523,1.822,2,5.687,2.124,8.194,2.271,3.113.19,6.682,1.605,8.057-1.767.957-2.347,2.262-6.917,2-9.454-3.317-1.112-7.626-.891-11.09-1.506C388.962,101.874,387.361,101.227,385.684,101.092Zm12.627,3.22c.95.112,1.932.179,1.906,1.368A17.868,17.868,0,0,1,399.2,110a16.611,16.611,0,0,1-1.035,2.922c-.523,1.038-1.1,1.081-2.228,1.064-2.479-.04-4.885-.377-7.333-.634-1.72-.173-3.764-.623-4.529-2.386-.9-2.066-1.223-5.005-.183-7.078,1.522-3.022,5.884-.725,8.345-.266C394.249,104,396.274,104.087,398.311,104.312Z" transform="translate(-382.353 -101.085)" fill="#351d0d"/>
            <path id="Trazado_82518" data-name="Trazado 82518" d="M392.009,103.3c-2.461-.46-6.824-2.757-8.345.266-1.039,2.073-.718,5.012.183,7.078.766,1.763,2.809,2.213,4.529,2.386,2.448.256,4.854.593,7.333.634,1.127.018,1.705-.026,2.228-1.064a16.607,16.607,0,0,0,1.035-2.922,17.867,17.867,0,0,0,1.014-4.32c.026-1.189-.956-1.256-1.906-1.368C396.043,103.759,394.019,103.672,392.009,103.3Z" transform="translate(-382.123 -100.757)" fill="#fff" opacity="0.25"/>
            <path id="Trazado_82519" data-name="Trazado 82519" d="M383.663,103.561c-1.039,2.073-.718,5.012.183,7.078a2.059,2.059,0,0,0,.22.306,13.508,13.508,0,0,1,4.18-5.164,17.447,17.447,0,0,1,4.254-2.425c-.164-.024-.328-.031-.492-.061C389.547,102.836,385.185,100.539,383.663,103.561Z" transform="translate(-382.123 -100.757)" fill="#fff" opacity="0.25"/>
          </g>
          <g id="Grupo_33730" data-name="Grupo 33730" transform="translate(29.52 2.34)">
            <path id="Trazado_82520" data-name="Trazado 82520" d="M416.167,103.328c-3.654.04-8.037-.884-11.62-.33-.674,2.465-.061,7.188.55,9.662.873,3.552,4.761,2.739,7.988,3.068,2.592.253,6.582.764,8.769-.9,2.159-1.651,3.417-11.43-.491-11.745C419.615,102.934,417.871,103.309,416.167,103.328Zm6.584,2.808c.739,2.215-.055,5.07-1.309,6.965-1.068,1.607-3.235,1.716-5.032,1.607-2.549-.15-5.073-.213-7.623-.577-1.159-.171-1.744-.311-2.118-1.421a16.548,16.548,0,0,1-.6-3.051,17.521,17.521,0,0,1-.351-4.43c.16-1.185,1.18-1.089,2.173-1.039,2.126.111,4.219.353,6.338.309C416.829,104.451,421.673,102.9,422.75,106.136Z" transform="translate(-404.253 -102.82)" fill="#351d0d"/>
            <path id="Trazado_82521" data-name="Trazado 82521" d="M413.866,104.172c-2.119.044-4.212-.2-6.338-.309-.993-.05-2.013-.146-2.173,1.039a17.521,17.521,0,0,0,.351,4.43,16.55,16.55,0,0,0,.6,3.051c.373,1.109.958,1.25,2.118,1.421,2.55.364,5.074.427,7.623.577,1.8.109,3.964,0,5.032-1.607,1.254-1.9,2.048-4.75,1.309-6.965C421.31,102.576,416.465,104.124,413.866,104.172Z" transform="translate(-403.889 -102.493)" fill="#fff" opacity="0.25"/>
            <path id="Trazado_82522" data-name="Trazado 82522" d="M405.355,104.883a17.521,17.521,0,0,0,.351,4.43,16.55,16.55,0,0,0,.6,3.051,1.828,1.828,0,0,0,.586.882c1.008-3.917,4.121-7.116,7.813-9.15-.291.023-.582.054-.839.058-2.119.044-4.212-.2-6.338-.309C406.534,103.794,405.515,103.7,405.355,104.883Z" transform="translate(-403.889 -102.473)" fill="#fff" opacity="0.25"/>
          </g>
          <path id="Trazado_82523" data-name="Trazado 82523" d="M395.844,106.385a7.8,7.8,0,0,1-.24,1.728,18.02,18.02,0,0,1,5.548-1.126c2.9.274,4.808.607,7.08,2.261a9.182,9.182,0,0,1-.181-2.316C405.621,105.7,398.8,104.977,395.844,106.385Z" transform="translate(-377.742 -99.509)" fill="#351d0d"/>
          <path id="Trazado_82524" data-name="Trazado 82524" d="M427,107.736a18.744,18.744,0,0,0-2.39-.639c-1.817-.357-3.657-.616-5.5-.8-.066-.009-.09-.022-.137-.031a10.04,10.04,0,0,1-.429,1.765c.473.05.942.094,1.414.164a50.75,50.75,0,0,1,5.334,1.138c1.194.307,2.417.8,3.6.995.892.15,2.987.9,2.563-.582C431.017,108.208,428.24,108.131,427,107.736Z" transform="translate(-369.76 -99.283)" fill="#351d0d"/>
        </g>
        <g id="Grupo_33732" data-name="Grupo 33732" transform="translate(137.491 48.152)">
          <path id="Trazado_82525" data-name="Trazado 82525" d="M393.258,114.114c.8,4.039,4.381,4.8,8.225,4.1,1.294-.233,3.4-.528,4.488-1.263a6.339,6.339,0,0,0,2.03-4.628c.008-2.794-6.275-3.528-8.491-2.753l.469-.225C396.757,109.584,392.164,108.635,393.258,114.114Z" transform="translate(-392.782 -108.681)" fill="#ffce94"/>
          <path id="Trazado_82526" data-name="Trazado 82526" d="M393.835,110.634a30.151,30.151,0,0,1,11.861-.563c-3.4-1.157-9.094-2.3-12.11.559Z" transform="translate(-392.611 -108.836)" fill="#fce4d0"/>
          <path id="Trazado_82527" data-name="Trazado 82527" d="M400.854,119.01c3.947-.17,9.273-3.567,7.193-7.663,1.061,7.713-17.106,6.617-14.726-.216C391.194,116.255,396.929,119.184,400.854,119.01Z" transform="translate(-392.862 -108.038)" fill="#b56f2a"/>
        </g>
        <path id="Trazado_82528" data-name="Trazado 82528" d="M428.871,88.966c3.381.659,6.361,2.312,9.441,3.787,1.825-2.96-3.96-6.925-5.877-8.15A21.976,21.976,0,0,0,427.455,82c-1.8-.545-4.578.19-5.949-1.406a22.57,22.57,0,0,0,2.5-1.812c-4.552-.365-10.843-.975-15.211.631a24.548,24.548,0,0,0,3.622-2.155c-2.48-1.783-7.723.051-10.179,1.119a4.726,4.726,0,0,1,1.806-3.011,34.862,34.862,0,0,0-5.1,1.88c-1.49.863-2.343,2.339-3.617,3.123-4.634,2.862-10.423,4.812-5.124,10.92,2.73,3.144,6.38,5.261,9.632,7.8-1.93-1.626-6-7.227-1.426-7.813,1.329-.168,8.606,1.25,9.424,2.193-2.309-2.661-6.326-3.59-8.441-6.209,2.27-.747,5.631.092,8,.549,2.13.408,6.151.639,7.941,1.835-1.317-.882-2.917-1.5-4.035-2.615,4.245.116,7.91,3.067,11.554,4.8-1.049-2.584-5.108-4.133-7.124-5.891.569.5,4.028.33,4.936.5C423.568,86.965,426.006,88.4,428.871,88.966Z" transform="translate(-257.031 -72.333)" fill="#8e5a3d"/>
        <path id="Trazado_82529" data-name="Trazado 82529" d="M417.843,143.042c-3.687,2.017-8.15,2.355-12.185,3.28-3.307.756-9.5,2.185-10.939,5.744,2.949-.107,6.282-2.5,9.166-3.253,3.061-.791,6.263-1.635,9.6-1.3a8.363,8.363,0,0,1,4.7,1.894,9.275,9.275,0,0,1,2.569,3.743c1.08,2.74,1.318,6.655,4.64,7.936a8.22,8.22,0,0,1,1.045.646c1.053-1.49,1.3-3.494,2.72-4.986a18.243,18.243,0,0,1,5.215-3.537,28.087,28.087,0,0,1,5.848-2.158c1.658-.395,3.917-.3,4.564-2.25-5.749.511-7.2-6.86-8.691-10.919a16.823,16.823,0,0,0-3.223-6.022c-.671-.705-8.246-4.974-8.526-3.359l-.309,1.783.005,1.619c1.525.116,4.262-.123,2.534,3.671C425.131,138.751,420.723,141.469,417.843,143.042Z" transform="translate(-254.725 -53.965)" fill="#a3d0d8"/>
        <path id="Trazado_82530" data-name="Trazado 82530" d="M417.843,143.041c-3.687,2.017-8.15,2.355-12.185,3.28-3.307.756-9.5,2.185-10.939,5.744,2.949-.107,6.282-2.5,9.166-3.253,3.061-.791,6.263-1.635,9.6-1.3a8.415,8.415,0,0,1,4.117,1.548c6.473-5.881,16.318-13.659,11.826-18.743a1.681,1.681,0,0,1-.369-.706c-2.208-1.1-4.563-2-4.717-1.111l-.309,1.783.005,1.619c1.525.116,4.262-.123,2.534,3.671C425.131,138.75,420.723,141.468,417.843,143.041Z" transform="translate(-254.725 -53.965)" fill="#69adbc"/>
        <path id="Trazado_82531" data-name="Trazado 82531" d="M427.546,131.986c-.005,6.422-8.674,12.615-14.267,17.891a10.779,10.779,0,0,1,1.016,1.938c.654,1.662,1.008,3.743,1.914,5.416a16.225,16.225,0,0,1,8.126-7.492,25.339,25.339,0,0,1,6.39-1.337,31.4,31.4,0,0,0,4.448-1.725c-3.187-1.867-4.378-6.958-5.536-10.13A22.878,22.878,0,0,0,427.546,131.986Z" transform="translate(-248.266 -52.628)" fill="#69adbc"/>
        <path id="Trazado_82532" data-name="Trazado 82532" d="M410.377,147.928a7.755,7.755,0,0,1,2.359,1.332,7.837,7.837,0,0,1,.716.8,11.96,11.96,0,0,1,2.27-3.319c4.285-4.436,12.036-8.8,10.361-15.937a33.044,33.044,0,0,0-4.486-2.232C427.7,135.35,418.71,142.649,410.377,147.928Z" transform="translate(-249.276 -53.816)" fill="#8dc9d3"/>
        <g id="Grupo_33733" data-name="Grupo 33733" transform="translate(5.525 96.896)">
          <path id="Trazado_82533" data-name="Trazado 82533" d="M300.788,145.208a5.125,5.125,0,0,0-4.741.952,5.65,5.65,0,0,0-1.082,1.194,11.588,11.588,0,0,1,.914.864,16.4,16.4,0,0,1,3,3.711,6.6,6.6,0,0,1,7.557,2.968c2.529,3.981,4.719,7.016,8.94,9.187a44.784,44.784,0,0,1-8.267-12.2C305.686,148.956,304.346,146.185,300.788,145.208Z" transform="translate(-294.965 -144.996)" fill="#ef7507"/>
        </g>
        <path id="Trazado_82534" data-name="Trazado 82534" d="M296.823,154.214c.824.271,1.885-.4,2.492-.856,1.452-1.112,2.289-3.017,4.076-3.684,5.384-2.015,8.25,2.238,10.163,4.11,2.3,2.247,2.47,5.543,5.682,7.1a4.649,4.649,0,0,0,2.657.4c3.781-.446,3.536-7.542,2.959-10.19-1.146-5.275-5.542-8.707-12.082-10.066-4.611-.954-9.591-1.026-13.6,1.793a10.127,10.127,0,0,0-3.758,4.579c-.479,1.15-1.415,3.526.6,3.7C296,152.214,295.436,153.75,296.823,154.214Z" transform="translate(-289.505 -49.686)" fill="#ffbc73"/>
        <path id="Trazado_82535" data-name="Trazado 82535" d="M347.237,176.026c-4.276.423-9.452,3.307-11.636,6.987-1.723,2.9-1.591,6.3,2.3,9.381,1.623,1.287,5.767,5.631,7.932,5.711,4.239.15,8.246-4.873,12.763-5.224,3.295-.26,4.558.034,4.814-4.571C363.867,180.107,354.4,175.328,347.237,176.026Z" transform="translate(-275.666 -37.325)" fill="#ffbc73"/>
        <path id="Trazado_82536" data-name="Trazado 82536" d="M346.067,192.726c-3.924-.527-8.095-2.958-11.484-5.865.151,1.787,1.12,3.618,3.307,5.348,1.623,1.287,5.767,5.631,7.932,5.711,4.239.15,8.246-4.873,12.763-5.224,3.295-.26,4.558.034,4.814-4.571.33-5.931-4.531-10.059-9.954-11.635a24.849,24.849,0,0,0-.7,9.418c.179,1.2.505,3.228-.287,4.332A6.254,6.254,0,0,1,346.067,192.726Z" transform="translate(-275.653 -37.14)" fill="#efa452"/>
        <path id="Trazado_82537" data-name="Trazado 82537" d="M295.853,150.023a24.4,24.4,0,0,1,4.372-4.9c1.641-1.332,3.765-1.576,5.288-2.757a9.688,9.688,0,0,0-6.764,1.9C297.282,145.484,295.049,147.986,295.853,150.023Z" transform="translate(-289.19 -49.024)" fill="#efa452"/>
        <path id="Trazado_82538" data-name="Trazado 82538" d="M301.031,147.519a13.732,13.732,0,0,0-2.124,2.5,3.15,3.15,0,0,1-3.1,1.719c1.01,1.445,2.731.419,3.59-.457,2.406-2.457,2.8-3.735,6.3-4.153a6.56,6.56,0,0,1,4.6,1.576c1.457,1.2,2.34,2.581,2.642,2.455.2-.085,3.325-1.69,3.076-1.971a9.232,9.232,0,0,0-3.607-2.9C308.951,144.911,304.016,144.686,301.031,147.519Z" transform="translate(-289.145 -47.993)" fill="#efa452"/>
        <path id="Trazado_82539" data-name="Trazado 82539" d="M317.841,152.863a6.948,6.948,0,0,1-4.52,1.445,35.832,35.832,0,0,1-5.024-.112c-.785-.07-1.622-.152-2.355-.292a1.408,1.408,0,0,0,.177,1.051c.74,1.53,2.01,1.407,3.416,1.832,2.106.635,4.192,1.615,6.449,1.286a5.636,5.636,0,0,0,3.553-1.852c1.01-1.171,2.246-5.1,1.084-6.483C319.451,150.552,318.9,151.953,317.841,152.863Z" transform="translate(-285.634 -46.45)" fill="#efa452"/>
        <path id="Trazado_82540" data-name="Trazado 82540" d="M423.063,149.453c-.539-2.371-.76-5.91-3.241-7.1a17.972,17.972,0,0,0-8.352-1.576c-1.949.407-3.927.723-5.813,1.151-3.307.756-9.5,2.185-10.939,5.744,2.949-.107,6.282-2.5,9.166-3.253,3.061-.791,6.263-1.635,9.6-1.3a8.363,8.363,0,0,1,4.7,1.894,9.275,9.275,0,0,1,2.569,3.743c1.08,2.741,1.318,6.655,4.64,7.936a8.222,8.222,0,0,1,1.045.646,6.5,6.5,0,0,0,.534-.96C424.738,155.075,423.693,152.223,423.063,149.453Z" transform="translate(-254.725 -49.572)" fill="#ceeaef"/>
        <path id="Trazado_82541" data-name="Trazado 82541" d="M382.02,139.6a14,14,0,0,0-.848,4c1.632-2.139,6.185-7.132,9.1-6.124,4.38,1.518,4.854,9.382,9.733,11.722-.256-.121-.52-.879-.779-1.944-1.759-2.529-2.421-5.563-3.815-8.375C392.145,132.312,385.8,134.989,382.02,139.6Z" transform="translate(-259.44 -51.595)" fill="#ceeaef"/>
        <g id="Grupo_33734" data-name="Grupo 33734" transform="translate(125.664 98.148)">
          <path id="Trazado_82542" data-name="Trazado 82542" d="M389.7,210.859c.608-4,10.261-59.681,8.337-64.283-2.676,7.863-3.46,16.888-4.665,25.08-1.32,8.991-3.339,18.024-4.235,27.222-.43,4.412-1.6,8.8-2.228,13.086s-.83,8.86-1.678,13.081a68.965,68.965,0,0,0-1.143,8.813c.605,9.692,3.168,19.341,3.445,28.876a17.642,17.642,0,0,0,3.02.031c-.088-1.426-3.923-20.925-3.923-25.462,0-4.5-.189-9.154.542-13.365C387.931,219.569,389.046,215.164,389.7,210.859Z" transform="translate(-384.089 -145.698)" fill="#ceeaef"/>
          <path id="Trazado_82543" data-name="Trazado 82543" d="M394.793,145.925l-.555.554c.111.019.2.146.27.324C394.607,146.513,394.688,146.212,394.793,145.925Z" transform="translate(-380.557 -145.925)" fill="#acdae2"/>
        </g>
        <path id="Trazado_82544" data-name="Trazado 82544" d="M432.322,170.455c-8.951,8.792-20.27,15.5-32.69,17.953-6.764,1.332-14.329,2.522-21.366,1.925-21.472-1.824-24.114-6.813-26.841-4.454-4.438,3.845-1.411,16.734,2.1,20.194,6.445,6.349,31.385,6.391,38.9,5.729a134.289,134.289,0,0,0,25.112-4.482c21.39-6.019,48.457-24.655,49.517-44.7.373-7.042-.81-16.541-10.822-14.7C444.746,150.045,439.836,163.078,432.322,170.455Z" transform="translate(-270.563 -47.161)" fill="#6fd8d8"/>
        <path id="Trazado_82545" data-name="Trazado 82545" d="M417.321,183.609a63.374,63.374,0,0,1,11.54-5.253c6.566-2.242,7.119-6.338,10.373-11.57,2.285-3.676,7.507-5.292,9.383-8.957,1.566-3.064,2.678-5.411,5.47-7.372a13.488,13.488,0,0,1,7-2.336,10.1,10.1,0,0,0-5.086-.2c-11.488,2.119-16.4,15.152-23.912,22.529-8.951,8.792-20.27,15.5-32.69,17.953-6.764,1.332-14.329,2.522-21.366,1.925-21.472-1.824-24.114-6.813-26.841-4.454a5.337,5.337,0,0,0-1.31,1.8,3.511,3.511,0,0,1,3.444.059c5.28,2.629,8.718,5.83,15.391,4.818,4.386-.663,8.654,1.707,12.975,1.824,5.342.139,9.034.028,14.062-2.093,1.074-.454,4.2-1.48,5.369-.605,2.139,1.6,4.1,3.417,5.128.055.7-2.285,2.6-4.847,5.281-3.281,2.223,1.3,3.038,2.412,2.759-1.095C414.138,185.449,416,184.413,417.321,183.609Z" transform="translate(-270.329 -47.16)" fill="#9bcad5"/>
        <path id="Trazado_82546" data-name="Trazado 82546" d="M436.017,193.106c-2.01,1.1-5.485,2.595-7.81,1.862-1.863-.593-3.251-4.234-5.563-3.153-2.4,1.127-2.155,6.728-4.6,6.543-1.854-.14-3.39-3.668-5.659-2.123-2.168,1.48,1.06,3.809-.442,5.505-2.06,2.324-5.172-3.211-7.84.051-1.383,1.692-.76,1.92-3.382,2.137a36.454,36.454,0,0,1-4.969.325c-5.492-.266-10.965.551-16.455.422a36.183,36.183,0,0,1-8.07-1.171c-2.165-.542-4.326-.209-6.545-.7-3.055-.681-5.233-4.341-8.556-5.263-4.564-1.266-5.814-5.929-5.922-10.122-2.513,5.017.206,15.484,3.32,18.551,6.445,6.349,31.385,6.391,38.9,5.729a134.29,134.29,0,0,0,25.112-4.482c21.39-6.019,48.457-24.655,49.518-44.7.3-5.7-.485-12.919-6.073-14.525,3.77,11.23-4.5,24.724-11.64,32.933C445.437,185.416,441.309,190.211,436.017,193.106Z" transform="translate(-270.561 -47.057)" fill="#68b0c1"/>
        <path id="Trazado_82547" data-name="Trazado 82547" d="M435.45,197.183a19.261,19.261,0,0,1-16.087,3.667c-2.913-.731-3.777,3.088-6.212,3.762-3.361.922-5.974-1.623-9.35.9-2.793,2.092-4.926,2.127-8.444,1.937-5.779-.313-11.525-.038-17.295-.252-7.105-.266-21.382-1.227-27.9-7.228a14.885,14.885,0,0,0,3.025,5.743c6.445,6.349,31.385,6.391,38.9,5.729A134.291,134.291,0,0,0,417.2,206.96c21.39-6.019,48.457-24.655,49.517-44.7.261-4.939-.359-10.959-4.153-13.534,3.328,12.915-1.67,23.474-9.516,32.348C447.978,187.275,441.965,191.66,435.45,197.183Z" transform="translate(-270.23 -46.801)" fill="#4897af"/>
        <path id="Trazado_82548" data-name="Trazado 82548" d="M344.264,338.447a11.971,11.971,0,0,0,3.5-1.944c.568-.365,2.2-1.171,2.346-1.894.259-1.283-2.63-5.029-3.53-2.743-.391,1,0,.9-1.1.713a1.34,1.34,0,0,0-1.027.059c-.4.29-.121.4-.33.794-.466.853-1.236.2-1.926.63-.737.453-.473,1.31-.183,1.986l-.158-.708C342.236,336.57,342.692,338.809,344.264,338.447Z" transform="translate(-273.169 16.679)" fill="#b78630"/>
        <path id="Trazado_82549" data-name="Trazado 82549" d="M294.158,241.1a11.962,11.962,0,0,0,3.935-.741c.655-.17,2.456-.421,2.823-1.058.65-1.139-.914-5.608-2.488-3.715-.687.824-.279.851-1.27.328a1.347,1.347,0,0,0-.992-.267c-.473.151-.243.346-.563.651-.71.665-1.239-.2-2.027-.011-.842.2-.86,1.095-.8,1.831l.071-.721C292.825,238.687,292.552,240.953,294.158,241.1Z" transform="translate(-290.209 -16.734)" fill="#b78630"/>
      </g>
    </g>
  </g>
</svg>
