<svg xmlns="http://www.w3.org/2000/svg" xmlns:xlink="http://www.w3.org/1999/xlink" width="178.817" height="414.941" viewBox="0 0 178.817 414.941">
  <defs>
    <clipPath id="clip-path">
      <path id="Trazado_82582" data-name="Trazado 82582" d="M196.812,351.314c-.836.476-1.8-.316-3.085-1.129a46.5,46.5,0,0,1-8.277-6.572,35.1,35.1,0,0,1-8.237-13.5c-2.308-7.029-1.489-16.409.985-23.32,2.542-7.1,7.4-13.23,12.792-18.4,7.738-7.42,17.69-12.834,28.412-14.154a183.084,183.084,0,0,0,23.011-3.832c13.392-3.428,26.479-10.463,32.046-23.828,2.4-5.772,2.935-12.4,5.675-18.14a21.813,21.813,0,0,1,15.3-12.19,18.2,18.2,0,0,1,10.377.343c3.215,1.2,7.519,3.761,9.642,6.475-2.445,2.872-4.807,6.014-6.993,9.082a14.943,14.943,0,0,0-10.375-5.277,13.248,13.248,0,0,0-11.945,5.887c-2.657,3.957-2.592,8.661-3.285,13.143a32.874,32.874,0,0,1-8.444,16.622,43,43,0,0,1-9.671,7.2,82.937,82.937,0,0,1-24,8.753c-12.847,2.533-25.15,6.1-36.866,11.945-5.3,2.647-10.739,5.944-13.861,11.265-3.91,6.658-4.089,14.628-2.289,21.994,1.339,5.483,3.807,10.947,7.961,14.876,1.775,1.68,4.727,2.306,4.256,4.835a29.017,29.017,0,0,1-2.3,6.923A2.285,2.285,0,0,1,196.812,351.314Z" transform="translate(-175.85 -215.67)" fill="none"/>
    </clipPath>
  </defs>
  <g id="Grupo_36329" data-name="Grupo 36329" transform="translate(-280.183 -8981)">
    <g id="Grupo_33796" data-name="Grupo 33796" transform="translate(104.333 8887.607)">
      <g id="Grupo_33740" data-name="Grupo 33740" transform="translate(187.551 386.597)">
        <path id="Trazado_82550" data-name="Trazado 82550" d="M227.582,413.578c-.876-3.083-4.468-4.154-6.814-5.9a22.706,22.706,0,0,1-7.338-8.581c-1.607-3.552-2.087-7.509-2.7-11.324-.716-4.426-.743-30.016-.977-41.439-.371-18.094,3.287-49.5.15-49.489a30.848,30.848,0,0,0-6.888.693,4.745,4.745,0,0,0-2.43,1.137c-.924.958-.973,2.436-.966,3.769.019,4.228.55,8.326.577,12.577.139,22.133.815,44.246.992,66.379.095,11.964-4.757,22.314-15.119,28.374-1.836,1.072-5.664,3.232-4.418,5.917,1.063,2.293,5.3,1.937,7.351,2.106a176.01,176.01,0,0,0,21.36.695C213.422,418.373,229.035,418.695,227.582,413.578Z" transform="translate(-181.407 -296.845)" fill="#ffc74a"/>
      </g>
      <g id="Grupo_33741" data-name="Grupo 33741" transform="translate(175.85 215.67)">
        <path id="Trazado_82551" data-name="Trazado 82551" d="M196.812,351.314c-.836.476-1.8-.316-3.085-1.129a46.5,46.5,0,0,1-8.277-6.572,35.1,35.1,0,0,1-8.237-13.5c-2.308-7.029-1.489-16.409.985-23.32,2.542-7.1,7.4-13.23,12.792-18.4,7.738-7.42,17.69-12.834,28.412-14.154a183.084,183.084,0,0,0,23.011-3.832c13.392-3.428,26.479-10.463,32.046-23.828,2.4-5.772,2.935-12.4,5.675-18.14a21.813,21.813,0,0,1,15.3-12.19,18.2,18.2,0,0,1,10.377.343c3.215,1.2,7.519,3.761,9.642,6.475-2.445,2.872-4.807,6.014-6.993,9.082a14.943,14.943,0,0,0-10.375-5.277,13.248,13.248,0,0,0-11.945,5.887c-2.657,3.957-2.592,8.661-3.285,13.143a32.874,32.874,0,0,1-8.444,16.622,43,43,0,0,1-9.671,7.2,82.937,82.937,0,0,1-24,8.753c-12.847,2.533-25.15,6.1-36.866,11.945-5.3,2.647-10.739,5.944-13.861,11.265-3.91,6.658-4.089,14.628-2.289,21.994,1.339,5.483,3.807,10.947,7.961,14.876,1.775,1.68,4.727,2.306,4.256,4.835a29.017,29.017,0,0,1-2.3,6.923A2.285,2.285,0,0,1,196.812,351.314Z" transform="translate(-175.85 -215.67)" fill="#f9ad15"/>
      </g>
      <g id="Grupo_33742" data-name="Grupo 33742" transform="translate(180.942 228.582)">
        <path id="Trazado_82552" data-name="Trazado 82552" d="M236.051,380.5c3.622-3.245,5.306-8.471,5.837-14.1.495-5.256-.291-10.532-.415-15.807-.183-7.709-2.767-15.123-4.818-22.554S233.07,312.7,235,305.234c1.2-4.66,3.683-8.865,5.953-13.108s4.395-8.711,4.773-13.508-1.322-10.025-5.334-12.682c-4.8-3.177-10.4-2.6-14.325-6.812-2.377-2.552-1.127-6.34-.019-9.652,1.4-4.186,4.8-7.978,5.593-12.322,1.558-8.6-1.16-12.173-7.06-14.531s-13.3.6-16.241,6.226c-2.394,4.58-1.621,9.73-.781,14.6.876,5.089,3.131,12.628-.872,16.87-3.5,3.706-8.766,5-12.533,8.364a19.066,19.066,0,0,0-5.77,9.265c-1.367,5.193.874,10.878,2.777,15.649,2.407,6.033,5.637,12.272,5.934,18.875.31,6.881-2.417,13.52-5.485,19.69-3.5,7.035-7.532,13.851-10.118,21.273-2.308,6.616-4.256,15.036-2.609,22,1.672,7.073,11.28,9.539,17.58,9.248l22.96-1.051C225.658,383.344,230.747,384.479,236.051,380.5Z" transform="translate(-178.268 -221.802)" fill="#15579f"/>
      </g>
      <g id="Grupo_33743" data-name="Grupo 33743" transform="translate(262.805 425.385)">
        <path id="Trazado_82553" data-name="Trazado 82553" d="M232.2,380.11c-.455-2.71.164-5.527-.059-8.223-.282-3.4-.613-6.8-.9-10.2-.59-6.923-1.148-13.847-1.548-20.781a49.091,49.091,0,0,1,.908-11.834c.779-4.527,1.817-9.21,1.92-13.8a102.443,102.443,0,0,0-15.2,1.358c-.076.015-.166.044-.173.118s.457-.141.409-.2a120.155,120.155,0,0,0,.48,20.76c1.615,14.664,5.915,28.917,7.829,43.543A28.286,28.286,0,0,0,232.2,380.11Z" transform="translate(-217.146 -315.266)" fill="#f8c19a"/>
      </g>
      <g id="Grupo_33744" data-name="Grupo 33744" transform="translate(291.183 423.842)">
        <path id="Trazado_82554" data-name="Trazado 82554" d="M275.057,361.773c-.752.865-10.391-4.319-11.531-4.778-5.452-2.2-10.7-4.788-16.112-7.056-6.336-2.659-16.807-4.872-16.79-13.215a149.6,149.6,0,0,1,1.56-21.28c.12-.821,6.993-.924,7.812-.91,2.744.042,4.721,1.257,7.3,1.5a134.29,134.29,0,0,0-1.084,17.1,5.436,5.436,0,0,0,.282,2.3,5.507,5.507,0,0,0,2.085,2.127q14.4,10.066,29.591,18.932C277.771,358.814,276.606,359.989,275.057,361.773Z" transform="translate(-230.623 -314.533)" fill="#f8c19a"/>
      </g>
      <g id="Grupo_33745" data-name="Grupo 33745" transform="translate(252.274 488.084)">
        <path id="Trazado_82555" data-name="Trazado 82555" d="M212.562,355.6a8.782,8.782,0,0,1,4.517-4.209c3.839-1.413,7.593-2.977,11.4-4.46a23.715,23.715,0,0,1,7.568-1.889,4.5,4.5,0,0,1,3.877,1.739c1.181,1.811-.339,2.756-1.1,4.275a6.541,6.541,0,0,0-.56,2.148,67.882,67.882,0,0,0-.143,7.321.751.751,0,0,1-.2.621.759.759,0,0,1-.411.109c-1.164.074-2.331.152-3.5.227a.732.732,0,0,1-.442-.067.706.706,0,0,1-.213-.64c.084-2.878,1.1-5.746.6-8.58a1.225,1.225,0,0,0-.3-.71c-.364-.341-.956-.162-1.4.065-2.664,1.356-4.584,3.784-6.658,5.936s-4.607,4.19-7.591,4.359c-2.939.166-6.416-1.842-5.786-5.207A4.229,4.229,0,0,1,212.562,355.6Z" transform="translate(-212.145 -345.043)" fill="#e26a84"/>
      </g>
      <g id="Grupo_33746" data-name="Grupo 33746" transform="translate(326.934 465.299)">
        <path id="Trazado_82556" data-name="Trazado 82556" d="M258.982,334.627a3.524,3.524,0,0,1,1.567-.4,5.837,5.837,0,0,1,4.222,1.613c.47.461.855,1,1.316,1.466,1.634,1.653,4.03,2.261,6.323,2.638,2.535.413,1.042,3.462.008,4.647a1.185,1.185,0,0,1-.459.358c-.979.328-2.7-1.925-3.506-2.354a10.915,10.915,0,0,0-4.22-1.207c-2.94-.229-2.638,2.314-3.026,4.439q-.483,2.669-.842,5.359a22.188,22.188,0,0,1-1.638,6.97c-1.063,2.148-3.135,3.984-5.532,4.007-3.257.034-5.807-2.011-5.58-5.464a6.5,6.5,0,0,1,1.754-3.927c.8-.863,1.845-1.371,2.676-2.19a12.674,12.674,0,0,0,2.034-2.512,11.4,11.4,0,0,0,1.535-6.1C255.56,339.133,256.253,336.071,258.982,334.627Z" transform="translate(-247.601 -334.222)" fill="#e26a84"/>
      </g>
      <g id="Grupo_33747" data-name="Grupo 33747" transform="translate(261.39 300.995)">
        <path id="Trazado_82557" data-name="Trazado 82557" d="M226,256.5c-.16,3.232,3.721,5.532,6.582,5.744,2.6.2,4.616-1.442,4.765,2.363a13.593,13.593,0,0,1-11.682,14,6.627,6.627,0,0,1-2.592-.059,8.814,8.814,0,0,1-3.186-1.891c-1.335-1.074-3.611-1.7-3.4-3.87.032-.326,2.573-1.784,2.91-2.133a6.353,6.353,0,0,0,1.28-7.761c-.539-1.162-1.358-2.4-.943-3.613a3.947,3.947,0,0,1,1.8-1.821C222.9,256.584,224.587,255.708,226,256.5Z" transform="translate(-216.474 -256.192)" fill="#f8c19a"/>
      </g>
      <g id="Grupo_33748" data-name="Grupo 33748" transform="translate(255.623 289.212)">
        <path id="Trazado_82558" data-name="Trazado 82558" d="M232.273,253.677a5.727,5.727,0,0,0-5.382-3.081c-3.563.044-7.227,2.474-9.572,5-1.977,2.125-3.811,5.056-3.561,8.084.305,3.712,2.247,7.711,6.515,7.429C228.22,270.585,236.531,261.457,232.273,253.677Z" transform="translate(-213.735 -250.596)" fill="#f8c19a"/>
      </g>
      <g id="Grupo_33749" data-name="Grupo 33749" transform="translate(273.729 281.926)">
        <path id="Trazado_82559" data-name="Trazado 82559" d="M230.049,253.474c-2.493,2.038-8.715,3.173-7.578-1.868.531-2.354,2.9-5.113,5.553-4.338,2.75.8,4.386,4.243,2.055,6.182Z" transform="translate(-222.334 -247.136)" fill="#424242"/>
      </g>
      <g id="Grupo_33750" data-name="Grupo 33750" transform="translate(252.349 294.937)">
        <path id="Trazado_82560" data-name="Trazado 82560" d="M212.235,254.771c-.465,1.3,2.186,2.379,3.175,2.607,1.583.364,5.732-2.3,3.784-3.75-.91-.674-5.9-.177-6.692.714A1.327,1.327,0,0,0,212.235,254.771Z" transform="translate(-212.18 -253.315)" fill="#f7aa77"/>
      </g>
      <g id="Grupo_33751" data-name="Grupo 33751" transform="translate(272.285 238.849)">
        <path id="Trazado_82561" data-name="Trazado 82561" d="M239.258,308.561a1.6,1.6,0,0,0,.512-.053c.665-.164,1.678-2.5,2.024-3.081a49.186,49.186,0,0,0,3.7-7.736,57.914,57.914,0,0,0,3.491-16.78,74.692,74.692,0,0,0-5.877-33.4,91.362,91.362,0,0,0-6.7-12.731c-2.457-3.885-5.839-7.144-10.5-8.025a3.5,3.5,0,0,0-4.028,1.828c-.914,2.028,1.129,3.653,2.47,4.833,11.427,10.027,13.122,29.092,10.8,43.33a56.861,56.861,0,0,1-3.377,11.916c-.931,2.331-3.455,5.07-2.588,7.753.979,3.028,4.788,5.986,7.046,8.071a10.316,10.316,0,0,1,1.958,2.106C238.571,307.253,238.34,308.485,239.258,308.561Z" transform="translate(-221.648 -226.678)" fill="#f8c19a"/>
      </g>
      <g id="Grupo_33753" data-name="Grupo 33753" transform="translate(264.661 286.451)">
        <g id="Grupo_33752" data-name="Grupo 33752">
          <path id="Trazado_82562" data-name="Trazado 82562" d="M218.385,254.006a6.735,6.735,0,0,0,1.586,1.794,10.739,10.739,0,0,1,.741.92c-.409-.524.484.724.564.846,1.322,2.026,3.184,4.923,5.776,5.287,3.417.48,5.871-1.823,5.3-5.3-.436-2.68-3.544-5.138-5.643-6.593-2.076-1.44-5.881-2.691-7.877-.451a3.011,3.011,0,0,0-.451,3.5Z" transform="translate(-218.027 -249.285)" fill="#2d2d2d"/>
        </g>
      </g>
      <g id="Grupo_33755" data-name="Grupo 33755" transform="translate(261.204 294.843)">
        <g id="Grupo_33754" data-name="Grupo 33754">
          <path id="Trazado_82563" data-name="Trazado 82563" d="M217.557,255.691a1.211,1.211,0,0,0,0-2.421,1.211,1.211,0,0,0,0,2.421Z" transform="translate(-216.386 -253.27)" fill="#2d2d2d"/>
        </g>
      </g>
      <g id="Grupo_33757" data-name="Grupo 33757" transform="translate(255.34 302.546)">
        <g id="Grupo_33756" data-name="Grupo 33756">
          <path id="Trazado_82564" data-name="Trazado 82564" d="M213.612,257.467c.526,1.729,2.748,2.287,4.336,2.455a5.641,5.641,0,0,0,5.214-2.291.475.475,0,0,0-.644-.646c-1.556.819-2.727,1.617-4.569,1.588-1.539-.021-2.6-1.063-3.99-1.449a.283.283,0,0,0-.345.343Z" transform="translate(-213.601 -256.928)" fill="#2d2d2d"/>
        </g>
      </g>
      <g id="Grupo_33759" data-name="Grupo 33759" transform="translate(192.747 311.397)">
        <g id="Grupo_33758" data-name="Grupo 33758">
          <path id="Trazado_82565" data-name="Trazado 82565" d="M185.893,268.854c1.423.023,2.815-.777,4.146-1.371a21.093,21.093,0,0,0,3.868-1.64,2.545,2.545,0,0,0-1.274-4.7c-1.8-.1-3.754.912-5.327,1.672-1.676.809-3.26,2.08-3.426,4.034a2.02,2.02,0,0,0,2.013,2.009Z" transform="translate(-183.874 -261.132)" fill="#f8c19a"/>
        </g>
      </g>
      <g id="Grupo_33761" data-name="Grupo 33761" transform="translate(219.157 232.472)" opacity="0.27">
        <g id="Grupo_33760" data-name="Grupo 33760">
          <path id="Trazado_82566" data-name="Trazado 82566" d="M202.351,243.438c-1.228-.24.764.122.821.122a4.4,4.4,0,0,0,2.584-1.4c1.476-1.2,2.085-3.62,2.36-5.409a12.675,12.675,0,0,0-5.31-12.333c-4.555-3.207-9.124,4.47-4.386,7.5a6.654,6.654,0,0,1,2.786,5.176c.149,1.569-1.324,5.856,1.145,6.342Z" transform="translate(-196.417 -223.649)" fill="#8e8e8e"/>
        </g>
      </g>
      <g id="Grupo_33763" data-name="Grupo 33763" transform="translate(226.051 272.709)" opacity="0.27">
        <g id="Grupo_33762" data-name="Grupo 33762">
          <path id="Trazado_82567" data-name="Trazado 82567" d="M212.013,267.263a20.076,20.076,0,0,0,3.594-5.6,13.659,13.659,0,0,0,.326-7.8c-1.213-5.5-6.115-10.81-11.954-11.105-4.131-.213-6.075,6.2-2.171,8.01,1.27.587,2.714.891,3.8,1.811a11.216,11.216,0,0,1,2.674,3.872c1.188,2.516,2.47,6.848,1.619,9.572-.362,1.154,1.308,2.247,2.114,1.234Z" transform="translate(-199.691 -242.759)" fill="#8e8e8e"/>
        </g>
      </g>
      <g id="Grupo_33793" data-name="Grupo 33793" transform="translate(175.85 215.67)">
        <g id="Grupo_33792" data-name="Grupo 33792" clip-path="url(#clip-path)">
          <g id="Grupo_33765" data-name="Grupo 33765" transform="translate(72.401 57.135)">
            <g id="Grupo_33764" data-name="Grupo 33764">
              <path id="Trazado_82568" data-name="Trazado 82568" d="M210.243,243.507a33.664,33.664,0,0,0,1.927,5.5,15.434,15.434,0,0,0,2.485,4.94.493.493,0,0,0,.836-.345,32.026,32.026,0,0,0-4.346-10.625c-.379-.451-.994.046-.9.526Z" transform="translate(-210.234 -242.804)" fill="#424242"/>
            </g>
          </g>
          <g id="Grupo_33767" data-name="Grupo 33767" transform="translate(78.742 54.68)">
            <g id="Grupo_33766" data-name="Grupo 33766">
              <path id="Trazado_82569" data-name="Trazado 82569" d="M213.255,242.327a19.69,19.69,0,0,0,2.278,5.559c.705,1.327,1.851,3.4,3.422,3.78a.5.5,0,0,0,.611-.613c-.354-1.449-1.72-2.792-2.478-4.074-.981-1.659-1.75-3.476-2.822-5.077a.556.556,0,0,0-1.011.425Z" transform="translate(-213.245 -241.638)" fill="#424242"/>
            </g>
          </g>
          <g id="Grupo_33769" data-name="Grupo 33769" transform="translate(84.557 51.669)">
            <g id="Grupo_33768" data-name="Grupo 33768">
              <path id="Trazado_82570" data-name="Trazado 82570" d="M216.1,241.033c1,1.308,2.114,2.493,3.2,3.725a31.8,31.8,0,0,0,3.323,3.891c.413.333,1.185.171,1.146-.474-.107-1.63-1.367-2.923-2.432-4.058a33.761,33.761,0,0,0-4.5-3.824c-.423-.318-1.063.314-.739.739Z" transform="translate(-216.007 -240.208)" fill="#424242"/>
            </g>
          </g>
          <g id="Grupo_33771" data-name="Grupo 33771" transform="translate(91.609 46.85)">
            <g id="Grupo_33770" data-name="Grupo 33770">
              <path id="Trazado_82571" data-name="Trazado 82571" d="M219.625,239.032c1.4.905,2.855,1.7,4.323,2.487a10.813,10.813,0,0,0,3.742,1.691c.375.038.507-.4.387-.676-.585-1.312-2.017-1.931-3.22-2.567a32.12,32.12,0,0,0-4.778-2.015c-.659-.219-1,.729-.455,1.08Z" transform="translate(-219.356 -237.92)" fill="#424242"/>
            </g>
          </g>
          <g id="Grupo_33773" data-name="Grupo 33773" transform="translate(97.69 40.058)">
            <g id="Grupo_33772" data-name="Grupo 33772">
              <path id="Trazado_82572" data-name="Trazado 82572" d="M222.482,235.633a13.812,13.812,0,0,1,3.42,3.234c.886.971,1.845,2.316,3.178,2.662a.707.707,0,0,0,.792-1.03c-.649-1.343-2.173-2.472-3.245-3.485a10.981,10.981,0,0,0-3.761-2.291c-.529-.2-.878.655-.383.91Z" transform="translate(-222.244 -234.694)" fill="#424242"/>
            </g>
          </g>
          <g id="Grupo_33775" data-name="Grupo 33775" transform="translate(105.668 18.403)">
            <g id="Grupo_33774" data-name="Grupo 33774">
              <path id="Trazado_82573" data-name="Trazado 82573" d="M226.174,225.173a17.833,17.833,0,0,0,2.975,1.815,11.229,11.229,0,0,0,3.765,1.436.407.407,0,0,0,.394-.674,8.731,8.731,0,0,0-2.969-1.836,28.284,28.284,0,0,0-3.731-1.489c-.411-.118-.79.453-.434.747Z" transform="translate(-226.033 -224.41)" fill="#424242"/>
            </g>
          </g>
          <g id="Grupo_33777" data-name="Grupo 33777" transform="translate(110.018 11.826)">
            <g id="Grupo_33776" data-name="Grupo 33776">
              <path id="Trazado_82574" data-name="Trazado 82574" d="M228.209,221.834c1.213,1.011,1.984,2.773,2.834,4.074.693,1.068,1.64,2.451,3.051,2.457a.41.41,0,0,0,.394-.518c-.524-1.335-1.746-2.487-2.56-3.67a7.652,7.652,0,0,0-3.319-2.859c-.316-.15-.705.259-.4.516Z" transform="translate(-228.098 -221.286)" fill="#424242"/>
            </g>
          </g>
          <g id="Grupo_33779" data-name="Grupo 33779" transform="translate(118.647 7.195)">
            <g id="Grupo_33778" data-name="Grupo 33778">
              <path id="Trazado_82575" data-name="Trazado 82575" d="M232.2,219.441c.086,1.659.493,3.306.64,4.971.122,1.362.086,2.872,1.238,3.761.278.215.64-.029.739-.3.488-1.343-.135-3.2-.314-4.586a6.257,6.257,0,0,0-1.678-4.106.37.37,0,0,0-.625.259Z" transform="translate(-232.197 -219.087)" fill="#424242"/>
            </g>
          </g>
          <g id="Grupo_33781" data-name="Grupo 33781" transform="translate(124.058 9.106)">
            <g id="Grupo_33780" data-name="Grupo 33780">
              <path id="Trazado_82576" data-name="Trazado 82576" d="M239.685,220.008c-1.792.529-2.834,2.979-3.548,4.523-.646,1.4-2.026,3.992-1.007,5.452a.492.492,0,0,0,.663.173c1.27-.762,1.577-2.969,2.074-4.266.661-1.735,2.2-3.636,2.3-5.51a.387.387,0,0,0-.486-.371Z" transform="translate(-234.766 -219.994)" fill="#424242"/>
            </g>
          </g>
          <g id="Grupo_33783" data-name="Grupo 33783" transform="translate(11.326 84.075)">
            <g id="Grupo_33782" data-name="Grupo 33782">
              <path id="Trazado_82577" data-name="Trazado 82577" d="M181.267,256.188a5.438,5.438,0,0,0,2.881,2.708c1.213.634,2.9,1.737,4.3,1.771a.377.377,0,0,0,.36-.472c-.259-1.158-1.689-1.647-2.645-2.064-1.32-.579-3.116-1.08-4-2.322-.3-.419-1.12-.173-.895.379Z" transform="translate(-181.229 -255.598)" fill="#424242"/>
            </g>
          </g>
          <g id="Grupo_33785" data-name="Grupo 33785" transform="translate(6.313 94.192)">
            <g id="Grupo_33784" data-name="Grupo 33784">
              <path id="Trazado_82578" data-name="Trazado 82578" d="M179.046,261.159a21.824,21.824,0,0,0,4.072,1.546,20.894,20.894,0,0,0,4.784,1.156.408.408,0,0,0,.286-.689c-2.074-2.114-6.119-1.964-8.831-2.754a.408.408,0,0,0-.312.741Z" transform="translate(-178.848 -260.403)" fill="#424242"/>
            </g>
          </g>
          <g id="Grupo_33787" data-name="Grupo 33787" transform="translate(4.85 102.473)">
            <g id="Grupo_33786" data-name="Grupo 33786">
              <path id="Trazado_82579" data-name="Trazado 82579" d="M178.368,267.285c1.371.853,3.013.419,4.451-.027a20.022,20.022,0,0,0,4.967-2.2.349.349,0,0,0-.082-.634c-3.144-.642-5.9,2.384-9.1,1.979-.495-.061-.6.655-.238.88Z" transform="translate(-178.153 -264.335)" fill="#424242"/>
            </g>
          </g>
          <g id="Grupo_33789" data-name="Grupo 33789" transform="translate(6.215 111.606)">
            <g id="Grupo_33788" data-name="Grupo 33788">
              <path id="Trazado_82580" data-name="Trazado 82580" d="M179.039,273.348c1.177.383,2.754-.585,3.822-1.044a11.518,11.518,0,0,0,4.186-2.828.469.469,0,0,0-.453-.779,27.69,27.69,0,0,0-4.178,1.853c-1.068.537-3.013,1.19-3.573,2.314a.334.334,0,0,0,.2.484Z" transform="translate(-178.801 -268.673)" fill="#424242"/>
            </g>
          </g>
          <g id="Grupo_33791" data-name="Grupo 33791" transform="translate(10.077 116.015)">
            <g id="Grupo_33790" data-name="Grupo 33790">
              <path id="Trazado_82581" data-name="Trazado 82581" d="M181.536,278.685A48.592,48.592,0,0,1,185.713,275c1.177-.973,2.885-2.087,3.323-3.628a.485.485,0,0,0-.587-.59c-1.514.4-2.912,1.893-4.064,2.891a14.857,14.857,0,0,0-3.687,4.365c-.272.524.4,1.1.838.646Z" transform="translate(-180.635 -270.767)" fill="#424242"/>
            </g>
          </g>
        </g>
      </g>
      <g id="Grupo_33794" data-name="Grupo 33794" transform="translate(183.409 303.009)">
        <path id="Trazado_82583" data-name="Trazado 82583" d="M259.565,292.552a6.329,6.329,0,0,1-.67,1.225c-3.733,5.247-12.175,7.778-17.942,9.812-10.886,3.839-22.922,6.435-34.478,5.23a28.892,28.892,0,0,1-14.4-5.241,35.615,35.615,0,0,1-11.337-14.893c-2.152-5.292-1.089-21.151-.579-22.295.752-1.682.952-5.82,2.365-7s5.944-4.258,9.273-.242c2.192,2.645,2.11,7.243,1.649,11.5-.535,4.967-.505,11.611,2.261,15.563,1.882,2.689,6.306,4.243,9.444,4.584a60.9,60.9,0,0,0,22.111-1.779c6.633-1.769,13.236-4.079,18.94-7.983,1.933-1.327,6.711-6.639,8.8-6.264,2.354.419,4.637,5.42,5.073,7.458a12.848,12.848,0,0,1,.215,2.514C260.329,287.145,260.531,290.2,259.565,292.552Z" transform="translate(-179.44 -257.148)" fill="#f8c19a"/>
      </g>
      <g id="Grupo_33795" data-name="Grupo 33795" transform="translate(251.679 303.99)">
        <path id="Trazado_82584" data-name="Trazado 82584" d="M279.942,378.055c-.013-.149-.023-.3-.032-.446-.219-3.957-1.343-7.78-2.243-11.617a135.687,135.687,0,0,0-4.2-14.689c-1.228-3.447-3.188-6.795-4.734-10.151-1.781-3.872-3.853-7.62-5.254-11.659a52.687,52.687,0,0,1-3.121-16.193,93.075,93.075,0,0,0-1.834-20.134,93.672,93.672,0,0,0-4.894-14.693c-.825-2.024-3-15.679-11.168-20.629-1.712-1.038-4.119,1.693-3.068,3.274,1.807,2.718-.057,6.346-2.167,8.747a8.571,8.571,0,0,1-7.3,3.064c-2.466-.337-5.4-3.078-7.787-2.775a5.952,5.952,0,0,0-3.992,2.363c-1.158,1.99.83,3.4,2,4.919,2.811,3.641,3.523,7.763,2.788,12.43-.4,2.514-2.883,5.247-5.828,8.343-2.392,2.512-.916,5.847,1.272,7.97,2.733,2.649,4.645,4.971,5.508,8.9,1.512,6.877.352,13.354-1.674,19.968q-1.387,4.529-2.775,9.065c-2.457,8.023-4.919,16.081-6.342,24.367a60.054,60.054,0,0,0-1.209,12.463c.257,5.991,7.907,4.908,12.265,5.209,14.081.981,29-.617,43.155-1.7C272.208,384.067,279.942,384.614,279.942,378.055Z" transform="translate(-211.862 -257.614)" fill="#6fd8d8"/>
      </g>
    </g>
    <g id="Grupo_36326" data-name="Grupo 36326">
      <g id="Rectángulo_31606" data-name="Rectángulo 31606" transform="translate(281 8981)" fill="#fff" stroke="#d268cc" stroke-width="3">
        <rect width="178" height="89" rx="15" stroke="none"/>
        <rect x="1.5" y="1.5" width="175" height="86" rx="13.5" fill="none"/>
      </g>
      <path id="Trazado_85179" data-name="Trazado 85179" d="M14.355.785V2.836h-5.8V18H6.188V2.836H.387V.785Zm4.172,15.855A2.909,2.909,0,0,0,21.4,15.053a7.911,7.911,0,0,0,.779-3.533,6.291,6.291,0,0,0-.562-2.859,3.164,3.164,0,0,0-3.07-1.734A3.028,3.028,0,0,0,15.738,8.4a6.844,6.844,0,0,0-.879,3.563,5.953,5.953,0,0,0,.879,3.34A3.1,3.1,0,0,0,18.527,16.641Zm.082-11.555a5.683,5.683,0,0,1,4.1,1.617,6.315,6.315,0,0,1,1.676,4.758,8.163,8.163,0,0,1-1.477,5.016,5.341,5.341,0,0,1-4.582,1.98,5.173,5.173,0,0,1-4.113-1.752A6.92,6.92,0,0,1,12.691,12,7.487,7.487,0,0,1,14.3,6.961,5.388,5.388,0,0,1,18.609,5.086Zm8.285.363H28.98V7.23A7.011,7.011,0,0,1,30.34,5.883a4.088,4.088,0,0,1,2.367-.715,3.726,3.726,0,0,1,2.414.738,3.859,3.859,0,0,1,.938,1.242,4.559,4.559,0,0,1,1.652-1.494,4.609,4.609,0,0,1,2.133-.486A3.488,3.488,0,0,1,43.289,7a5.976,5.976,0,0,1,.492,2.648V18H41.59V9.281a2.031,2.031,0,0,0-.627-1.723,2.481,2.481,0,0,0-1.529-.469,3.036,3.036,0,0,0-2.139.832,3.654,3.654,0,0,0-.9,2.777V18H34.254V9.809a4.256,4.256,0,0,0-.3-1.863,1.858,1.858,0,0,0-1.793-.879,3.094,3.094,0,0,0-2.174.926A4.537,4.537,0,0,0,29,11.344V18H26.895ZM48.5,14.66a1.737,1.737,0,0,0,.668,1.441,2.477,2.477,0,0,0,1.582.527,4.81,4.81,0,0,0,2.156-.516,2.9,2.9,0,0,0,1.758-2.8v-1.7a3.609,3.609,0,0,1-1,.41,8.488,8.488,0,0,1-1.2.234l-1.277.164a4.885,4.885,0,0,0-1.723.48A1.872,1.872,0,0,0,48.5,14.66Zm5.109-4.266a1.146,1.146,0,0,0,.973-.609,1.854,1.854,0,0,0,.141-.809,1.713,1.713,0,0,0-.768-1.564,4.118,4.118,0,0,0-2.2-.486,2.792,2.792,0,0,0-2.344.891,2.93,2.93,0,0,0-.5,1.465H46.945a3.624,3.624,0,0,1,1.506-3.229,6.183,6.183,0,0,1,3.357-.908,6.831,6.831,0,0,1,3.6.844,2.862,2.862,0,0,1,1.371,2.625v7.23a.926.926,0,0,0,.135.527.65.65,0,0,0,.568.2q.141,0,.316-.018t.375-.053v1.559a5.875,5.875,0,0,1-.75.176,5.481,5.481,0,0,1-.7.035,1.735,1.735,0,0,1-1.582-.773,2.985,2.985,0,0,1-.363-1.16A5.367,5.367,0,0,1,52.922,17.8a5.727,5.727,0,0,1-2.66.621,3.956,3.956,0,0,1-2.854-1.061A3.523,3.523,0,0,1,46.3,14.707,3.419,3.419,0,0,1,47.391,12a5.185,5.185,0,0,1,2.859-1.184Zm6.68-4.945h2V7.617A4.79,4.79,0,0,1,63.5,6.076a3.13,3.13,0,0,1,2.215-.908q.059,0,.2.012t.48.047V7.453a3.151,3.151,0,0,0-.346-.047q-.158-.012-.346-.012A3.01,3.01,0,0,0,63.258,8.42a3.579,3.579,0,0,0-.855,2.361V18H60.293ZM76.23,11.871a6.221,6.221,0,0,0,.855,3.375,3,3,0,0,0,2.742,1.359,2.888,2.888,0,0,0,2.408-1.26,5.949,5.949,0,0,0,.943-3.615,5.346,5.346,0,0,0-.973-3.521,3.034,3.034,0,0,0-2.4-1.143,3.171,3.171,0,0,0-2.584,1.219A5.582,5.582,0,0,0,76.23,11.871Zm3.176-6.645a4.465,4.465,0,0,1,2.414.609A5.671,5.671,0,0,1,83.1,7.066V.727h2.027V18h-1.9V16.254A4.564,4.564,0,0,1,81.48,17.93a5,5,0,0,1-2.309.516,4.675,4.675,0,0,1-3.633-1.764A6.9,6.9,0,0,1,74,11.988a8.1,8.1,0,0,1,1.4-4.752A4.585,4.585,0,0,1,79.406,5.227Zm14.063-.059a5.725,5.725,0,0,1,2.59.627,4.776,4.776,0,0,1,1.91,1.623,5.6,5.6,0,0,1,.844,2.215A14.491,14.491,0,0,1,99,12.4H89.8a5.368,5.368,0,0,0,.9,3.064,3.021,3.021,0,0,0,2.613,1.154,3.378,3.378,0,0,0,2.637-1.09,3.674,3.674,0,0,0,.8-1.465h2.074a4.369,4.369,0,0,1-.545,1.541,5.481,5.481,0,0,1-1.037,1.389,4.916,4.916,0,0,1-2.379,1.266,7.227,7.227,0,0,1-1.723.188,5.286,5.286,0,0,1-3.973-1.705,6.634,6.634,0,0,1-1.629-4.775,7.214,7.214,0,0,1,1.641-4.91A5.412,5.412,0,0,1,93.469,5.168Zm3.363,5.555a5.465,5.465,0,0,0-.6-2.191A3.063,3.063,0,0,0,93.34,7.008,3.209,3.209,0,0,0,90.9,8.057a3.962,3.962,0,0,0-1.043,2.666ZM1.547,29.449H3.633V31.23a7.011,7.011,0,0,1,1.359-1.348,4.088,4.088,0,0,1,2.367-.715,3.726,3.726,0,0,1,2.414.738,3.859,3.859,0,0,1,.938,1.242,4.559,4.559,0,0,1,1.652-1.494,4.609,4.609,0,0,1,2.133-.486A3.488,3.488,0,0,1,17.941,31a5.976,5.976,0,0,1,.492,2.648V42H16.242V33.281a2.031,2.031,0,0,0-.627-1.723,2.481,2.481,0,0,0-1.529-.469,3.036,3.036,0,0,0-2.139.832,3.654,3.654,0,0,0-.9,2.777V42H8.906V33.809a4.256,4.256,0,0,0-.3-1.863,1.858,1.858,0,0,0-1.793-.879,3.094,3.094,0,0,0-2.174.926,4.537,4.537,0,0,0-.979,3.352V42H1.547Zm25.219-.281a5.725,5.725,0,0,1,2.59.627,4.776,4.776,0,0,1,1.91,1.623,5.6,5.6,0,0,1,.844,2.215A14.491,14.491,0,0,1,32.3,36.4H23.1a5.368,5.368,0,0,0,.9,3.064,3.021,3.021,0,0,0,2.613,1.154,3.378,3.378,0,0,0,2.637-1.09,3.674,3.674,0,0,0,.8-1.465h2.074a4.369,4.369,0,0,1-.545,1.541,5.481,5.481,0,0,1-1.037,1.389,4.916,4.916,0,0,1-2.379,1.266,7.227,7.227,0,0,1-1.723.188,5.286,5.286,0,0,1-3.973-1.705,6.634,6.634,0,0,1-1.629-4.775,7.214,7.214,0,0,1,1.641-4.91A5.412,5.412,0,0,1,26.766,29.168Zm3.363,5.555a5.465,5.465,0,0,0-.6-2.191,3.063,3.063,0,0,0-2.895-1.523A3.209,3.209,0,0,0,24.2,32.057a3.962,3.962,0,0,0-1.043,2.666Zm6.094,1.148a6.221,6.221,0,0,0,.855,3.375,3,3,0,0,0,2.742,1.359,2.888,2.888,0,0,0,2.408-1.26,5.949,5.949,0,0,0,.943-3.615,5.346,5.346,0,0,0-.973-3.521,3.034,3.034,0,0,0-2.4-1.143,3.171,3.171,0,0,0-2.584,1.219A5.582,5.582,0,0,0,36.223,35.871ZM39.4,29.227a4.465,4.465,0,0,1,2.414.609,5.671,5.671,0,0,1,1.277,1.23v-6.34h2.027V42h-1.9V40.254a4.564,4.564,0,0,1-1.746,1.676,5,5,0,0,1-2.309.516,4.675,4.675,0,0,1-3.633-1.764A6.9,6.9,0,0,1,34,35.988a8.1,8.1,0,0,1,1.4-4.752A4.585,4.585,0,0,1,39.4,29.227Zm8.836.281h2.145V42H48.234Zm0-4.723h2.145v2.391H48.234ZM54.9,35.871a6.221,6.221,0,0,0,.855,3.375A3,3,0,0,0,58.5,40.605a2.888,2.888,0,0,0,2.408-1.26,5.949,5.949,0,0,0,.943-3.615,5.346,5.346,0,0,0-.973-3.521,3.034,3.034,0,0,0-2.4-1.143,3.171,3.171,0,0,0-2.584,1.219A5.582,5.582,0,0,0,54.9,35.871Zm3.176-6.645a4.465,4.465,0,0,1,2.414.609,5.671,5.671,0,0,1,1.277,1.23v-6.34H63.8V42H61.9V40.254a4.564,4.564,0,0,1-1.746,1.676,5,5,0,0,1-2.309.516,4.675,4.675,0,0,1-3.633-1.764,6.9,6.9,0,0,1-1.535-4.693,8.1,8.1,0,0,1,1.4-4.752A4.585,4.585,0,0,1,58.078,29.227ZM68.531,38.66A1.737,1.737,0,0,0,69.2,40.1a2.477,2.477,0,0,0,1.582.527,4.81,4.81,0,0,0,2.156-.516,2.9,2.9,0,0,0,1.758-2.8v-1.7a3.609,3.609,0,0,1-1,.41,8.488,8.488,0,0,1-1.2.234l-1.277.164a4.885,4.885,0,0,0-1.723.48A1.872,1.872,0,0,0,68.531,38.66Zm5.109-4.266a1.146,1.146,0,0,0,.973-.609,1.854,1.854,0,0,0,.141-.809,1.713,1.713,0,0,0-.768-1.564,4.118,4.118,0,0,0-2.2-.486,2.792,2.792,0,0,0-2.344.891,2.93,2.93,0,0,0-.5,1.465H66.973a3.624,3.624,0,0,1,1.506-3.229,6.183,6.183,0,0,1,3.357-.908,6.831,6.831,0,0,1,3.6.844A2.862,2.862,0,0,1,76.8,32.613v7.23a.926.926,0,0,0,.135.527.65.65,0,0,0,.568.2q.141,0,.316-.018T78.2,40.5v1.559a5.875,5.875,0,0,1-.75.176,5.481,5.481,0,0,1-.7.035,1.735,1.735,0,0,1-1.582-.773,2.985,2.985,0,0,1-.363-1.16A5.367,5.367,0,0,1,72.949,41.8a5.727,5.727,0,0,1-2.66.621,3.956,3.956,0,0,1-2.854-1.061,3.523,3.523,0,0,1-1.107-2.654A3.419,3.419,0,0,1,67.418,36a5.185,5.185,0,0,1,2.859-1.184Zm7.875,3.668a3.068,3.068,0,0,0,.527,1.617,3.314,3.314,0,0,0,2.766,1.02,4.079,4.079,0,0,0,2.063-.51,1.693,1.693,0,0,0,.891-1.576,1.348,1.348,0,0,0-.715-1.23,8.5,8.5,0,0,0-1.8-.6l-1.676-.422a8.175,8.175,0,0,1-2.367-.891,2.662,2.662,0,0,1-1.359-2.367,3.617,3.617,0,0,1,1.283-2.883,5.119,5.119,0,0,1,3.451-1.1,4.791,4.791,0,0,1,4.09,1.664,3.611,3.611,0,0,1,.762,2.273H87.434a2.44,2.44,0,0,0-.5-1.3,3.214,3.214,0,0,0-2.52-.832,3.012,3.012,0,0,0-1.811.457,1.432,1.432,0,0,0-.615,1.207,1.486,1.486,0,0,0,.809,1.313,4.859,4.859,0,0,0,1.383.516l1.395.34a10.782,10.782,0,0,1,3.047,1.066,2.824,2.824,0,0,1,1.23,2.543,3.875,3.875,0,0,1-1.271,2.895A5.413,5.413,0,0,1,84.7,42.48q-2.8,0-3.967-1.271a4.809,4.809,0,0,1-1.248-3.146Z" transform="translate(310 8999.5)" fill="#00223d"/>
    </g>
  </g>
</svg>
