<svg xmlns="http://www.w3.org/2000/svg" xmlns:xlink="http://www.w3.org/1999/xlink" width="228" height="484.913" viewBox="0 0 228 484.913">
  <defs>
    <clipPath id="clip-path">
      <rect id="Rectángulo_29256" data-name="Rectángulo 29256" width="196.522" height="475.111" fill="none"/>
    </clipPath>
  </defs>
  <g id="Grupo_28497" data-name="Grupo 28497" transform="translate(-197 -7095)">
    <ellipse id="Elipse_947" data-name="Elipse 947" cx="114" cy="20.5" rx="114" ry="20.5" transform="translate(197 7538.913)" fill="#aed3f2"/>
    <g id="Grupo_27006" data-name="Grupo 27006" transform="translate(208.914 7095)">
      <g id="Grupo_27005" data-name="Grupo 27005" transform="translate(0 0)" clip-path="url(#clip-path)">
        <path id="Trazado_69004" data-name="Trazado 69004" d="M65.3,307.466s-2.22,14.181-4.985,20.9c-2.123,5.164-2.2,8.539.112,9.916,5.861,3.493,10.693,4.4,12.652,3.867,3.261-.892,2.177-6.488,1.976-9.284-.349-4.836.047-7.626-.169-9.826a97.714,97.714,0,0,1-.225-15.15c-.074-5.015-9.185-6.353-9.361-.424" transform="translate(24.505 126.71)" fill="#ffbb94"/>
        <path id="Trazado_69005" data-name="Trazado 69005" d="M85.189,307.466s2.22,14.181,4.985,20.9c2.123,5.164,2.2,8.539-.112,9.916-5.86,3.493-10.693,4.4-12.652,3.867-3.262-.892-2.177-6.488-1.976-9.284.349-4.836-.047-7.626.169-9.826a98.014,98.014,0,0,0,.227-15.15c.072-5.015,9.185-6.353,9.359-.424" transform="translate(31.349 126.71)" fill="#ffbb94"/>
        <path id="Trazado_69006" data-name="Trazado 69006" d="M74.44,254.381c-.071,6.378,3.24,79.811,2.771,81.392s-8.282,4-9.182.156c-9.9-42.273-17.6-59.409-14.889-85.722,2.147-20.833,21.524-15.948,21.3,4.174" transform="translate(21.953 98.827)" fill="#ffbb94"/>
        <path id="Trazado_69007" data-name="Trazado 69007" d="M41.729,156.234c-.13.468-2.5,16.549-1.529,25.956.961,9.352,17.553,95.832,17.906,101.3.9,13.98,17.008,22.733,21.015,8.96,2.858-9.82.507-22.368.17-56.51-.285-28.689.352-49.711.266-53.088-.437-17.5-33.539-41.994-37.828-26.617" transform="translate(16.684 63.188)" fill="#ffbb94"/>
        <path id="Trazado_69008" data-name="Trazado 69008" d="M74.758,255.16c.383,6.368.659,79.875,1.2,81.43s8.466,3.595,9.178-.292c7.821-42.706,14.683-60.2,10.689-86.347-3.162-20.7-22.278-14.877-21.072,5.209" transform="translate(31.183 98.924)" fill="#ffbb94"/>
        <path id="Trazado_69009" data-name="Trazado 69009" d="M107.645,155.567c.153.461,3.3,16.407,2.794,25.848-.5,9.389-12.856,96.577-12.941,102.054-.218,14.007-15.878,23.536-20.553,9.973-3.332-9.667-1.6-22.315-2.927-56.432C72.9,208.34,71.241,187.376,71.16,184c-.418-17.507,31.45-43.582,36.485-28.432" transform="translate(29.703 63.039)" fill="#ffbb94"/>
        <path id="Trazado_69010" data-name="Trazado 69010" d="M57.73,126.742c-4.041,12.738-14.072,35.324-15.766,42.364s-2.176,16.3,4.16,22.819c2.224,2.291,3.821,9.436,34.033,9.436,17.179,0,24.955-2.183,32.9-11.478,1.456-1.7,10.146-11.654,6.244-22.411-3.8-10.471-13.682-33.491-15.775-40.577-5.07-17.186-39.855-18.876-45.794-.153" transform="translate(17.059 47.313)" fill="#ffbb94"/>
        <path id="Trazado_69011" data-name="Trazado 69011" d="M45.538,74.918C31.182,105.76,22.112,139.633,21.365,142.4s6.146,11.174,14.03,7.407c2.218-1.06,15.348-42.439,17.252-46.947C62.73,78.973,50.576,64.1,45.538,74.918" transform="translate(8.895 29.774)" fill="#ffbb94"/>
        <path id="Trazado_69012" data-name="Trazado 69012" d="M102.285,74.879c15.889,30.081,26.652,63.456,27.536,66.178s-5.576,11.468-13.64,8.1c-2.268-.948-17.463-41.613-19.59-46.02-11.273-23.347.119-38.815,5.694-28.262" transform="translate(38.317 29.846)" fill="#ffbb94"/>
        <path id="Trazado_69013" data-name="Trazado 69013" d="M71.164,62.129c-8.4,1.748-23.848,8.676-30.73,14.1-.329.261,2.041,25.195,7.575,41.792,7.436,22.31,9.8,33.972,12.052,37.015,11.171,15.1,37.946,18.748,42.371-.846,3.155-13.972,9.3-36,9.3-36l7.239-42.706c-6.566-4.615-17.432-10.763-28.2-13.46a48.887,48.887,0,0,0-19.6.108" transform="translate(16.866 25.501)" fill="#ffbb94"/>
        <path id="Trazado_69014" data-name="Trazado 69014" d="M54.574,128.253c-.54-.206-10.615,26.744-12.914,38.755s-3.229,23.667-.615,31.867,80.306,3.724,83.029-1.967,2.164-19.291-2.824-36.787c-2.045-7.176-12.03-31.025-12.03-31.025s-31.106,8.125-54.646-.843" transform="translate(16.474 53.536)" fill="#634540"/>
        <path id="Trazado_69015" data-name="Trazado 69015" d="M39.483,173.442s.335,10.441,2.828,27.977,9.22,48.361,14.645,80.47c1.461,8.658,23.273,12.49,25.138-1.681s-.057-99.688-.536-110.258-43.073-25.208-42.075,3.491" transform="translate(16.474 65.407)" fill="#634540"/>
        <path id="Trazado_69016" data-name="Trazado 69016" d="M51.892,247.278c.014,9.08-1.406,16.334,1.87,36.273s10.962,45.4,10.962,45.4,9.344,4.563,15.192-.961c0,0-1.629-67.019-2.886-83.352s-25.165-14.723-25.138,2.641" transform="translate(21.538 97.374)" fill="#634540"/>
        <path id="Trazado_69017" data-name="Trazado 69017" d="M112.674,171.531s.173,10.446-1.468,28.082S103.865,257.3,100.48,280.7c-1.256,8.689-22.639,13.6-25.191-.462s-4.777-99.573-4.809-110.153,41.8-27.267,42.194,1.446" transform="translate(29.42 64.935)" fill="#634540"/>
        <path id="Trazado_69018" data-name="Trazado 69018" d="M99.012,245.919c.425,9.07,2.2,16.248-.109,36.32s-8.748,45.878-8.748,45.878-9.111,5.011-15.22-.223c0,0-1.623-67.019-1.159-83.4s24.422-15.923,25.237,1.42" transform="translate(30.761 97.075)" fill="#634540"/>
        <path id="Trazado_69019" data-name="Trazado 69019" d="M69.866,132.538a1.922,1.922,0,0,0,0,3.843,1.922,1.922,0,0,0,0-3.843" transform="translate(28.389 55.325)" fill="#543832"/>
        <path id="Trazado_69020" data-name="Trazado 69020" d="M81.737,135.137l17.429,19.511v-1.953L85.3,133.216Z" transform="translate(34.12 55.608)" fill="#543832"/>
        <path id="Trazado_69021" data-name="Trazado 69021" d="M62.878,135.137,45.449,154.648v-1.953l13.865-19.478Z" transform="translate(18.972 55.608)" fill="#543832"/>
        <path id="Trazado_69022" data-name="Trazado 69022" d="M51.26,70.071c-.985.231-4.208.6-8.748,8.313s-22.2,58.649-21.775,65.077c.088,1.318,15.949,7.728,17.025,6.1,0,0,21.2-46.609,23.916-57.684S58.3,68.426,51.26,70.071" transform="translate(8.653 29.188)" fill="#f4ece8"/>
        <path id="Trazado_69023" data-name="Trazado 69023" d="M97.741,70.335c1,.17,4.237.344,9.229,7.777s24.078,57.057,25.614,63.661c.6,2.571-15.862,8.608-16.624,7.473-5.79-8.636-23.952-45.633-27.32-56.527s1.976-23.606,9.1-22.384" transform="translate(36.57 29.326)" fill="#f4ece8"/>
        <path id="Trazado_69024" data-name="Trazado 69024" d="M65.863,61.843c-.162-1.03-15.48,5.918-23.478,10.877a147.758,147.758,0,0,0,0,21.2A165.881,165.881,0,0,0,47.5,125.346c2.079,8.317,3.519,13.833,3.359,19.073s-4.052,23.69-4.052,23.69,20.142,6.665,35.45,6.5,32.106-8.279,32.106-8.279-7.6-17.891-6.68-23.762,4.7-25.63,6.2-35.181c1.32-8.4,2.869-34.194,2.869-34.194S101.131,64.4,94.073,61.843L79.479,106.92Z" transform="translate(17.544 25.772)" fill="#fcf2ed"/>
        <path id="Trazado_69025" data-name="Trazado 69025" d="M48.906,70S42.363,75.742,38.08,87.365,19.591,140.606,18.474,147.72s15.4,21.437,23.314,5.814,16.353-43.416,18.867-51.93S61.1,66.829,48.906,70" transform="translate(7.689 29.111)" fill="#d268cc"/>
        <path id="Trazado_69026" data-name="Trazado 69026" d="M61.841,63.031s-10.154,4.408-21,9.684c0,0,1.416,23.585,2.279,45.412s-4.214,82.364-4.214,98.3-1.021,29.1-1.021,29.1,23.311,3.2,40.326,0c0,0-3.76-95.256-5.538-129.287S61.841,63.031,61.841,63.031" transform="translate(15.813 26.311)" fill="#d268cc"/>
        <path id="Trazado_69027" data-name="Trazado 69027" d="M56.759,63.031s-9.1,10.336-6.092,24.288S61.36,123.9,64.776,141.768s5.219,27.358,5.219,27.358S68.98,122.4,66.373,102.136a201.345,201.345,0,0,0-9.614-39.105" transform="translate(20.895 26.311)" fill="#ebbea9"/>
        <path id="Trazado_69028" data-name="Trazado 69028" d="M41.665,140.21S56,142.592,62.8,141.232v-2.213s-12.116-.342-21.447-1.742Z" transform="translate(17.264 57.304)" fill="#ebbea9"/>
        <path id="Trazado_69029" data-name="Trazado 69029" d="M61.588,146.373c2.713,0,2.717-5.106,0-5.106s-2.717,5.106,0,5.106" transform="translate(24.859 58.969)" fill="#ebbea9"/>
        <path id="Trazado_69030" data-name="Trazado 69030" d="M61.588,152.443c-2.713,0-2.717,5.106,0,5.106s2.717-5.106,0-5.106" transform="translate(24.859 63.634)" fill="#ebbea9"/>
        <path id="Trazado_69031" data-name="Trazado 69031" d="M101.272,68.913s6.721,5.527,11.372,17.008,20.17,52.626,21.512,59.7-14.71,21.915-23.117,6.55S93.316,109.3,90.533,100.87s-1.546-34.745,10.74-31.957" transform="translate(37.274 28.68)" fill="#d268cc"/>
        <path id="Trazado_69032" data-name="Trazado 69032" d="M87.03,62.12s10.186,4.339,21.072,9.536c0,0-1.25,23.593-1.96,45.426s6.018,80.924,6.13,96.862,0,30.5,0,30.5-23.288,3.368-40.326.283c0,0,3.091-95.281,4.631-129.322S87.03,62.12,87.03,62.12" transform="translate(30.032 25.931)" fill="#d268cc"/>
        <path id="Trazado_69033" data-name="Trazado 69033" d="M86.266,62.12s9.176,10.271,6.264,24.244S82.094,123.021,78.8,140.911s-5.026,27.395-5.026,27.395.686-46.734,3.15-67.013A201.387,201.387,0,0,1,86.266,62.12" transform="translate(30.797 25.931)" fill="#ebbea9"/>
        <path id="Trazado_69034" data-name="Trazado 69034" d="M102.563,139.205s-14.317,2.483-21.132,1.169l-.016-2.211s12.113-.428,21.436-1.894Z" transform="translate(33.985 56.883)" fill="#ebbea9"/>
        <path id="Trazado_69035" data-name="Trazado 69035" d="M62.109,53.37V67.188c0,1.2,9.942,15.821,20.344-.668l.275-14.128Z" transform="translate(25.926 21.87)" fill="#ffa378"/>
        <path id="Trazado_69036" data-name="Trazado 69036" d="M80.76,36.3s4.866-2.184,6-1.325.495,11.906-.49,13.5-6.835,2.266-6.835,2.266A53.073,53.073,0,0,0,80.76,36.3" transform="translate(33.159 14.516)" fill="#ffa378"/>
        <path id="Trazado_69037" data-name="Trazado 69037" d="M58.431,36.3s-4.866-2.184-6-1.325-.495,11.906.49,13.5,6.835,2.266,6.835,2.266A53.073,53.073,0,0,1,58.431,36.3" transform="translate(21.634 14.516)" fill="#ffa378"/>
        <path id="Trazado_69038" data-name="Trazado 69038" d="M92.611,20.936c-.206,0-36.252.676-36.762,1.185s-1.493,20.415-1.391,22.812,2.224,14.108,3.548,16.024C59.137,62.6,70.7,73.11,71.418,73.415s5.569.425,6.488-.186S90.537,62.284,91.456,59.48c.4-1.235,2.512-13.707,2.437-17.843-.095-5.286-1.281-20.7-1.281-20.7" transform="translate(22.729 8.739)" fill="#ffbb94"/>
        <path id="Trazado_69039" data-name="Trazado 69039" d="M80.613,39.91a4.461,4.461,0,0,0-6.357-.01l-1.705-1.752a6.816,6.816,0,0,1,9.748-.01Z" transform="translate(30.285 15.058)" fill="#47312a"/>
        <path id="Trazado_69040" data-name="Trazado 69040" d="M65.673,39.91a4.459,4.459,0,0,0-6.356-.01l-1.705-1.752a6.816,6.816,0,0,1,9.748-.01Z" transform="translate(24.049 15.058)" fill="#47312a"/>
        <path id="Trazado_69041" data-name="Trazado 69041" d="M71.4,31.9l.683,2.622a37.68,37.68,0,0,1,12.3.193l-2.934-2.583S79.259,30.577,71.4,31.9" transform="translate(29.803 13.094)" fill="#5c3e36"/>
        <path id="Trazado_69042" data-name="Trazado 69042" d="M58.012,32.375,55.39,34.926a39.25,39.25,0,0,1,12.532-.388l.427-2.629c-8.157-1.2-10.336.466-10.336.466" transform="translate(23.121 13.138)" fill="#5c3e36"/>
        <path id="Trazado_69043" data-name="Trazado 69043" d="M65.359,49.236a10.807,10.807,0,0,0,9.328-.276l.987,1.962a8.471,8.471,0,0,1-11.053.352Z" transform="translate(26.975 20.437)" fill="#e66767"/>
        <path id="Trazado_69044" data-name="Trazado 69044" d="M69.52,40.993c-1,.084-3.9,3.993-3.928,5.218s3.239,3.477,3.738,3.41,3.911-2.516,3.925-3.128-3.175-5.546-3.735-5.5" transform="translate(27.38 17.112)" fill="#ffa378"/>
        <rect id="Rectángulo_29252" data-name="Rectángulo 29252" width="3.283" height="2.784" transform="translate(84.893 53.05)" fill="#47312a"/>
        <rect id="Rectángulo_29253" data-name="Rectángulo 29253" width="3.281" height="2.784" transform="translate(106.069 53.05)" fill="#47312a"/>
        <path id="Trazado_69045" data-name="Trazado 69045" d="M65.9,19.678c-7.261-1.966-9.77-14.391-2.384-17.889,8.948-4.237,21.22-.452,21.65,6.179s-5.159,11.687-8.51,12.9-2.04,1.172-10.755-1.186" transform="translate(24.657 0)" fill="#583830"/>
        <path id="Trazado_69046" data-name="Trazado 69046" d="M55.616,45.381s.933-7.993,4.208-12a18.059,18.059,0,0,1,10.208-6.643c3.728-.964,9.991-1,13.125,0s6.2,5.14,7.862,7.772,3.811,15.25,3.811,15.25,2.126-3.794,4.128-7.015.37-12.48-1.51-17.417-5.266-7.9-8.149-10.278-7.271-4.736-15.42-4.609-13.3,2.632-16.934,8.649S52.821,29.239,51.9,34.5c-.937,5.345,1,11.1,3.719,10.876" transform="translate(21.563 4.354)" fill="#5c3e36"/>
        <path id="Trazado_69047" data-name="Trazado 69047" d="M61.346,14.015S53.066,20.126,50.126,33.9c-1.845,8.648-.4,12.157,1.271,15.44,2.381,4.676,1.946,4.618,2.235,10.34a11.246,11.246,0,0,0,5.14,8.57,10.885,10.885,0,0,1-.357-6.907,15.144,15.144,0,0,0,.357-8.422c-1.549-6.164,3.395-13.443,6.069-14.926,5.2-2.882,11.392-13,15.58-13.028,0,0-4.194-17.7-19.076-10.95" transform="translate(20.564 5.209)" fill="#5c3e36"/>
        <path id="Trazado_69048" data-name="Trazado 69048" d="M79.01,48.409c-3.527,0-7.6-1.854-8.458-7.055a4.729,4.729,0,0,1,.751-3.871c1.11-1.417,3.184-2.152,6.931-2.448,1.554-.12,4.448-.079,6.373,1.573a5.135,5.135,0,0,1,1.745,3.67,8.045,8.045,0,0,1-1.97,5.984,7.108,7.108,0,0,1-5.372,2.146m.261-12.281c-.377,0-.7.018-.945.037-3.355.266-5.247.887-6.13,2.017a3.671,3.671,0,0,0-.526,2.988,7.033,7.033,0,0,0,7.341,6.106,5.924,5.924,0,0,0,4.541-1.785,6.894,6.894,0,0,0,1.671-5.133,4.033,4.033,0,0,0-1.354-2.892,7.248,7.248,0,0,0-4.6-1.339" transform="translate(29.407 14.608)" fill="#c23846"/>
        <path id="Trazado_69049" data-name="Trazado 69049" d="M75.973,35.011s2.206-.257,10.037.876v2.39s-1.117.306-1.408.75-.577,3.79-1.425,4.777,1.416-3.742-.248-5.527-6.957-3.266-6.957-3.266" transform="translate(31.713 14.604)" fill="#c23846"/>
        <path id="Trazado_69050" data-name="Trazado 69050" d="M62.675,48.408A7.1,7.1,0,0,1,57.3,46.262a8.028,8.028,0,0,1-1.97-5.984,5.125,5.125,0,0,1,1.745-3.67c1.923-1.653,4.816-1.692,6.37-1.573,3.749.3,5.821,1.03,6.933,2.448a4.729,4.729,0,0,1,.753,3.871c-.859,5.2-4.933,7.055-8.459,7.055m-.259-12.281a7.256,7.256,0,0,0-4.6,1.339,4.043,4.043,0,0,0-1.352,2.892,6.894,6.894,0,0,0,1.671,5.133,5.926,5.926,0,0,0,4.541,1.785,7.033,7.033,0,0,0,7.341-6.106,3.676,3.676,0,0,0-.524-2.989c-.886-1.128-2.775-1.749-6.132-2.016-.244-.018-.568-.037-.944-.037" transform="translate(23.089 14.608)" fill="#c23846"/>
        <path id="Trazado_69051" data-name="Trazado 69051" d="M63.978,35.011s-2.206-.257-10.037.876v2.39s1.114.306,1.409.75.575,3.79,1.423,4.777-1.417-3.742.248-5.527,6.957-3.266,6.957-3.266" transform="translate(22.517 14.604)" fill="#c23846"/>
        <path id="Trazado_69052" data-name="Trazado 69052" d="M65.247,36.256a29.641,29.641,0,0,1,4.612-.566A11.5,11.5,0,0,1,74.723,36.8l-1.538,1.936s-4.432-1.281-6.662.194Z" transform="translate(27.236 14.896)" fill="#c23846"/>
        <rect id="Rectángulo_29254" data-name="Rectángulo 29254" width="183.22" height="100.812" transform="translate(6.617 120.501)" fill="#a66d58"/>
        <rect id="Rectángulo_29255" data-name="Rectángulo 29255" width="173.79" height="91.645" transform="translate(11.446 125.049)" fill="#f2f0ed"/>
        <path id="Trazado_69053" data-name="Trazado 69053" d="M.28,126.72c.316-2.534.832-7.283,2.132-9.993s1.637-8.018,2.7-8.818,2.34,1.287,2.336,2.85-.734,2.974-.432,4.4.72,4.353,1.366,10.095-.113,9.593-3.569,10.55S-.711,134.674.28,126.72" transform="translate(0.013 44.972)" fill="#ffa378"/>
        <path id="Trazado_69054" data-name="Trazado 69054" d="M0,132.343c-.082-2.965.974-12.991,2.928-15.613s8.527-4.065,8.791-2.539c.438,2.549,1.889,10.758.8,12.492a51.029,51.029,0,0,0-4.808,8.262C6.2,138.578.169,138.407,0,132.343" transform="translate(0 47.407)" fill="#ffbb94"/>
        <path id="Trazado_69055" data-name="Trazado 69055" d="M5.163,114.323c1.926-.767,3.786-.923,8.248-.879s9.382.771,9.561,1.78c.154.894-.112,1.647-2.278,1.8s-7.622-.159-10.835.357-4.978,1.446-5.514.088-.907-2.462.818-3.148" transform="translate(1.627 47.352)" fill="#ffbb94"/>
        <path id="Trazado_69056" data-name="Trazado 69056" d="M6.771,116.369a75.615,75.615,0,0,0,8.081-.339c4.445-.384,9.261.5,9.434,1.512.189,1.114-.111,1.643-2.275,1.8s-7.212.037-10.424.553-5.389,1.247-5.925-.111-.506-2.5,1.108-3.419" transform="translate(2.234 48.396)" fill="#ffbb94"/>
        <path id="Trazado_69057" data-name="Trazado 69057" d="M5.475,118.976c2.19-.326,3.819.18,8.292-.163,4.448-.342,9.064.452,9.242,1.461.14.79-.13,1.519-2.293,1.678s-7.212.038-10.425.554-5.39,1.247-5.926-.109-.5-2.5,1.111-3.422" transform="translate(1.692 49.562)" fill="#ffbb94"/>
        <path id="Trazado_69058" data-name="Trazado 69058" d="M4.83,121.749s3.148-.272,7.108-.384c4.7-.135,8.24.522,8.432,1.522.1.495-.481,1.216-2.4,1.376s-5.116-.1-8.875,1c-2.784.815-4.785,1.26-5.257-.1s-.442-2.5.992-3.422" transform="translate(1.488 50.654)" fill="#ffbb94"/>
        <path id="Trazado_69059" data-name="Trazado 69059" d="M140.886,125.719c-.316-2.534-.832-7.283-2.132-9.993s-1.637-8.018-2.7-8.818-2.34,1.287-2.337,2.85.734,2.974.434,4.4-.721,4.353-1.366,10.095.112,9.593,3.569,10.55,5.519-1.131,4.529-9.084" transform="translate(55.343 44.554)" fill="#ffa378"/>
        <path id="Trazado_69060" data-name="Trazado 69060" d="M142.448,131.342c.082-2.965-.974-12.992-2.928-15.614s-8.527-4.065-8.792-2.537c-.438,2.547-1.889,10.757-.8,12.49a51.1,51.1,0,0,1,4.809,8.264c1.517,3.631,7.542,3.461,7.708-2.6" transform="translate(54.07 46.989)" fill="#ffbb94"/>
        <path id="Trazado_69061" data-name="Trazado 69061" d="M139.112,113.322c-1.926-.767-3.786-.923-8.248-.879s-9.382.771-9.561,1.78c-.154.894.113,1.647,2.278,1.8s7.622-.159,10.835.357,4.979,1.446,5.515.088.907-2.462-.819-3.148" transform="translate(50.621 46.934)" fill="#ffbb94"/>
        <path id="Trazado_69062" data-name="Trazado 69062" d="M137.466,115.368a75.441,75.441,0,0,1-8.081-.34c-4.445-.383-9.262.5-9.434,1.514-.189,1.114.109,1.643,2.275,1.8s7.212.038,10.424.554,5.389,1.247,5.925-.111.506-2.5-1.108-3.419" transform="translate(50.051 47.978)" fill="#ffbb94"/>
        <path id="Trazado_69063" data-name="Trazado 69063" d="M138.763,117.975c-2.19-.326-3.819.179-8.292-.163-4.448-.342-9.064.452-9.242,1.461-.14.79.132,1.519,2.293,1.678s7.212.038,10.427.554,5.389,1.247,5.925-.109.5-2.5-1.111-3.422" transform="translate(50.592 49.145)" fill="#ffbb94"/>
        <path id="Trazado_69064" data-name="Trazado 69064" d="M138.77,120.748s-3.148-.272-7.108-.384c-4.7-.135-8.24.522-8.432,1.522-.1.495.481,1.216,2.4,1.376s5.114-.1,8.875,1c2.784.816,4.785,1.26,5.257-.095s.442-2.5-.992-3.422" transform="translate(51.435 50.236)" fill="#ffbb94"/>
        <path id="Trazado_69065" data-name="Trazado 69065" d="M75.115,323.44c.106.353-.628,6.77-.011,9.354s7.845,8.486,10.506,8.017,6.534-8.571,6.77-11.976a17.118,17.118,0,0,0-1.527-7.162s-3.171,5.047-8.336,4.814-7.4-3.046-7.4-3.046" transform="translate(31.246 134.276)" fill="#352723"/>
        <path id="Trazado_69066" data-name="Trazado 69066" d="M74.977,322.142c.108.353-.627,6.77-.011,9.354s7.845,8.486,10.506,8.017,6.534-8.571,6.77-11.976a17.118,17.118,0,0,0-1.527-7.162s-3.171,5.049-8.336,4.814-7.4-3.046-7.4-3.046" transform="translate(31.189 133.734)" fill="#c23846"/>
        <path id="Trazado_69067" data-name="Trazado 69067" d="M75.913,323.44c-.108.353.627,6.77.011,9.354s-7.845,8.486-10.506,8.017-6.534-8.571-6.77-11.976a17.118,17.118,0,0,1,1.527-7.162s3.171,5.047,8.336,4.814,7.4-3.046,7.4-3.046" transform="translate(24.473 134.276)" fill="#352723"/>
        <path id="Trazado_69068" data-name="Trazado 69068" d="M76.051,322.142c-.108.353.627,6.77.01,9.354s-7.844,8.486-10.5,8.017-6.534-8.571-6.77-11.976a17.094,17.094,0,0,1,1.527-7.162s3.171,5.049,8.336,4.814,7.4-3.046,7.4-3.046" transform="translate(24.53 133.734)" fill="#c23846"/>
      </g>
      <text id="Maquinaria" transform="translate(29.086 149.913)" fill="#15579f" font-size="22" font-family="Helvetica-Bold, Helvetica" font-weight="700"><tspan x="0" y="17">Maquinaria</tspan></text>
    </g>
  </g>
</svg>
