<svg xmlns="http://www.w3.org/2000/svg" width="665" height="657.519" viewBox="0 0 665 657.519">
  <g id="Grupo_36297" data-name="Grupo 36297" transform="translate(-37.572 -54.01)">
    <g id="_12" data-name="12" transform="translate(528.258 580.411)">
      <path id="Trazado_85097" data-name="Trazado 85097" d="M1809.2,2018.774s-20.295,30.73-16.238,95.095c0,0,12.759,5.216,38.272,5.794,0,0,19.135,0,31.31-2.321l10.437-23.768,10.437,23.768c12.178,2.321,31.313,2.321,31.313,2.321,25.51-.579,38.269-5.794,38.269-5.794,4.059-64.365-16.235-95.095-16.235-95.095Z" transform="translate(-1792.427 -1995.795)" fill="#592b52"/>
      <path id="Trazado_85098" data-name="Trazado 85098" d="M1792.958,2338.127l.387,5.8s14.109,5.313,35.95,5.794,33.632-2.321,33.632-2.321l2.449-5.547S1822.049,2350.591,1792.958,2338.127Z" transform="translate(-1792.809 -2225.852)" fill="#b02b52"/>
      <path id="Trazado_85099" data-name="Trazado 85099" d="M2181.587,2338.127l-.385,5.8s-14.11,5.313-35.95,5.794-33.632-2.321-33.632-2.321l-2.415-5.547S2152.5,2350.591,2181.587,2338.127Z" transform="translate(-2020.629 -2225.852)" fill="#b02b52"/>
      <rect id="Rectángulo_31640" data-name="Rectángulo 31640" width="1.46" height="73.399" transform="translate(79.825 25.587)" fill="#b02b52"/>
      <path id="Trazado_85100" data-name="Trazado 85100" d="M1916.2,1973.493a509.07,509.07,0,0,1-63.781-4.012v-19.133a509.111,509.111,0,0,0,127.563,0v19.133A509.18,509.18,0,0,1,1916.2,1973.493Z" transform="translate(-1835.643 -1946.502)" fill="#9fa1dd"/>
      <path id="Trazado_85101" data-name="Trazado 85101" d="M1915.867,1944.421h-.584c-34.985-.009-63.247-1.766-63.247-3.915s28.262-3.9,63.247-3.912h1.173c34.985.01,63.25,1.763,63.25,3.912s-28.265,3.907-63.25,3.915Z" transform="translate(-1835.368 -1936.594)" fill="#b30663"/>
    </g>
    <g id="_11" data-name="11" transform="translate(381.641 598.292)">
      <path id="Trazado_85102" data-name="Trazado 85102" d="M1359.814,2000.539l55.24,61.98-5.873,4.785s-48.5-58.936-52.848-58.936Z" transform="translate(-1331.655 -2000.539)" fill="#e47408"/>
      <path id="Trazado_85103" data-name="Trazado 85103" d="M1447.037,2000.539l-54.154,62.2,6.309,4.35s46.322-58.719,50.672-58.719Z" transform="translate(-1357.985 -2000.539)" fill="#e47408"/>
      <path id="Trazado_85104" data-name="Trazado 85104" d="M1326.682,2065.795c-23.533,1.209-30.666-12.409-30.666-12.409-4.131-4.35.219-52.846.219-52.846l-6.525.716s-11.526,53.654-18.7,62.135,1.089,36.97,1.089,36.97l.433,9.788s40.159,2.452,54.039,2.546c35.4.241,54.265-2.546,54.265-2.546l.436-9.788s8.264-28.488,1.086-36.97-18.7-62.135-18.7-62.135l-6.525-.716s4.35,48.5.216,52.846C1357.345,2053.385,1350.212,2067,1326.682,2065.795Z" transform="translate(-1268.077 -2000.539)" fill="#ffa306"/>
      <path id="Trazado_85105" data-name="Trazado 85105" d="M1367.121,2358.064c-11.483,0-23.921-.229-29.828-.354-21.93,0-55.034-1.491-55.366-1.506l-.305-1.551c.333.014,33.776,1.6,55.687,1.6,19.494.411,51.578.525,53.692-.624l-.091,1.368C1389.773,2357.9,1379.268,2358.064,1367.121,2358.064Z" transform="translate(-1277.835 -2255.637)" fill="#e47408"/>
    </g>
    <g id="_10" data-name="10" transform="translate(224.981 492.975)">
      <path id="Trazado_85106" data-name="Trazado 85106" d="M785.883,1623.894s-13.623,50.9,33.008,47.753c46.631,3.143,33.009-47.753,33.009-47.753Z" transform="translate(-762.717 -1623.894)" fill="#3f153b"/>
      <path id="Trazado_85107" data-name="Trazado 85107" d="M763.981,1664.837c-15.194,1.048-23.577-3.667-23.577-3.667-11.527-5.764-9.431-37.275-9.431-37.275l-9.954,2.321s-13.257,51.626-13.212,64.67c.05,14.436,6.4,17.385,10.068,47.828,2.6,21.586-9.431,86.453-9.431,86.453s10.5,17.281,54.037,17.281,57.038-17.281,57.038-17.281-12.034-64.867-9.43-86.453c3.671-30.442,10.018-33.391,10.068-47.828.045-13.044-13.212-64.67-13.212-64.67l-9.955-2.321s2.1,31.511-9.431,37.275C787.559,1661.169,779.177,1665.885,763.981,1664.837Z" transform="translate(-707.807 -1623.894)" fill="#592b52"/>
      <path id="Trazado_85108" data-name="Trazado 85108" d="M832.695,2035.38c-1.316-12.371-2-23.873-1.163-30.851.418-3.465.872-6.56,1.345-9.371-28.942,13.109-66.49,11.038-95.3-2.271.619,3.384,1.211,7.214,1.745,11.641.752,6.24-.156,19.174-1.205,30.036C762.605,2053.765,803.927,2050.037,832.695,2035.38Z" transform="translate(-729.249 -1889.711)" fill="#ff277f"/>
    </g>
    <g id="_9" data-name="9" transform="translate(60.599 597.935)">
      <path id="Trazado_85109" data-name="Trazado 85109" d="M196.882,2018.978c-14.277.075-24.857-12.181-35.946-18.952l-11.243,2.42s18.363,15.319,22.684,22.463,10.085,23.434,10.085,23.434l14.878-2.237,14.916,1.959s5.458-16.394,9.646-23.619,23.411-22.909,23.411-22.909l-12.436-2.272c-10.7,6.813-18.286,16.148-30.934,19.124A22.59,22.59,0,0,1,196.882,2018.978Z" transform="translate(-141.369 -1999.265)" fill="#b30663"/>
      <path id="Trazado_85110" data-name="Trazado 85110" d="M175.814,2037.148c-9.637.7-25.635-3.742-25.635-3.742-15.334-4.969-10.687-33.38-10.687-33.38s-8.575.14-12.392,2.5c0,0,1.745,32.583.531,36.081s-6.58,12.377-7.363,16.923c-1.634,9.449,2.859,32.574,7.419,37.038l1.171,13.3,47.607,1.084,47.578-1.974.884-12.737c4.474-4.546,8.574-28.34,6.766-37.757-.869-4.53-6.4-13.3-7.678-16.781s-.145-36.175-.145-36.175c-3.86-2.295-12.436-2.272-12.436-2.272s5.176,28.408-10.06,33.662C201.373,2032.927,185.458,2037.671,175.814,2037.148Z" transform="translate(-119.925 -1999.265)" fill="#9fa1dd"/>
      <path id="Trazado_85111" data-name="Trazado 85111" d="M147.864,2334.863l-.182-1.9h97.307l-.122,1.019Z" transform="translate(-139.92 -2239.655)" fill="#b30663"/>
    </g>
    <g id="_8" data-name="8" transform="translate(517.859 343.109)">
      <g id="Grupo_36294" data-name="Grupo 36294">
        <path id="Trazado_85112" data-name="Trazado 85112" d="M1782.269,1135.99s-15.653,16.468-27.034,52.4c0,0,14.234,24.7,36.992,24.7S1782.269,1135.99,1782.269,1135.99Z" transform="translate(-1755.235 -1122.549)" fill="#e47408"/>
        <path id="Trazado_85113" data-name="Trazado 85113" d="M2252.4,1135.99s15.651,16.468,27.034,52.4c0,0-14.231,24.7-36.992,24.7S2252.4,1135.99,2252.4,1135.99Z" transform="translate(-2100.413 -1122.549)" fill="#e47408"/>
        <path id="Trazado_85114" data-name="Trazado 85114" d="M1994.451,1087.922l-27.533.714s-7.962,36.189,26.846,38.142c.228-.013.462-.026.687-.044.225.018.456.031.687.044,34.8-1.953,31.3-38.142,31.3-38.142Z" transform="translate(-1907.162 -1087.922)" fill="#e47408"/>
        <path id="Trazado_85115" data-name="Trazado 85115" d="M1916.43,1291.248c-.952,0-1.919.063-2.891.063-42.689-.03-61.888-9.734-61.888-9.734s7.737-32.448,11.3-48.165-5.827-64.006-3.4-79.333c3.555-22.456-7.826-50.877-7.826-50.877l32.721-12.727s-.056,30.672,28.408,30.69c.228,0,.459-.014.684-.023.228.008.456.023.69.023,28.46-.027,29.734-30.69,29.734-30.69l32.721,12.727s-11.38,28.421-7.823,50.877c2.426,15.327-6.959,63.611-3.4,79.333s11.295,48.165,11.295,48.165-14.746,9.7-57.435,9.734C1918.349,1291.311,1917.383,1291.248,1916.43,1291.248Z" transform="translate(-1824.692 -1089.761)" fill="#ffa306"/>
      </g>
      <path id="Trazado_85116" data-name="Trazado 85116" d="M1976.124,1139c-36.246,0-38.508-37.433-38.525-37.806l1.414-.57c.073,1.462,2.271,36.39,37.111,36.916,34.818-.526,37-35.476,37.077-36.939l1.437.57C2014.621,1101.547,2012.348,1139,1976.124,1139Z" transform="translate(-1886.607 -1097.059)" fill="#592b52"/>
      <path id="Trazado_85117" data-name="Trazado 85117" d="M1928.563,1749.381c-36.366,0-69.348-9.4-69.835-9.539l.365-1.475c.713.208,72.5,20.425,120.622.974l.321,1.4C1964.348,1747.08,1945.9,1749.381,1928.563,1749.381Z" transform="translate(-1829.79 -1556.492)" fill="#592b52"/>
    </g>
    <g id="_7" data-name="7" transform="translate(384.031 270.246)">
      <path id="Trazado_85118" data-name="Trazado 85118" d="M1351.326,1867.248a20.025,20.025,0,0,1-25.038,0v-20.194a20.024,20.024,0,0,0,25.038,0Z" transform="translate(-1312.401 -1561.925)" fill="#ff277f"/>
      <path id="Trazado_85119" data-name="Trazado 85119" d="M1534.272,1867.248a20.029,20.029,0,0,0,25.041,0v-20.194a20.029,20.029,0,0,1-25.041,0Z" transform="translate(-1462.229 -1561.925)" fill="#ff277f"/>
      <rect id="Rectángulo_31641" data-name="Rectángulo 31641" width="99.352" height="9.289" transform="translate(5.808)" fill="#ff277f"/>
      <path id="Trazado_85120" data-name="Trazado 85120" d="M1282.432,860.561s-3.649,11.7-4.037,15.749c-6.018,62.624,5,262.107,7.828,266.552s25.446,5.009,31.749.808c1.993-1.328,2.55-6.128,2.985-8.482,10.4-56.286,9.51-228.815,9.51-228.815h2.554s-.239,172.536,10.24,228.815c.438,2.353.989,7.154,2.982,8.482,6.3,4.2,28.924,3.635,31.749-.808s13.846-203.928,7.831-266.552c-.391-4.047-4.04-15.749-4.04-15.749Z" transform="translate(-1276.624 -851.272)" fill="#592b52"/>
      <rect id="Rectángulo_31642" data-name="Rectángulo 31642" width="2.554" height="48.532" transform="translate(53.843 6.57)" fill="#ff277f"/>
      <path id="Trazado_85121" data-name="Trazado 85121" d="M1278.9,886.2l.068-2.372c1.01-.2,24.643-5.118,28.15-34.756l2.175.258C1305.593,880.593,1279.164,886.145,1278.9,886.2Z" transform="translate(-1278.264 -842.992)" fill="#ff277f"/>
      <path id="Trazado_85122" data-name="Trazado 85122" d="M1591.972,886.743c-.268-.056-27.06-6.164-30.759-37.417l2.175-.258c3.509,29.655,27.481,35.084,28.515,35.3Z" transform="translate(-1481.637 -842.992)" fill="#ff277f"/>
    </g>
    <g id="_6" data-name="6" transform="translate(230.884 278.045)">
      <g id="Grupo_36295" data-name="Grupo 36295">
        <path id="Trazado_85123" data-name="Trazado 85123" d="M833.743,923.872c-.475-12.378-1.9-34.751-1.9-34.751V870.553a431.293,431.293,0,0,1-100.923,0v18.568s-1.428,22.373-1.9,34.751c-.918,23.891,5.031,49.349,7.986,72.975,1.437,11.489,1.516,44.814,2.115,58.13.082,1.844.492,7.315,1.632,8.737,3.04,3.773,12.843,5.294,17.253,4.387,9.142-1.876,7.934-3.637,9.311-9.137,2.518-10.062,3.27-47.069,3.87-57.353,1.059-18.127,1.88-36.269,2.58-54.414l7.617-9.045L789,947.2q.976,25.943,2.435,51.864c.6,10.516-1.354,52.112,1.21,62.368,2.5,10.013,25.033,7.51,27.537,1.251,4.33-10.826,4.141-54.317,5.588-65.891C828.717,973.181,834.66,947.743,833.743,923.872Z" transform="translate(-728.917 -866.27)" fill="#9fa1dd"/>
        <rect id="Rectángulo_31643" data-name="Rectángulo 31643" width="46.704" height="1.46" transform="matrix(0.02, -1, 1, 0.02, 51.723, 72.472)" fill="#b30663"/>
        <path id="Trazado_85124" data-name="Trazado 85124" d="M836.989,859.517c0-2.366-22.592-4.283-50.462-4.283s-50.461,1.917-50.461,4.283,22.594,4.285,50.461,4.285S836.989,861.885,836.989,859.517Z" transform="translate(-734.067 -855.234)" fill="#b30663"/>
      </g>
      <path id="Trazado_85125" data-name="Trazado 85125" d="M790.52,934.623a451.989,451.989,0,0,1-54.5-3.64l.031-1.49c.66.091,67.219,8.785,100.924-1.855v1.7C824.335,933.333,807.021,934.623,790.52,934.623Z" transform="translate(-734.034 -907.393)" fill="#9f0663"/>
    </g>
    <g id="_5" data-name="5" transform="translate(60.741 294.702)">
      <path id="Trazado_85126" data-name="Trazado 85126" d="M178.624,998.139l55.033.525s1.572,24.633,2.1,38.26-14.676,121.6-14.151,127.362,4.193,31.447,3.145,42.977-2.7,56.169-6.813,58.7c-6.813,4.193-19.393.525-19.393.525s-5.987-43.631-6.289-52.412c-.524-15.2,5.241-33.02,1.572-43.5s-7.337-107.967-7.337-107.967l-8.386-9.959-8.386,9.959s-3.668,97.485-7.337,107.967,2.621,26.206,1.572,43.5c-.531,8.771-6.29,52.412-6.29,52.412s-16.536,7.224-20.965-.525c-2.1-3.669-4.193-47.171-5.241-58.7s2.621-37.211,3.144-42.977-14.675-113.734-14.151-127.362,2.1-38.26,2.1-38.26Z" transform="translate(-120.434 -974.837)" fill="#ff277f"/>
      <path id="Trazado_85127" data-name="Trazado 85127" d="M127.979,948.72V926.912a474.88,474.88,0,0,0,111.113,0V948.72A474.7,474.7,0,0,1,127.979,948.72Z" transform="translate(-125.869 -923.527)" fill="#ffa306"/>
      <rect id="Rectángulo_31644" data-name="Rectángulo 31644" width="1.46" height="50.115" transform="translate(56.924 28.543)" fill="#ffa306"/>
      <path id="Trazado_85128" data-name="Trazado 85128" d="M239.092,918.126c0-1.835-24.874-3.321-55.557-3.321s-55.557,1.487-55.557,3.321,24.874,3.322,55.557,3.322S239.092,919.961,239.092,918.126Z" transform="translate(-125.869 -914.805)" fill="#e47408"/>
    </g>
    <g id="_4" data-name="4" transform="translate(512.408 57.376)">
      <g id="Grupo_36296" data-name="Grupo 36296" transform="translate(0 0)">
        <path id="Trazado_85129" data-name="Trazado 85129" d="M2038.566,70.774c-.084,4.622-10.545,8.7-23.553,8.7s-24.179-4.185-23.565-8.767c.251-1.87,12.176-4.658,25.187-4.658S2038.612,68.265,2038.566,70.774Z" transform="translate(-1919.931 -66.048)" fill="#280d27"/>
        <path id="Trazado_85130" data-name="Trazado 85130" d="M1760.985,927.661s-10.18.143-13.333-.161a72.387,72.387,0,0,1-11.91-2.527l1.2-12.964,25.093,2.323Z" transform="translate(-1735.742 -675.464)" fill="#592b52"/>
        <path id="Trazado_85131" data-name="Trazado 85131" d="M2323,927.3s10.029.507,13.179.2a72.45,72.45,0,0,0,11.913-2.527l-1.2-12.964-25.09,2.323Z" transform="translate(-2157.928 -675.464)" fill="#592b52"/>
        <path id="Trazado_85132" data-name="Trazado 85132" d="M1771.034,180.014a28.737,28.737,0,0,0-15.5,21.7s-10.28,71.025-12.4,94.845c-2.033,22.872-4.339,91.745-4.339,91.745s20.084,3.112,25.107,2.17c3.307-.619,7.748-90.816,7.748-90.816l11.78-53.311Z" transform="translate(-1737.945 -148.147)" fill="#3f153b"/>
        <path id="Trazado_85133" data-name="Trazado 85133" d="M2265.542,180.014a28.737,28.737,0,0,1,15.5,21.7s10.283,71.025,12.4,94.845c2.033,22.872,4.339,91.745,4.339,91.745s-20.081,3.112-25.1,2.17c-3.307-.619-7.751-90.816-7.751-90.816l-11.777-53.311Z" transform="translate(-2108.47 -148.147)" fill="#3f153b"/>
        <path id="Trazado_85134" data-name="Trazado 85134" d="M2074.8,109.072s-.24.387-.619,1.058c-.382-.671-.621-1.058-.621-1.058Z" transform="translate(-1979.103 -97.042)" fill="#592b52"/>
        <path id="Trazado_85135" data-name="Trazado 85135" d="M1886.937,151.194l-32.858,8.059,8.062,53.932s1.24,29.136,4.339,39.054-5.579,89.885-6.2,99.184l56.045,9.033,55.538-9.033c-.619-9.3-9.3-89.266-6.2-99.184S1970,213.184,1970,213.184l8.059-53.932-32.855-8.059Z" transform="translate(-1820.99 -127.386)" fill="#592b52"/>
        <path id="Trazado_85136" data-name="Trazado 85136" d="M2000.725,112.145c-.2.032-.408.057-.621.077-13.017,1.24-28.514-10.538-28.514-10.538,3.1-2.48,5.579-19.217,5.579-19.217a40.8,40.8,0,0,0,47.112,0s2.48,16.737,5.579,19.217c0,0-15.5,11.778-28.516,10.538C2001.13,112.2,2000.925,112.177,2000.725,112.145Z" transform="translate(-1905.643 -77.876)" fill="#3f153b"/>
        <path id="Trazado_85137" data-name="Trazado 85137" d="M1876.253,878.435V867.277a445.137,445.137,0,0,0,111.582,0v11.158A445.137,445.137,0,0,1,1876.253,878.435Z" transform="translate(-1836.964 -643.24)" fill="#3f153b"/>
        <rect id="Rectángulo_31645" data-name="Rectángulo 31645" width="6.2" height="226.665" transform="translate(91.979 12.03)" fill="#9fa1dd"/>
      </g>
      <path id="Trazado_85138" data-name="Trazado 85138" d="M2072.027,137.094a2.249,2.249,0,1,1-4.5,0V126.633a2.249,2.249,0,1,1,4.5,0Z" transform="translate(-1974.755 -108.072)" fill="#592b52"/>
      <path id="Trazado_85139" data-name="Trazado 85139" d="M2072.029,112.223c0,.47-1.009.851-2.252.851s-2.249-.381-2.249-.851v-3.954c0-.47,1.009-.851,2.249-.851s2.252.381,2.252.851Z" transform="translate(-1974.755 -95.85)" fill="#592b52"/>
    </g>
    <g id="_3" data-name="3" transform="translate(387.343 60.84)">
      <path id="Trazado_85140" data-name="Trazado 85140" d="M1408.063,119.473l-7.113-1.422c6.046-33.789-20.985-28.809-20.985-28.809l1.736-10.8a48.223,48.223,0,0,0,52.725,0l1.733,10.8s-27.031-4.98-20.982,28.809Z" transform="translate(-1354.381 -78.438)" fill="#e47408"/>
      <path id="Trazado_85141" data-name="Trazado 85141" d="M1342.157,267.532h-.3c-6.067-.013-12.093.98-18.239.73a31.5,31.5,0,0,0-6.583.431c-5.579.841-11.055.907-16.631,1.969-3.258.62-9.761,1.887-11.286-2.3-2.845-7.825,4.624-99.584,4.624-99.584l-3.2-29.876c3.911-1.779,12.093-15.293,12.093-15.293,4.265-6.4,2.845-42.324,2.845-42.324l10.314-2.845s-.687,37.817,25.962,38.406l.4-.013.4.013c26.649-.589,25.962-38.406,25.962-38.406l10.314,2.845s-1.423,35.922,2.845,42.324c0,0,8.182,13.513,12.093,15.293l-3.2,29.876s7.469,91.76,4.624,99.584c-2.2,6.036-15.551,2.057-20,1.6-2.754-.28-5.376-.534-8.028-.96a81.265,81.265,0,0,0-9.248-.8C1352.6,267.954,1347.451,267.528,1342.157,267.532Z" transform="translate(-1288.466 -78.438)" fill="#ffa306"/>
      <path id="Trazado_85142" data-name="Trazado 85142" d="M1405.3,121.6h-.342a21.316,21.316,0,0,1-16.951-5.834c-12-11.3-12.039-34.7-12.03-35.7l1.582-.426c0,.238-.083,24.208,11.451,35.061a20.311,20.311,0,0,0,15.9,5.526l.593-.023c5.474-.069,11.617-1.508,15.865-5.5,11.534-10.854,11.383-34.884,11.38-35.122l1.4.365c.009,1,.225,24.522-11.776,35.817C1418.267,119.628,1415.952,120.774,1405.3,121.6Z" transform="translate(-1351.509 -79.26)" fill="#592b52"/>
      <path id="Trazado_85143" data-name="Trazado 85143" d="M1297.049,148.632l-.205-2.029c.08-.078,8.438-7.506,13.122-16.749,3.6-7.1,2.871-43.287,2.865-43.65l1.551-.426c.026,1.494.647,37.317-3.113,44.735C1306.468,139.985,1297.132,148.552,1297.049,148.632Z" transform="translate(-1294.501 -83.726)" fill="#592b52"/>
      <path id="Trazado_85144" data-name="Trazado 85144" d="M1618.378,149.6c-.08-.079-9.342-9.619-14.146-19.084-3.76-7.418-3.176-43.241-3.15-44.735l1.428.4c-.006.363-.573,36.583,3.025,43.68,4.7,9.257,12.971,17.544,13.048,17.623Z" transform="translate(-1513.636 -83.726)" fill="#592b52"/>
      <path id="Trazado_85145" data-name="Trazado 85145" d="M1292.142,739.953c-1.885,0-2.734-.3-3.1-.605l-.023-.228-.023-.365-.068-.73c.1.075,2.4.915,9.884-.155,11.132-1.589,43.32-2.656,43.645-2.666,4.085.132,33.232,1.315,43.688,2.664,7.424.96,9.824-.239,9.881-.277l-.091,1.437c-.371.462-1.99,1.318-9.978.289-10.4-1.342-39.472-2.523-43.5-2.655-.276.011-32.385,1.076-43.44,2.653A51.36,51.36,0,0,1,1292.142,739.953Z" transform="translate(-1288.802 -551.562)" fill="#592b52"/>
    </g>
    <g id="_2" data-name="2" transform="translate(214.779 60.824)">
      <path id="Trazado_85146" data-name="Trazado 85146" d="M1092.827,119.616s10.474,17.779,11.05,25.941c.6,8.527,10.569,61.009,10.569,61.009l2.4,96.059s-19.217,4.342-19.7-.942-7.205-94.156-7.205-94.156l-14.893-55.245Z" transform="translate(-962.162 -108.086)" fill="#b30663"/>
      <path id="Trazado_85147" data-name="Trazado 85147" d="M695.339,119.616S684.865,137.4,684.29,145.557c-.6,8.527-10.568,61.009-10.568,61.009l-2.4,96.059s19.215,4.342,19.695-.942,7.206-94.156,7.206-94.156l14.893-55.245Z" transform="translate(-671.321 -108.086)" fill="#b30663"/>
      <path id="Trazado_85148" data-name="Trazado 85148" d="M900.214,78.381s-4.8,45.4-30.263,41.793c-25.461,3.6-30.265-41.793-30.265-41.793Z" transform="translate(-792.608 -78.381)" fill="#b30663"/>
      <path id="Trazado_85149" data-name="Trazado 85149" d="M810.542,112.489s23.058.961,30.263-34.108l23.059,11.53s-10.568,38.43-11.53,41.312-3.362,44.2-2.882,50.922,8.167,61.489,8.167,65.332c0,3.616-42.094,4.794-47.078,4.794s-47.078-1.177-47.078-4.794c0-3.843,7.686-58.608,8.167-65.332s-1.921-48.038-2.882-50.922-11.53-41.312-11.53-41.312l23.059-11.53C787.483,113.449,810.542,112.489,810.542,112.489Z" transform="translate(-733.2 -78.381)" fill="#ff277f"/>
      <path id="Trazado_85150" data-name="Trazado 85150" d="M853.552,119.334a31.6,31.6,0,0,0,24.979-11.769c6.606-8.046,11.649-20.883,11.649-25.941,0-.721-6.274-3.2-6.365-3.243s-1.681,12.85-13.931,26.421c-6.9,7.64-15.342,7.261-16.332,7-.992.261-9.437.641-16.334-7-9.629-10.669-12.657-20.848-13.542-24.733-.241-1.057-.388-1.688-.388-1.688s-6.365,2.522-6.365,3.243c0,5.057,5.043,17.894,11.65,25.941A31.6,31.6,0,0,0,853.552,119.334Z" transform="translate(-776.21 -78.381)" fill="#592b52"/>
    </g>
    <g id="_1" data-name="1" transform="translate(37.572 54.01)">
      <path id="Trazado_85151" data-name="Trazado 85151" d="M61.8,95.008s-14.031,14.029-24.232,44.637c0,0,12.754,21.043,33.16,21.043S61.8,95.008,61.8,95.008Z" transform="translate(-37.572 -83.544)" fill="#3f153b"/>
      <path id="Trazado_85152" data-name="Trazado 85152" d="M493.131,95.008s14.029,14.029,24.232,44.637c0,0-12.755,21.043-33.159,21.043S493.131,95.008,493.131,95.008Z" transform="translate(-354.118 -83.544)" fill="#3f153b"/>
      <path id="Trazado_85153" data-name="Trazado 85153" d="M256.966,54.01l-28.058.624s-3.147,30.83,28.058,32.492c31.2-1.662,28.059-32.492,28.059-32.492Z" transform="translate(-175.344 -54.01)" fill="#3f153b"/>
      <path id="Trazado_85154" data-name="Trazado 85154" d="M181.625,278.786c-38.265,0-55.273-9.632-55.273-9.632s10-77.091,13.188-90.482-10.467-39.234-8.29-52.289c3.188-19.13-7.014-59.3-7.014-59.3l29.332-10.84s2.544,26.144,28.058,26.144S209.684,56.24,209.684,56.24l29.332,10.84s-10.2,40.173-7.014,59.3c2.175,13.055-11.479,38.9-8.291,52.289s13.275,91.09,13.275,91.09S219.889,278.786,181.625,278.786Z" transform="translate(-100.003 -55.616)" fill="#592b52"/>
      <path id="Trazado_85155" data-name="Trazado 85155" d="M243.256,90.69c-26.159,0-33.409-28.451-33.477-28.728l1.308-.426c.065.266,7.171,27.479,32.169,27.694,24.985-.215,32.019-27.519,32.084-27.785l1.307.517C276.579,62.239,269.4,90.69,243.256,90.69Z" transform="translate(-161.627 -59.366)" fill="#f46ced"/>
      <path id="Trazado_85156" data-name="Trazado 85156" d="M188.018,812.692c-26.03,0-54.62-9.5-54.908-9.6l.183-1.414c.286.095,28.937,9.554,54.726,9.554s54.413-9.414,54.7-9.509l.182,1.369C242.611,803.188,214.051,812.692,188.018,812.692Z" transform="translate(-106.396 -592.618)" fill="#f46ced"/>
    </g>
  </g>
</svg>
