<svg xmlns="http://www.w3.org/2000/svg" xmlns:xlink="http://www.w3.org/1999/xlink" width="1120.905" height="365.697" viewBox="0 0 1120.905 365.697">
  <defs>
    <clipPath id="clip-path">
      <rect id="Rectángulo_30738" data-name="Rectángulo 30738" width="365.697" height="1120.905" transform="translate(0 365.697) rotate(-90)" fill="none"/>
    </clipPath>
  </defs>
  <g id="Grupo_30663" data-name="Grupo 30663" transform="translate(-19.474 -127.971)" opacity="0.6">
    <g id="Grupo_30703" data-name="Grupo 30703" transform="translate(19.474 127.971)" clip-path="url(#clip-path)">
      <g id="Grupo_30702" data-name="Grupo 30702" transform="translate(-93.913 -21.769)">
        <g id="Grupo_30663-2" data-name="Grupo 30663" transform="translate(53.348 238.921)">
          <path id="Trazado_77032" data-name="Trazado 77032" d="M13.616,159.546l431.7,133.577-.145.639L13.47,160.184Z" transform="translate(-13.47 -159.546)" fill="#423c3d"/>
        </g>
        <g id="Grupo_30664" data-name="Grupo 30664" transform="translate(13.514 10.232)">
          <path id="Trazado_77033" data-name="Trazado 77033" d="M7.575,405.644l148.5-279.35,386.08,221.3-.327.559-385.391-220.9L8.251,406.006Z" transform="translate(-7.575 -126.294)" fill="#249dbf"/>
        </g>
        <g id="Grupo_30665" data-name="Grupo 30665" transform="translate(388.273 231.382)">
          <path id="Trazado_77034" data-name="Trazado 77034" d="M63.038,433.339l3.243-5.612.669.378-3.243,5.612Zm6.487-11.217,3.25-5.612.662.378L70.194,422.5ZM76.018,410.9l3.243-5.605.669.378-3.25,5.605ZM82.5,399.681l3.243-5.612.669.378-3.243,5.612ZM89,388.457l3.243-5.605.662.378-3.243,5.605Zm6.487-11.217,3.243-5.612.669.378-3.243,5.612Zm6.487-11.224,3.243-5.605.669.378L102.64,366.4Zm6.493-11.217,3.243-5.612.669.378-3.25,5.612Zm6.487-11.217,3.243-5.612.669.378-3.243,5.612Zm6.493-11.224,3.243-5.612.662.378-3.243,5.612Zm6.487-11.217,3.243-5.612.669.378L128.6,321.52Zm6.487-11.224,3.243-5.612.669.378-3.243,5.612Zm6.493-11.217,3.243-5.612.669.378-3.25,5.612Zm6.487-11.224,3.243-5.605.669.378-3.243,5.605Zm6.493-11.217,3.243-5.612.662.378-3.243,5.612Zm6.487-11.224,3.243-5.605.669.378-3.243,5.605Zm6.487-11.217,3.25-5.612.662.378-3.243,5.612Zm6.493-11.224,3.243-5.605.669.378-3.25,5.612Zm6.487-11.217,3.243-5.612.669.378-3.243,5.612Zm6.493-11.217,3.243-5.612.662.378L187,220.539Zm6.487-11.224,3.243-5.612.669.378-3.243,5.612Zm6.487-11.217,3.243-5.612.669.378-3.243,5.612Zm6.493-11.224,3.243-5.612.662.385-3.243,5.605Zm6.487-11.217,3.243-5.612.669.378-3.243,5.612Zm6.487-11.224,3.25-5.605.662.378-3.243,5.605Z" transform="translate(-63.038 -158.45)" fill="#249dbf"/>
        </g>
        <g id="Grupo_30666" data-name="Grupo 30666" transform="translate(118.28 107.018)">
          <path id="Trazado_77035" data-name="Trazado 77035" d="M23.08,140.745l.541-.378,1.007,1.114-.547.385Zm2,2.235.547-.378,1,1.114-.547.385Zm2,2.235.547-.378,1,1.114-.547.385Zm2,2.235.547-.378,1.007,1.114-.547.385Zm2.007,2.235.547-.378,1,1.114-.547.385Zm2,2.235.547-.378,1,1.114-.547.385Zm2,2.235.547-.378,1.007,1.114-.547.385Zm2.007,2.235.547-.378,1,1.114-.547.385Zm2,2.235.547-.378,1,1.114-.547.385Zm2,2.235.547-.378,1,1.114-.541.385ZM43.1,163.1l.547-.385,1,1.114-.547.385Zm2,2.228.547-.378,1,1.121-.547.378Zm2,2.242.547-.385,1,1.114-.541.385Zm2.007,2.235.547-.385,1,1.121-.547.378Zm2,2.235.547-.385,1,1.114-.547.385Zm2,2.235.547-.385,1,1.121-.547.378Zm2.007,2.235.547-.385,1,1.114-.547.385Zm2,2.235.547-.385,1,1.114-.547.385Zm2,2.235.547-.385,1,1.114-.547.385Zm2.007,2.235.541-.385,1.007,1.114-.547.385Zm2,2.235.547-.385,1,1.121-.547.378Zm2,2.235.547-.385,1,1.121-.541.378Zm2.007,2.235.547-.385,1,1.121-.547.378Zm2,2.235.547-.385,1,1.121-.547.378Zm2,2.235.547-.385,1,1.121-.547.378Zm2.007,2.235.547-.385,1,1.121-.547.378Zm2,2.235.547-.385,1,1.121-.547.378Zm2,2.235.547-.385,1,1.121-.547.378Zm2.007,2.235.541-.385,1.007,1.121-.547.378Zm2,2.235.547-.385,1,1.121-.547.378Zm2,2.235.547-.385,1,1.121-.547.378Zm2.007,2.235.541-.385,1.007,1.121-.547.378Zm2,2.235.547-.385,1,1.121-.547.378Zm2,2.235.547-.385,1,1.121-.547.378Zm2,2.235.547-.385,1.007,1.121-.547.378Zm2.007,2.235.547-.385,1,1.121-.547.378Zm2,2.235.547-.385,1,1.121-.547.378Zm2,2.235.547-.385,1.007,1.121-.547.378Zm2.007,2.235.547-.385,1,1.121-.547.378Zm2,2.235.547-.385,1,1.121-.547.378Zm2,2.235.547-.385,1,1.121-.547.378Zm2.007,2.235.547-.385,1,1.121-.547.378Zm2,2.235.547-.385,1,1.121-.547.378Zm2,2.235.547-.385,1,1.121-.547.378Zm2.007,2.235.547-.385,1,1.121-.547.378Zm2,2.235.547-.385,1,1.121-.547.378Zm2,2.235.547-.385,1,1.121-.547.378Zm2.007,2.235.541-.385,1.007,1.121-.547.378Zm2,2.235.547-.385,1,1.121-.547.378Zm2,2.235.547-.385,1,1.121-.547.378Zm2.007,2.235.541-.385,1.007,1.121-.547.378Zm2,2.235.547-.385,1,1.121-.547.378Zm2,2.235.547-.385,1,1.121-.547.378Zm2.007,2.235.547-.385,1,1.121-.547.378Zm2,2.235.547-.385,1,1.121-.547.378Zm2,2.235.547-.385,1,1.121-.547.378Zm2.007,2.235.541-.385,1.007,1.121-.547.378Zm2,2.235.547-.385,1,1.121-.547.378Zm2,2.235.547-.385,1,1.121-.547.378Zm2,2.235.547-.385,1.007,1.121-.547.378Zm2.007,2.235.547-.385,1,1.121-.547.385Zm2,2.235.547-.385,1,1.121-.547.378Zm2,2.235.547-.385,1.007,1.121-.547.385Zm2.007,2.235.547-.385,1,1.121-.547.378Zm2,2.235.547-.385,1,1.121-.547.378Zm2,2.235.547-.385,1,1.121-.541.385Zm2.007,2.235.547-.385,1,1.121-.547.385Zm2,2.235.547-.385,1,1.121-.547.385Zm2,2.235.547-.385,1,1.121-.547.385Zm2.007,2.235.547-.385,1,1.121-.547.385Zm2,2.235.547-.378,1,1.114-.547.385Zm2,2.235.547-.385,1,1.121-.547.385Zm2.007,2.235.547-.378,1,1.114-.547.385Zm2,2.235.547-.385,1,1.121-.547.385Zm2,2.235.547-.385,1,1.121-.547.385Zm2.007,2.235.541-.378,1.007,1.114-.547.385Zm2,2.235.547-.378,1,1.114-.547.385Zm2,2.235.547-.378,1,1.114-.547.385Zm2.007,2.235.547-.378,1,1.114-.547.385Zm2,2.235.547-.378,1,1.114-.547.385Zm2,2.235.547-.378,1,1.114-.547.385Zm2.007,2.235.547-.378,1,1.114-.547.385Zm2,2.235.547-.378,1,1.114-.547.385Zm2,2.235.547-.378,1,1.114-.547.385Zm2.007,2.235.541-.378,1.007,1.114-.547.385Zm2,2.235.547-.378,1,1.114-.547.385Zm2,2.235.547-.378,1,1.114-.547.385Zm2.007,2.235.541-.378,1.007,1.114-.547.385Zm2,2.235.547-.378,1,1.114-.547.385Zm2,2.235.547-.378,1,1.114-.547.385Zm2.007,2.235.541-.378,1.007,1.114-.547.385Zm2,2.235.547-.378,1,1.114-.547.385Zm2,2.235.547-.378,1,1.114-.547.385Zm2,2.235.547-.378,1,1.114-.541.385Zm2.007,2.235.547-.378,1,1.114-.547.385Zm2,2.235.547-.378,1,1.114-.547.385Zm2,2.235.547-.378,1,1.114-.547.385Zm2.007,2.235.547-.378,1,1.114-.547.385Zm2,2.235.547-.378,1,1.114-.547.385Zm2,2.235.547-.378,1,1.114-.547.385Zm2.007,2.235.547-.378,1,1.114-.547.385Zm2,2.235.547-.378,1,1.114-.547.385Zm2,2.235.547-.378,1,1.114-.547.385Zm2.007,2.235.547-.378,1,1.114-.547.385Zm2,2.235.547-.378,1,1.114-.547.385Zm2,2.235.547-.378,1,1.114-.541.385Zm2.007,2.235.547-.378,1,1.114-.547.385Zm2,2.235.547-.378,1,1.114-.547.385Zm2,2.235.547-.378,1,1.114-.547.385Zm2.007,2.235.547-.378,1,1.114-.547.385Zm2,2.242.547-.385,1,1.114-.547.385Zm2,2.228.547-.378,1,1.114-.547.385Zm2.007,2.235.541-.378,1.007,1.114-.547.385Zm2,2.242.547-.385,1,1.114-.547.385Zm2,2.235.547-.385,1,1.114-.547.385Zm2.007,2.235.54-.385,1.007,1.114-.547.385Zm2,2.235.547-.385,1,1.121-.547.378Zm2,2.235.547-.385,1,1.121-.547.378Zm2.007,2.235.541-.385,1.007,1.114-.547.385Zm2,2.235.547-.385,1,1.121-.547.378Zm2,2.235.547-.385,1,1.121-.547.378Zm2,2.235.547-.385,1.007,1.121-.547.378Zm2.007,2.235.547-.385,1,1.121-.547.378Zm2,2.235.547-.385,1,1.121-.547.378Zm2,2.235.547-.385,1.007,1.121-.547.378Zm2.007,2.235.547-.385,1,1.121-.547.378Zm2,2.235L275.9,422l1,1.121-.547.378Zm2,2.235.547-.385,1,1.121-.541.378Zm2.007,2.235.547-.385,1,1.121-.547.378Zm2,2.235.547-.385,1,1.121-.547.378Zm2,2.235.547-.385,1,1.121-.541.378Zm2.007,2.235.547-.385,1,1.121-.547.378Zm2,2.235.547-.385,1,1.121-.547.378Zm2,2.235.547-.385,1,1.121-.541.378Zm2.007,2.235.547-.385,1,1.121-.547.378Zm2,2.235.547-.385,1,1.121-.547.378Zm2,2.235.547-.385,1,1.121-.547.378Zm2.007,2.235.547-.385,1,1.121-.547.378Zm2,2.235.547-.385,1,1.121-.547.378Zm2,2.235.547-.385,1,1.121-.547.378Zm2.007,2.235.547-.385,1,1.121-.547.378Zm2,2.235.547-.385,1,1.121-.547.378Zm2,2.235.547-.385,1,1.121-.547.378Zm2.007,2.235.54-.385,1.007,1.121-.547.378Zm2,2.235.547-.385,1,1.121-.547.378Zm2,2.235.547-.385,1,1.121-.547.378Zm2.007,2.235.547-.385,1,1.121-.547.378Zm2,2.235.547-.385,1,1.121-.547.378Zm2,2.235.547-.385,1,1.121-.547.378Zm2.007,2.235.54-.385,1.007,1.121-.547.385Zm2,2.235.547-.385,1,1.121-.547.378Zm2,2.235.547-.385,1,1.121-.547.378Zm2.007,2.235.541-.385,1.007,1.121-.547.378Zm2,2.235.547-.385,1,1.121-.547.385Zm2,2.235.547-.385,1,1.121-.547.385Zm2.007,2.235.541-.385,1.007,1.121-.547.385Zm2,2.235.547-.385,1,1.121-.547.385Zm2,2.235.547-.378,1,1.114-.547.385Zm2,2.235.547-.378,1.007,1.114-.547.385Zm2.007,2.235.547-.378,1,1.114-.547.385Zm2,2.235.547-.378,1,1.114-.547.385Zm2,2.235.547-.378,1.007,1.114-.547.385Zm2.007,2.235.547-.378,1,1.114-.547.385Zm2,2.235.547-.378,1,1.114-.547.385Zm2,2.235.547-.378,1,1.114-.541.385Zm2.007,2.235.547-.378,1,1.114-.547.385Zm2,2.235.547-.378,1,1.114-.547.385Zm2,2.235.547-.378,1,1.114-.541.385Zm2.007,2.235.547-.378L361,517l-.547.385Zm2,2.235.547-.378,1,1.114-.547.385Zm2,2.235.547-.378,1,1.114-.541.385Zm2.007,2.235.547-.378,1,1.114-.547.385Zm2,2.235.547-.378,1,1.114-.547.385Zm2,2.235.547-.378,1,1.114-.547.385Zm2.007,2.235.547-.378,1,1.114-.547.385Zm2,2.235.547-.378,1,1.114-.547.385Zm2,2.235.547-.378,1,1.114-.547.385Zm2.007,2.235.547-.378,1,1.114-.547.385Zm2,2.235.547-.378,1,1.114-.547.385Zm2,2.235.547-.378,1,1.114-.547.385Zm2.007,2.235.541-.378,1.007,1.114-.547.385Zm2,2.235.547-.378.676.75-.547.385Z" transform="translate(-23.08 -140.367)" fill="#249dbf"/>
        </g>
        <g id="Grupo_30667" data-name="Grupo 30667" transform="translate(16.176 140.579)">
          <path id="Trazado_77036" data-name="Trazado 77036" d="M69.3,145.958l1.14-.711L169.39,265.508l-.58.354L8.906,363.275l-.937-1.159,159.324-97.06Z" transform="translate(-7.969 -145.247)" fill="#249dbf"/>
        </g>
        <g id="Grupo_30668" data-name="Grupo 30668" transform="translate(210.401 299.169)">
          <path id="Trazado_77037" data-name="Trazado 77037" d="M36.714,168.307l.739.049L48.481,310.944l-.739-.048Z" transform="translate(-36.714 -168.307)" fill="#249dbf"/>
        </g>
        <g id="Grupo_30669" data-name="Grupo 30669" transform="translate(51.802 176.846)">
          <path id="Trazado_77038" data-name="Trazado 77038" d="M13.241,150.949l.5-.429,335.27,321.743-.5.429Z" transform="translate(-13.241 -150.52)" fill="#249dbf"/>
        </g>
        <g id="Grupo_30670" data-name="Grupo 30670" transform="translate(61.714 241.685)">
          <path id="Trazado_77039" data-name="Trazado 77039" d="M14.708,160.351l.528-.4L255.2,410.843l-.528.4Z" transform="translate(-14.708 -159.948)" fill="#249dbf"/>
        </g>
        <g id="Grupo_30671" data-name="Grupo 30671" transform="translate(0 183.137)">
          <path id="Trazado_77040" data-name="Trazado 77040" d="M42.731,151.786l.568-.351.946,1.155-.574.351Zm1.885,2.311.574-.358.939,1.155-.568.358Zm1.892,2.311.568-.358.946,1.155-.574.358Zm1.885,2.3.574-.351.946,1.155-.574.351Zm1.892,2.311.568-.351.946,1.155-.568.351Zm1.885,2.311.574-.351.939,1.155-.568.351Zm1.892,2.311.568-.351.946,1.155L55,166.8Zm1.885,2.311.574-.351.946,1.155-.574.351Zm1.892,2.311.568-.351.946,1.155-.568.351Zm1.885,2.311.574-.358.946,1.155-.574.358Zm1.892,2.311.568-.358.946,1.155-.574.358ZM63.5,177.2l.574-.358L65.022,178l-.574.351Zm1.892,2.3.568-.351.946,1.155-.568.351Zm1.885,2.311.574-.351.946,1.155-.574.351Zm1.892,2.311.568-.351.946,1.155-.568.351ZM5.575,308.081l1.142-.708.473.578-1.142.708ZM71.056,186.434l.574-.351.946,1.155-.574.351ZM7.859,306.671,9,305.963l.473.578-1.142.708Zm2.291-1.417,1.142-.708.473.578-1.149.708Zm62.8-116.51.568-.351.946,1.155-.568.351ZM12.433,303.838l1.142-.7.473.571-1.142.708Zm2.284-1.41,1.142-.708.473.578-1.142.708ZM74.833,191.056l.574-.351.946,1.148-.574.358ZM17,301.011l1.149-.709.473.578-1.149.708Zm2.291-1.41,1.142-.708.473.578-1.142.708ZM76.725,193.366l.568-.358.946,1.155-.568.358ZM21.575,298.185l1.142-.708.473.578-1.142.708Zm2.284-1.417,1.149-.7.466.578-1.142.7ZM78.611,195.677l.574-.358.946,1.155-.574.358ZM26.15,295.358l1.142-.708.473.578-1.142.708Zm2.284-1.417,1.142-.709.473.578-1.142.708ZM80.5,197.981l.568-.351.946,1.155-.568.351Zm-49.785,94.55,1.149-.708.466.578-1.142.708Zm2.291-1.417,1.142-.708.473.578-1.149.708Zm49.38-90.823.574-.351.946,1.155-.574.351ZM35.292,289.7l1.142-.7.473.578-1.142.7Zm2.284-1.41,1.142-.708.473.578-1.142.708ZM84.28,202.6l.568-.351.946,1.155-.568.351ZM39.866,286.871l1.142-.708.473.578-1.149.708Zm2.284-1.41,1.142-.708.473.578-1.142.708Zm44.015-80.548.574-.351.946,1.155-.574.351ZM44.434,284.045l1.142-.708.473.578-1.142.708Zm2.291-1.417,1.142-.7.473.578-1.149.7Zm41.332-75.4.568-.351.946,1.155L89,208.38ZM49.009,281.218l1.142-.708.473.578-1.142.708Zm2.284-1.417,1.142-.708.473.578-1.142.708Zm38.65-70.266.574-.351.946,1.148-.574.358ZM53.576,278.392l1.149-.708.466.578-1.142.708Zm2.291-1.417,1.142-.708.473.578-1.142.708Zm35.967-65.129.568-.357.946,1.155L92.78,213ZM58.151,275.565l1.142-.708.473.578-1.142.7Zm2.284-1.417,1.149-.708.466.578-1.142.708Zm33.285-59.991.574-.358.946,1.155-.574.358ZM62.725,272.732l1.142-.7.473.571-1.142.708Zm2.284-1.41,1.142-.708.473.578-1.142.708Zm30.6-54.861.568-.351.946,1.155-.568.351ZM67.293,269.9l1.142-.708.473.578-1.142.708Zm2.291-1.41,1.142-.708.473.578-1.149.7ZM97.5,218.771l.574-.351.946,1.155-.574.351ZM71.867,267.078l1.142-.708.473.578-1.142.708Zm2.284-1.417,1.142-.7.473.571-1.142.708Zm2.291-1.41,1.142-.708.473.578-1.149.708Zm22.947-43.169.568-.351.946,1.155-.568.351ZM78.725,262.835l1.142-.708.473.578-1.142.708Zm2.284-1.41,1.142-.708.473.578-1.142.7Zm20.264-38.032.574-.351.946,1.155-.574.351ZM83.3,260.008l1.142-.708.473.578-1.149.708Zm2.284-1.417,1.142-.7.473.578-1.142.7ZM103.165,225.7l.574-.351.939,1.155-.568.351Zm-15.3,31.478,1.142-.708.473.578-1.142.708Zm2.284-1.417,1.149-.708.466.578-1.142.708Zm14.9-27.75.574-.351.946,1.155-.574.351Zm-12.608,26.34,1.142-.708.473.578-1.142.708Zm2.284-1.417,1.142-.708.473.578-1.142.708Zm12.217-22.613.568-.358.946,1.155-.568.358Zm-9.933,21.2,1.149-.7.466.578-1.142.7Zm2.291-1.41,1.142-.708.473.578-1.149.708Zm9.527-17.475.574-.358.946,1.155-.574.358Zm-7.243,16.059,1.142-.708.473.578-1.142.708Zm2.284-1.41,1.142-.708.473.578-1.142.708Zm6.852-12.338.574-.358.939,1.155-.568.351Zm-4.561,10.921,1.142-.708.473.578-1.149.708Zm2.284-1.417,1.142-.7.473.578-1.142.7Zm4.169-7.2.568-.351.946,1.155-.574.351Zm-1.885,5.791,1.142-.709.473.578-1.142.708Zm2.291-1.417,1.142-.708.473.578-1.149.708Zm1.48-2.063.568-.351,1.1,1.341-.392.241-.236-.289-.182.11Z" transform="translate(-5.575 -151.435)" fill="#249dbf"/>
        </g>
        <g id="Grupo_30672" data-name="Grupo 30672" transform="translate(210.458 184.457)">
          <path id="Trazado_77041" data-name="Trazado 77041" d="M36.722,405.822l.068-.138.676.365-.068.131Zm.676-1.279.608-1.142.676.358-.608,1.149Zm1.216-2.29.608-1.142.676.364-.608,1.142Zm1.216-2.29.608-1.142.676.364-.608,1.142Zm1.216-2.283.608-1.149.676.365-.608,1.142Zm1.216-2.29.608-1.148.676.364-.608,1.148Zm1.216-2.29.608-1.142.676.358-.608,1.149Zm1.216-2.29.615-1.142.676.358-.608,1.148Zm1.223-2.29.608-1.142.676.365-.608,1.142Zm1.216-2.283.608-1.149.676.365-.608,1.142Zm1.216-2.29.608-1.149.676.365-.608,1.142Zm1.216-2.29.608-1.142.676.358-.608,1.148Zm1.216-2.29.608-1.142.676.358-.608,1.149ZM52,377.075l.608-1.142.676.364-.608,1.142Zm1.216-2.283.608-1.149.676.365-.608,1.142Zm1.216-2.29.608-1.148.676.364-.608,1.142Zm1.216-2.29.608-1.142.676.358-.608,1.148Zm1.216-2.29.608-1.142.676.358-.608,1.149Zm1.216-2.29.608-1.142.676.364L58.756,366Zm1.216-2.283.608-1.149.676.365-.608,1.142Zm1.216-2.29.608-1.148.676.364-.608,1.142Zm1.216-2.29.608-1.142.676.358-.608,1.148Zm1.216-2.29.615-1.142.676.358-.608,1.149Zm1.223-2.29.608-1.142.676.364-.608,1.142Zm1.216-2.283.608-1.149.676.365-.608,1.142Zm1.216-2.29.608-1.148.676.364-.608,1.142Zm1.216-2.29.608-1.142.676.358-.608,1.148Zm1.216-2.29.608-1.142.676.358-.608,1.149Zm1.216-2.29.608-1.142.676.364-.608,1.142Zm1.216-2.283.608-1.148.676.365-.608,1.142Zm1.216-2.29.608-1.149.676.364-.608,1.142Zm1.216-2.29.608-1.142.676.358-.608,1.148Zm1.216-2.29.608-1.142.676.358-.608,1.149Zm1.216-2.29.608-1.142.676.365-.608,1.142Zm1.216-2.283.608-1.148.676.364-.608,1.142Zm1.216-2.29.608-1.149.676.365-.608,1.142Zm1.216-2.29.608-1.142.682.358-.615,1.149Zm1.216-2.29L81.811,321l.676.358-.608,1.148Zm1.223-2.29.608-1.142.676.364-.608,1.142Zm1.216-2.29.608-1.142.676.364-.608,1.142Zm1.216-2.283.608-1.149.676.365-.608,1.142Zm1.216-2.29.608-1.148.676.364-.608,1.149Zm1.216-2.29.608-1.142.676.358-.608,1.148Zm1.216-2.29.608-1.142.676.365-.608,1.142Zm1.216-2.29.608-1.142.676.365-.608,1.142Zm1.216-2.283.608-1.149.676.365-.608,1.142Zm1.216-2.29.608-1.148.676.365-.608,1.142Zm1.216-2.29.608-1.142.676.358-.608,1.148Zm1.216-2.29.608-1.142.676.358-.608,1.149Zm1.216-2.29.608-1.142.676.364-.608,1.142Zm1.216-2.283.608-1.149.676.365-.608,1.142Zm1.216-2.29.608-1.148.682.365-.615,1.142Zm1.216-2.29.615-1.142.676.358-.608,1.149Zm1.223-2.29.608-1.142.676.358-.608,1.149Zm1.216-2.29.608-1.142.676.364-.608,1.142Zm1.216-2.283.608-1.148.676.364-.608,1.142Zm1.216-2.29.608-1.149.676.364-.608,1.142Zm1.216-2.29.608-1.142.676.358-.608,1.148Zm1.216-2.29.608-1.142.676.358-.608,1.149Zm1.216-2.29.608-1.142.676.364-.608,1.142Zm1.216-2.283.608-1.148.676.365-.608,1.142Zm1.216-2.29.608-1.149.676.364-.608,1.142Zm1.216-2.29.608-1.142.676.358-.608,1.149Zm1.216-2.29.608-1.142.676.358L113.508,263Zm1.216-2.29.608-1.142.676.365-.608,1.142Zm1.216-2.283.608-1.148.676.364-.608,1.142Zm1.216-2.29.608-1.149.682.365-.615,1.142Zm1.223-2.29.608-1.142.676.358-.608,1.149Zm1.216-2.29.608-1.142.676.358-.608,1.148Zm1.216-2.29.608-1.142.676.365-.608,1.142Zm1.216-2.283.608-1.148.676.364-.608,1.142Zm1.216-2.29.608-1.149.676.365-.608,1.142Zm1.216-2.29.608-1.142.676.358-.608,1.149Zm1.216-2.29.608-1.142.676.358-.608,1.148Zm1.216-2.29.608-1.142.676.365-.608,1.142Zm1.216-2.283.608-1.148.676.365-.608,1.142Zm1.216-2.29.608-1.149.676.365-.608,1.142Zm1.216-2.29.608-1.142.676.358-.608,1.149Zm1.216-2.29.608-1.142.676.358-.608,1.148Zm1.216-2.29.608-1.142.676.365-.608,1.142Zm1.216-2.29.608-1.142.676.364-.608,1.142Zm1.216-2.283.608-1.149.682.365-.615,1.142Zm1.223-2.29.608-1.149.676.364-.608,1.149Zm1.216-2.29.608-1.142.676.358-.608,1.148Zm1.216-2.29.608-1.142.676.364-.608,1.142Zm1.216-2.29.608-1.142.676.364-.608,1.142ZM140.819,210l.608-1.148.676.364-.608,1.142Zm1.216-2.29.608-1.149.676.365-.608,1.142Zm1.216-2.29.608-1.142.676.358-.608,1.149Zm1.216-2.29.608-1.142.676.358-.608,1.148Zm1.216-2.29.608-1.142.676.365-.608,1.142Zm1.216-2.283.608-1.148.676.364-.608,1.142Zm1.216-2.29.608-1.149.676.365-.608,1.142Zm1.216-2.29.608-1.142.676.358-.608,1.149Zm1.216-2.29.608-1.142.676.358-.608,1.148Zm1.216-2.29.608-1.142.676.365-.608,1.142Zm1.216-2.283.608-1.148.682.364-.615,1.142Zm1.223-2.29.608-1.149.676.365-.608,1.142Zm1.216-2.29.608-1.142.676.358-.608,1.149Zm1.216-2.29.608-1.142.676.358-.608,1.148Zm1.216-2.29.608-1.142.676.365-.608,1.142Zm1.216-2.283.608-1.148.676.364-.608,1.142Zm1.216-2.29.608-1.149.676.365-.608,1.142Zm1.216-2.29.608-1.142.676.358-.608,1.149Zm1.216-2.29.608-1.142.676.358-.608,1.148Zm1.216-2.29.608-1.142.676.365-.608,1.142Zm1.216-2.283.608-1.148.676.364-.608,1.142Zm1.216-2.29.608-1.149.676.365-.608,1.142Zm1.216-2.29.608-1.142.676.358L168.259,160Zm1.216-2.29.608-1.142.676.358-.608,1.148Zm1.216-2.29.608-1.142.676.364-.608,1.142Zm1.216-2.283.608-1.149.682.364-.608,1.142Z" transform="translate(-36.722 -151.627)" fill="#ec6f8d"/>
        </g>
        <g id="Grupo_30673" data-name="Grupo 30673" transform="translate(191.005 166.301)">
          <path id="Trazado_77042" data-name="Trazado 77042" d="M33.843,380.047,35,377.873l.682.358-1.162,2.18Zm4.2-7.9,3.041-5.722.676.358-3.041,5.722Zm6.081-11.444,3.041-5.722.676.358L44.8,361.065Zm6.081-11.444,3.041-5.722.682.358-3.047,5.722ZM56.3,337.819l3.041-5.722.676.358-3.041,5.722Zm6.081-11.444,3.041-5.722.676.358-3.041,5.722Zm6.081-11.444,3.041-5.722.682.358-3.047,5.722Zm6.088-11.444,3.041-5.722.676.358-3.041,5.722Zm6.081-11.444,3.041-5.722.676.358L81.3,292.4ZM86.709,280.6l3.047-5.722.676.358-3.047,5.722ZM92.8,269.156l3.041-5.722.676.358-3.041,5.722Zm6.081-11.444,3.041-5.722.676.358-3.041,5.722Zm6.081-11.444,3.047-5.729.676.364-3.047,5.722Zm6.088-11.451,3.041-5.722.676.365-3.041,5.722Zm6.081-11.444,3.041-5.722.676.365-3.041,5.722Zm6.081-11.444,3.047-5.722.676.364-3.047,5.722Zm6.088-11.444,3.041-5.722.676.365-3.041,5.722Zm6.081-11.444,3.041-5.722.676.365-3.041,5.722Zm6.081-11.444,3.047-5.722.676.364-3.047,5.722Zm6.088-11.444,3.041-5.722.676.364-3.041,5.722Zm6.081-11.444,3.041-5.722.676.364-3.041,5.722Z" transform="translate(-33.843 -148.987)" fill="#ec6f8d"/>
        </g>
        <g id="Grupo_30674" data-name="Grupo 30674" transform="translate(24.218 228.847)">
          <path id="Trazado_77043" data-name="Trazado 77043" d="M9.159,158.654l.3-.572L338.2,334.107l-.3.572Z" transform="translate(-9.159 -158.081)" fill="#ec6f8d"/>
        </g>
        <g id="Grupo_30675" data-name="Grupo 30675" transform="translate(376.374 258.164)">
          <path id="Trazado_77044" data-name="Trazado 77044" d="M61.277,177.37l.338-.1c32.345-9.326,80.306-19.154,125.084-13.026,26.818,3.672,39.96,11.465,40.089,11.547l-.345.543c-.128-.076-13.156-7.792-39.825-11.43-44.467-6.066-92.11,3.652-124.361,12.916L190.645,452.39l-.676.192Z" transform="translate(-61.277 -162.344)" fill="#53bc82"/>
        </g>
        <g id="Grupo_30676" data-name="Grupo 30676" transform="translate(389.516 269.785)">
          <path id="Trazado_77045" data-name="Trazado 77045" d="M63.222,164.22l.676-.186.6,1.3-.676.186Zm1.2,2.607.682-.186.6,1.3-.676.186Zm1.209,2.606.676-.193.6,1.307-.676.186Zm1.21,2.6.676-.186.6,1.307-.676.186Zm1.2,2.607.676-.186.608,1.3-.682.186Zm1.209,2.606.676-.186.6,1.3-.676.186Zm1.2,2.6.676-.186.608,1.307-.682.186Zm1.209,2.607.676-.186.6,1.3-.676.186Zm1.2,2.606.676-.186.608,1.3-.676.186Zm1.209,2.6.676-.186.6,1.307-.676.186Zm1.2,2.607.682-.186.6,1.307-.676.186Zm1.209,2.607.676-.186.6,1.3-.676.186Zm1.2,2.606.682-.186.6,1.3-.676.186Zm1.209,2.6.676-.186.6,1.307-.676.186Zm1.209,2.607.676-.186.6,1.3-.676.186Zm1.2,2.606.676-.186.608,1.3-.682.186Zm1.21,2.6.676-.186.6,1.307-.676.186Zm1.2,2.606.676-.186.608,1.307-.682.186Zm1.209,2.607.676-.186.6,1.3-.676.186Zm1.2,2.607.682-.186.6,1.3-.676.186Zm1.209,2.6.676-.186.6,1.307-.676.186Zm1.2,2.607.682-.186.6,1.3-.676.186Zm1.21,2.607.676-.186.6,1.3-.676.186Zm1.2,2.6.682-.186.6,1.307-.676.186Zm1.209,2.607.676-.186.608,1.3-.682.186Zm1.209,2.607.676-.186.6,1.3-.676.186Zm1.2,2.606.676-.186.608,1.3-.682.186Zm1.21,2.6.676-.186.6,1.307-.676.186Zm1.2,2.607.676-.186.608,1.3-.682.186Zm1.209,2.607.676-.186.6,1.3-.676.186Zm1.2,2.6.682-.186.6,1.307-.676.186Zm1.21,2.607.676-.186.6,1.3-.676.186Zm1.2,2.606.682-.186.6,1.3-.676.186Zm1.21,2.607.676-.193.6,1.307-.676.186Zm1.2,2.6.682-.186.6,1.307-.676.186Zm1.209,2.606.676-.186.608,1.3-.682.186Zm1.21,2.607.676-.186.6,1.3-.676.186Zm1.2,2.6.676-.186.608,1.307-.682.186Zm1.209,2.606.676-.186.6,1.3-.676.186Zm1.2,2.607.676-.186.608,1.3-.676.186Zm1.209,2.6.676-.186.6,1.307-.676.186Zm1.2,2.606.682-.186.6,1.307-.676.186Zm1.21,2.607.676-.186.6,1.3-.676.186Zm1.2,2.606.682-.186.6,1.3-.676.186Zm1.209,2.6.676-.186.6,1.307-.676.186Zm1.209,2.607.676-.186.6,1.3-.676.186Zm1.2,2.606.676-.186.608,1.3-.682.186Zm1.21,2.6.676-.186.6,1.307-.676.186Zm1.2,2.607.676-.186.608,1.3-.683.186Zm1.209,2.606.676-.186.6,1.3-.676.186Zm1.2,2.607.676-.186.608,1.3-.676.186Zm1.209,2.6.676-.186.6,1.307-.676.186Zm1.2,2.606.682-.186.6,1.3-.676.186Zm1.21,2.607.676-.186.6,1.3-.676.186Zm1.2,2.6.682-.186.6,1.307-.676.186Zm1.209,2.606.676-.186.6,1.3-.676.186Zm1.209,2.607.676-.186.6,1.3-.676.186Zm1.2,2.607.676-.193.608,1.307-.682.186Zm1.21,2.6.676-.186.6,1.307-.676.186Zm1.2,2.607.676-.186.608,1.3-.682.186Zm1.209,2.607.676-.186.6,1.3-.676.186Zm1.2,2.6.676-.186.608,1.307-.682.186Zm1.209,2.607.676-.186.6,1.3-.676.186Zm1.2,2.607.682-.186.6,1.3-.676.186Zm1.21,2.607.676-.186.6,1.3-.676.186Zm1.2,2.6.682-.186.6,1.307-.676.186Zm1.209,2.607.676-.186.6,1.3-.676.186Zm1.209,2.606.676-.186.6,1.3-.676.186Zm1.2,2.6.676-.186.608,1.307-.682.186Zm1.21,2.607.676-.186.6,1.3-.676.186Zm1.2,2.606.676-.186.608,1.3-.682.186Zm1.209,2.6.676-.186.6,1.307-.676.186Zm1.2,2.607.676-.186.608,1.3-.676.186Zm1.209,2.606.676-.186.6,1.3-.676.186Zm1.2,2.607.683-.186.6,1.3-.676.186Zm1.21,2.6.676-.186.6,1.307-.676.186Zm1.2,2.606.682-.186.6,1.3-.676.186Zm1.209,2.607.676-.186.608,1.3-.682.186Zm1.209,2.6.676-.186.6,1.307-.676.186Zm1.2,2.606.676-.186.608,1.3-.682.186Zm1.209,2.607.676-.186.6,1.3-.676.186Zm1.2,2.6.676-.186.608,1.307-.682.186Zm1.209,2.607.676-.186.6,1.307-.676.186Zm1.2,2.607.676-.186.608,1.3-.676.186ZM164.562,383l.676-.186.6,1.3-.676.186Zm1.2,2.6.682-.186.6,1.307-.676.186Zm1.21,2.607.676-.186.6,1.3-.676.186Zm1.2,2.606.682-.186.6,1.3-.676.186Zm1.209,2.607.676-.193.608,1.307-.682.186Zm1.209,2.6.676-.186.6,1.307-.676.186Zm1.2,2.606.676-.186.608,1.3-.682.186Zm1.21,2.607.676-.186.6,1.3-.676.186Zm1.2,2.6.676-.186.608,1.307-.682.186Zm1.209,2.607.676-.186.6,1.3-.676.186Zm1.2,2.607.676-.186.608,1.3-.676.186Zm1.209,2.6.676-.186.6,1.307-.676.186Zm1.2,2.607.682-.186.6,1.307-.676.186Zm1.21,2.607.676-.186.6,1.3-.676.186Zm1.2,2.606.682-.186.6,1.3-.676.186Zm1.209,2.6.676-.186.608,1.307-.682.186Zm1.209,2.607.676-.186.6,1.3-.676.186Zm1.2,2.607.676-.186.608,1.3-.682.186Zm1.21,2.6.676-.186.6,1.307-.676.186Zm1.2,2.607.676-.186.608,1.3-.682.186Zm1.209,2.607.676-.186.6,1.3-.676.186Zm1.2,2.606.676-.186.608,1.3L190.5,439Zm1.209,2.6.676-.186.6,1.307-.676.186Z" transform="translate(-63.222 -164.034)" fill="#53bc82"/>
        </g>
        <g id="Grupo_30677" data-name="Grupo 30677" transform="translate(382.793 271.724)">
          <path id="Trazado_77046" data-name="Trazado 77046" d="M62.227,164.5l.676-.186,3.014,6.513-.676.186Zm6.027,13.019.682-.186,3.014,6.513-.676.186Zm6.034,13.026.676-.186,3.02,6.513-.682.186Zm6.034,13.026.676-.186,3.014,6.506-.676.186Zm6.034,13.019.676-.186,3.014,6.513-.676.186Zm6.027,13.026.676-.186,3.02,6.506-.676.186Zm6.034,13.019.676-.186,3.02,6.513-.682.186Zm6.034,13.026.676-.186,3.014,6.513-.676.186Zm6.027,13.019.682-.186,3.014,6.513-.676.186Zm6.034,13.026.676-.186,3.02,6.513-.676.186Zm6.034,13.019.676-.186,3.014,6.513-.676.186Zm6.034,13.026.676-.186,3.014,6.513-.676.186Zm6.027,13.026.682-.193L138.3,327.1l-.676.186Zm6.034,13.019.676-.186,3.02,6.513-.676.186Zm6.034,13.026.676-.186,3.014,6.506-.676.186Zm6.034,13.019.676-.186,3.014,6.513-.676.186Zm6.027,13.026.682-.186,3.014,6.506-.676.186Zm6.034,13.019.676-.186,3.02,6.513-.682.186Zm6.034,13.026.676-.186,3.014,6.513-.676.186Zm6.034,13.019.676-.186,3.014,6.513-.676.186Zm6.027,13.026.682-.186,3.014,6.513-.676.186Zm6.034,13.019.676-.186,1.926,4.161-.676.186Z" transform="translate(-62.227 -164.316)" fill="#53bc82"/>
        </g>
        <g id="Grupo_30678" data-name="Grupo 30678" transform="translate(12.21 14.538)">
          <path id="Trazado_77047" data-name="Trazado 77047" d="M7.45,351.776l93.887,19.931c12.095-28.012,15.122-50.329,19.311-81.194,1.345-9.869,2.858-21.065,4.831-33.452,7.939-49.854,63.177-129.343,63.731-130.141l.642.42c-.554.791-55.724,80.183-63.637,129.907-1.973,12.379-3.493,23.569-4.831,33.445-4.21,30.989-7.25,53.375-19.453,81.566l-.1.227-.277-.055L7.382,352.436Z" transform="translate(-7.382 -126.92)" fill="#53bc82"/>
        </g>
        <g id="Grupo_30679" data-name="Grupo 30679" transform="translate(125.909 13.025)">
          <path id="Trazado_77048" data-name="Trazado 77048" d="M24.209,127.264l.324-.564,5.027,2.909-.331.557ZM35.2,133.619l.324-.564,5.973,3.452-.324.564Zm11.939,6.905.324-.564,5.973,3.452-.324.564Zm11.939,6.9.331-.557,5.966,3.452-.324.557Zm11.946,6.9.324-.557,5.966,3.452-.324.557Zm11.939,6.9.324-.557,5.973,3.446-.331.564Zm11.939,6.905.324-.564,5.973,3.452-.324.564Zm11.939,6.9.324-.564,5.973,3.452-.324.557Zm11.939,6.9.331-.557,5.966,3.452-.324.557Zm11.946,6.9.324-.557,5.966,3.452-.324.557Zm11.939,6.9.324-.564,5.973,3.452-.331.564Zm11.939,6.9.324-.564,5.973,3.452-.324.564Zm11.939,6.9.324-.557,5.973,3.452-.324.557Zm11.939,6.9.331-.557,5.966,3.452-.324.557Zm11.946,6.9.324-.557,5.966,3.446-.324.564Zm11.939,6.9.324-.564,5.973,3.452-.331.564Zm11.939,6.9.324-.564,5.973,3.452-.324.557Zm11.939,6.9.324-.557,5.973,3.452-.324.557Zm11.946,6.9.324-.557,5.966,3.452-.324.557Zm11.939,6.9.324-.564,5.966,3.452-.324.564Zm11.939,6.9.324-.564,5.973,3.453-.324.564Zm11.94,6.9.324-.557,5.973,3.452-.324.557Zm11.939,6.9.324-.557,5.973,3.452-.324.557Zm11.946,6.9.324-.557,5.966,3.446-.324.564Zm11.939,6.9.324-.564,5.966,3.452-.324.564Zm11.94,6.9.324-.564,5.973,3.452-.324.564Zm11.939,6.9.324-.557,5.973,3.452-.324.557Zm11.939,6.9.331-.557L351.96,316l-.324.557Zm11.946,6.9.324-.564L363.9,322.9l-.324.564Zm11.939,6.9.324-.564,5.973,3.452-.331.564Zm11.939,6.9.324-.564,5.973,3.452-.324.557Zm11.939,6.9.324-.557,5.973,3.452-.324.557Zm11.94,6.9.331-.557,5.966,3.445-.324.564Zm11.946,6.9.324-.564,5.966,3.452-.324.564Zm11.939,6.9.324-.564,5.973,3.453-.331.564Z" transform="translate(-24.209 -126.7)" fill="#53bc82"/>
        </g>
        <g id="Grupo_30680" data-name="Grupo 30680" transform="translate(125.665 18.575)">
          <path id="Trazado_77049" data-name="Trazado 77049" d="M24.173,128.071l.324-.564,5.041,2.916-.324.557ZM35.2,134.446l.324-.564,5.993,3.459-.324.564Zm11.98,6.919.324-.557,5.987,3.459-.324.564Zm11.973,6.926.324-.564,5.993,3.466-.331.557Zm11.98,6.919.324-.557,5.987,3.459-.324.564Zm11.973,6.926.324-.564,5.993,3.466-.331.557Zm11.98,6.919.324-.557,5.987,3.459-.324.564Zm11.973,6.925.324-.557,5.993,3.459-.331.557Zm11.98,6.926.324-.564,5.987,3.459-.324.564Zm11.973,6.919.324-.557,5.993,3.459-.331.557Zm11.98,6.926.324-.564,5.987,3.466-.324.557Zm11.973,6.919.324-.557,5.993,3.459-.331.564Zm11.98,6.925.324-.564,5.987,3.466-.324.557Zm11.973,6.919.324-.557,5.993,3.459-.331.564Zm11.98,6.926.324-.564,5.987,3.466-.324.557Zm11.973,6.919.324-.557,5.987,3.459-.324.564Zm11.98,6.926.324-.557,5.987,3.459-.324.557Zm11.973,6.926.324-.564,5.987,3.459-.324.564Zm11.98,6.919.324-.557,5.987,3.459-.324.557Zm11.973,6.925.324-.564,5.987,3.466-.324.557Zm11.98,6.919.324-.557,5.987,3.459-.324.564Zm11.973,6.926.324-.564,5.987,3.466-.324.557Zm11.98,6.919.324-.557,5.987,3.459-.324.564Zm11.973,6.926.324-.564L305,289.641l-.324.557Zm11.98,6.919.324-.557,5.987,3.459-.324.564Zm11.973,6.926.324-.557,5.987,3.459-.324.557Zm11.973,6.926.331-.564,5.987,3.459-.324.564Zm11.98,6.919.324-.557,5.987,3.459-.324.557Zm11.973,6.926.331-.564,5.987,3.466-.324.557Zm11.98,6.919.324-.557,5.987,3.459-.324.564Zm11.98,6.925.324-.564,5.987,3.466-.324.557Zm11.973,6.919.324-.557,5.987,3.459-.324.564Zm11.973,6.925.331-.564,5.987,3.466-.324.557Zm11.98,6.919.324-.557,5.987,3.459-.324.564Zm11.973,6.925.324-.557,5.993,3.459-.324.557Z" transform="translate(-24.173 -127.507)" fill="#53bc82"/>
        </g>
        <g id="Grupo_30681" data-name="Grupo 30681" transform="translate(125.429 24.132)">
          <path id="Trazado_77050" data-name="Trazado 77050" d="M24.138,128.872l.324-.557,5.054,2.916-.324.564Zm11.054,6.389.331-.557,6,3.466-.324.564Zm12.014,6.946.324-.564,6.007,3.473-.324.557Zm12.014,6.939.324-.564,6,3.473-.324.557Zm12.007,6.939.324-.557,6.007,3.466-.324.564Zm12.014,6.939.324-.557,6.007,3.466-.324.564Zm12.007,6.946.331-.564,6,3.473-.324.557Zm12.014,6.939.324-.564,6.007,3.473-.324.557Zm12.014,6.939.324-.557,6,3.466-.324.564Zm12.007,6.939.324-.557,6.007,3.466-.324.564Zm12.014,6.939.324-.557,6.007,3.473-.331.557Zm12.007,6.946.324-.564,6.007,3.473-.324.557Zm12.014,6.939.324-.557,6.007,3.466-.324.564Zm12.007,6.939.331-.557,6,3.466-.324.564Zm12.014,6.939.324-.557,6.007,3.473-.324.557Zm12.014,6.946.324-.564,6.007,3.473-.331.557Zm12.007,6.939.324-.564,6.007,3.473-.324.564Zm12.014,6.939.324-.557,6.007,3.466-.324.564Zm12.007,6.939.331-.557,6,3.473-.324.557Zm12.014,6.946.324-.564,6.007,3.473-.324.557Zm12.014,6.939.324-.564,6.007,3.473-.331.557Zm12.007,6.939.324-.557,6.007,3.466-.324.564Zm12.014,6.939.324-.557,6.007,3.473-.324.557Zm12.007,6.946.324-.564,6.007,3.473-.324.557Zm12.014,6.939.324-.564,6.007,3.473-.324.557Zm12.014,6.939.324-.557,6,3.466-.324.564Zm12.007,6.939.324-.557,6.007,3.466-.324.564Zm12.014,6.946.324-.564,6.007,3.473-.324.557Zm12.007,6.939.324-.564,6.007,3.473-.324.557Zm12.014,6.939.324-.557,6.007,3.466-.324.564Zm12.014,6.939.324-.557,6,3.466-.324.564Zm12.007,6.946.324-.564,6.007,3.473-.324.557Zm12.014,6.939.324-.564,6.007,3.473-.324.557Zm12.007,6.939.324-.557,6.007,3.466-.324.564Zm12.014,6.939.324-.557,6.007,3.466-.324.564Z" transform="translate(-24.138 -128.315)" fill="#53bc82"/>
        </g>
        <g id="Grupo_30682" data-name="Grupo 30682" transform="translate(82.752 79.274)">
          <path id="Trazado_77051" data-name="Trazado 77051" d="M18.045,136.333l1.439.6-.216.612-1.446-.605Zm2.885,1.2,1.446.6-.216.612-1.446-.6Zm2.9,1.19,1.446.6-.216.612-1.446-.6Zm2.892,1.19,1.446.591-.209.612-1.453-.591Zm2.9,1.176,1.446.591-.209.612L29.4,141.7Zm2.9,1.176,1.453.591-.216.612-1.446-.585Zm2.9,1.176,1.453.578-.209.619-1.453-.584Zm2.905,1.162,1.453.584-.209.612-1.453-.578Zm2.905,1.162,1.453.578-.209.619-1.453-.578Zm2.905,1.155,1.453.578-.209.619-1.453-.578Zm2.905,1.155,1.453.571-.2.619-1.453-.571Zm2.912,1.149,1.453.571-.2.619-1.459-.571Zm2.905,1.142,1.459.571-.2.619-1.46-.571Zm2.912,1.142,1.459.571-.2.619-1.459-.571Zm2.919,1.135,1.453.571-.2.619-1.453-.571Zm2.912,1.135,1.453.564-.2.619-1.459-.564Zm2.912,1.128,1.459.564-.2.626-1.459-.571Zm2.919,1.128,1.459.564-.2.619-1.459-.564Zm2.919,1.121,1.46.564-.2.619-1.459-.557Zm2.912,1.121,1.459.564-.2.619-1.46-.557Zm2.919,1.121,1.466.557-.2.619-1.459-.557Zm2.926,1.114,1.459.55-.2.626-1.459-.557Zm2.919,1.107,1.46.557-.189.619-1.466-.55Zm2.919,1.107,1.466.557-.2.619-1.459-.55Zm2.926,1.107,1.46.55-.189.626-1.46-.55Zm2.926,1.107,1.459.55-.189.619-1.466-.55Zm2.926,1.1,1.459.543-.189.626-1.466-.55Zm2.919,1.094,1.466.55-.189.626-1.466-.55Zm2.926,1.1,1.466.543-.189.626-1.466-.55Zm2.933,1.087,1.459.55-.189.626-1.459-.55Zm2.926,1.093,1.466.543-.189.626-1.466-.543Zm2.926,1.094,1.466.543-.189.619-1.459-.543Zm2.933,1.087,1.466.536-.189.626-1.466-.543Zm2.926,1.08,1.466.543-.182.626-1.466-.543Zm2.933,1.087,1.466.536-.189.626-1.466-.536Zm2.926,1.08,1.466.536-.182.626-1.466-.536ZM123,176.91l1.466.543-.182.626-1.466-.543Zm2.933,1.08,1.466.536-.182.626-1.466-.536Zm2.933,1.073,1.466.536-.182.626-1.466-.536Zm2.932,1.073,1.466.536-.182.626-1.466-.536Zm2.933,1.073,1.473.536-.182.626-1.473-.536Zm2.939,1.066,1.466.536-.182.626-1.466-.536Zm2.933,1.066,1.466.536-.182.626-1.466-.53Zm2.932,1.066,1.473.536-.182.626-1.466-.53Zm2.939,1.066,1.466.53-.182.633-1.466-.536Zm2.933,1.059,1.473.536-.182.626-1.466-.53Zm2.939,1.066,1.466.53-.176.626-1.473-.529Zm2.939,1.059,1.466.53-.176.626-1.473-.53Zm2.932,1.052,1.473.53-.182.633-1.466-.53Zm2.939,1.059,1.466.53-.176.626-1.466-.529Zm2.939,1.052,1.466.53-.176.626-1.466-.523Zm2.939,1.052,1.466.53-.176.626-1.466-.523Zm2.939,1.052,1.466.523-.176.633-1.473-.523Zm2.939,1.052,1.473.523-.176.633-1.473-.53Zm2.953,1.052,1.473.523-.176.633-1.473-.53Zm2.946,1.052,1.48.523-.176.633-1.473-.53Zm2.953,1.045,1.473.523-.176.633-1.473-.523Zm2.946,1.045,1.473.523-.176.633-1.473-.523Zm2.946,1.045,1.473.523-.176.633-1.473-.523Zm2.946,1.045,1.466.516-.169.633-1.473-.523Zm2.939,1.038,1.473.523-.176.626-1.466-.516Zm2.939,1.038,1.473.523-.176.626-1.466-.516Zm2.939,1.039,1.473.516-.176.633L199.252,205Zm2.939,1.032,1.466.516-.169.633-1.473-.516Zm2.933,1.032,1.466.516-.169.633-1.466-.516Zm2.933,1.032,1.466.516-.169.633-1.466-.516Zm2.933,1.032,1.473.516-.169.633-1.473-.516Zm2.946,1.032,1.473.516-.169.633-1.473-.516Zm2.946,1.032,1.473.516-.176.626-1.466-.516ZM220,211.6l1.466.509-.169.633-1.473-.516Zm2.946,1.025,1.466.516-.169.633-1.473-.516Zm2.939,1.025,1.473.516-.169.633-1.473-.516Zm2.946,1.032,1.473.509-.169.633-1.473-.509Zm2.953,1.025,1.473.509-.169.633-1.473-.509Zm2.939,1.025,1.48.509-.169.633-1.473-.509Zm2.953,1.018,1.473.516-.169.633-1.473-.516Zm2.946,1.025,1.473.509-.169.633-1.473-.509Zm2.946,1.025,1.473.509-.169.633-1.473-.516Zm2.946,1.018,1.473.509-.162.633-1.48-.509Zm2.953,1.018,1.473.509-.169.633-1.473-.509Zm2.946,1.018,1.473.509-.169.633-1.473-.509Zm2.946,1.018,1.473.509-.162.633-1.473-.509Zm2.953,1.018,1.473.509-.169.633-1.473-.509Zm2.946,1.011,1.473.509-.162.633-1.473-.509Zm2.953,1.018,1.473.5-.169.64-1.473-.509Zm2.946,1.011,1.473.509-.162.633-1.473-.509Zm2.953,1.011,1.473.509-.169.633-1.473-.509Zm2.946,1.011,1.48.509-.169.633-1.473-.509ZM276,230.959l1.473.509-.162.633-1.48-.509Zm2.946,1.011,1.48.5-.169.633-1.473-.5Zm2.953,1.011,1.48.5-.169.633-1.473-.5Zm2.953,1,1.473.5-.162.64-1.473-.509ZM287.808,235l1.473.5-.162.633-1.48-.5Zm2.953,1,1.473.5-.162.633-1.48-.5Zm2.946,1,1.48.5-.162.633-1.48-.5Zm2.953,1,1.48.5-.162.633-1.48-.5Zm2.953,1,1.48.5-.162.633-1.48-.5Zm2.953,1,1.473.5-.155.64-1.48-.5Zm2.953,1,1.48.5-.162.633-1.48-.5Zm2.953,1,1.48.5-.162.633-1.48-.5Zm2.953,1,1.48.5-.162.633-1.48-.5Zm2.953,1,1.48.5-.162.633-1.48-.5Zm2.953,1,1.48.5-.162.633-1.473-.5Zm2.96,1,1.473.5-.162.633-1.473-.5Zm2.953.99,1.473.5-.162.633-1.473-.5Zm2.953,1,1.473.5-.155.633-1.48-.5Zm2.953,1,1.48.5-.162.64-1.48-.5Zm2.953,1,1.48.5-.155.633-1.48-.5Zm2.96.99,1.473.5-.155.633-1.48-.5Zm2.953.99,1.48.5-.162.64-1.473-.5Zm2.96.99,1.473.5-.155.64-1.48-.5Zm2.953.99,1.48.5-.162.64-1.48-.5Zm2.953.99,1.48.5-.155.64-1.48-.5Zm2.96.99,1.48.5-.162.633-1.48-.488Zm2.953.99,1.48.5-.155.633-1.48-.5Zm2.96.99,1.48.488-.162.64-1.473-.5Zm2.96.983,1.473.5-.155.633-1.48-.5Zm2.953.983,1.48.5-.155.633-1.48-.488Zm2.96.99,1.48.488-.155.64-1.48-.5Zm2.959.983,1.473.488-.155.639-1.48-.5Zm2.953.983,1.48.488-.155.64-1.48-.5Zm2.96.977,1.48.5-.155.633-1.48-.488Zm2.96.983,1.48.5-.155.633-1.48-.488Zm2.96.984,1.48.488-.155.64-1.48-.5Zm2.96.977,1.48.5-.155.633-1.48-.488Zm2.96.983,1.412.461-.014.344-.074.316.074-.316-.142.3-1.412-.468Zm2.96.977,1.48.488-.155.639-1.48-.5Zm2.96.977,1.48.488-.155.64-1.48-.5Zm2.96.977,1.48.488-.155.633-1.48-.481Zm2.959.977,1.487.488-.155.633-1.48-.488Zm2.966.97,1.48.488-.155.64-1.48-.488Zm2.96.977,1.486.488-.155.633-1.48-.481Zm2.966.97,1.48.488-.149.64-1.486-.488Zm2.966.977,1.48.481-.149.64-1.487-.488Zm2.966.97,1.487.488-.149.633-1.487-.481Zm2.98.97,1.669.543-.1.5-.378-.117-.034.144-1.311-.426Zm.568,2.1.743.22c-.074.426-.155.86-.223,1.286l-.75-.206C415.386,280.456,415.46,280.022,415.541,279.589ZM415.1,282.2l.75.193c-.061.433-.122.867-.176,1.307l-.75-.186C414.98,283.076,415.041,282.636,415.1,282.2Zm-.331,2.634.75.172c-.047.44-.088.88-.128,1.32l-.757-.165C414.676,285.724,414.724,285.277,414.771,284.836Zm-.243,2.662.757.151q-.051.66-.081,1.32l-.757-.137C414.474,288.385,414.5,287.945,414.528,287.5Zm-.135,2.675.757.131c-.014.447-.027.887-.034,1.334l-.757-.117C414.366,291.074,414.379,290.62,414.393,290.173Zm-.041,2.7.757.11c0,.447.007.894.013,1.341l-.75-.1C414.359,293.77,414.352,293.323,414.352,292.869Zm.061,2.71.757.083c.014.454.034.9.061,1.348l-.757-.076C414.453,296.487,414.426,296.033,414.413,295.579Zm.155,2.716.75.062c.034.454.074.908.115,1.355l-.757-.055C414.636,299.2,414.6,298.749,414.568,298.3Zm.243,2.73.75.041c.054.454.1.9.162,1.355l-.75-.034Q414.882,301.707,414.811,301.026Zm.345,2.73.743.021.2,1.362-.743-.014C415.285,304.671,415.217,304.21,415.156,303.756Zm.426,2.73h.743c.081.454.162.9.25,1.355l-.75.007Zm.513,2.723.743-.014c.095.447.189.9.291,1.355l-.743.021C416.285,310.118,416.19,309.664,416.1,309.21Zm.6,2.73.737-.034c.108.447.216.9.331,1.355l-.737.041C416.913,312.848,416.8,312.394,416.7,311.94Zm.682,2.73.73-.055c.122.447.243.9.372,1.355l-.73.062C417.622,315.578,417.5,315.125,417.379,314.671Zm.764,2.723.723-.076c.135.454.27.9.412,1.355l-.73.083C418.413,318.3,418.271,317.848,418.143,317.394Zm.838,2.723.723-.089c.142.447.291.894.446,1.348l-.723.1C419.271,321.018,419.122,320.564,418.981,320.117Zm.912,2.71.716-.1c.162.447.318.894.48,1.341l-.709.117C420.21,323.735,420.048,323.281,419.893,322.827Zm.987,2.71.709-.124c.169.447.338.887.514,1.334l-.709.131C421.217,326.431,421.048,325.984,420.879,325.537Zm1.047,2.682.7-.137c.182.44.365.887.547,1.327l-.7.144C422.291,329.113,422.1,328.666,421.927,328.219Zm1.115,2.668.7-.151c.189.44.385.88.574,1.32l-.7.165C423.42,331.775,423.231,331.334,423.041,330.887Zm1.169,2.655.7-.165c.2.44.4.88.608,1.314l-.7.179C424.616,334.429,424.413,333.989,424.21,333.542Zm1.237,2.648.682-.186c.209.44.426.873.635,1.314l-.682.186C425.866,337.063,425.656,336.623,425.447,336.19Zm1.291,2.627.676-.2c.223.433.439.873.662,1.307l-.676.2C427.177,339.684,426.954,339.25,426.737,338.817Zm1.338,2.607.676-.206c.23.433.459.867.689,1.293l-.669.213C428.535,342.29,428.305,341.857,428.075,341.424Zm1.4,2.6.662-.22c.236.426.473.86.716,1.286l-.662.227C429.947,344.883,429.711,344.45,429.474,344.023Zm1.439,2.579.662-.234c.243.426.493.853.737,1.279l-.655.234C431.407,347.455,431.163,347.029,430.913,346.6Zm1.493,2.558.655-.241c.25.426.5.846.757,1.272l-.649.248C432.913,350.013,432.657,349.587,432.407,349.161Zm1.534,2.551.649-.254c.257.419.52.839.784,1.259l-.649.261C434.461,352.551,434.2,352.132,433.94,351.712Zm1.581,2.524.642-.261c.264.419.534.839.8,1.252l-.635.268C436.055,355.075,435.785,354.656,435.521,354.236Zm1.622,2.517.635-.268c.277.413.547.832.824,1.245l-.628.282Zm1.662,2.51.635-.289c.277.42.561.832.838,1.245l-.622.289C439.373,360.089,439.089,359.676,438.805,359.264Zm1.709,2.483.622-.289c.284.406.568.818.858,1.231l-.622.3C441.089,362.572,440.8,362.159,440.515,361.746Zm1.737,2.469.615-.3c.291.406.581.818.878,1.224l-.615.3C442.833,365.034,442.542,364.621,442.251,364.215Zm1.77,2.448.608-.309c.3.406.595.811.892,1.21l-.608.316Zm1.8,2.428.608-.317c.3.4.6.8.905,1.2l-.6.323C446.427,369.9,446.123,369.5,445.819,369.091Zm1.831,2.407.6-.323c.3.4.615.8.926,1.2l-.595.33C448.272,372.3,447.961,371.9,447.65,371.5Zm1.865,2.393.588-.33c.318.4.628.791.939,1.183l-.588.337C450.137,374.69,449.826,374.291,449.515,373.892Zm1.885,2.373.588-.337.953,1.176-.588.344C452.035,377.055,451.718,376.656,451.4,376.265Zm1.912,2.352.581-.344.966,1.169-.581.351C453.961,379.4,453.637,379.009,453.313,378.616Zm1.939,2.338.574-.351c.331.385.655.777.98,1.162l-.568.358C455.907,381.732,455.576,381.347,455.252,380.955Zm1.973,2.332.568-.364c.331.392.662.777.993,1.162l-.568.358Zm2,2.311.561-.364,1.007,1.148-.561.365C459.894,386.367,459.556,385.982,459.225,385.6Zm2.02,2.3.561-.371c.338.385.676.763,1.014,1.142l-.554.371C461.921,388.658,461.583,388.279,461.245,387.894Zm2.041,2.283.554-.378c.345.378.689.756,1.027,1.135l-.547.378Zm2.068,2.27.547-.385c.351.378.7.75,1.04,1.128l-.547.385C466.049,393.2,465.7,392.825,465.353,392.447Zm2.088,2.249.547-.385,1.047,1.114-.541.392Zm2.108,2.235.54-.392,1.061,1.114-.541.392Zm2.128,2.221.541-.392c.351.365.71.736,1.068,1.1l-.534.4C472.394,399.9,472.036,399.524,471.678,399.152Zm2.149,2.208.534-.4,1.074,1.093-.527.406ZM476,403.554l.527-.406,1.088,1.087-.527.413Zm2.189,2.18.52-.413,1.095,1.08-.52.419Zm2.2,2.167.514-.42,1.108,1.08-.513.419Zm2.216,2.152.513-.426,1.115,1.073-.507.419Zm2.243,2.132.507-.426,1.122,1.066-.507.426Zm2.25,2.125.507-.433,1.128,1.059-.5.433Zm2.27,2.111.5-.44L491,417.034l-.493.433Zm2.291,2.091.493-.433,1.142,1.039-.487.44Zm2.3,2.084.493-.44,1.149,1.031-.486.447Zm2.318,2.07.487-.447,1.155,1.025-.48.454Zm2.331,2.056.48-.454,1.169,1.025-.48.447Zm2.345,2.043.473-.454,1.176,1.011-.473.454Zm2.358,2.029.473-.461,1.182,1-.473.461Zm2.379,2.015.466-.468,1.189,1-.466.461Zm2.385,2,.459-.468,1.2.99-.459.468Zm2.4,1.988.459-.475,1.2.99-.453.468Zm2.412,1.974.459-.474,1.209.977-.453.474Zm2.432,1.96.446-.481,1.223.977-.453.475Zm2.439,1.946.446-.481,1.223.963-.439.481Zm2.46,1.926.439-.481,1.23.956-.432.488Zm2.473,1.919.432-.488,1.237.949-.432.5Zm2.487,1.905.426-.5,1.25.942-.426.5Zm2.5,1.884.426-.5,1.257.929-.426.5Zm2.527,1.864.412-.5c.459.344.885.647,1.27.929l-.412.5C531.085,450.822,530.659,450.513,530.2,450.176Zm2.547,1.85.405-.509c.851.605,1.3.922,1.3.922l-.4.516S533.605,452.638,532.747,452.026Z" transform="translate(-17.822 -136.333)" fill="#423c3d"/>
        </g>
        <g id="Grupo_30683" data-name="Grupo 30683" transform="translate(82.313 93.49)">
          <path id="Trazado_77052" data-name="Trazado 77052" d="M17.919,138.4l5.108,1.747-.162.633-5.108-1.747Zm10.216,3.487,5.108,1.747-.169.633-5.108-1.747Zm10.21,3.487,5.108,1.747-.169.626-5.1-1.74Zm10.216,3.487,5.1,1.74-.162.633-5.108-1.74Zm10.21,3.487,5.108,1.74-.169.633-5.1-1.74Zm10.216,3.487,5.1,1.74-.162.633-5.108-1.74Zm10.21,3.487,5.108,1.74-.169.633-5.108-1.747Zm10.21,3.48,5.108,1.747-.162.633-5.108-1.747Zm10.216,3.487,5.108,1.747-.169.633-5.108-1.747Zm10.21,3.487,5.108,1.747-.169.626-5.1-1.74Zm10.216,3.487,5.1,1.74-.162.633-5.108-1.74Zm10.21,3.487,5.108,1.74-.169.633-5.1-1.74Zm10.216,3.487,5.1,1.74-.162.633-5.108-1.74Zm10.21,3.487,5.108,1.74-.169.633-5.108-1.747Zm10.21,3.48L166,188.949l-.162.633-5.108-1.747Zm10.216,3.487,5.108,1.747-.169.633-5.108-1.747Zm10.21,3.487,5.108,1.74-.169.633-5.1-1.74Zm10.216,3.487,5.1,1.74-.162.633-5.108-1.74Zm10.21,3.487,5.108,1.74-.169.633-5.1-1.74Zm10.216,3.487,5.1,1.74-.162.633-5.108-1.74Zm10.21,3.48,5.108,1.747-.169.633-5.108-1.747Zm10.21,3.487,5.108,1.747-.162.633-5.108-1.747ZM242.6,215.09l5.108,1.747-.169.633-5.108-1.747Zm10.21,3.487,5.108,1.747-.169.626-5.1-1.74Zm10.216,3.487,5.1,1.74-.162.633-5.108-1.74Zm10.21,3.487,5.108,1.74-.169.633-5.1-1.74Zm10.216,3.487,5.1,1.74-.162.633-5.108-1.74Zm10.21,3.487,5.108,1.74-.169.633-5.108-1.747Zm10.21,3.48,5.108,1.747-.162.633-5.108-1.747Zm10.216,3.487,5.108,1.747-.169.633-5.108-1.747Zm10.21,3.487,5.108,1.74-.169.633-5.1-1.74Zm10.216,3.487,5.1,1.74-.162.633-5.108-1.74Zm10.21,3.487,5.108,1.74-.169.633-5.1-1.74Zm10.216,3.487,5.1,1.74-.162.633-5.108-1.74Zm10.21,3.487,2.8.956-.176.344a23.164,23.164,0,0,0-.892,2.263l-.716-.289c.324-.949.595-1.609.757-1.981l-1.946-.667Zm-.223,7.716.737.227c-.324,1.451-.595,2.978-.8,4.525l-.743-.179C364.333,267.647,364.6,266.113,364.928,264.641Zm-1.23,9.23.743.131c-.081,1.527-.1,3.1-.074,4.677l-.743-.089C363.59,277,363.617,275.411,363.7,273.871Zm.182,9.463.75.048c.135,1.561.331,3.15.574,4.732l-.743-.007C364.218,286.511,364.022,284.909,363.88,283.334Zm1.466,9.546.73-.034c.338,1.554.73,3.143,1.169,4.718l-.73.069C366.076,296.05,365.685,294.448,365.347,292.88Zm2.615,9.484.716-.11c.52,1.547,1.088,3.109,1.7,4.656l-.7.138C369.056,305.493,368.482,303.911,367.962,302.364Zm3.662,9.326.682-.172c.682,1.513,1.405,3.047,2.169,4.553l-.676.206C373.036,314.75,372.3,313.209,371.624,311.69Zm4.568,9.106.655-.234c.811,1.465,1.676,2.951,2.574,4.422l-.649.254C377.874,323.759,377.009,322.267,376.192,320.8Zm5.351,8.824.628-.282c.932,1.417,1.912,2.854,2.926,4.278l-.615.3C383.469,332.487,382.482,331.036,381.543,329.619Zm6.034,8.521.595-.323c1.034,1.369,2.122,2.751,3.223,4.126l-.581.344C389.705,340.9,388.617,339.515,387.577,338.14Zm6.6,8.212.568-.364c1.122,1.314,2.291,2.655,3.473,3.968l-.547.378C396.483,349.013,395.307,347.672,394.178,346.352Zm7.095,7.9.534-.392c1.2,1.258,2.433,2.545,3.689,3.817l-.52.406C403.712,356.805,402.469,355.512,401.273,354.247Zm7.507,7.593.507-.426c1.257,1.217,2.561,2.455,3.872,3.679l-.493.433C411.348,364.3,410.037,363.064,408.78,361.84Zm7.852,7.3.48-.454c1.324,1.19,2.683,2.373,4.034,3.535l-.473.461C419.321,371.523,417.963,370.326,416.632,369.143Zm8.156,7.022.459-.475c1.351,1.128,2.75,2.276,4.162,3.4l-.446.481C427.551,378.441,426.145,377.293,424.787,376.165Zm8.406,6.76.439-.488q2.1,1.63,4.277,3.28l-.426.5C436.024,385.112,434.6,384.012,433.193,382.926Zm8.635,6.513.412-.5c1.432,1.045,2.892,2.1,4.378,3.164l-.405.509C444.727,391.55,443.261,390.491,441.828,389.438Zm8.818,6.279.392-.516q2.2,1.527,4.466,3.054l-.385.523C453.6,397.76,452.112,396.735,450.646,395.717Zm8.98,6.073.378-.53c1.493.977,3,1.96,4.541,2.95l-.372.53C462.64,403.757,461.119,402.767,459.626,401.79Zm9.129,5.86.358-.536q2.27,1.424,4.608,2.854l-.351.543C471.809,409.555,470.275,408.606,468.755,407.65Zm9.257,5.674.338-.55c1.534.922,3.095,1.843,4.669,2.772l-.338.55C481.1,415.174,479.545,414.245,478.012,413.324Zm9.365,5.5.324-.564q2.331,1.341,4.716,2.682l-.324.564Q489.711,420.167,487.377,418.826Zm9.466,5.33.311-.571q2.351,1.3,4.764,2.607l-.311.564Q499.195,425.455,496.843,424.155Zm9.852,4.594c1.581.846,3.183,1.685,4.8,2.531l-.291.578q-2.433-1.269-4.811-2.531Zm9.622,5.021q2.392,1.227,4.831,2.455l-.284.585c-1.628-.818-3.243-1.644-4.838-2.462Z" transform="translate(-17.757 -138.4)" fill="#423c3d"/>
        </g>
        <g id="Grupo_30684" data-name="Grupo 30684" transform="translate(52.968 157.759)">
          <path id="Trazado_77053" data-name="Trazado 77053" d="M13.414,278.539,202.466,147.745l.23.392c18.223,30.955,40.636,50.453,66.623,57.942,40.521,11.685,76.056-10.309,76.414-10.536l.338-.213.223.371L489.9,436.444l-.642.261L345.868,196.327c-3.764,2.235-37.933,21.561-76.671,10.4-26.109-7.524-48.616-27.021-66.914-57.949L13.914,279.1Z" transform="translate(-13.414 -147.745)" fill="#423c3d"/>
        </g>
        <g id="Grupo_30685" data-name="Grupo 30685" transform="translate(185.714 198.604)">
          <path id="Trazado_77054" data-name="Trazado 77054" d="M33.06,210.147l1.331-.88.486.564-.736.488c.405.42,1.23,1.286,2.432,2.558l-.534.4c-1.743-1.85-2.7-2.84-2.7-2.84Zm5.243-3.466,3.906-2.586.486.571-3.906,2.586Zm7.818-5.165,3.905-2.586.487.571-3.906,2.579Zm-6.473,15.632.534-.392c1.074,1.162,2.27,2.469,3.574,3.9l-.547.385Q41.263,218.9,39.648,217.149Zm14.291-20.8,3.905-2.579.486.564-3.905,2.586Zm7.818-5.165,3.905-2.586.487.571-3.906,2.586ZM46.743,224.954l.547-.385q1.672,1.867,3.507,3.934l-.554.378C49.027,227.506,47.858,226.192,46.743,224.954Zm22.832-38.94,3.905-2.586.486.571-3.905,2.579Zm7.818-5.172,3.906-2.579.486.564-3.905,2.586ZM53.716,232.829l.554-.371q1.672,1.919,3.446,3.968l-.561.371Q55.392,234.744,53.716,232.829ZM85.21,175.678l3.905-2.579.493.564L85.7,176.249Zm7.818-5.165,3.905-2.586.493.571-3.912,2.579ZM60.574,240.779l.561-.365q1.662,1.95,3.385,4l-.561.364Q62.236,242.729,60.574,240.779Zm40.271-75.431,3.905-2.586.493.564-3.912,2.586Zm7.818-5.172,3.912-2.579.487.564-3.912,2.586Zm7.818-5.165,2.007-1.327.223.385c.5.846.993,1.685,1.493,2.517l-.642.254c-.419-.7-.845-1.417-1.27-2.139l-1.324.873ZM67.311,248.8l.568-.358q1.652,1.981,3.331,4.037l-.574.358C69.52,251.467,68.405,250.119,67.311,248.8Zm54.954-87.59.628-.275c.919,1.451,1.858,2.9,2.8,4.3l-.615.289C124.137,164.11,123.184,162.659,122.265,161.208ZM73.933,256.886l.574-.344c1.081,1.341,2.176,2.7,3.27,4.071l-.581.351Q75.554,258.9,73.933,256.886Zm54.1-87.116.6-.309c1.014,1.417,2.041,2.813,3.068,4.168l-.588.33C130.083,172.6,129.042,171.194,128.029,169.77Zm-47.6,95.286.588-.344q1.591,2.032,3.2,4.12l-.588.33Q82.027,267.089,80.426,265.056Zm53.913-87,.574-.351c1.108,1.362,2.237,2.7,3.358,3.989l-.554.378C136.59,180.781,135.454,179.426,134.34,178.057ZM86.791,273.3l.588-.33q1.571,2.063,3.135,4.154l-.595.33C88.879,276.053,87.832,274.664,86.791,273.3Zm54.468-87.322.534-.4c1.21,1.286,2.446,2.551,3.676,3.762l-.507.42C143.725,188.545,142.475,187.273,141.259,185.973ZM93.007,281.617l.6-.323c1.02,1.389,2.034,2.792,3.054,4.2l-.6.309Q94.541,283.7,93.007,281.617Zm55.832-88.223.48-.447c1.324,1.19,2.676,2.345,4.027,3.452l-.453.475C151.536,195.76,150.171,194.591,148.84,193.394ZM99.068,290.021l.6-.309q1.49,2.1,2.96,4.23l-.608.3C101.041,292.827,100.055,291.424,99.068,290.021Zm58.062-89.86.412-.5c1.439,1.059,2.905,2.084,4.372,3.047l-.378.536C160.063,202.266,158.577,201.234,157.131,200.161Zm-52.2,98.333.615-.3q1.449,2.146,2.878,4.3l-.622.282C106.852,301.348,105.9,299.918,104.933,298.494Zm5.689,8.6.628-.282c.932,1.444,1.851,2.9,2.764,4.34l-.635.275Q112.021,309.254,110.623,307.1Zm55.495-101.022.331-.557c.926.536,1.865,1.066,2.791,1.561q.953.506,1.905.99l-.284.578c-.642-.323-1.284-.653-1.926-1C168,207.149,167.05,206.619,166.117,206.076ZM116.076,315.784l.642-.261q1.338,2.2,2.635,4.395l-.642.248C117.846,318.707,116.967,317.242,116.076,315.784Zm59.893-105.458c1.628.7,3.3,1.355,4.946,1.946l-.182.626c-1.669-.6-3.351-1.259-4.993-1.967Zm-54.7,114.254.649-.248q1.267,2.228,2.487,4.45l-.655.234Q122.535,326.8,121.272,324.58ZM185.956,213.9c1.682.482,3.4.915,5.108,1.286l-.074.653c-1.723-.371-3.46-.812-5.162-1.3Zm-59.8,119.584.655-.22c.791,1.506,1.574,3.019,2.318,4.512l-.662.206C127.718,336.492,126.941,334.979,126.157,333.479Zm70.056-117.349c1.7.254,3.439.461,5.156.605l.034.674c-1.737-.144-3.487-.358-5.21-.612ZM130.677,342.5l.676-.193c.737,1.554,1.446,3.088,2.108,4.574l-.682.179C132.117,345.584,131.407,344.05,130.677,342.5Zm4.081,9.14.689-.158c.649,1.575,1.277,3.129,1.851,4.635l-.7.138C136.029,354.765,135.407,353.211,134.758,351.643Zm71.759-134.618c1.682.034,3.4.028,5.108-.034l.128.674c-1.716.062-3.453.076-5.156.034ZM138.292,360.907l.7-.124c.547,1.582,1.061,3.157,1.534,4.7l-.709.1C139.346,364.042,138.833,362.475,138.292,360.907Zm78.38-144.253c1.649-.151,3.324-.358,4.98-.612l.223.667c-1.676.254-3.365.461-5.027.619ZM141.15,370.267l.723-.069c.412,1.6.791,3.191,1.122,4.745l-.73.034C141.941,373.437,141.563,371.848,141.15,370.267Zm85.4-155.106c1.588-.33,3.21-.708,4.8-1.121l.3.653c-1.608.42-3.237.8-4.838,1.128ZM143.137,379.7h.73c.257,1.609.453,3.212.595,4.752l-.736-.041C143.583,382.88,143.387,381.291,143.137,379.7Zm92.914-167.017c1.534-.481,3.074-1.011,4.595-1.575l.358.633c-1.527.564-3.081,1.1-4.628,1.589ZM144,389.1l.743.082c.027,1.6,0,3.184-.095,4.7l-.743-.131C144,392.247,144.029,390.679,144,389.1Zm-.588,9.223.73.186q-.122.763-.264,1.527l-.736-.213C143.238,399.324,143.326,398.822,143.407,398.319Zm101.712-189c1.473-.626,2.939-1.293,4.351-1.981l.419.612c-1.426.688-2.9,1.362-4.385,1.995Zm8.568-4.161c2.588-1.431,4.027-2.414,4.041-2.428l.5.564c-.02.007-1.48,1.011-4.095,2.455Z" transform="translate(-33.06 -153.684)" fill="#423c3d"/>
        </g>
        <g id="Grupo_30686" data-name="Grupo 30686" transform="translate(212.505 225.632)">
          <path id="Trazado_77055" data-name="Trazado 77055" d="M37.025,210.336l3.851-2.648.493.557L37.525,210.9Zm7.7-5.3,3.851-2.655.493.564L45.221,205.6Zm7.7-5.3,3.845-2.655.5.557-3.851,2.655Zm7.7-5.309,3.845-2.648.5.557-3.851,2.655Zm7.7-5.3,3.845-2.655.5.564-3.851,2.648Zm7.7-5.309,3.851-2.648.493.557-3.845,2.655Zm7.7-5.3,3.851-2.655.493.564-3.845,2.655Zm7.7-5.3,3.851-2.655.493.557L91.4,173.762Zm7.7-5.309,3.851-2.655.5.564L99.1,168.46Zm7.7-5.3,3.845-2.655.5.564L106.8,163.15Zm7.575-4.773.669-.206c.75,1.52,1.52,3.04,2.277,4.5l-.662.213C115.4,160.86,114.628,159.347,113.878,157.82Zm4.669,9,.655-.234c.818,1.5,1.655,2.985,2.487,4.429l-.642.248C120.209,169.814,119.372,168.315,118.547,166.816Zm5.115,8.837.635-.261c.892,1.465,1.811,2.923,2.723,4.333l-.622.282C125.48,178.59,124.561,177.125,123.662,175.653Zm5.6,8.645.615-.3c.98,1.424,1.987,2.84,2.987,4.2l-.595.323C131.264,187.152,130.25,185.729,129.264,184.3Zm6.156,8.37.581-.344c1.081,1.375,2.189,2.73,3.291,4.037l-.561.358C137.622,195.412,136.507,194.043,135.419,192.668Zm6.777,8.005.547-.385c1.182,1.3,2.4,2.579,3.615,3.8l-.52.413C144.622,203.273,143.392,201.987,142.2,200.673Zm7.46,7.524.486-.44c1.3,1.21,2.642,2.386,3.966,3.507l-.459.468C152.312,210.6,150.967,209.414,149.656,208.2Zm8.176,6.884.426-.5c1.419,1.08,2.872,2.125,4.318,3.109l-.385.523C160.731,217.227,159.264,216.168,157.832,215.081Zm8.892,6.045.345-.55c1.3.777,2.628,1.534,3.946,2.242l.709.371-.3.578c-.236-.124-.48-.254-.716-.378C169.38,222.674,168.035,221.911,166.724,221.127Zm9.8,4.395c1.615.729,3.27,1.41,4.919,2.022l-.2.626c-1.662-.626-3.338-1.314-4.973-2.05Zm9.939,3.727c1.676.509,3.385.97,5.088,1.375l-.081.653c-1.723-.406-3.46-.873-5.149-1.389Zm10.23,2.407c1.7.289,3.439.53,5.162.708l.02.674c-1.743-.186-3.493-.426-5.216-.715ZM207,232.743c1.689.069,3.412.1,5.122.069l.122.674c-1.73.028-3.466.007-5.169-.069Zm10.2-.165c1.655-.124,3.338-.3,5.014-.516l.2.674c-1.682.22-3.385.392-5.054.516Zm9.939-1.293c1.615-.3,3.243-.64,4.845-1.018l.277.653c-1.615.385-3.257.736-4.878,1.032Zm9.595-2.277c1.554-.447,3.115-.942,4.642-1.472l.345.639c-1.541.53-3.115,1.032-4.676,1.486Zm9.183-3.15c1.493-.591,2.98-1.224,4.419-1.877l.4.612c-1.446.66-2.939,1.3-4.446,1.9Zm8.7-3.961c2.628-1.369,4.095-2.324,4.115-2.331l.48.571c-.014.007-1.507.977-4.162,2.359Z" transform="translate(-37.025 -157.614)" fill="#423c3d"/>
        </g>
        <g id="Grupo_30687" data-name="Grupo 30687" transform="translate(231.81 246.574)">
          <path id="Trazado_77056" data-name="Trazado 77056" d="M39.882,216.407l3.845-2.655.5.557-3.851,2.655Zm7.689-5.309,3.851-2.655.493.557-3.845,2.655Zm7.7-5.309,3.845-2.655.5.557-3.845,2.655Zm7.7-5.309,3.845-2.655.5.557-3.851,2.655Zm7.689-5.309,3.851-2.655.493.557-3.845,2.655Zm7.7-5.309,3.845-2.655.5.564-3.845,2.655Zm7.7-5.309L89.89,181.9l.5.564-3.851,2.655Zm7.7-5.309,3.845-2.655.493.564-3.845,2.655Zm7.689-5.309,3.851-2.655.493.564-3.845,2.655Zm7.7-5.309,3.845-2.655.5.564-3.851,2.655Zm7.7-5.309,3.845-2.655.5.564-3.851,2.655Z" transform="translate(-39.882 -160.659)" fill="#423c3d"/>
        </g>
        <g id="Grupo_30688" data-name="Grupo 30688" transform="translate(226.641 240.109)">
          <path id="Trazado_77057" data-name="Trazado 77057" d="M39.117,214.243l1.115-.791.507.557-.547.385c.426.433,1.324,1.362,2.622,2.723l-.534.406c-1.851-1.953-2.885-3-2.885-3Zm4.933-3.48,3.818-2.682.507.557-3.818,2.682Zm7.642-5.371,3.818-2.689.5.557-3.818,2.689ZM45.9,221.375l.534-.392c1.081,1.162,2.277,2.462,3.574,3.886l-.541.392C48.171,223.837,46.975,222.537,45.9,221.375ZM59.327,200.02l3.818-2.689.5.557-3.818,2.689Zm7.635-5.378,3.818-2.682.5.557L67.462,195.2ZM53,229.167l.547-.378q1.672,1.867,3.493,3.941l-.554.378Q54.668,231.034,53,229.167Zm21.6-39.9,3.818-2.689.507.564L75.1,189.828Zm7.635-5.371,3.818-2.689.507.557-3.818,2.689Zm7.635-5.378,3.818-2.682.507.557-3.818,2.682Zm-29.94,58.54.561-.364c1.108,1.286,2.25,2.613,3.412,3.989l-.561.364C62.178,239.675,61.036,238.348,59.928,237.062ZM97.51,173.15l3.818-2.689.5.564-3.818,2.682Zm7.635-5.371,3.818-2.689.5.557-3.818,2.689ZM66.712,245.054l.568-.358q1.642,1.971,3.338,4.037l-.574.358Q68.351,247.028,66.712,245.054ZM112.781,162.4l3.818-2.682.5.557-3.818,2.689Zm-39.447,90.74.574-.344c1.081,1.334,2.162,2.7,3.257,4.085l-.574.344C75.5,255.837,74.408,254.483,73.334,253.141Zm6.466,8.184.581-.337q1.581,2.043,3.176,4.133l-.595.337C81.909,264.063,80.848,262.687,79.8,261.325Zm6.284,8.28.595-.323q1.541,2.074,3.081,4.188l-.6.316C88.132,272.377,87.111,270.988,86.084,269.606Zm6.095,8.383.608-.309q1.49,2.1,2.973,4.243l-.608.3Q93.672,280.09,92.179,277.989Zm5.885,8.494.615-.3q1.439,2.136,2.858,4.3l-.622.282Q99.507,288.612,98.064,286.483Zm5.642,8.59.628-.275q1.378,2.166,2.723,4.347l-.628.268C105.531,297.961,104.619,296.51,103.706,295.073Zm5.379,8.721.635-.261q1.318,2.207,2.595,4.429l-.649.248C110.821,306.73,109.957,305.258,109.085,303.793Zm5.074,8.844.649-.234c.838,1.52,1.649,3.026,2.412,4.484l-.662.22C115.795,315.657,114.99,314.151,114.159,312.638Zm4.7,8.961.669-.2c.764,1.52,1.507,3.054,2.21,4.539l-.676.193C120.362,324.646,119.626,323.119,118.862,321.6Zm4.284,9.092.682-.172c.682,1.554,1.345,3.1,1.96,4.608l-.689.158C124.484,333.786,123.829,332.238,123.146,330.691Zm3.764,9.209.7-.131c.588,1.561,1.149,3.136,1.669,4.67l-.709.117C128.052,343.022,127.5,341.461,126.91,339.9Zm3.149,9.326.716-.089c.473,1.6.912,3.184,1.3,4.725l-.716.062C130.971,352.389,130.531,350.807,130.058,349.225Zm2.392,9.408.723-.027c.331,1.6.622,3.2.858,4.752h-.73C133.065,361.818,132.775,360.229,132.45,358.634Zm1.439,9.443.736.034c.155,1.6.257,3.2.3,4.739l-.737-.076C134.146,371.247,134.045,369.665,133.89,368.076Z" transform="translate(-39.117 -159.719)" fill="#423c3d"/>
        </g>
        <g id="Grupo_30689" data-name="Grupo 30689" transform="translate(246.452 268.059)">
          <path id="Trazado_77058" data-name="Trazado 77058" d="M42.049,211.512l1.149-.77.493.564-1.155.777Zm5.034-3.377,3.885-2.613.493.571L47.576,208.7Zm7.777-5.22,3.885-2.607.493.564-3.892,2.606Zm7.77-5.22,3.892-2.606.486.564-3.885,2.613Zm7.777-5.213,3.885-2.613.493.571L70.9,193.046Zm7.77-5.22,3.892-2.607.493.564-3.892,2.607Zm7.777-5.213,3.885-2.613.493.564-3.885,2.613Zm7.777-5.22,3.885-2.606.493.564-3.892,2.607Zm7.77-5.22L105.4,169l.486.564L102,172.18Zm7.777-5.213,3.885-2.613.493.571-3.885,2.607Z" transform="translate(-42.049 -163.783)" fill="#423c3d"/>
        </g>
        <g id="Grupo_30690" data-name="Grupo 30690" transform="translate(271.547 289.544)">
          <path id="Trazado_77059" data-name="Trazado 77059" d="M45.763,218.329l3.8-2.7.507.557-3.8,2.7Zm7.6-5.412,3.8-2.7.507.55-3.8,2.71Zm7.6-5.413,3.8-2.7.5.55-3.8,2.71Zm7.6-5.413,3.8-2.7.5.55-3.8,2.71Zm7.6-5.413,3.8-2.71.507.557-3.8,2.71Zm7.6-5.412,3.8-2.71.507.557-3.8,2.71Zm7.6-5.413,3.8-2.71.507.557-3.8,2.71Zm7.6-5.413,3.8-2.71.507.557-3.8,2.71Zm7.6-5.413,3.8-2.71.507.557-3.8,2.71Zm7.595-5.412,3.8-2.71.507.557-3.8,2.71Z" transform="translate(-45.763 -166.907)" fill="#423c3d"/>
        </g>
        <g id="Grupo_30691" data-name="Grupo 30691" transform="translate(75.556 60.953)">
          <path id="Trazado_77060" data-name="Trazado 77060" d="M17.156,133.669C21.007,135.141,422.125,288.4,479.9,299.38l.946.179-.291.777c-.047.124-4.25,12.173,1.27,38.376,5.095,24.208,20.075,65.2,62.522,123l-1.2.64c-23.555-32.069-53.569-79.565-62.812-123.711-4.851-23.142-2.378-34.972-1.446-38.115-60.887-12.3-458.309-164.149-462.14-165.614Z" transform="translate(-16.757 -133.669)" fill="#423c3d"/>
        </g>
        <g id="Grupo_30692" data-name="Grupo 30692" transform="translate(10.162 255.067)">
          <path id="Trazado_77061" data-name="Trazado 77061" d="M7.221,161.894c7.764,1.671,190.3,40.859,197.079,42.667,5.946,1.589,7.723,1.307,12.46.564.561-.089,1.162-.186,1.818-.282,6.216-.942,50.217,9.271,52.082,9.7l.628.144,6.547,124.57-1.48-.131-6.487-123.415c-15.919-3.693-46.177-10.247-50.853-9.539-.655.1-1.25.193-1.811.282-4.7.743-6.838,1.08-13.129-.6-6.743-1.8-195.093-42.241-197-42.647Z" transform="translate(-7.079 -161.894)" fill="#249dbf"/>
        </g>
        <g id="Grupo_30693" data-name="Grupo 30693" transform="translate(79.495 344.432)">
          <path id="Trazado_77062" data-name="Trazado 77062" d="M17.34,174.888l1.615.131.115.7-1.615-.131Zm3.23.261,1.615.131.108.695-1.608-.131Zm3.223.261,1.615.131.115.695-1.615-.131Zm3.23.254,1.615.131.115.7-1.615-.131Zm3.23.261,1.615.131.108.7-1.608-.131Zm3.223.261,1.615.131.115.695-1.615-.124Zm3.23.261,1.615.131.115.695-1.615-.131Zm3.23.261,1.608.124.115.7-1.615-.131Zm3.223.254,1.615.131.115.7-1.615-.131Zm3.23.261,1.615.131.115.7-1.615-.131Zm3.223.261,1.615.131.115.695-1.615-.131Zm3.23.261,1.615.131.115.695-1.615-.131Zm3.23.261,1.608.124.115.7-1.608-.131Zm3.223.254,1.615.131.115.7-1.615-.131Zm3.23.261,1.615.131.115.7-1.615-.131Zm3.23.261,1.608.131.115.695-1.615-.131Zm3.223.261,1.615.131.115.695-1.615-.131Zm3.23.254,1.615.131.108.7L72.321,180Zm3.223.261,1.615.131.115.7-1.615-.131Zm3.23.261,1.615.131.115.695-1.615-.124Zm3.23.261,1.615.131.108.695L82,180.782Zm3.223.261,1.615.124.115.7-1.615-.131Zm3.23.254,1.615.131.115.7-1.615-.131Zm3.23.261L93.18,181l.115.7-1.615-.131Zm3.223.261,1.615.131.115.695-1.615-.124Zm3.23.261,1.615.131.115.695-1.615-.131Zm3.223.261,1.615.124.115.7-1.615-.131Zm3.23.254,1.615.131.115.7-1.615-.131Zm3.23.261,1.608.131.115.7-1.608-.131Zm3.223.261,1.615.131.115.695-1.615-.131Zm3.23.261,1.615.131.115.695-1.615-.131Zm3.23.254,1.608.131.115.7-1.615-.131Zm3.223.261,1.615.131.115.7-1.615-.131Zm3.23.261,1.615.131.108.7-1.608-.131Zm3.223.261,1.615.131.115.695-1.615-.131Zm3.23.261,1.615.124.115.7-1.615-.131Zm3.23.254,1.615.131.108.7-1.615-.131Zm3.223.261,1.615.131.115.7-1.615-.131Zm3.23.261,1.615.131.115.695-1.615-.124Zm3.23.261,1.608.131.115.695-1.615-.131Zm3.223.261,1.615.124.115.7-1.615-.131Zm3.23.255,1.615.131.115.7-1.615-.131Zm3.223.261,1.615.131.115.7L153,186.5Zm3.23.261,1.615.131.115.695-1.615-.131Zm3.23.261,1.608.131.115.695-1.608-.131Zm3.223.254,1.615.131.115.7-1.615-.131Zm3.23.261,1.615.131.115.7-1.615-.131Zm3.23.261,1.608.131.115.7-1.615-.131Zm3.223.261,1.615.131.115.695-1.615-.131Zm3.23.261,1.615.124.115.7-1.615-.131Zm3.223.254,1.615.131.115.7-1.615-.131Zm3.23.261,1.615.131.115.7-1.615-.131Zm3.23.261,1.615.131.108.695-1.615-.131Zm3.223.261,1.615.131.115.695-1.615-.131Zm3.23.261,1.615.124.115.7-1.615-.131Zm3.23.254,1.608.131.115.7-1.608-.131Zm3.223.261,1.615.131.115.7-1.615-.131Zm3.23.261,1.615.131.115.695-1.615-.131Zm3.223.261,1.615.131.115.695-1.615-.131Zm3.23.255,1.615.131.115.7-1.615-.131Zm3.23.261,1.615.131.108.7-1.608-.131Zm3.223.261,1.615.131.115.695-1.615-.124Zm3.23.261,1.615.131.115.695-1.615-.131Zm3.23.261,1.615.131.108.695-1.615-.131Zm3.223.254,1.615.131.115.7L224,192.219Zm3.23.261,1.615.131.115.7-1.615-.131Zm3.23.261,1.608.131.115.695-1.615-.131Zm3.223.261,1.615.131.115.695L233.683,193Zm3.23.261,1.615.124.108.7-1.608-.131Zm3.223.254,1.615.131.115.7-1.615-.131Zm3.23.261,1.615.131.115.7-1.615-.131Zm3.23.261,1.608.131.115.695-1.608-.131Zm3.223.261,1.615.131.115.695-1.615-.131Zm3.23.254,1.615.131.115.7-1.615-.131Zm3.23.261,1.608.131.115.7-1.615-.131Zm3.223.261,1.615.131.115.695-1.615-.124Zm3.23.261,1.615.131.108.695-1.608-.131Zm3.223.261,1.615.131.115.695-1.615-.131Zm3.23.254,1.615.131.115.7-1.615-.131Zm3.23.261,1.615.131.108.7-1.615-.131Zm3.223.261,1.615.131.115.695-1.615-.124Zm3.23.261,1.615.131.115.695-1.615-.131Zm3.23.261,1.608.124.115.7-1.615-.131Zm3.223.255,1.615.131.115.7-1.615-.131Zm3.23.261,1.615.131.108.7-1.608-.131Zm3.223.261,1.615.131.115.695-1.615-.131Zm3.23.261,1.615.131.115.695L295,197.934Zm3.23.254,1.615.131.108.7-1.615-.131Zm3.223.261,1.615.131.115.7-1.615-.131Zm3.23.261,1.615.131.115.695-1.615-.124Zm3.23.261,1.608.131.115.695-1.615-.131Zm3.223.261,1.615.131.115.695-1.615-.131Zm3.23.254,1.615.131.108.7-1.608-.131Zm3.223.261,1.615.131.115.7-1.615-.131Zm3.23.261,1.615.131.115.695-1.615-.124Zm3.23.261,1.615.131.108.695-1.608-.131Zm3.223.261,1.615.124.115.7-1.615-.131Zm3.23.254,1.615.131.115.7L330.5,200.8Zm3.23.261,1.608.131.115.7-1.615-.131Zm3.223.261,1.615.131.115.695-1.615-.131Zm3.23.261,1.615.131.115.695-1.615-.131Zm3.23.254,1.608.131.115.7-1.615-.131Zm3.223.261,1.615.131.115.7-1.615-.131Zm3.23.261,1.615.131.108.695-1.608-.124Zm3.223.261,1.615.131.115.695-1.615-.131Zm3.23.261,1.615.131.115.695-1.615-.131Zm3.23.254,1.608.131.115.7-1.615-.131Zm3.223.261,1.615.131.115.7-1.615-.131Zm3.23.261,1.615.131.115.695L366,203.649Zm3.23.261,1.608.131.115.695-1.615-.131Zm3.223.261,1.615.124.115.7-1.615-.131Zm3.23.254,1.615.131.108.7-1.608-.131Zm3.223.261,1.615.131.115.7-1.615-.131Zm3.23.261,1.615.131.115.695-1.615-.131Zm3.23.261,1.608.131.115.695-1.608-.131Zm3.223.261,1.615.124.115.7-1.615-.131Zm3.23.254,1.615.131.115.7-1.615-.131Zm3.23.261,1.608.131.115.695-1.615-.124Zm3.223.261,1.615.131.115.695-1.615-.131Zm3.23.261,1.615.131.108.695-1.608-.131Zm3.223.254,1.615.131.115.7-1.615-.131Zm3.23.261,1.615.131.115.7-1.615-.131Zm3.23.261,1.608.131.115.695-1.608-.131Zm3.223.261,1.615.131.115.695-1.615-.131Zm3.23.261,1.615.124.115.7-1.615-.131Zm3.23.254,1.608.131.115.7-1.615-.131Zm3.223.261,1.615.131.115.695-1.615-.124Z" transform="translate(-17.34 -174.888)" fill="#249dbf"/>
        </g>
        <g id="Grupo_30694" data-name="Grupo 30694" transform="translate(75.11 347.72)">
          <path id="Trazado_77063" data-name="Trazado 77063" d="M16.691,175.366l1.615.131.115.695-1.615-.124Zm3.23.254,1.608.124.115.7-1.608-.124Zm3.223.254,1.615.124.115.7-1.615-.131Zm3.223.254,1.615.124.115.695-1.608-.124Zm3.23.248,1.615.131.115.695-1.615-.124Zm3.223.254,1.615.124.115.7-1.608-.124Zm3.23.254,1.615.124.115.7-1.615-.131Zm3.223.254,1.615.124.115.695-1.615-.124Zm3.23.248,1.608.131.122.695-1.615-.124Zm3.223.254,1.615.124.115.7-1.615-.124Zm3.23.254,1.608.124.122.7-1.615-.131Zm3.223.254,1.615.124.115.695-1.615-.124Zm3.23.248,1.608.131.115.695-1.608-.124Zm3.223.254,1.615.124.115.7-1.615-.131Zm3.223.254,1.615.124.115.7-1.608-.131Zm3.23.254,1.615.124.115.695-1.615-.124Zm3.223.248,1.615.131.115.695-1.608-.124Zm3.23.254,1.608.124.122.7-1.615-.131Zm3.223.254,1.615.124.115.7-1.615-.131Zm3.23.248,1.608.131.122.695-1.615-.124Zm3.223.255,1.615.131.115.695-1.615-.124Zm3.223.254,1.615.124.115.7-1.608-.131Zm3.23.254,1.615.124.115.7-1.615-.131Zm3.223.248,1.615.131.115.695-1.608-.124Zm3.23.255,1.615.131.115.695-1.615-.124Zm3.223.254,1.615.124.115.7-1.608-.124Zm3.23.254,1.615.124.115.7-1.615-.131Zm3.223.248,1.615.131.115.695-1.615-.124Zm3.23.254,1.608.131.122.695-1.615-.124Zm3.223.254,1.615.124.115.7-1.615-.131Zm3.23.254,1.608.124.115.7-1.608-.131Zm3.223.248,1.615.131.115.695-1.615-.124Zm3.23.254,1.608.131.115.695-1.608-.124Zm3.223.254,1.615.124.115.7-1.615-.131Zm3.223.254,1.615.124.115.7-1.608-.131Zm3.23.248,1.615.131.115.695-1.615-.124Zm3.223.254,1.615.131.115.695-1.608-.124Zm3.23.254,1.608.124.122.7-1.615-.131Zm3.223.254,1.615.124.115.7-1.615-.131Zm3.23.248,1.608.131.122.695-1.615-.124Zm3.223.254,1.615.131.115.695-1.615-.124Zm3.223.254,1.615.124.115.7-1.608-.131Zm3.23.254,1.615.124.115.7-1.615-.131Zm3.223.248,1.615.131.115.695-1.608-.124Zm3.23.255,1.615.131.115.695-1.615-.124Zm3.223.254,1.615.124.115.7-1.608-.131Zm3.23.254,1.608.124.122.7-1.615-.131Zm3.223.248,1.615.131.115.695-1.615-.124Zm3.23.255,1.608.131.122.695-1.615-.124Zm3.223.254,1.615.124.115.7-1.615-.131Zm3.23.254,1.608.124.115.7-1.608-.131Zm3.223.248,1.615.131.115.695-1.615-.124Zm3.23.254,1.608.131.115.695-1.608-.124Zm3.223.254,1.615.124.115.7-1.615-.131Zm3.223.254,1.615.124.115.7-1.608-.131Zm3.23.248,1.615.131.115.695-1.615-.124Zm3.223.254,1.615.124.115.7-1.615-.124Zm3.23.255,1.608.124.122.7-1.615-.131Zm3.223.254,1.615.124.115.7-1.615-.131Zm3.23.248,1.608.131.122.695-1.615-.124Zm3.223.254,1.615.124.115.7-1.615-.124Zm3.23.254,1.608.124.115.7-1.608-.131Zm3.223.254,1.615.124.115.7-1.615-.131Zm3.223.248,1.615.131.115.695-1.608-.124Zm3.23.254,1.615.124.115.7-1.615-.124Zm3.223.254,1.615.124.115.7-1.608-.131Zm3.23.255,1.608.124.122.695-1.615-.124Zm3.223.248,1.615.131.115.695L232.953,193Zm3.23.254,1.608.124.122.7-1.615-.124Zm3.223.254,1.615.124.115.7-1.615-.131Zm3.23.254,1.608.124.115.695-1.608-.124Zm3.223.248,1.615.131.115.695-1.615-.124Zm3.23.254,1.608.124.115.7-1.608-.124Zm3.223.254,1.615.124.115.7-1.615-.131Zm3.223.254,1.615.124.115.7-1.608-.131Zm3.23.248,1.615.131.115.695-1.615-.124Zm3.223.255,1.615.124.115.7-1.615-.124Zm3.23.254,1.608.124.122.7-1.615-.131Zm3.223.254,1.615.124.115.695-1.615-.124Zm3.23.248,1.608.131.122.695-1.615-.124Zm3.223.254,1.615.124.115.7-1.615-.124Zm3.23.255,1.608.124.115.7-1.608-.131Zm3.223.255,1.615.124.115.695-1.615-.124Zm3.223.248,1.615.131.115.695-1.608-.124Zm3.23.254,1.615.124.115.7L287.8,197.3Zm3.223.254,1.615.124.115.7-1.608-.131Zm3.23.254,1.615.124.115.695-1.615-.124Zm3.223.248,1.615.131.115.695-1.615-.124Zm3.23.254,1.615.124.115.7-1.615-.124Zm3.223.254,1.615.124.115.7-1.615-.131Zm3.23.254,1.608.124.122.695-1.615-.124Zm3.223.248,1.615.131.115.695-1.615-.124Zm3.23.254,1.608.124.115.7-1.608-.124Zm3.223.254,1.615.124.115.7-1.615-.131Zm3.23.254,1.608.124.115.695-1.608-.124Zm3.223.248,1.615.131.115.695-1.615-.124Zm3.223.254,1.615.124.115.7-1.608-.131Zm3.23.255,1.615.124.115.7-1.615-.131Zm3.223.254,1.615.124.115.695-1.615-.124Zm3.23.248,1.608.131.122.695-1.615-.124Zm3.223.254,1.615.124.115.7-1.615-.124Zm3.23.254,1.608.124.122.7-1.615-.131Zm3.223.248,1.615.131.115.695-1.615-.124Zm3.23.254,1.608.131.115.695L349.1,202.1Zm3.223.255,1.615.124.115.7-1.615-.124Zm3.223.254,1.615.124.115.7-1.608-.131Zm3.23.254,1.615.124.115.695-1.615-.124Zm3.223.248,1.615.131.115.695L362,203.109Zm3.23.254,1.615.124.115.7-1.615-.131Zm3.223.254,1.615.124.115.7-1.615-.131Zm3.23.254,1.608.124.122.695-1.615-.124Zm3.223.248,1.615.131.115.695-1.615-.124Zm3.23.254,1.608.124.122.7-1.615-.124Zm3.223.255,1.615.124.115.7-1.615-.131Zm3.23.248,1.608.131.115.695-1.608-.124Zm3.223.254,1.615.131.115.695-1.615-.124Zm3.223.254,1.615.124.115.7-1.608-.124Zm3.23.254,1.615.124.115.7-1.615-.131Zm3.223.248,1.615.131.115.695-1.608-.124Zm3.23.254,1.615.131.115.695-1.615-.124Zm3.223.255,1.615.124.115.7-1.615-.131Zm3.23.254,1.608.124.122.7-1.615-.131Zm3.223.248,1.615.131.115.695-1.615-.124Zm3.23.254,1.608.131.122.695-1.615-.124Zm3.223.254,1.615.124.115.7-1.615-.124Zm3.23.254,1.608.124.115.7-1.608-.131Zm3.223.248,1.615.131.115.695-1.615-.124Zm3.223.255,1.615.131.115.695-1.608-.124Zm3.23.254,1.615.124.115.7-1.615-.131Z" transform="translate(-16.691 -175.366)" fill="#249dbf"/>
        </g>
        <g id="Grupo_30695" data-name="Grupo 30695" transform="translate(185.871)">
          <path id="Trazado_77064" data-name="Trazado 77064" d="M33.083,125.26l1.313-.454L324.12,661.936l-1.314.454Z" transform="translate(-33.083 -124.806)" fill="#ec6f8d"/>
        </g>
        <g id="Grupo_30696" data-name="Grupo 30696" transform="translate(235.992 420.228)">
          <path id="Trazado_77065" data-name="Trazado 77065" d="M40.5,247.917,217.58,185.909l.347.636L40.848,248.554Z" transform="translate(-40.501 -185.909)" fill="#ec6f8d"/>
        </g>
        <g id="Grupo_30697" data-name="Grupo 30697" transform="translate(160.639 317.94)">
          <path id="Trazado_77066" data-name="Trazado 77066" d="M29.349,245.773l4.237-7.971.676.364-4.237,7.971Zm8.48-15.942,4.237-7.971.676.365L38.5,230.2ZM46.3,213.889l4.237-7.971.676.364-4.237,7.971Zm8.473-15.942,4.237-7.971.676.358L55.451,198.3Zm8.473-15.942,4.243-7.971.676.358-4.243,7.971Zm9.737-10.179.419-.791,6.764,3.617-.426.8Zm13.521,7.242.419-.8,6.764,3.624-.426.791Zm13.514,7.242.426-.8,6.764,3.618-.426.8Zm13.521,7.235.426-.791,6.764,3.617-.426.8Zm13.521,7.242.426-.8,6.764,3.624-.426.791Zm13.521,7.242.426-.8,6.764,3.618-.426.8Zm13.521,7.235.426-.791,6.764,3.618-.426.8Zm13.521,7.242.426-.8,6.764,3.624-.426.791Zm13.521,7.242.426-.8,6.764,3.618-.426.8Zm13.521,7.235.426-.791,6.764,3.618-.426.8Zm13.521,7.242.426-.8,6.764,3.624-.426.791Zm13.521,7.242.426-.8,6.757,3.618-.419.8Zm13.521,7.235.426-.791,6.757,3.618-.419.8Zm13.521,7.242.426-.8,6.757,3.624-.419.791Zm13.521,7.242.426-.8,6.757,3.617-.419.8Zm13.521,7.235.426-.791,6.757,3.617-.419.8Zm13.521,7.242.426-.8,6.757,3.624-.419.791Zm13.521,7.242.426-.8,6.757,3.618-.419.8Zm13.521,7.235.426-.791,6.757,3.618-.419.8Zm13.521,7.242.426-.8,6.757,3.624-.419.791Zm13.521,7.242.426-.8,6.757,3.618-.419.8Zm13.521,7.235.426-.791,6.757,3.617-.419.8Z" transform="translate(-29.349 -171.036)" fill="#ec6f8d"/>
        </g>
        <g id="Grupo_30698" data-name="Grupo 30698" transform="translate(45.088 176.761)">
          <path id="Trazado_77067" data-name="Trazado 77067" d="M12.248,151.632l.647-1.124L508.346,431.472,507.7,432.6Z" transform="translate(-12.248 -150.508)" fill="#ec6f8d"/>
        </g>
        <g id="Grupo_30699" data-name="Grupo 30699" transform="translate(79.399 131.571)">
          <path id="Trazado_77068" data-name="Trazado 77068" d="M17.326,144.5l.315-.567L524.348,424.169l-.315.567Z" transform="translate(-17.326 -143.937)" fill="#ec6f8d"/>
        </g>
        <g id="Grupo_30700" data-name="Grupo 30700" transform="translate(70.428 148.446)">
          <path id="Trazado_77069" data-name="Trazado 77069" d="M16,146.957l.315-.567L523.021,426.623l-.315.567Z" transform="translate(-15.998 -146.391)" fill="#ec6f8d"/>
        </g>
        <g id="Grupo_30701" data-name="Grupo 30701" transform="translate(73.697 34.267)">
          <path id="Trazado_77070" data-name="Trazado 77070" d="M16.482,130.357l.312-.568L753.086,534.318l-.312.568Z" transform="translate(-16.482 -129.789)" fill="#ec6f8d"/>
        </g>
      </g>
    </g>
  </g>
</svg>
